 0
SECTION
 2
ENTITIES
  0
POLYLINE
 8
Groupe#2
 66
     1
10
0.0
 20
 0.0
 30
0.0
70
    64
71
36
72
   1
  0
VERTEX
  8
Groupe#2
10
211.343145750508
20
221.0
30
0.0
 70
     192
  0
VERTEX
  8
Groupe#2
10
9.6568542494924
20
217.0
30
0.0
 70
     192
  0
VERTEX
  8
Groupe#2
10
9.65685424949239
20
221.0
30
0.0
 70
     192
  0
VERTEX
  8
Groupe#2
10
211.535898384862
20
215.535898384862
30
0.0
 70
     192
  0
VERTEX
  8
Groupe#2
10
211.343145750508
20
4.00000000000003
30
0.0
 70
     192
  0
VERTEX
  8
Groupe#2
10
211.343145750508
20
217.0
30
0.0
 70
     192
  0
VERTEX
  8
Groupe#2
10
211.535898384862
20
5.46410161513779
30
0.0
 70
     192
  0
VERTEX
  8
Groupe#2
10
212.101020514434
20
214.171572875254
30
0.0
 70
     192
  0
VERTEX
  8
Groupe#2
10
212.101020514434
20
6.82842712474624
30
0.0
 70
     192
  0
VERTEX
  8
Groupe#2
10
213.0
20
213.0
30
0.0
 70
     192
  0
VERTEX
  8
Groupe#2
10
213.0
20
8.00000000000001
30
0.0
 70
     192
  0
VERTEX
  8
Groupe#2
10
214.171572875254
20
212.101020514434
30
0.0
 70
     192
  0
VERTEX
  8
Groupe#2
10
214.171572875254
20
8.89897948556639
30
0.0
 70
     192
  0
VERTEX
  8
Groupe#2
10
215.535898384862
20
211.535898384862
30
0.0
 70
     192
  0
VERTEX
  8
Groupe#2
10
215.535898384862
20
9.46410161513779
30
0.0
 70
     192
  0
VERTEX
  8
Groupe#2
10
217.0
20
211.343145750508
30
0.0
 70
     192
  0
VERTEX
  8
Groupe#2
10
217.0
20
9.65685424949241
30
0.0
 70
     192
  0
VERTEX
  8
Groupe#2
10
221.0
20
211.343145750508
30
0.0
 70
     192
  0
VERTEX
  8
Groupe#2
10
221.0
20
9.65685424949241
30
0.0
 70
     192
  0
VERTEX
  8
Groupe#2
10
4.00000000000004
20
211.343145750508
30
0.0
 70
     192
  0
VERTEX
  8
Groupe#2
10
0.0
20
9.65685424949238
30
0.0
 70
     192
  0
VERTEX
  8
Groupe#2
10
0.0
20
211.343145750508
30
0.0
 70
     192
  0
VERTEX
  8
Groupe#2
10
4.0
20
9.65685424949239
30
0.0
 70
     192
  0
VERTEX
  8
Groupe#2
10
5.46410161513775
20
9.46410161513776
30
0.0
 70
     192
  0
VERTEX
  8
Groupe#2
10
5.4641016151378
20
211.535898384862
30
0.0
 70
     192
  0
VERTEX
  8
Groupe#2
10
6.82842712474619
20
8.89897948556636
30
0.0
 70
     192
  0
VERTEX
  8
Groupe#2
10
6.82842712474622
20
212.101020514434
30
0.0
 70
     192
  0
VERTEX
  8
Groupe#2
10
8.0
20
8.00000000000001
30
0.0
 70
     192
  0
VERTEX
  8
Groupe#2
10
8.0
20
213.0
30
0.0
 70
     192
  0
VERTEX
  8
Groupe#2
10
8.89897948556638
20
214.171572875254
30
0.0
 70
     192
  0
VERTEX
  8
Groupe#2
10
8.89897948556635
20
6.82842712474619
30
0.0
 70
     192
  0
VERTEX
  8
Groupe#2
10
9.46410161513775
20
5.46410161513775
30
0.0
 70
     192
  0
VERTEX
  8
Groupe#2
10
9.46410161513778
20
215.535898384862
30
0.0
 70
     192
  0
VERTEX
  8
Groupe#2
10
9.65685424949238
20
3.99999999999999
30
0.0
 70
     192
  0
VERTEX
  8
Groupe#2
10
9.65685424949238
20
0.0
30
0.0
 70
     192
  0
VERTEX
  8
Groupe#2
10
211.343145750508
20
0.0
30
0.0
 70
     192
  0
VERTEX
  8
Groupe#2
10
0.0
 20
 0.0
 30
0.0
 70
     128
 71
-1
 72
2
 73
3
  0
VERTEX
  8
Groupe#2
10
0.0
 20
 0.0
 30
0.0
 70
     128
 71
-4
 72
-5
 73
6
  0
VERTEX
  8
Groupe#2
10
0.0
 20
 0.0
 30
0.0
 70
     128
 71
-5
 72
-4
 73
7
  0
VERTEX
  8
Groupe#2
10
0.0
 20
 0.0
 30
0.0
 70
     128
 71
-7
 72
4
 73
-8
  0
VERTEX
  8
Groupe#2
10
0.0
 20
 0.0
 30
0.0
 70
     128
 71
-7
 72
-8
 73
9
  0
VERTEX
  8
Groupe#2
10
0.0
 20
 0.0
 30
0.0
 70
     128
 71
-9
 72
8
 73
-10
  0
VERTEX
  8
Groupe#2
10
0.0
 20
 0.0
 30
0.0
 70
     128
 71
-9
 72
-10
 73
11
  0
VERTEX
  8
Groupe#2
10
0.0
 20
 0.0
 30
0.0
 70
     128
 71
-11
 72
10
 73
-12
  0
VERTEX
  8
Groupe#2
10
0.0
 20
 0.0
 30
0.0
 70
     128
 71
-11
 72
-12
 73
13
  0
VERTEX
  8
Groupe#2
10
0.0
 20
 0.0
 30
0.0
 70
     128
 71
-13
 72
12
 73
-14
  0
VERTEX
  8
Groupe#2
10
0.0
 20
 0.0
 30
0.0
 70
     128
 71
-13
 72
-14
 73
15
  0
VERTEX
  8
Groupe#2
10
0.0
 20
 0.0
 30
0.0
 70
     128
 71
-15
 72
14
 73
-16
  0
VERTEX
  8
Groupe#2
10
0.0
 20
 0.0
 30
0.0
 70
     128
 71
-15
 72
-16
 73
17
  0
VERTEX
  8
Groupe#2
10
0.0
 20
 0.0
 30
0.0
 70
     128
 71
-17
 72
16
 73
-18
  0
VERTEX
  8
Groupe#2
10
0.0
 20
 0.0
 30
0.0
 70
     128
 71
-17
 72
18
 73
19
  0
VERTEX
  8
Groupe#2
10
0.0
 20
 0.0
 30
0.0
 70
     128
 71
-20
 72
21
 73
22
  0
VERTEX
  8
Groupe#2
10
0.0
 20
 0.0
 30
0.0
 70
     128
 71
-21
 72
-20
 73
23
  0
VERTEX
  8
Groupe#2
10
0.0
 20
 0.0
 30
0.0
 70
     128
 71
-23
 72
-20
 73
24
  0
VERTEX
  8
Groupe#2
10
0.0
 20
 0.0
 30
0.0
 70
     128
 71
-24
 72
20
 73
-25
  0
VERTEX
  8
Groupe#2
10
0.0
 20
 0.0
 30
0.0
 70
     128
 71
-24
 72
-25
 73
26
  0
VERTEX
  8
Groupe#2
10
0.0
 20
 0.0
 30
0.0
 70
     128
 71
-26
 72
25
 73
-27
  0
VERTEX
  8
Groupe#2
10
0.0
 20
 0.0
 30
0.0
 70
     128
 71
-26
 72
-27
 73
28
  0
VERTEX
  8
Groupe#2
10
0.0
 20
 0.0
 30
0.0
 70
     128
 71
-28
 72
27
 73
-29
  0
VERTEX
  8
Groupe#2
10
0.0
 20
 0.0
 30
0.0
 70
     128
 71
-28
 72
29
 73
-30
  0
VERTEX
  8
Groupe#2
10
0.0
 20
 0.0
 30
0.0
 70
     128
 71
-28
 72
-30
 73
31
  0
VERTEX
  8
Groupe#2
10
0.0
 20
 0.0
 30
0.0
 70
     128
 71
-31
 72
-30
 73
32
  0
VERTEX
  8
Groupe#2
10
0.0
 20
 0.0
 30
0.0
 70
     128
 71
-32
 72
30
 73
-33
  0
VERTEX
  8
Groupe#2
10
0.0
 20
 0.0
 30
0.0
 70
     128
 71
-32
 72
-33
 73
34
  0
VERTEX
  8
Groupe#2
10
0.0
 20
 0.0
 30
0.0
 70
     128
 71
-34
 72
33
 73
-2
  0
VERTEX
  8
Groupe#2
10
0.0
 20
 0.0
 30
0.0
 70
     128
 71
-34
 72
-2
 73
35
  0
VERTEX
  8
Groupe#2
10
0.0
 20
 0.0
 30
0.0
 70
     128
 71
-35
 72
-2
 73
36
  0
VERTEX
  8
Groupe#2
10
0.0
 20
 0.0
 30
0.0
 70
     128
 71
-36
 72
-2
 73
-6
  0
VERTEX
  8
Groupe#2
10
0.0
 20
 0.0
 30
0.0
 70
     128
 71
-6
 72
-2
 73
1
  0
VERTEX
  8
Groupe#2
10
0.0
 20
 0.0
 30
0.0
 70
     128
 71
-36
 72
-6
 73
5
  0
SEQEND
  0
POLYLINE
 8
Groupe#2
 66
     1
10
0.0
 20
 0.0
 30
0.0
70
    64
71
36
72
   1
  0
VERTEX
  8
Groupe#2
10
211.343145750508
20
0.0
30
3.0
 70
     192
  0
VERTEX
  8
Groupe#2
10
9.65685424949238
20
3.99999999999999
30
3.0
 70
     192
  0
VERTEX
  8
Groupe#2
10
9.65685424949238
20
0.0
30
3.0
 70
     192
  0
VERTEX
  8
Groupe#2
10
9.6568542494924
20
217.0
30
3.0
 70
     192
  0
VERTEX
  8
Groupe#2
10
211.343145750508
20
217.0
30
3.0
 70
     192
  0
VERTEX
  8
Groupe#2
10
211.343145750508
20
4.00000000000003
30
3.0
 70
     192
  0
VERTEX
  8
Groupe#2
10
211.535898384862
20
215.535898384862
30
3.0
 70
     192
  0
VERTEX
  8
Groupe#2
10
211.535898384862
20
5.46410161513779
30
3.0
 70
     192
  0
VERTEX
  8
Groupe#2
10
212.101020514434
20
6.82842712474624
30
3.0
 70
     192
  0
VERTEX
  8
Groupe#2
10
212.101020514434
20
214.171572875254
30
3.0
 70
     192
  0
VERTEX
  8
Groupe#2
10
213.0
20
8.00000000000001
30
3.0
 70
     192
  0
VERTEX
  8
Groupe#2
10
213.0
20
213.0
30
3.0
 70
     192
  0
VERTEX
  8
Groupe#2
10
214.171572875254
20
8.89897948556639
30
3.0
 70
     192
  0
VERTEX
  8
Groupe#2
10
214.171572875254
20
212.101020514434
30
3.0
 70
     192
  0
VERTEX
  8
Groupe#2
10
215.535898384862
20
9.46410161513779
30
3.0
 70
     192
  0
VERTEX
  8
Groupe#2
10
215.535898384862
20
211.535898384862
30
3.0
 70
     192
  0
VERTEX
  8
Groupe#2
10
217.0
20
211.343145750508
30
3.0
 70
     192
  0
VERTEX
  8
Groupe#2
10
217.0
20
9.65685424949241
30
3.0
 70
     192
  0
VERTEX
  8
Groupe#2
10
221.0
20
9.65685424949241
30
3.0
 70
     192
  0
VERTEX
  8
Groupe#2
10
221.0
20
211.343145750508
30
3.0
 70
     192
  0
VERTEX
  8
Groupe#2
10
211.343145750508
20
221.0
30
3.0
 70
     192
  0
VERTEX
  8
Groupe#2
10
9.65685424949239
20
221.0
30
3.0
 70
     192
  0
VERTEX
  8
Groupe#2
10
4.0
20
9.65685424949239
30
3.0
 70
     192
  0
VERTEX
  8
Groupe#2
10
0.0
20
211.343145750508
30
3.0
 70
     192
  0
VERTEX
  8
Groupe#2
10
0.0
20
9.65685424949238
30
3.0
 70
     192
  0
VERTEX
  8
Groupe#2
10
4.00000000000004
20
211.343145750508
30
3.0
 70
     192
  0
VERTEX
  8
Groupe#2
10
5.46410161513775
20
9.46410161513776
30
3.0
 70
     192
  0
VERTEX
  8
Groupe#2
10
5.4641016151378
20
211.535898384862
30
3.0
 70
     192
  0
VERTEX
  8
Groupe#2
10
6.82842712474619
20
8.89897948556636
30
3.0
 70
     192
  0
VERTEX
  8
Groupe#2
10
6.82842712474622
20
212.101020514434
30
3.0
 70
     192
  0
VERTEX
  8
Groupe#2
10
8.0
20
8.00000000000001
30
3.0
 70
     192
  0
VERTEX
  8
Groupe#2
10
8.0
20
213.0
30
3.0
 70
     192
  0
VERTEX
  8
Groupe#2
10
8.89897948556635
20
6.82842712474619
30
3.0
 70
     192
  0
VERTEX
  8
Groupe#2
10
8.89897948556638
20
214.171572875254
30
3.0
 70
     192
  0
VERTEX
  8
Groupe#2
10
9.46410161513775
20
5.46410161513775
30
3.0
 70
     192
  0
VERTEX
  8
Groupe#2
10
9.46410161513778
20
215.535898384862
30
3.0
 70
     192
  0
VERTEX
  8
Groupe#2
10
0.0
 20
 0.0
 30
0.0
 70
     128
 71
-1
 72
2
 73
3
  0
VERTEX
  8
Groupe#2
10
0.0
 20
 0.0
 30
0.0
 70
     128
 71
-2
 72
-1
 73
-4
  0
VERTEX
  8
Groupe#2
10
0.0
 20
 0.0
 30
0.0
 70
     128
 71
-4
 72
-1
 73
-5
  0
VERTEX
  8
Groupe#2
10
0.0
 20
 0.0
 30
0.0
 70
     128
 71
-5
 72
1
 73
-6
  0
VERTEX
  8
Groupe#2
10
0.0
 20
 0.0
 30
0.0
 70
     128
 71
-5
 72
-6
 73
7
  0
VERTEX
  8
Groupe#2
10
0.0
 20
 0.0
 30
0.0
 70
     128
 71
-7
 72
6
 73
-8
  0
VERTEX
  8
Groupe#2
10
0.0
 20
 0.0
 30
0.0
 70
     128
 71
-7
 72
8
 73
-9
  0
VERTEX
  8
Groupe#2
10
0.0
 20
 0.0
 30
0.0
 70
     128
 71
-7
 72
-9
 73
10
  0
VERTEX
  8
Groupe#2
10
0.0
 20
 0.0
 30
0.0
 70
     128
 71
-10
 72
9
 73
-11
  0
VERTEX
  8
Groupe#2
10
0.0
 20
 0.0
 30
0.0
 70
     128
 71
-10
 72
-11
 73
12
  0
VERTEX
  8
Groupe#2
10
0.0
 20
 0.0
 30
0.0
 70
     128
 71
-12
 72
11
 73
-13
  0
VERTEX
  8
Groupe#2
10
0.0
 20
 0.0
 30
0.0
 70
     128
 71
-12
 72
-13
 73
14
  0
VERTEX
  8
Groupe#2
10
0.0
 20
 0.0
 30
0.0
 70
     128
 71
-14
 72
13
 73
-15
  0
VERTEX
  8
Groupe#2
10
0.0
 20
 0.0
 30
0.0
 70
     128
 71
-14
 72
-15
 73
16
  0
VERTEX
  8
Groupe#2
10
0.0
 20
 0.0
 30
0.0
 70
     128
 71
-16
 72
-15
 73
17
  0
VERTEX
  8
Groupe#2
10
0.0
 20
 0.0
 30
0.0
 70
     128
 71
-17
 72
15
 73
-18
  0
VERTEX
  8
Groupe#2
10
0.0
 20
 0.0
 30
0.0
 70
     128
 71
-17
 72
18
 73
-19
  0
VERTEX
  8
Groupe#2
10
0.0
 20
 0.0
 30
0.0
 70
     128
 71
-17
 72
19
 73
20
  0
VERTEX
  8
Groupe#2
10
0.0
 20
 0.0
 30
0.0
 70
     128
 71
-4
 72
21
 73
22
  0
VERTEX
  8
Groupe#2
10
0.0
 20
 0.0
 30
0.0
 70
     128
 71
-21
 72
-4
 73
5
  0
VERTEX
  8
Groupe#2
10
0.0
 20
 0.0
 30
0.0
 70
     128
 71
-23
 72
24
 73
25
  0
VERTEX
  8
Groupe#2
10
0.0
 20
 0.0
 30
0.0
 70
     128
 71
-24
 72
-23
 73
26
  0
VERTEX
  8
Groupe#2
10
0.0
 20
 0.0
 30
0.0
 70
     128
 71
-26
 72
23
 73
-27
  0
VERTEX
  8
Groupe#2
10
0.0
 20
 0.0
 30
0.0
 70
     128
 71
-26
 72
-27
 73
28
  0
VERTEX
  8
Groupe#2
10
0.0
 20
 0.0
 30
0.0
 70
     128
 71
-28
 72
27
 73
-29
  0
VERTEX
  8
Groupe#2
10
0.0
 20
 0.0
 30
0.0
 70
     128
 71
-28
 72
-29
 73
30
  0
VERTEX
  8
Groupe#2
10
0.0
 20
 0.0
 30
0.0
 70
     128
 71
-30
 72
29
 73
-31
  0
VERTEX
  8
Groupe#2
10
0.0
 20
 0.0
 30
0.0
 70
     128
 71
-30
 72
-31
 73
32
  0
VERTEX
  8
Groupe#2
10
0.0
 20
 0.0
 30
0.0
 70
     128
 71
-32
 72
31
 73
-33
  0
VERTEX
  8
Groupe#2
10
0.0
 20
 0.0
 30
0.0
 70
     128
 71
-32
 72
-33
 73
34
  0
VERTEX
  8
Groupe#2
10
0.0
 20
 0.0
 30
0.0
 70
     128
 71
-34
 72
33
 73
-35
  0
VERTEX
  8
Groupe#2
10
0.0
 20
 0.0
 30
0.0
 70
     128
 71
-34
 72
-35
 73
36
  0
VERTEX
  8
Groupe#2
10
0.0
 20
 0.0
 30
0.0
 70
     128
 71
-36
 72
35
 73
-2
  0
VERTEX
  8
Groupe#2
10
0.0
 20
 0.0
 30
0.0
 70
     128
 71
-36
 72
-2
 73
4
  0
SEQEND
  0
POLYLINE
 8
Groupe#2
 66
     1
10
0.0
 20
 0.0
 30
0.0
70
    64
71
4
72
   1
  0
VERTEX
  8
Groupe#2
10
8.0
20
8.00000000000001
30
3.0
 70
     192
  0
VERTEX
  8
Groupe#2
10
8.89897948556635
20
6.82842712474619
30
0.0
 70
     192
  0
VERTEX
  8
Groupe#2
10
8.89897948556635
20
6.82842712474619
30
3.0
 70
     192
  0
VERTEX
  8
Groupe#2
10
8.0
20
8.00000000000001
30
0.0
 70
     192
  0
VERTEX
  8
Groupe#2
10
0.0
 20
 0.0
 30
0.0
 70
     128
 71
-1
 72
2
 73
3
  0
VERTEX
  8
Groupe#2
10
0.0
 20
 0.0
 30
0.0
 70
     128
 71
-2
 72
1
 73
4
  0
SEQEND
  0
POLYLINE
 8
Groupe#2
 66
     1
10
0.0
 20
 0.0
 30
0.0
70
    64
71
4
72
   1
  0
VERTEX
  8
Groupe#2
10
8.0
20
8.00000000000001
30
3.0
 70
     192
  0
VERTEX
  8
Groupe#2
10
6.82842712474619
20
8.89897948556636
30
0.0
 70
     192
  0
VERTEX
  8
Groupe#2
10
8.0
20
8.00000000000001
30
0.0
 70
     192
  0
VERTEX
  8
Groupe#2
10
6.82842712474619
20
8.89897948556636
30
3.0
 70
     192
  0
VERTEX
  8
Groupe#2
10
0.0
 20
 0.0
 30
0.0
 70
     128
 71
-1
 72
2
 73
3
  0
VERTEX
  8
Groupe#2
10
0.0
 20
 0.0
 30
0.0
 70
     128
 71
-2
 72
1
 73
4
  0
SEQEND
  0
POLYLINE
 8
Groupe#2
 66
     1
10
0.0
 20
 0.0
 30
0.0
70
    64
71
4
72
   1
  0
VERTEX
  8
Groupe#2
10
6.82842712474619
20
8.89897948556636
30
3.0
 70
     192
  0
VERTEX
  8
Groupe#2
10
5.46410161513775
20
9.46410161513776
30
0.0
 70
     192
  0
VERTEX
  8
Groupe#2
10
6.82842712474619
20
8.89897948556636
30
0.0
 70
     192
  0
VERTEX
  8
Groupe#2
10
5.46410161513775
20
9.46410161513776
30
3.0
 70
     192
  0
VERTEX
  8
Groupe#2
10
0.0
 20
 0.0
 30
0.0
 70
     128
 71
-1
 72
2
 73
3
  0
VERTEX
  8
Groupe#2
10
0.0
 20
 0.0
 30
0.0
 70
     128
 71
-2
 72
1
 73
4
  0
SEQEND
  0
POLYLINE
 8
Groupe#2
 66
     1
10
0.0
 20
 0.0
 30
0.0
70
    64
71
4
72
   1
  0
VERTEX
  8
Groupe#2
10
5.46410161513775
20
9.46410161513776
30
3.0
 70
     192
  0
VERTEX
  8
Groupe#2
10
4.0
20
9.65685424949239
30
0.0
 70
     192
  0
VERTEX
  8
Groupe#2
10
5.46410161513775
20
9.46410161513776
30
0.0
 70
     192
  0
VERTEX
  8
Groupe#2
10
4.0
20
9.65685424949239
30
3.0
 70
     192
  0
VERTEX
  8
Groupe#2
10
0.0
 20
 0.0
 30
0.0
 70
     128
 71
-1
 72
2
 73
3
  0
VERTEX
  8
Groupe#2
10
0.0
 20
 0.0
 30
0.0
 70
     128
 71
-2
 72
1
 73
4
  0
SEQEND
  0
POLYLINE
 8
Groupe#2
 66
     1
10
0.0
 20
 0.0
 30
0.0
70
    64
71
4
72
   1
  0
VERTEX
  8
Groupe#2
10
4.0
20
9.65685424949239
30
3.0
 70
     192
  0
VERTEX
  8
Groupe#2
10
0.0
20
9.65685424949238
30
0.0
 70
     192
  0
VERTEX
  8
Groupe#2
10
4.0
20
9.65685424949239
30
0.0
 70
     192
  0
VERTEX
  8
Groupe#2
10
0.0
20
9.65685424949238
30
3.0
 70
     192
  0
VERTEX
  8
Groupe#2
10
0.0
 20
 0.0
 30
0.0
 70
     128
 71
-1
 72
2
 73
3
  0
VERTEX
  8
Groupe#2
10
0.0
 20
 0.0
 30
0.0
 70
     128
 71
-2
 72
1
 73
4
  0
SEQEND
  0
POLYLINE
 8
Groupe#2
 66
     1
10
0.0
 20
 0.0
 30
0.0
70
    64
71
4
72
   1
  0
VERTEX
  8
Groupe#2
10
0.0
20
211.343145750508
30
3.0
 70
     192
  0
VERTEX
  8
Groupe#2
10
0.0
20
9.65685424949238
30
0.0
 70
     192
  0
VERTEX
  8
Groupe#2
10
0.0
20
9.65685424949238
30
3.0
 70
     192
  0
VERTEX
  8
Groupe#2
10
0.0
20
211.343145750508
30
0.0
 70
     192
  0
VERTEX
  8
Groupe#2
10
0.0
 20
 0.0
 30
0.0
 70
     128
 71
-1
 72
2
 73
3
  0
VERTEX
  8
Groupe#2
10
0.0
 20
 0.0
 30
0.0
 70
     128
 71
-2
 72
1
 73
4
  0
SEQEND
  0
POLYLINE
 8
Groupe#2
 66
     1
10
0.0
 20
 0.0
 30
0.0
70
    64
71
4
72
   1
  0
VERTEX
  8
Groupe#2
10
0.0
20
211.343145750508
30
3.0
 70
     192
  0
VERTEX
  8
Groupe#2
10
4.00000000000004
20
211.343145750508
30
0.0
 70
     192
  0
VERTEX
  8
Groupe#2
10
0.0
20
211.343145750508
30
0.0
 70
     192
  0
VERTEX
  8
Groupe#2
10
4.00000000000004
20
211.343145750508
30
3.0
 70
     192
  0
VERTEX
  8
Groupe#2
10
0.0
 20
 0.0
 30
0.0
 70
     128
 71
-1
 72
2
 73
3
  0
VERTEX
  8
Groupe#2
10
0.0
 20
 0.0
 30
0.0
 70
     128
 71
-2
 72
1
 73
4
  0
SEQEND
  0
POLYLINE
 8
Groupe#2
 66
     1
10
0.0
 20
 0.0
 30
0.0
70
    64
71
4
72
   1
  0
VERTEX
  8
Groupe#2
10
4.00000000000004
20
211.343145750508
30
3.0
 70
     192
  0
VERTEX
  8
Groupe#2
10
5.4641016151378
20
211.535898384862
30
0.0
 70
     192
  0
VERTEX
  8
Groupe#2
10
4.00000000000004
20
211.343145750508
30
0.0
 70
     192
  0
VERTEX
  8
Groupe#2
10
5.4641016151378
20
211.535898384862
30
3.0
 70
     192
  0
VERTEX
  8
Groupe#2
10
0.0
 20
 0.0
 30
0.0
 70
     128
 71
-1
 72
2
 73
3
  0
VERTEX
  8
Groupe#2
10
0.0
 20
 0.0
 30
0.0
 70
     128
 71
-2
 72
1
 73
4
  0
SEQEND
  0
POLYLINE
 8
Groupe#2
 66
     1
10
0.0
 20
 0.0
 30
0.0
70
    64
71
4
72
   1
  0
VERTEX
  8
Groupe#2
10
5.4641016151378
20
211.535898384862
30
3.0
 70
     192
  0
VERTEX
  8
Groupe#2
10
6.82842712474622
20
212.101020514434
30
0.0
 70
     192
  0
VERTEX
  8
Groupe#2
10
5.4641016151378
20
211.535898384862
30
0.0
 70
     192
  0
VERTEX
  8
Groupe#2
10
6.82842712474622
20
212.101020514434
30
3.0
 70
     192
  0
VERTEX
  8
Groupe#2
10
0.0
 20
 0.0
 30
0.0
 70
     128
 71
-1
 72
2
 73
3
  0
VERTEX
  8
Groupe#2
10
0.0
 20
 0.0
 30
0.0
 70
     128
 71
-2
 72
1
 73
4
  0
SEQEND
  0
POLYLINE
 8
Groupe#2
 66
     1
10
0.0
 20
 0.0
 30
0.0
70
    64
71
4
72
   1
  0
VERTEX
  8
Groupe#2
10
6.82842712474622
20
212.101020514434
30
3.0
 70
     192
  0
VERTEX
  8
Groupe#2
10
8.0
20
213.0
30
0.0
 70
     192
  0
VERTEX
  8
Groupe#2
10
6.82842712474622
20
212.101020514434
30
0.0
 70
     192
  0
VERTEX
  8
Groupe#2
10
8.0
20
213.0
30
3.0
 70
     192
  0
VERTEX
  8
Groupe#2
10
0.0
 20
 0.0
 30
0.0
 70
     128
 71
-1
 72
2
 73
3
  0
VERTEX
  8
Groupe#2
10
0.0
 20
 0.0
 30
0.0
 70
     128
 71
-2
 72
1
 73
4
  0
SEQEND
  0
POLYLINE
 8
Groupe#2
 66
     1
10
0.0
 20
 0.0
 30
0.0
70
    64
71
4
72
   1
  0
VERTEX
  8
Groupe#2
10
8.89897948556638
20
214.171572875254
30
3.0
 70
     192
  0
VERTEX
  8
Groupe#2
10
8.0
20
213.0
30
0.0
 70
     192
  0
VERTEX
  8
Groupe#2
10
8.0
20
213.0
30
3.0
 70
     192
  0
VERTEX
  8
Groupe#2
10
8.89897948556638
20
214.171572875254
30
0.0
 70
     192
  0
VERTEX
  8
Groupe#2
10
0.0
 20
 0.0
 30
0.0
 70
     128
 71
-1
 72
2
 73
3
  0
VERTEX
  8
Groupe#2
10
0.0
 20
 0.0
 30
0.0
 70
     128
 71
-2
 72
1
 73
4
  0
SEQEND
  0
POLYLINE
 8
Groupe#2
 66
     1
10
0.0
 20
 0.0
 30
0.0
70
    64
71
4
72
   1
  0
VERTEX
  8
Groupe#2
10
9.46410161513778
20
215.535898384862
30
3.0
 70
     192
  0
VERTEX
  8
Groupe#2
10
8.89897948556638
20
214.171572875254
30
0.0
 70
     192
  0
VERTEX
  8
Groupe#2
10
8.89897948556638
20
214.171572875254
30
3.0
 70
     192
  0
VERTEX
  8
Groupe#2
10
9.46410161513778
20
215.535898384862
30
0.0
 70
     192
  0
VERTEX
  8
Groupe#2
10
0.0
 20
 0.0
 30
0.0
 70
     128
 71
-1
 72
2
 73
3
  0
VERTEX
  8
Groupe#2
10
0.0
 20
 0.0
 30
0.0
 70
     128
 71
-2
 72
1
 73
4
  0
SEQEND
  0
POLYLINE
 8
Groupe#2
 66
     1
10
0.0
 20
 0.0
 30
0.0
70
    64
71
4
72
   1
  0
VERTEX
  8
Groupe#2
10
9.6568542494924
20
217.0
30
3.0
 70
     192
  0
VERTEX
  8
Groupe#2
10
9.46410161513778
20
215.535898384862
30
0.0
 70
     192
  0
VERTEX
  8
Groupe#2
10
9.46410161513778
20
215.535898384862
30
3.0
 70
     192
  0
VERTEX
  8
Groupe#2
10
9.6568542494924
20
217.0
30
0.0
 70
     192
  0
VERTEX
  8
Groupe#2
10
0.0
 20
 0.0
 30
0.0
 70
     128
 71
-1
 72
2
 73
3
  0
VERTEX
  8
Groupe#2
10
0.0
 20
 0.0
 30
0.0
 70
     128
 71
-2
 72
1
 73
4
  0
SEQEND
  0
POLYLINE
 8
Groupe#2
 66
     1
10
0.0
 20
 0.0
 30
0.0
70
    64
71
4
72
   1
  0
VERTEX
  8
Groupe#2
10
9.65685424949239
20
221.0
30
3.0
 70
     192
  0
VERTEX
  8
Groupe#2
10
9.6568542494924
20
217.0
30
0.0
 70
     192
  0
VERTEX
  8
Groupe#2
10
9.6568542494924
20
217.0
30
3.0
 70
     192
  0
VERTEX
  8
Groupe#2
10
9.65685424949239
20
221.0
30
0.0
 70
     192
  0
VERTEX
  8
Groupe#2
10
0.0
 20
 0.0
 30
0.0
 70
     128
 71
-1
 72
2
 73
3
  0
VERTEX
  8
Groupe#2
10
0.0
 20
 0.0
 30
0.0
 70
     128
 71
-2
 72
1
 73
4
  0
SEQEND
  0
POLYLINE
 8
Groupe#2
 66
     1
10
0.0
 20
 0.0
 30
0.0
70
    64
71
4
72
   1
  0
VERTEX
  8
Groupe#2
10
9.65685424949239
20
221.0
30
3.0
 70
     192
  0
VERTEX
  8
Groupe#2
10
211.343145750508
20
221.0
30
0.0
 70
     192
  0
VERTEX
  8
Groupe#2
10
9.65685424949239
20
221.0
30
0.0
 70
     192
  0
VERTEX
  8
Groupe#2
10
211.343145750508
20
221.0
30
3.0
 70
     192
  0
VERTEX
  8
Groupe#2
10
0.0
 20
 0.0
 30
0.0
 70
     128
 71
-1
 72
2
 73
3
  0
VERTEX
  8
Groupe#2
10
0.0
 20
 0.0
 30
0.0
 70
     128
 71
-2
 72
1
 73
4
  0
SEQEND
  0
POLYLINE
 8
Groupe#2
 66
     1
10
0.0
 20
 0.0
 30
0.0
70
    64
71
4
72
   1
  0
VERTEX
  8
Groupe#2
10
211.343145750508
20
221.0
30
0.0
 70
     192
  0
VERTEX
  8
Groupe#2
10
211.343145750508
20
217.0
30
3.0
 70
     192
  0
VERTEX
  8
Groupe#2
10
211.343145750508
20
217.0
30
0.0
 70
     192
  0
VERTEX
  8
Groupe#2
10
211.343145750508
20
221.0
30
3.0
 70
     192
  0
VERTEX
  8
Groupe#2
10
0.0
 20
 0.0
 30
0.0
 70
     128
 71
-1
 72
2
 73
3
  0
VERTEX
  8
Groupe#2
10
0.0
 20
 0.0
 30
0.0
 70
     128
 71
-2
 72
1
 73
4
  0
SEQEND
  0
POLYLINE
 8
Groupe#2
 66
     1
10
0.0
 20
 0.0
 30
0.0
70
    64
71
4
72
   1
  0
VERTEX
  8
Groupe#2
10
211.343145750508
20
217.0
30
0.0
 70
     192
  0
VERTEX
  8
Groupe#2
10
211.535898384862
20
215.535898384862
30
3.0
 70
     192
  0
VERTEX
  8
Groupe#2
10
211.535898384862
20
215.535898384862
30
0.0
 70
     192
  0
VERTEX
  8
Groupe#2
10
211.343145750508
20
217.0
30
3.0
 70
     192
  0
VERTEX
  8
Groupe#2
10
0.0
 20
 0.0
 30
0.0
 70
     128
 71
-1
 72
2
 73
3
  0
VERTEX
  8
Groupe#2
10
0.0
 20
 0.0
 30
0.0
 70
     128
 71
-2
 72
1
 73
4
  0
SEQEND
  0
POLYLINE
 8
Groupe#2
 66
     1
10
0.0
 20
 0.0
 30
0.0
70
    64
71
4
72
   1
  0
VERTEX
  8
Groupe#2
10
211.535898384862
20
215.535898384862
30
0.0
 70
     192
  0
VERTEX
  8
Groupe#2
10
212.101020514434
20
214.171572875254
30
3.0
 70
     192
  0
VERTEX
  8
Groupe#2
10
212.101020514434
20
214.171572875254
30
0.0
 70
     192
  0
VERTEX
  8
Groupe#2
10
211.535898384862
20
215.535898384862
30
3.0
 70
     192
  0
VERTEX
  8
Groupe#2
10
0.0
 20
 0.0
 30
0.0
 70
     128
 71
-1
 72
2
 73
3
  0
VERTEX
  8
Groupe#2
10
0.0
 20
 0.0
 30
0.0
 70
     128
 71
-2
 72
1
 73
4
  0
SEQEND
  0
POLYLINE
 8
Groupe#2
 66
     1
10
0.0
 20
 0.0
 30
0.0
70
    64
71
4
72
   1
  0
VERTEX
  8
Groupe#2
10
212.101020514434
20
214.171572875254
30
0.0
 70
     192
  0
VERTEX
  8
Groupe#2
10
213.0
20
213.0
30
3.0
 70
     192
  0
VERTEX
  8
Groupe#2
10
213.0
20
213.0
30
0.0
 70
     192
  0
VERTEX
  8
Groupe#2
10
212.101020514434
20
214.171572875254
30
3.0
 70
     192
  0
VERTEX
  8
Groupe#2
10
0.0
 20
 0.0
 30
0.0
 70
     128
 71
-1
 72
2
 73
3
  0
VERTEX
  8
Groupe#2
10
0.0
 20
 0.0
 30
0.0
 70
     128
 71
-2
 72
1
 73
4
  0
SEQEND
  0
POLYLINE
 8
Groupe#2
 66
     1
10
0.0
 20
 0.0
 30
0.0
70
    64
71
4
72
   1
  0
VERTEX
  8
Groupe#2
10
213.0
20
213.0
30
3.0
 70
     192
  0
VERTEX
  8
Groupe#2
10
214.171572875254
20
212.101020514434
30
0.0
 70
     192
  0
VERTEX
  8
Groupe#2
10
213.0
20
213.0
30
0.0
 70
     192
  0
VERTEX
  8
Groupe#2
10
214.171572875254
20
212.101020514434
30
3.0
 70
     192
  0
VERTEX
  8
Groupe#2
10
0.0
 20
 0.0
 30
0.0
 70
     128
 71
-1
 72
2
 73
3
  0
VERTEX
  8
Groupe#2
10
0.0
 20
 0.0
 30
0.0
 70
     128
 71
-2
 72
1
 73
4
  0
SEQEND
  0
POLYLINE
 8
Groupe#2
 66
     1
10
0.0
 20
 0.0
 30
0.0
70
    64
71
4
72
   1
  0
VERTEX
  8
Groupe#2
10
214.171572875254
20
212.101020514434
30
3.0
 70
     192
  0
VERTEX
  8
Groupe#2
10
215.535898384862
20
211.535898384862
30
0.0
 70
     192
  0
VERTEX
  8
Groupe#2
10
214.171572875254
20
212.101020514434
30
0.0
 70
     192
  0
VERTEX
  8
Groupe#2
10
215.535898384862
20
211.535898384862
30
3.0
 70
     192
  0
VERTEX
  8
Groupe#2
10
0.0
 20
 0.0
 30
0.0
 70
     128
 71
-1
 72
2
 73
3
  0
VERTEX
  8
Groupe#2
10
0.0
 20
 0.0
 30
0.0
 70
     128
 71
-2
 72
1
 73
4
  0
SEQEND
  0
POLYLINE
 8
Groupe#2
 66
     1
10
0.0
 20
 0.0
 30
0.0
70
    64
71
4
72
   1
  0
VERTEX
  8
Groupe#2
10
215.535898384862
20
211.535898384862
30
3.0
 70
     192
  0
VERTEX
  8
Groupe#2
10
217.0
20
211.343145750508
30
0.0
 70
     192
  0
VERTEX
  8
Groupe#2
10
215.535898384862
20
211.535898384862
30
0.0
 70
     192
  0
VERTEX
  8
Groupe#2
10
217.0
20
211.343145750508
30
3.0
 70
     192
  0
VERTEX
  8
Groupe#2
10
0.0
 20
 0.0
 30
0.0
 70
     128
 71
-1
 72
2
 73
3
  0
VERTEX
  8
Groupe#2
10
0.0
 20
 0.0
 30
0.0
 70
     128
 71
-2
 72
1
 73
4
  0
SEQEND
  0
POLYLINE
 8
Groupe#2
 66
     1
10
0.0
 20
 0.0
 30
0.0
70
    64
71
4
72
   1
  0
VERTEX
  8
Groupe#2
10
217.0
20
211.343145750508
30
3.0
 70
     192
  0
VERTEX
  8
Groupe#2
10
221.0
20
211.343145750508
30
0.0
 70
     192
  0
VERTEX
  8
Groupe#2
10
217.0
20
211.343145750508
30
0.0
 70
     192
  0
VERTEX
  8
Groupe#2
10
221.0
20
211.343145750508
30
3.0
 70
     192
  0
VERTEX
  8
Groupe#2
10
0.0
 20
 0.0
 30
0.0
 70
     128
 71
-1
 72
2
 73
3
  0
VERTEX
  8
Groupe#2
10
0.0
 20
 0.0
 30
0.0
 70
     128
 71
-2
 72
1
 73
4
  0
SEQEND
  0
POLYLINE
 8
Groupe#2
 66
     1
10
0.0
 20
 0.0
 30
0.0
70
    64
71
4
72
   1
  0
VERTEX
  8
Groupe#2
10
221.0
20
211.343145750508
30
0.0
 70
     192
  0
VERTEX
  8
Groupe#2
10
221.0
20
9.65685424949241
30
3.0
 70
     192
  0
VERTEX
  8
Groupe#2
10
221.0
20
9.65685424949241
30
0.0
 70
     192
  0
VERTEX
  8
Groupe#2
10
221.0
20
211.343145750508
30
3.0
 70
     192
  0
VERTEX
  8
Groupe#2
10
0.0
 20
 0.0
 30
0.0
 70
     128
 71
-1
 72
2
 73
3
  0
VERTEX
  8
Groupe#2
10
0.0
 20
 0.0
 30
0.0
 70
     128
 71
-2
 72
1
 73
4
  0
SEQEND
  0
POLYLINE
 8
Groupe#2
 66
     1
10
0.0
 20
 0.0
 30
0.0
70
    64
71
4
72
   1
  0
VERTEX
  8
Groupe#2
10
221.0
20
9.65685424949241
30
3.0
 70
     192
  0
VERTEX
  8
Groupe#2
10
217.0
20
9.65685424949241
30
0.0
 70
     192
  0
VERTEX
  8
Groupe#2
10
221.0
20
9.65685424949241
30
0.0
 70
     192
  0
VERTEX
  8
Groupe#2
10
217.0
20
9.65685424949241
30
3.0
 70
     192
  0
VERTEX
  8
Groupe#2
10
0.0
 20
 0.0
 30
0.0
 70
     128
 71
-1
 72
2
 73
3
  0
VERTEX
  8
Groupe#2
10
0.0
 20
 0.0
 30
0.0
 70
     128
 71
-2
 72
1
 73
4
  0
SEQEND
  0
POLYLINE
 8
Groupe#2
 66
     1
10
0.0
 20
 0.0
 30
0.0
70
    64
71
4
72
   1
  0
VERTEX
  8
Groupe#2
10
217.0
20
9.65685424949241
30
3.0
 70
     192
  0
VERTEX
  8
Groupe#2
10
215.535898384862
20
9.46410161513779
30
0.0
 70
     192
  0
VERTEX
  8
Groupe#2
10
217.0
20
9.65685424949241
30
0.0
 70
     192
  0
VERTEX
  8
Groupe#2
10
215.535898384862
20
9.46410161513779
30
3.0
 70
     192
  0
VERTEX
  8
Groupe#2
10
0.0
 20
 0.0
 30
0.0
 70
     128
 71
-1
 72
2
 73
3
  0
VERTEX
  8
Groupe#2
10
0.0
 20
 0.0
 30
0.0
 70
     128
 71
-2
 72
1
 73
4
  0
SEQEND
  0
POLYLINE
 8
Groupe#2
 66
     1
10
0.0
 20
 0.0
 30
0.0
70
    64
71
4
72
   1
  0
VERTEX
  8
Groupe#2
10
215.535898384862
20
9.46410161513779
30
3.0
 70
     192
  0
VERTEX
  8
Groupe#2
10
214.171572875254
20
8.89897948556639
30
0.0
 70
     192
  0
VERTEX
  8
Groupe#2
10
215.535898384862
20
9.46410161513779
30
0.0
 70
     192
  0
VERTEX
  8
Groupe#2
10
214.171572875254
20
8.89897948556639
30
3.0
 70
     192
  0
VERTEX
  8
Groupe#2
10
0.0
 20
 0.0
 30
0.0
 70
     128
 71
-1
 72
2
 73
3
  0
VERTEX
  8
Groupe#2
10
0.0
 20
 0.0
 30
0.0
 70
     128
 71
-2
 72
1
 73
4
  0
SEQEND
  0
POLYLINE
 8
Groupe#2
 66
     1
10
0.0
 20
 0.0
 30
0.0
70
    64
71
4
72
   1
  0
VERTEX
  8
Groupe#2
10
214.171572875254
20
8.89897948556639
30
3.0
 70
     192
  0
VERTEX
  8
Groupe#2
10
213.0
20
8.00000000000001
30
0.0
 70
     192
  0
VERTEX
  8
Groupe#2
10
214.171572875254
20
8.89897948556639
30
0.0
 70
     192
  0
VERTEX
  8
Groupe#2
10
213.0
20
8.00000000000001
30
3.0
 70
     192
  0
VERTEX
  8
Groupe#2
10
0.0
 20
 0.0
 30
0.0
 70
     128
 71
-1
 72
2
 73
3
  0
VERTEX
  8
Groupe#2
10
0.0
 20
 0.0
 30
0.0
 70
     128
 71
-2
 72
1
 73
4
  0
SEQEND
  0
POLYLINE
 8
Groupe#2
 66
     1
10
0.0
 20
 0.0
 30
0.0
70
    64
71
4
72
   1
  0
VERTEX
  8
Groupe#2
10
213.0
20
8.00000000000001
30
0.0
 70
     192
  0
VERTEX
  8
Groupe#2
10
212.101020514434
20
6.82842712474624
30
3.0
 70
     192
  0
VERTEX
  8
Groupe#2
10
212.101020514434
20
6.82842712474624
30
0.0
 70
     192
  0
VERTEX
  8
Groupe#2
10
213.0
20
8.00000000000001
30
3.0
 70
     192
  0
VERTEX
  8
Groupe#2
10
0.0
 20
 0.0
 30
0.0
 70
     128
 71
-1
 72
2
 73
3
  0
VERTEX
  8
Groupe#2
10
0.0
 20
 0.0
 30
0.0
 70
     128
 71
-2
 72
1
 73
4
  0
SEQEND
  0
POLYLINE
 8
Groupe#2
 66
     1
10
0.0
 20
 0.0
 30
0.0
70
    64
71
4
72
   1
  0
VERTEX
  8
Groupe#2
10
212.101020514434
20
6.82842712474624
30
0.0
 70
     192
  0
VERTEX
  8
Groupe#2
10
211.535898384862
20
5.46410161513779
30
3.0
 70
     192
  0
VERTEX
  8
Groupe#2
10
211.535898384862
20
5.46410161513779
30
0.0
 70
     192
  0
VERTEX
  8
Groupe#2
10
212.101020514434
20
6.82842712474624
30
3.0
 70
     192
  0
VERTEX
  8
Groupe#2
10
0.0
 20
 0.0
 30
0.0
 70
     128
 71
-1
 72
2
 73
3
  0
VERTEX
  8
Groupe#2
10
0.0
 20
 0.0
 30
0.0
 70
     128
 71
-2
 72
1
 73
4
  0
SEQEND
  0
POLYLINE
 8
Groupe#2
 66
     1
10
0.0
 20
 0.0
 30
0.0
70
    64
71
4
72
   1
  0
VERTEX
  8
Groupe#2
10
211.535898384862
20
5.46410161513779
30
0.0
 70
     192
  0
VERTEX
  8
Groupe#2
10
211.343145750508
20
4.00000000000003
30
3.0
 70
     192
  0
VERTEX
  8
Groupe#2
10
211.343145750508
20
4.00000000000003
30
0.0
 70
     192
  0
VERTEX
  8
Groupe#2
10
211.535898384862
20
5.46410161513779
30
3.0
 70
     192
  0
VERTEX
  8
Groupe#2
10
0.0
 20
 0.0
 30
0.0
 70
     128
 71
-1
 72
2
 73
3
  0
VERTEX
  8
Groupe#2
10
0.0
 20
 0.0
 30
0.0
 70
     128
 71
-2
 72
1
 73
4
  0
SEQEND
  0
POLYLINE
 8
Groupe#2
 66
     1
10
0.0
 20
 0.0
 30
0.0
70
    64
71
4
72
   1
  0
VERTEX
  8
Groupe#2
10
211.343145750508
20
4.00000000000003
30
0.0
 70
     192
  0
VERTEX
  8
Groupe#2
10
211.343145750508
20
0.0
30
3.0
 70
     192
  0
VERTEX
  8
Groupe#2
10
211.343145750508
20
0.0
30
0.0
 70
     192
  0
VERTEX
  8
Groupe#2
10
211.343145750508
20
4.00000000000003
30
3.0
 70
     192
  0
VERTEX
  8
Groupe#2
10
0.0
 20
 0.0
 30
0.0
 70
     128
 71
-1
 72
2
 73
3
  0
VERTEX
  8
Groupe#2
10
0.0
 20
 0.0
 30
0.0
 70
     128
 71
-2
 72
1
 73
4
  0
SEQEND
  0
POLYLINE
 8
Groupe#2
 66
     1
10
0.0
 20
 0.0
 30
0.0
70
    64
71
4
72
   1
  0
VERTEX
  8
Groupe#2
10
211.343145750508
20
0.0
30
3.0
 70
     192
  0
VERTEX
  8
Groupe#2
10
9.65685424949238
20
0.0
30
0.0
 70
     192
  0
VERTEX
  8
Groupe#2
10
211.343145750508
20
0.0
30
0.0
 70
     192
  0
VERTEX
  8
Groupe#2
10
9.65685424949238
20
0.0
30
3.0
 70
     192
  0
VERTEX
  8
Groupe#2
10
0.0
 20
 0.0
 30
0.0
 70
     128
 71
-1
 72
2
 73
3
  0
VERTEX
  8
Groupe#2
10
0.0
 20
 0.0
 30
0.0
 70
     128
 71
-2
 72
1
 73
4
  0
SEQEND
  0
POLYLINE
 8
Groupe#2
 66
     1
10
0.0
 20
 0.0
 30
0.0
70
    64
71
4
72
   1
  0
VERTEX
  8
Groupe#2
10
9.65685424949238
20
3.99999999999999
30
3.0
 70
     192
  0
VERTEX
  8
Groupe#2
10
9.65685424949238
20
0.0
30
0.0
 70
     192
  0
VERTEX
  8
Groupe#2
10
9.65685424949238
20
0.0
30
3.0
 70
     192
  0
VERTEX
  8
Groupe#2
10
9.65685424949238
20
3.99999999999999
30
0.0
 70
     192
  0
VERTEX
  8
Groupe#2
10
0.0
 20
 0.0
 30
0.0
 70
     128
 71
-1
 72
2
 73
3
  0
VERTEX
  8
Groupe#2
10
0.0
 20
 0.0
 30
0.0
 70
     128
 71
-2
 72
1
 73
4
  0
SEQEND
  0
POLYLINE
 8
Groupe#2
 66
     1
10
0.0
 20
 0.0
 30
0.0
70
    64
71
4
72
   1
  0
VERTEX
  8
Groupe#2
10
9.46410161513775
20
5.46410161513775
30
3.0
 70
     192
  0
VERTEX
  8
Groupe#2
10
9.65685424949238
20
3.99999999999999
30
0.0
 70
     192
  0
VERTEX
  8
Groupe#2
10
9.65685424949238
20
3.99999999999999
30
3.0
 70
     192
  0
VERTEX
  8
Groupe#2
10
9.46410161513775
20
5.46410161513775
30
0.0
 70
     192
  0
VERTEX
  8
Groupe#2
10
0.0
 20
 0.0
 30
0.0
 70
     128
 71
-1
 72
2
 73
3
  0
VERTEX
  8
Groupe#2
10
0.0
 20
 0.0
 30
0.0
 70
     128
 71
-2
 72
1
 73
4
  0
SEQEND
  0
POLYLINE
 8
Groupe#2
 66
     1
10
0.0
 20
 0.0
 30
0.0
70
    64
71
4
72
   1
  0
VERTEX
  8
Groupe#2
10
8.89897948556635
20
6.82842712474619
30
3.0
 70
     192
  0
VERTEX
  8
Groupe#2
10
9.46410161513775
20
5.46410161513775
30
0.0
 70
     192
  0
VERTEX
  8
Groupe#2
10
9.46410161513775
20
5.46410161513775
30
3.0
 70
     192
  0
VERTEX
  8
Groupe#2
10
8.89897948556635
20
6.82842712474619
30
0.0
 70
     192
  0
VERTEX
  8
Groupe#2
10
0.0
 20
 0.0
 30
0.0
 70
     128
 71
-1
 72
2
 73
3
  0
VERTEX
  8
Groupe#2
10
0.0
 20
 0.0
 30
0.0
 70
     128
 71
-2
 72
1
 73
4
  0
SEQEND
  0
LINE
 8
Layer0
10
0.0
20
0.0
30
3.0
11
8.0
21
8.00000000000001
31
3.0
  0
LINE
 8
Layer0
10
8.0
20
213.0
30
3.0
11
213.0
21
8.00000000000001
31
3.0
 0
ENDSEC
 0
EOF
