  0
SECTION
  2
HEADER
  9
$ACADVER
  1
AC1009
  9
$EXTMAX
 10
323.0
 20
453.0
 30
0.0
  9
$EXTMIN
 10
3.0
 20
3.0
 30
0.0
  9
$INSUNITS
 70
     4
  9
$LUNITS
 70
     2
  9
$LUPREC
 70
     4
  9
$MEASUREMENT
 70
     1
  0
ENDSEC
  0
SECTION
  2
TABLES
  0
TABLE
  2
LAYER
 70
     1
  0
LAYER
  2
0
 70
     0
 62
     7
  6
Continuous
  0
LAYER
  2
Default
 70
     0
 62
    14
  6
Continuous
  0
LAYER
  2
Trous
 70
     0
 62
   173
  6
Continuous
  0
ENDTAB
  0
TABLE
  2
APPID
 70
     1
  0
APPID
  2
ACAD
 70
     0
  0
ENDTAB
  0
ENDSEC
  0
SECTION
  2
ENTITIES
  0
POLYLINE
  8
Default
 66
     1
 10
0.0
 20
0.0
 30
0.0000000006293
 70
     9
  0
VERTEX
  8
Default
 10
112.130422451317
 20
337.263184543037
 30
0.0000000006293
 42
0.0
  0
VERTEX
  8
Default
 10
111.980571817558
 20
337.624955975381
 30
0.0000000006299
 42
0.0
  0
VERTEX
  8
Default
 10
111.929460556993
 20
338.013184543038
 30
0.0000000006306
 42
0.0
  0
VERTEX
  8
Default
 10
111.980571817553
 20
338.401413110689
 30
0.0000000006314
 42
0.0
  0
VERTEX
  8
Default
 10
112.130422451317
 20
338.763184543037
 30
0.000000000632
 42
0.0
  0
VERTEX
  8
Default
 10
112.368800385211
 20
339.073844714818
 30
0.0000000006326
 42
0.0
  0
VERTEX
  8
Default
 10
112.67946055699
 20
339.312222648712
 30
0.000000000633
 42
0.0
  0
VERTEX
  8
Default
 10
113.041231989341
 20
339.46207328247
 30
0.0000000006333
 42
0.0
  0
VERTEX
  8
Default
 10
113.429460556994
 20
339.513184543038
 30
0.0000000006334
 42
0.0
  0
VERTEX
  8
Default
 10
113.817689124649
 20
339.462073282471
 30
0.0000000006333
 42
0.0
  0
VERTEX
  8
Default
 10
114.179460556991
 20
339.312222648713
 30
0.000000000633
 42
0.0
  0
VERTEX
  8
Default
 10
114.490120728772
 20
339.073844714817
 30
0.0000000006326
 42
0.0
  0
VERTEX
  8
Default
 10
114.728498662668
 20
338.763184543036
 30
0.000000000632
 42
0.0
  0
VERTEX
  8
Default
 10
114.878349296422
 20
338.401413110691
 30
0.0000000006313
 42
0.0
  0
VERTEX
  8
Default
 10
114.929460556995
 20
338.013184543037
 30
0.0000000006306
 42
0.0
  0
VERTEX
  8
Default
 10
114.878349296426
 20
337.624955975383
 30
0.00000000063
 42
0.0
  0
VERTEX
  8
Default
 10
114.728498662672
 20
337.263184543036
 30
0.0000000006293
 42
0.0
  0
VERTEX
  8
Default
 10
114.490120728768
 20
336.952524371257
 30
0.0000000006287
 42
0.0
  0
VERTEX
  8
Default
 10
114.179460556994
 20
336.71414643736
 30
0.0000000006283
 42
0.0
  0
VERTEX
  8
Default
 10
113.817689124649
 20
336.564295803603
 30
0.000000000628
 42
0.0
  0
VERTEX
  8
Default
 10
113.42946055699
 20
336.513184543038
 30
0.0000000006279
 42
0.0
  0
VERTEX
  8
Default
 10
113.041231989341
 20
336.564295803603
 30
0.000000000628
 42
0.0
  0
VERTEX
  8
Default
 10
112.679460556993
 20
336.714146437358
 30
0.0000000006283
 42
0.0
  0
VERTEX
  8
Default
 10
112.368800385207
 20
336.952524371258
 30
0.0000000006287
 42
0.0
  0
SEQEND
  0
POLYLINE
  8
Default
 66
     1
 10
0.0
 20
0.0
 30
0.0000000005739
 70
     9
  0
VERTEX
  8
Default
 10
81.5508099378131
 20
307.097392873945
 30
0.0000000005739
 42
0.0
  0
VERTEX
  8
Default
 10
82.0091691406351
 20
306.847392412194
 30
0.0000000005735
 42
0.0
  0
VERTEX
  8
Default
 10
82.5166150131441
 20
306.724542600792
 30
0.0000000005733
 42
0.0
  0
VERTEX
  8
Default
 10
83.0385659577221
 20
306.737215451369
 30
0.0000000005733
 42
0.0
  0
VERTEX
  8
Default
 10
83.5394518800611
 20
306.884547330099
 30
0.0000000005736
 42
0.0
  0
VERTEX
  8
Default
 10
83.9851382323071
 20
307.156497812925
 30
0.000000000574
 42
0.0
  0
VERTEX
  8
Default
 10
84.3452522260841
 20
307.534533923862
 30
0.0000000005747
 42
0.0
  0
VERTEX
  8
Default
 10
84.5952526878351
 20
307.992893126684
 30
0.0000000005756
 42
0.0
  0
VERTEX
  8
Default
 10
84.7181024992371
 20
308.500338999193
 30
0.0000000005765
 42
0.0
  0
VERTEX
  8
Default
 10
84.7054296486611
 20
309.022289943771
 30
0.0000000005774
 42
0.0
  0
VERTEX
  8
Default
 10
84.5580977699311
 20
309.52317586611
 30
0.0000000005784
 42
0.0
  0
VERTEX
  8
Default
 10
84.2861472871041
 20
309.968862218355
 30
0.0000000005792
 42
0.0
  0
VERTEX
  8
Default
 10
83.9081111761671
 20
310.328976212133
 30
0.0000000005799
 42
0.0
  0
VERTEX
  8
Default
 10
83.4497519733451
 20
310.578976673885
 30
0.0000000005803
 42
0.0
  0
VERTEX
  8
Default
 10
82.9423061008371
 20
310.701826485286
 30
0.0000000005806
 42
0.0
  0
VERTEX
  8
Default
 10
82.4203551562591
 20
310.68915363471
 30
0.0000000005805
 42
0.0
  0
VERTEX
  8
Default
 10
81.9194692339201
 20
310.54182175598
 30
0.0000000005803
 42
0.0
  0
VERTEX
  8
Default
 10
81.4737828816741
 20
310.269871273153
 30
0.0000000005797
 42
0.0
  0
VERTEX
  8
Default
 10
81.1136688878961
 20
309.891835162216
 30
0.0000000005791
 42
0.0
  0
VERTEX
  8
Default
 10
80.8636684261451
 20
309.433475959394
 30
0.0000000005782
 42
0.0
  0
VERTEX
  8
Default
 10
80.7408186147431
 20
308.926030086886
 30
0.0000000005773
 42
0.0
  0
VERTEX
  8
Default
 10
80.7534914653201
 20
308.404079142308
 30
0.0000000005763
 42
0.0
  0
VERTEX
  8
Default
 10
80.9008233440501
 20
307.903193219969
 30
0.0000000005754
 42
0.0
  0
VERTEX
  8
Default
 10
81.1727738268771
 20
307.457506867723
 30
0.0000000005746
 42
0.0
  0
SEQEND
  0
POLYLINE
  8
Default
 66
     1
 10
0.0
 20
0.0
 30
0.0000000004492
 70
     9
  0
VERTEX
  8
Default
 10
244.705429648651
 20
239.022289943749
 30
0.0000000004492
 42
0.0
  0
VERTEX
  8
Default
 10
244.558097769921
 20
239.523175866088
 30
0.0000000004502
 42
0.0
  0
VERTEX
  8
Default
 10
244.286147287095
 20
239.968862218334
 30
0.000000000451
 42
0.0
  0
VERTEX
  8
Default
 10
243.908111176158
 20
240.328976212112
 30
0.0000000004516
 42
0.0
  0
VERTEX
  8
Default
 10
243.449751973335
 20
240.578976673863
 30
0.0000000004521
 42
0.0
  0
VERTEX
  8
Default
 10
242.942306100827
 20
240.701826485265
 30
0.0000000004523
 42
0.0
  0
VERTEX
  8
Default
 10
242.420355156249
 20
240.689153634688
 30
0.0000000004523
 42
0.0
  0
VERTEX
  8
Default
 10
241.91946923391
 20
240.541821755959
 30
0.000000000452
 42
0.0
  0
VERTEX
  8
Default
 10
241.473782881665
 20
240.269871273132
 30
0.0000000004515
 42
0.0
  0
VERTEX
  8
Default
 10
241.113668887886
 20
239.891835162195
 30
0.0000000004508
 42
0.0
  0
VERTEX
  8
Default
 10
240.863668426135
 20
239.433475959373
 30
0.00000000045
 42
0.0
  0
VERTEX
  8
Default
 10
240.740818614734
 20
238.926030086864
 30
0.000000000449
 42
0.0
  0
VERTEX
  8
Default
 10
240.75349146531
 20
238.404079142286
 30
0.0000000004481
 42
0.0
  0
VERTEX
  8
Default
 10
240.90082334404
 20
237.903193219948
 30
0.0000000004472
 42
0.0
  0
VERTEX
  8
Default
 10
241.172773826867
 20
237.457506867702
 30
0.0000000004464
 42
0.0
  0
VERTEX
  8
Default
 10
241.550809937804
 20
237.097392873924
 30
0.0000000004457
 42
0.0
  0
VERTEX
  8
Default
 10
242.009169140626
 20
236.847392412172
 30
0.0000000004452
 42
0.0
  0
VERTEX
  8
Default
 10
242.516615013134
 20
236.724542600771
 30
0.000000000445
 42
0.0
  0
VERTEX
  8
Default
 10
243.038565957712
 20
236.737215451347
 30
0.000000000445
 42
0.0
  0
VERTEX
  8
Default
 10
243.539451880051
 20
236.884547330077
 30
0.0000000004453
 42
0.0
  0
VERTEX
  8
Default
 10
243.985138232297
 20
237.156497812904
 30
0.0000000004458
 42
0.0
  0
VERTEX
  8
Default
 10
244.345252226075
 20
237.534533923841
 30
0.0000000004465
 42
0.0
  0
VERTEX
  8
Default
 10
244.595252687826
 20
237.992893126663
 30
0.0000000004474
 42
0.0
  0
VERTEX
  8
Default
 10
244.718102499228
 20
238.500338999172
 30
0.0000000004483
 42
0.0
  0
SEQEND
  0
POLYLINE
  8
Default
 66
     1
 10
0.0
 20
0.0
 30
0.0000000003899
 70
     9
  0
VERTEX
  8
Default
 10
123.038565957709
 20
196.737215451364
 30
0.0000000003899
 42
0.0
  0
VERTEX
  8
Default
 10
123.539451880047
 20
196.884547330094
 30
0.0000000003902
 42
0.0
  0
VERTEX
  8
Default
 10
123.985138232293
 20
197.15649781292
 30
0.0000000003907
 42
0.0
  0
VERTEX
  8
Default
 10
124.345252226071
 20
197.534533923858
 30
0.0000000003914
 42
0.0
  0
VERTEX
  8
Default
 10
124.595252687822
 20
197.992893126679
 30
0.0000000003922
 42
0.0
  0
VERTEX
  8
Default
 10
124.718102499224
 20
198.500338999188
 30
0.0000000003931
 42
0.0
  0
VERTEX
  8
Default
 10
124.705429648648
 20
199.022289943766
 30
0.0000000003941
 42
0.0
  0
VERTEX
  8
Default
 10
124.558097769918
 20
199.523175866105
 30
0.000000000395
 42
0.0
  0
VERTEX
  8
Default
 10
124.286147287091
 20
199.96886221835
 30
0.0000000003958
 42
0.0
  0
VERTEX
  8
Default
 10
123.908111176154
 20
200.328976212128
 30
0.0000000003965
 42
0.0
  0
VERTEX
  8
Default
 10
123.449751973332
 20
200.57897667388
 30
0.000000000397
 42
0.0
  0
VERTEX
  8
Default
 10
122.942306100824
 20
200.701826485282
 30
0.0000000003972
 42
0.0
  0
VERTEX
  8
Default
 10
122.420355156246
 20
200.689153634705
 30
0.0000000003972
 42
0.0
  0
VERTEX
  8
Default
 10
121.919469233907
 20
200.541821755975
 30
0.0000000003969
 42
0.0
  0
VERTEX
  8
Default
 10
121.473782881661
 20
200.269871273148
 30
0.0000000003964
 42
0.0
  0
VERTEX
  8
Default
 10
121.113668887883
 20
199.891835162211
 30
0.0000000003957
 42
0.0
  0
VERTEX
  8
Default
 10
120.863668426131
 20
199.433475959389
 30
0.0000000003949
 42
0.0
  0
VERTEX
  8
Default
 10
120.740818614729
 20
198.926030086881
 30
0.0000000003939
 42
0.0
  0
VERTEX
  8
Default
 10
120.753491465306
 20
198.404079142303
 30
0.000000000393
 42
0.0
  0
VERTEX
  8
Default
 10
120.900823344037
 20
197.903193219964
 30
0.000000000392
 42
0.0
  0
VERTEX
  8
Default
 10
121.172773826863
 20
197.457506867718
 30
0.0000000003912
 42
0.0
  0
VERTEX
  8
Default
 10
121.5508099378
 20
197.09739287394
 30
0.0000000003906
 42
0.0
  0
VERTEX
  8
Default
 10
122.009169140622
 20
196.847392412189
 30
0.0000000003901
 42
0.0
  0
VERTEX
  8
Default
 10
122.516615013131
 20
196.724542600787
 30
0.0000000003899
 42
0.0
  0
SEQEND
  0
POLYLINE
  8
Default
 66
     1
 10
0.0
 20
0.0
 30
0.0000000005431
 70
     9
  0
VERTEX
  8
Default
 10
291.482361909828
 20
253.1893149694
 30
0.0000000005431
 42
0.0
  0
VERTEX
  8
Default
 10
292.000000000031
 20
253.121166621977
 30
0.000000000543
 42
0.0
  0
VERTEX
  8
Default
 10
292.517638090238
 20
253.189314969399
 30
0.0000000005431
 42
0.0
  0
VERTEX
  8
Default
 10
293.000000000032
 20
253.389115814408
 30
0.0000000005434
 42
0.0
  0
VERTEX
  8
Default
 10
293.414213562406
 20
253.706953059605
 30
0.000000000544
 42
0.0
  0
VERTEX
  8
Default
 10
293.732050807602
 20
254.121166621979
 30
0.0000000005448
 42
0.0
  0
VERTEX
  8
Default
 10
293.93185165261
 20
254.603528531773
 30
0.0000000005457
 42
0.0
  0
VERTEX
  8
Default
 10
294.000000000032
 20
255.121166621978
 30
0.0000000005466
 42
0.0
  0
VERTEX
  8
Default
 10
293.93185165261
 20
255.638804712183
 30
0.0000000005476
 42
0.0
  0
VERTEX
  8
Default
 10
293.732050807601
 20
256.121166621979
 30
0.0000000005485
 42
0.0
  0
VERTEX
  8
Default
 10
293.414213562405
 20
256.535380184351
 30
0.0000000005493
 42
0.0
  0
VERTEX
  8
Default
 10
293.000000000032
 20
256.853217429547
 30
0.0000000005498
 42
0.0
  0
VERTEX
  8
Default
 10
292.517638090236
 20
257.053018274555
 30
0.0000000005502
 42
0.0
  0
VERTEX
  8
Default
 10
292.000000000031
 20
257.121166621978
 30
0.0000000005503
 42
0.0
  0
VERTEX
  8
Default
 10
291.482361909826
 20
257.053018274555
 30
0.0000000005502
 42
0.0
  0
VERTEX
  8
Default
 10
291.000000000031
 20
256.853217429546
 30
0.0000000005498
 42
0.0
  0
VERTEX
  8
Default
 10
290.585786437659
 20
256.535380184351
 30
0.0000000005492
 42
0.0
  0
VERTEX
  8
Default
 10
290.267949192463
 20
256.121166621977
 30
0.0000000005485
 42
0.0
  0
VERTEX
  8
Default
 10
290.068148347453
 20
255.638804712181
 30
0.0000000005476
 42
0.0
  0
VERTEX
  8
Default
 10
290.000000000032
 20
255.121166621977
 30
0.0000000005466
 42
0.0
  0
VERTEX
  8
Default
 10
290.068148347454
 20
254.603528531772
 30
0.0000000005457
 42
0.0
  0
VERTEX
  8
Default
 10
290.267949192463
 20
254.121166621977
 30
0.0000000005448
 42
0.0
  0
VERTEX
  8
Default
 10
290.585786437659
 20
253.706953059604
 30
0.0000000005441
 42
0.0
  0
VERTEX
  8
Default
 10
291.000000000032
 20
253.389115814408
 30
0.0000000005434
 42
0.0
  0
SEQEND
  0
POLYLINE
  8
Default
 66
     1
 10
0.0
 20
0.0
 30
0.0000000006342
 70
     9
  0
VERTEX
  8
Default
 10
84.2861472871081
 20
339.968862218355
 30
0.0000000006342
 42
0.0
  0
VERTEX
  8
Default
 10
83.9081111761711
 20
340.328976212133
 30
0.0000000006349
 42
0.0
  0
VERTEX
  8
Default
 10
83.4497519733491
 20
340.578976673885
 30
0.0000000006353
 42
0.0
  0
VERTEX
  8
Default
 10
82.9423061008411
 20
340.701826485286
 30
0.0000000006356
 42
0.0
  0
VERTEX
  8
Default
 10
82.4203551562631
 20
340.68915363471
 30
0.0000000006356
 42
0.0
  0
VERTEX
  8
Default
 10
81.9194692339241
 20
340.54182175598
 30
0.0000000006353
 42
0.0
  0
VERTEX
  8
Default
 10
81.4737828816791
 20
340.269871273153
 30
0.0000000006347
 42
0.0
  0
VERTEX
  8
Default
 10
81.1136688879001
 20
339.891835162216
 30
0.0000000006341
 42
0.0
  0
VERTEX
  8
Default
 10
80.8636684261491
 20
339.433475959394
 30
0.0000000006332
 42
0.0
  0
VERTEX
  8
Default
 10
80.7408186147471
 20
338.926030086886
 30
0.0000000006323
 42
0.0
  0
VERTEX
  8
Default
 10
80.7534914653231
 20
338.404079142308
 30
0.0000000006314
 42
0.0
  0
VERTEX
  8
Default
 10
80.9008233440541
 20
337.903193219969
 30
0.0000000006304
 42
0.0
  0
VERTEX
  8
Default
 10
81.1727738268801
 20
337.457506867723
 30
0.0000000006296
 42
0.0
  0
VERTEX
  8
Default
 10
81.5508099378181
 20
337.097392873945
 30
0.0000000006289
 42
0.0
  0
VERTEX
  8
Default
 10
82.0091691406391
 20
336.847392412194
 30
0.0000000006285
 42
0.0
  0
VERTEX
  8
Default
 10
82.5166150131481
 20
336.724542600792
 30
0.0000000006283
 42
0.0
  0
VERTEX
  8
Default
 10
83.0385659577261
 20
336.737215451369
 30
0.0000000006283
 42
0.0
  0
VERTEX
  8
Default
 10
83.5394518800651
 20
336.884547330099
 30
0.0000000006286
 42
0.0
  0
VERTEX
  8
Default
 10
83.9851382323101
 20
337.156497812925
 30
0.0000000006291
 42
0.0
  0
VERTEX
  8
Default
 10
84.3452522260891
 20
337.534533923862
 30
0.0000000006297
 42
0.0
  0
VERTEX
  8
Default
 10
84.5952526878401
 20
337.992893126684
 30
0.0000000006306
 42
0.0
  0
VERTEX
  8
Default
 10
84.7181024992421
 20
338.500338999193
 30
0.0000000006315
 42
0.0
  0
VERTEX
  8
Default
 10
84.7054296486651
 20
339.022289943771
 30
0.0000000006324
 42
0.0
  0
VERTEX
  8
Default
 10
84.5580977699341
 20
339.52317586611
 30
0.0000000006334
 42
0.0
  0
SEQEND
  0
POLYLINE
  8
Default
 66
     1
 10
0.0
 20
0.0
 30
0.0000000005484
 70
     9
  0
VERTEX
  8
Default
 10
28.808821441875
 20
281.217833935288
 30
0.0000000005484
 42
0.0
  0
VERTEX
  8
Default
 10
30.361735712488
 20
281.013388893022
 30
0.000000000548
 42
0.0
  0
VERTEX
  8
Default
 10
31.914649983105
 20
281.217833935286
 30
0.0000000005484
 42
0.0
  0
VERTEX
  8
Default
 10
33.361735712491
 20
281.817236470313
 30
0.0000000005495
 42
0.0
  0
VERTEX
  8
Default
 10
34.604376399611
 20
282.7707482059
 30
0.0000000005513
 42
0.0
  0
VERTEX
  8
Default
 10
35.557888135198
 20
284.013388893018
 30
0.0000000005536
 42
0.0
  0
VERTEX
  8
Default
 10
36.157290670227
 20
285.460474622403
 30
0.0000000005562
 42
0.0
  0
VERTEX
  8
Default
 10
36.361735712493
 20
287.013388893018
 30
0.0000000005591
 42
0.0
  0
VERTEX
  8
Default
 10
36.361735712499
 20
302.013388893018
 30
0.0000000005866
 42
0.0
  0
VERTEX
  8
Default
 10
36.157290670237
 20
303.566303163633
 30
0.0000000005894
 42
0.0
  0
VERTEX
  8
Default
 10
35.557888135209
 20
305.013388893018
 30
0.0000000005921
 42
0.0
  0
VERTEX
  8
Default
 10
34.604376399621
 20
306.256029580138
 30
0.0000000005943
 42
0.0
  0
VERTEX
  8
Default
 10
33.361735712503
 20
307.209541315726
 30
0.0000000005961
 42
0.0
  0
VERTEX
  8
Default
 10
31.914649983118
 20
307.808943850754
 30
0.0000000005972
 42
0.0
  0
VERTEX
  8
Default
 10
30.361735712504
 20
308.013388893022
 30
0.0000000005976
 42
0.0
  0
VERTEX
  8
Default
 10
28.808821441888
 20
307.808943850756
 30
0.0000000005972
 42
0.0
  0
VERTEX
  8
Default
 10
27.361735712503
 20
307.209541315729
 30
0.0000000005961
 42
0.0
  0
VERTEX
  8
Default
 10
26.119095025381
 20
306.256029580142
 30
0.0000000005943
 42
0.0
  0
VERTEX
  8
Default
 10
25.165583289795
 20
305.013388893023
 30
0.0000000005921
 42
0.0
  0
VERTEX
  8
Default
 10
24.566180754768
 20
303.566303163639
 30
0.0000000005894
 42
0.0
  0
VERTEX
  8
Default
 10
24.361735712499
 20
302.013388893024
 30
0.0000000005866
 42
0.0
  0
VERTEX
  8
Default
 10
24.361735712493
 20
287.013388893024
 30
0.0000000005591
 42
0.0
  0
VERTEX
  8
Default
 10
24.566180754758
 20
285.460474622409
 30
0.0000000005562
 42
0.0
  0
VERTEX
  8
Default
 10
25.165583289785
 20
284.013388893023
 30
0.0000000005536
 42
0.0
  0
VERTEX
  8
Default
 10
26.119095025372
 20
282.770748205904
 30
0.0000000005513
 42
0.0
  0
VERTEX
  8
Default
 10
27.361735712491
 20
281.817236470316
 30
0.0000000005495
 42
0.0
  0
SEQEND
  0
POLYLINE
  8
Default
 66
     1
 10
0.0
 20
0.0
 30
0.0000000004523
 70
     9
  0
VERTEX
  8
Default
 10
212.779460556979
 20
240.7122226487
 30
0.0000000004523
 42
0.0
  0
VERTEX
  8
Default
 10
213.090120728756
 20
240.473844714803
 30
0.0000000004519
 42
0.0
  0
VERTEX
  8
Default
 10
213.328498662658
 20
240.163184543023
 30
0.0000000004513
 42
0.0
  0
VERTEX
  8
Default
 10
213.47834929641
 20
239.801413110677
 30
0.0000000004506
 42
0.0
  0
VERTEX
  8
Default
 10
213.529460556981
 20
239.413184543023
 30
0.0000000004499
 42
0.0
  0
VERTEX
  8
Default
 10
213.478349296411
 20
239.02495597537
 30
0.0000000004492
 42
0.0
  0
VERTEX
  8
Default
 10
213.328498662655
 20
238.663184543023
 30
0.0000000004486
 42
0.0
  0
VERTEX
  8
Default
 10
213.090120728756
 20
238.352524371244
 30
0.000000000448
 42
0.0
  0
VERTEX
  8
Default
 10
212.779460556979
 20
238.114146437347
 30
0.0000000004475
 42
0.0
  0
VERTEX
  8
Default
 10
212.417689124632
 20
237.964295803591
 30
0.0000000004473
 42
0.0
  0
VERTEX
  8
Default
 10
212.029460556978
 20
237.913184543021
 30
0.0000000004472
 42
0.0
  0
VERTEX
  8
Default
 10
211.641231989324
 20
237.96429580359
 30
0.0000000004473
 42
0.0
  0
VERTEX
  8
Default
 10
211.279460556979
 20
238.114146437348
 30
0.0000000004475
 42
0.0
  0
VERTEX
  8
Default
 10
210.968800385197
 20
238.352524371244
 30
0.000000000448
 42
0.0
  0
VERTEX
  8
Default
 10
210.730422451301
 20
238.663184543023
 30
0.0000000004486
 42
0.0
  0
VERTEX
  8
Default
 10
210.580571817544
 20
239.024955975371
 30
0.0000000004492
 42
0.0
  0
VERTEX
  8
Default
 10
210.529460556981
 20
239.413184543024
 30
0.0000000004499
 42
0.0
  0
VERTEX
  8
Default
 10
210.580571817543
 20
239.801413110679
 30
0.0000000004506
 42
0.0
  0
VERTEX
  8
Default
 10
210.730422451305
 20
240.163184543023
 30
0.0000000004513
 42
0.0
  0
VERTEX
  8
Default
 10
210.968800385197
 20
240.473844714804
 30
0.0000000004519
 42
0.0
  0
VERTEX
  8
Default
 10
211.279460556979
 20
240.712222648701
 30
0.0000000004523
 42
0.0
  0
VERTEX
  8
Default
 10
211.641231989327
 20
240.862073282458
 30
0.0000000004526
 42
0.0
  0
VERTEX
  8
Default
 10
212.029460556981
 20
240.913184543021
 30
0.0000000004527
 42
0.0
  0
VERTEX
  8
Default
 10
212.417689124635
 20
240.862073282458
 30
0.0000000004526
 42
0.0
  0
SEQEND
  0
POLYLINE
  8
Default
 66
     1
 10
0.0
 20
0.0
 30
0.0000000005492
 70
     9
  0
VERTEX
  8
Default
 10
284.414213562405
 20
256.535380184344
 30
0.0000000005492
 42
0.0
  0
VERTEX
  8
Default
 10
284.000000000032
 20
256.85321742954
 30
0.0000000005498
 42
0.0
  0
VERTEX
  8
Default
 10
283.517638090237
 20
257.053018274549
 30
0.0000000005502
 42
0.0
  0
VERTEX
  8
Default
 10
283.000000000031
 20
257.12116662197
 30
0.0000000005503
 42
0.0
  0
VERTEX
  8
Default
 10
282.482361909827
 20
257.053018274549
 30
0.0000000005502
 42
0.0
  0
VERTEX
  8
Default
 10
282.000000000032
 20
256.85321742954
 30
0.0000000005498
 42
0.0
  0
VERTEX
  8
Default
 10
281.585786437658
 20
256.535380184343
 30
0.0000000005492
 42
0.0
  0
VERTEX
  8
Default
 10
281.267949192463
 20
256.12116662197
 30
0.0000000005485
 42
0.0
  0
VERTEX
  8
Default
 10
281.068148347455
 20
255.638804712175
 30
0.0000000005476
 42
0.0
  0
VERTEX
  8
Default
 10
281.000000000033
 20
255.12116662197
 30
0.0000000005466
 42
0.0
  0
VERTEX
  8
Default
 10
281.068148347455
 20
254.603528531765
 30
0.0000000005457
 42
0.0
  0
VERTEX
  8
Default
 10
281.267949192464
 20
254.12116662197
 30
0.0000000005448
 42
0.0
  0
VERTEX
  8
Default
 10
281.58578643766
 20
253.706953059597
 30
0.000000000544
 42
0.0
  0
VERTEX
  8
Default
 10
282.000000000033
 20
253.389115814402
 30
0.0000000005434
 42
0.0
  0
VERTEX
  8
Default
 10
282.482361909828
 20
253.189314969392
 30
0.0000000005431
 42
0.0
  0
VERTEX
  8
Default
 10
283.000000000032
 20
253.121166621971
 30
0.000000000543
 42
0.0
  0
VERTEX
  8
Default
 10
283.517638090238
 20
253.189314969393
 30
0.0000000005431
 42
0.0
  0
VERTEX
  8
Default
 10
284.000000000033
 20
253.389115814402
 30
0.0000000005434
 42
0.0
  0
VERTEX
  8
Default
 10
284.414213562406
 20
253.706953059598
 30
0.000000000544
 42
0.0
  0
VERTEX
  8
Default
 10
284.732050807602
 20
254.121166621971
 30
0.0000000005448
 42
0.0
  0
VERTEX
  8
Default
 10
284.93185165261
 20
254.603528531766
 30
0.0000000005457
 42
0.0
  0
VERTEX
  8
Default
 10
285.000000000032
 20
255.121166621971
 30
0.0000000005466
 42
0.0
  0
VERTEX
  8
Default
 10
284.93185165261
 20
255.638804712176
 30
0.0000000005476
 42
0.0
  0
VERTEX
  8
Default
 10
284.732050807601
 20
256.121166621972
 30
0.0000000005485
 42
0.0
  0
SEQEND
  0
POLYLINE
  8
Default
 66
     1
 10
0.0
 20
0.0
 30
0.0000000004636
 70
     9
  0
VERTEX
  8
Default
 10
242.009169140627
 20
246.847392412172
 30
0.0000000004636
 42
0.0
  0
VERTEX
  8
Default
 10
242.516615013135
 20
246.724542600771
 30
0.0000000004634
 42
0.0
  0
VERTEX
  8
Default
 10
243.038565957713
 20
246.737215451347
 30
0.0000000004634
 42
0.0
  0
VERTEX
  8
Default
 10
243.539451880053
 20
246.884547330078
 30
0.0000000004637
 42
0.0
  0
VERTEX
  8
Default
 10
243.985138232298
 20
247.156497812904
 30
0.0000000004641
 42
0.0
  0
VERTEX
  8
Default
 10
244.345252226076
 20
247.534533923841
 30
0.0000000004648
 42
0.0
  0
VERTEX
  8
Default
 10
244.595252687827
 20
247.992893126663
 30
0.0000000004657
 42
0.0
  0
VERTEX
  8
Default
 10
244.718102499229
 20
248.500338999172
 30
0.0000000004666
 42
0.0
  0
VERTEX
  8
Default
 10
244.705429648653
 20
249.022289943749
 30
0.0000000004675
 42
0.0
  0
VERTEX
  8
Default
 10
244.558097769922
 20
249.523175866088
 30
0.0000000004685
 42
0.0
  0
VERTEX
  8
Default
 10
244.286147287096
 20
249.968862218334
 30
0.0000000004693
 42
0.0
  0
VERTEX
  8
Default
 10
243.908111176159
 20
250.328976212112
 30
0.00000000047
 42
0.0
  0
VERTEX
  8
Default
 10
243.449751973337
 20
250.578976673863
 30
0.0000000004704
 42
0.0
  0
VERTEX
  8
Default
 10
242.942306100828
 20
250.701826485265
 30
0.0000000004706
 42
0.0
  0
VERTEX
  8
Default
 10
242.420355156251
 20
250.689153634689
 30
0.0000000004706
 42
0.0
  0
VERTEX
  8
Default
 10
241.919469233911
 20
250.541821755959
 30
0.0000000004703
 42
0.0
  0
VERTEX
  8
Default
 10
241.473782881666
 20
250.269871273132
 30
0.0000000004699
 42
0.0
  0
VERTEX
  8
Default
 10
241.113668887887
 20
249.891835162195
 30
0.0000000004692
 42
0.0
  0
VERTEX
  8
Default
 10
240.863668426136
 20
249.433475959373
 30
0.0000000004683
 42
0.0
  0
VERTEX
  8
Default
 10
240.740818614735
 20
248.926030086864
 30
0.0000000004674
 42
0.0
  0
VERTEX
  8
Default
 10
240.753491465311
 20
248.404079142287
 30
0.0000000004665
 42
0.0
  0
VERTEX
  8
Default
 10
240.900823344042
 20
247.903193219948
 30
0.0000000004655
 42
0.0
  0
VERTEX
  8
Default
 10
241.172773826868
 20
247.457506867702
 30
0.0000000004647
 42
0.0
  0
VERTEX
  8
Default
 10
241.550809937806
 20
247.097392873924
 30
0.000000000464
 42
0.0
  0
SEQEND
  0
POLYLINE
  8
Default
 66
     1
 10
0.0
 20
0.0
 30
0.0000000005393
 70
     9
  0
VERTEX
  8
Default
 10
172.785233216331
 20
277.582980761264
 30
0.0000000005393
 42
0.0
  0
VERTEX
  8
Default
 10
171.607616258792
 20
276.622760591218
 30
0.0000000005393
 42
0.0
  0
VERTEX
  8
Default
 10
170.338897409688
 20
275.786604531875
 30
0.0000000005393
 42
0.0
  0
VERTEX
  8
Default
 10
168.992095441262
 20
275.083092675904
 30
0.0000000005393
 42
0.0
  0
VERTEX
  8
Default
 10
167.581030364225
 20
274.519444006951
 30
0.0000000005393
 42
0.0
  0
VERTEX
  8
Default
 10
166.120181615742
 20
274.101442323098
 30
0.0000000005393
 42
0.0
  0
VERTEX
  8
Default
 10
164.624539480818
 20
273.833376887267
 30
0.0000000005393
 42
0.0
  0
VERTEX
  8
Default
 10
163.109451271684
 20
273.717998413582
 30
0.0000000005393
 42
0.0
  0
VERTEX
  8
Default
 10
161.590463843607
 20
273.756490841314
 30
0.0000000005393
 42
0.0
  0
VERTEX
  8
Default
 10
160.083164063119
 20
273.948459186066
 30
0.0000000005393
 42
0.0
  0
VERTEX
  8
Default
 10
158.603018865669
 20
274.291933592846
 30
0.0000000005393
 42
0.0
  0
VERTEX
  8
Default
 10
157.165216543939
 20
274.783389549446
 30
0.0000000005393
 42
0.0
  0
VERTEX
  8
Default
 10
155.784510895409
 20
275.417784052704
 30
0.0000000005393
 42
0.0
  0
VERTEX
  8
Default
 10
154.475069828425
 20
276.188607356544
 30
0.0000000005393
 42
0.0
  0
VERTEX
  8
Default
 10
153.250329980292
 20
277.087949770778
 30
0.0000000005393
 42
0.0
  0
VERTEX
  8
Default
 10
152.122858839188
 20
278.106582825232
 30
0.0000000005393
 42
0.0
  0
VERTEX
  8
Default
 10
151.104225784735
 20
279.234053966336
 30
0.0000000005393
 42
0.0
  0
VERTEX
  8
Default
 10
150.204883370501
 20
280.45879381447
 30
0.0000000005393
 42
0.0
  0
VERTEX
  8
Default
 10
149.434060066661
 20
281.768234881454
 30
0.0000000005393
 42
0.0
  0
VERTEX
  8
Default
 10
148.799665563403
 20
283.148940529984
 30
0.0000000005393
 42
0.0
  0
VERTEX
  8
Default
 10
148.308209606804
 20
284.586742851713
 30
0.0000000005393
 42
0.0
  0
VERTEX
  8
Default
 10
147.964735200024
 20
286.066888049164
 30
0.0000000005393
 42
0.0
  0
VERTEX
  8
Default
 10
147.772766855273
 20
287.574187829652
 30
0.0000000005393
 42
0.0
  0
VERTEX
  8
Default
 10
147.734274427541
 20
289.093175257729
 30
0.0000000005393
 42
0.0
  0
VERTEX
  8
Default
 10
147.849652901227
 20
290.608263466863
 30
0.0000000005393
 42
0.0
  0
VERTEX
  8
Default
 10
148.117718337057
 20
292.103905601787
 30
0.0000000005393
 42
0.0
  0
VERTEX
  8
Default
 10
148.535720020911
 20
293.564754350269
 30
0.0000000005393
 42
0.0
  0
VERTEX
  8
Default
 10
149.099368689864
 20
294.975819427307
 30
0.0000000005393
 42
0.0
  0
VERTEX
  8
Default
 10
149.802880545835
 20
296.322621395732
 30
0.0000000005393
 42
0.0
  0
VERTEX
  8
Default
 10
150.639036605179
 20
297.591340244836
 30
0.0000000005393
 42
0.0
  0
VERTEX
  8
Default
 10
151.599256775225
 20
298.768957202374
 30
0.0000000005393
 42
0.0
  0
VERTEX
  8
Default
 10
152.673687897645
 20
299.843388324794
 30
0.0000000005393
 42
0.0
  0
VERTEX
  8
Default
 10
153.851304855184
 20
300.80360849484
 30
0.0000000005393
 42
0.0
  0
VERTEX
  8
Default
 10
155.120023704288
 20
301.639764554183
 30
0.0000000005393
 42
0.0
  0
VERTEX
  8
Default
 10
156.466825672713
 20
302.343276410154
 30
0.0000000005393
 42
0.0
  0
VERTEX
  8
Default
 10
157.877890749751
 20
302.906925079107
 30
0.0000000005393
 42
0.0
  0
VERTEX
  8
Default
 10
159.338739498233
 20
303.32492676296
 30
0.0000000005393
 42
0.0
  0
VERTEX
  8
Default
 10
160.834381633158
 20
303.59299219879
 30
0.0000000005393
 42
0.0
  0
VERTEX
  8
Default
 10
162.349469842292
 20
303.708370672475
 30
0.0000000005393
 42
0.0
  0
VERTEX
  8
Default
 10
163.868457270368
 20
303.669878244744
 30
0.0000000005393
 42
0.0
  0
VERTEX
  8
Default
 10
165.375757050857
 20
303.477909899992
 30
0.0000000005393
 42
0.0
  0
VERTEX
  8
Default
 10
166.855902248307
 20
303.134435493212
 30
0.0000000005393
 42
0.0
  0
VERTEX
  8
Default
 10
168.293704570036
 20
302.642979536612
 30
0.0000000005393
 42
0.0
  0
VERTEX
  8
Default
 10
169.674410218566
 20
302.008585033354
 30
0.0000000005393
 42
0.0
  0
VERTEX
  8
Default
 10
170.98385128555
 20
301.237761729514
 30
0.0000000005393
 42
0.0
  0
VERTEX
  8
Default
 10
172.208591133684
 20
300.33841931528
 30
0.0000000005393
 42
0.0
  0
VERTEX
  8
Default
 10
173.336062274787
 20
299.319786260826
 30
0.0000000005393
 42
0.0
  0
VERTEX
  8
Default
 10
174.354695329241
 20
298.192315119722
 30
0.0000000005393
 42
0.0
  0
VERTEX
  8
Default
 10
175.254037743475
 20
296.967575271588
 30
0.0000000005393
 42
0.0
  0
VERTEX
  8
Default
 10
176.024861047315
 20
295.658134204604
 30
0.0000000005393
 42
0.0
  0
VERTEX
  8
Default
 10
176.659255550572
 20
294.277428556074
 30
0.0000000005393
 42
0.0
  0
VERTEX
  8
Default
 10
177.150711507171
 20
292.839626234344
 30
0.0000000005393
 42
0.0
  0
VERTEX
  8
Default
 10
177.494185913951
 20
291.359481036894
 30
0.0000000005393
 42
0.0
  0
VERTEX
  8
Default
 10
177.686154258703
 20
289.852181256406
 30
0.0000000005393
 42
0.0
  0
VERTEX
  8
Default
 10
177.724646686434
 20
288.333193828329
 30
0.0000000005393
 42
0.0
  0
VERTEX
  8
Default
 10
177.609268212749
 20
286.818105619195
 30
0.0000000005393
 42
0.0
  0
VERTEX
  8
Default
 10
177.341202776918
 20
285.322463484271
 30
0.0000000005393
 42
0.0
  0
VERTEX
  8
Default
 10
176.923201093065
 20
283.861614735789
 30
0.0000000005393
 42
0.0
  0
VERTEX
  8
Default
 10
176.359552424111
 20
282.450549658751
 30
0.0000000005393
 42
0.0
  0
VERTEX
  8
Default
 10
175.65604056814
 20
281.103747690326
 30
0.0000000005393
 42
0.0
  0
VERTEX
  8
Default
 10
174.819884508797
 20
279.835028841222
 30
0.0000000005393
 42
0.0
  0
VERTEX
  8
Default
 10
173.85966433875
 20
278.657411883683
 30
0.0000000005393
 42
0.0
  0
SEQEND
  0
POLYLINE
  8
Default
 66
     1
 10
0.0
 20
0.0
 30
0.0000000004465
 70
     9
  0
VERTEX
  8
Default
 10
284.732050807594
 20
190.521166621971
 30
0.0000000004465
 42
0.0
  0
VERTEX
  8
Default
 10
284.931851652604
 20
191.003528531765
 30
0.0000000004474
 42
0.0
  0
VERTEX
  8
Default
 10
285.000000000025
 20
191.521166621971
 30
0.0000000004483
 42
0.0
  0
VERTEX
  8
Default
 10
284.931851652602
 20
192.038804712176
 30
0.0000000004493
 42
0.0
  0
VERTEX
  8
Default
 10
284.732050807594
 20
192.521166621971
 30
0.0000000004502
 42
0.0
  0
VERTEX
  8
Default
 10
284.414213562398
 20
192.935380184344
 30
0.000000000451
 42
0.0
  0
VERTEX
  8
Default
 10
284.000000000025
 20
193.25321742954
 30
0.0000000004515
 42
0.0
  0
VERTEX
  8
Default
 10
283.51763809023
 20
193.453018274549
 30
0.0000000004519
 42
0.0
  0
VERTEX
  8
Default
 10
283.000000000024
 20
193.52116662197
 30
0.000000000452
 42
0.0
  0
VERTEX
  8
Default
 10
282.482361909819
 20
193.453018274549
 30
0.0000000004519
 42
0.0
  0
VERTEX
  8
Default
 10
282.000000000024
 20
193.25321742954
 30
0.0000000004515
 42
0.0
  0
VERTEX
  8
Default
 10
281.585786437651
 20
192.935380184342
 30
0.0000000004509
 42
0.0
  0
VERTEX
  8
Default
 10
281.267949192456
 20
192.521166621969
 30
0.0000000004502
 42
0.0
  0
VERTEX
  8
Default
 10
281.068148347447
 20
192.038804712175
 30
0.0000000004493
 42
0.0
  0
VERTEX
  8
Default
 10
281.000000000025
 20
191.52116662197
 30
0.0000000004483
 42
0.0
  0
VERTEX
  8
Default
 10
281.068148347447
 20
191.003528531764
 30
0.0000000004474
 42
0.0
  0
VERTEX
  8
Default
 10
281.267949192457
 20
190.521166621969
 30
0.0000000004465
 42
0.0
  0
VERTEX
  8
Default
 10
281.585786437653
 20
190.106953059596
 30
0.0000000004458
 42
0.0
  0
VERTEX
  8
Default
 10
282.000000000026
 20
189.789115814401
 30
0.0000000004451
 42
0.0
  0
VERTEX
  8
Default
 10
282.48236190982
 20
189.589314969392
 30
0.0000000004448
 42
0.0
  0
VERTEX
  8
Default
 10
283.000000000025
 20
189.52116662197
 30
0.0000000004447
 42
0.0
  0
VERTEX
  8
Default
 10
283.51763809023
 20
189.589314969393
 30
0.0000000004448
 42
0.0
  0
VERTEX
  8
Default
 10
284.000000000026
 20
189.789115814402
 30
0.0000000004451
 42
0.0
  0
VERTEX
  8
Default
 10
284.414213562399
 20
190.106953059598
 30
0.0000000004458
 42
0.0
  0
SEQEND
  0
POLYLINE
  8
Default
 66
     1
 10
0.0
 20
0.0
 30
0.0000000004575
 70
     9
  0
VERTEX
  8
Default
 10
206.041231989324
 20
243.564295803591
 30
0.0000000004575
 42
0.0
  0
VERTEX
  8
Default
 10
205.679460556981
 20
243.714146437346
 30
0.0000000004578
 42
0.0
  0
VERTEX
  8
Default
 10
205.3688003852
 20
243.952524371245
 30
0.0000000004583
 42
0.0
  0
VERTEX
  8
Default
 10
205.130422451302
 20
244.263184543024
 30
0.0000000004588
 42
0.0
  0
VERTEX
  8
Default
 10
204.980571817544
 20
244.624955975369
 30
0.0000000004595
 42
0.0
  0
VERTEX
  8
Default
 10
204.92946055698
 20
245.013184543024
 30
0.0000000004602
 42
0.0
  0
VERTEX
  8
Default
 10
204.980571817544
 20
245.401413110677
 30
0.0000000004609
 42
0.0
  0
VERTEX
  8
Default
 10
205.130422451305
 20
245.763184543024
 30
0.0000000004616
 42
0.0
  0
VERTEX
  8
Default
 10
205.3688003852
 20
246.073844714804
 30
0.0000000004622
 42
0.0
  0
VERTEX
  8
Default
 10
205.679460556981
 20
246.3122226487
 30
0.0000000004626
 42
0.0
  0
VERTEX
  8
Default
 10
206.041231989328
 20
246.462073282458
 30
0.0000000004628
 42
0.0
  0
VERTEX
  8
Default
 10
206.429460556982
 20
246.513184543024
 30
0.0000000004629
 42
0.0
  0
VERTEX
  8
Default
 10
206.817689124636
 20
246.462073282459
 30
0.0000000004628
 42
0.0
  0
VERTEX
  8
Default
 10
207.179460556981
 20
246.312222648701
 30
0.0000000004626
 42
0.0
  0
VERTEX
  8
Default
 10
207.490120728759
 20
246.073844714804
 30
0.0000000004621
 42
0.0
  0
VERTEX
  8
Default
 10
207.728498662659
 20
245.763184543024
 30
0.0000000004616
 42
0.0
  0
VERTEX
  8
Default
 10
207.878349296411
 20
245.401413110678
 30
0.0000000004609
 42
0.0
  0
VERTEX
  8
Default
 10
207.92946055698
 20
245.013184543024
 30
0.0000000004602
 42
0.0
  0
VERTEX
  8
Default
 10
207.878349296412
 20
244.62495597537
 30
0.0000000004595
 42
0.0
  0
VERTEX
  8
Default
 10
207.728498662655
 20
244.263184543024
 30
0.0000000004588
 42
0.0
  0
VERTEX
  8
Default
 10
207.490120728759
 20
243.952524371244
 30
0.0000000004583
 42
0.0
  0
VERTEX
  8
Default
 10
207.179460556981
 20
243.714146437347
 30
0.0000000004578
 42
0.0
  0
VERTEX
  8
Default
 10
206.817689124632
 20
243.564295803592
 30
0.0000000004575
 42
0.0
  0
VERTEX
  8
Default
 10
206.429460556979
 20
243.513184543024
 30
0.0000000004575
 42
0.0
  0
SEQEND
  0
POLYLINE
  8
Default
 66
     1
 10
0.0
 20
0.0
 30
0.0000000001433
 70
     9
  0
VERTEX
  8
Default
 10
234.40786002085
 20
50.1857258262736
 30
0.0000000001433
 42
0.0
  0
VERTEX
  8
Default
 10
234.764879133976
 20
50.024880762433
 30
0.000000000143
 42
0.0
  0
VERTEX
  8
Default
 10
235.151362881656
 20
49.9619197071815
 30
0.0000000001429
 42
0.0
  0
VERTEX
  8
Default
 10
235.540973035179
 20
50.001133352385
 30
0.0000000001429
 42
0.0
  0
VERTEX
  8
Default
 10
235.907158306447
 20
50.1398493529276
 30
0.0000000001432
 42
0.0
  0
VERTEX
  8
Default
 10
236.224963774369
 20
50.3686144426114
 30
0.0000000001436
 42
0.0
  0
VERTEX
  8
Default
 10
236.472731521506
 20
50.6718386586257
 30
0.0000000001442
 42
0.0
  0
VERTEX
  8
Default
 10
236.633576585348
 20
51.0288577717517
 30
0.0000000001448
 42
0.0
  0
VERTEX
  8
Default
 10
236.696537640599
 20
51.4153415194317
 30
0.0000000001455
 42
0.0
  0
VERTEX
  8
Default
 10
236.657323995396
 20
51.8049516729558
 30
0.0000000001462
 42
0.0
  0
VERTEX
  8
Default
 10
236.518607994853
 20
52.1711369442225
 30
0.0000000001469
 42
0.0
  0
VERTEX
  8
Default
 10
236.289842905169
 20
52.4889424121448
 30
0.0000000001475
 42
0.0
  0
VERTEX
  8
Default
 10
235.986618689155
 20
52.7367101592818
 30
0.0000000001479
 42
0.0
  0
VERTEX
  8
Default
 10
235.629599576029
 20
52.8975552231227
 30
0.0000000001482
 42
0.0
  0
VERTEX
  8
Default
 10
235.243115828349
 20
52.9605162783748
 30
0.0000000001484
 42
0.0
  0
VERTEX
  8
Default
 10
234.853505674825
 20
52.9213026331706
 30
0.0000000001483
 42
0.0
  0
VERTEX
  8
Default
 10
234.487320403558
 20
52.7825866326284
 30
0.000000000148
 42
0.0
  0
VERTEX
  8
Default
 10
234.169514935636
 20
52.5538215429448
 30
0.0000000001476
 42
0.0
  0
VERTEX
  8
Default
 10
233.921747188499
 20
52.2505973269303
 30
0.000000000147
 42
0.0
  0
VERTEX
  8
Default
 10
233.760902124658
 20
51.8935782138046
 30
0.0000000001464
 42
0.0
  0
VERTEX
  8
Default
 10
233.697941069406
 20
51.5070944661242
 30
0.0000000001457
 42
0.0
  0
VERTEX
  8
Default
 10
233.73715471461
 20
51.1174843126002
 30
0.000000000145
 42
0.0
  0
VERTEX
  8
Default
 10
233.875870715152
 20
50.7512990413335
 30
0.0000000001443
 42
0.0
  0
VERTEX
  8
Default
 10
234.104635804836
 20
50.4334935734116
 30
0.0000000001437
 42
0.0
  0
SEQEND
  0
POLYLINE
  8
Default
 66
     1
 10
0.0
 20
0.0
 30
0.0000000004448
 70
     9
  0
VERTEX
  8
Default
 10
291.48236190982
 20
189.5893149694
 30
0.0000000004448
 42
0.0
  0
VERTEX
  8
Default
 10
292.000000000025
 20
189.521166621977
 30
0.0000000004447
 42
0.0
  0
VERTEX
  8
Default
 10
292.51763809023
 20
189.589314969399
 30
0.0000000004448
 42
0.0
  0
VERTEX
  8
Default
 10
293.000000000025
 20
189.789115814408
 30
0.0000000004451
 42
0.0
  0
VERTEX
  8
Default
 10
293.414213562398
 20
190.106953059605
 30
0.0000000004458
 42
0.0
  0
VERTEX
  8
Default
 10
293.732050807594
 20
190.521166621979
 30
0.0000000004465
 42
0.0
  0
VERTEX
  8
Default
 10
293.931851652603
 20
191.003528531773
 30
0.0000000004474
 42
0.0
  0
VERTEX
  8
Default
 10
294.000000000025
 20
191.521166621978
 30
0.0000000004484
 42
0.0
  0
VERTEX
  8
Default
 10
293.931851652602
 20
192.038804712183
 30
0.0000000004493
 42
0.0
  0
VERTEX
  8
Default
 10
293.732050807593
 20
192.521166621979
 30
0.0000000004502
 42
0.0
  0
VERTEX
  8
Default
 10
293.414213562397
 20
192.935380184351
 30
0.0000000004509
 42
0.0
  0
VERTEX
  8
Default
 10
293.000000000024
 20
193.253217429546
 30
0.0000000004515
 42
0.0
  0
VERTEX
  8
Default
 10
292.517638090229
 20
193.453018274555
 30
0.0000000004519
 42
0.0
  0
VERTEX
  8
Default
 10
292.000000000024
 20
193.521166621978
 30
0.000000000452
 42
0.0
  0
VERTEX
  8
Default
 10
291.48236190982
 20
193.453018274555
 30
0.0000000004519
 42
0.0
  0
VERTEX
  8
Default
 10
291.000000000024
 20
193.253217429546
 30
0.0000000004515
 42
0.0
  0
VERTEX
  8
Default
 10
290.585786437651
 20
192.935380184351
 30
0.0000000004509
 42
0.0
  0
VERTEX
  8
Default
 10
290.267949192456
 20
192.521166621977
 30
0.0000000004502
 42
0.0
  0
VERTEX
  8
Default
 10
290.068148347445
 20
192.038804712181
 30
0.0000000004493
 42
0.0
  0
VERTEX
  8
Default
 10
290.000000000025
 20
191.521166621976
 30
0.0000000004484
 42
0.0
  0
VERTEX
  8
Default
 10
290.068148347447
 20
191.003528531772
 30
0.0000000004474
 42
0.0
  0
VERTEX
  8
Default
 10
290.267949192457
 20
190.521166621977
 30
0.0000000004465
 42
0.0
  0
VERTEX
  8
Default
 10
290.585786437652
 20
190.106953059604
 30
0.0000000004458
 42
0.0
  0
VERTEX
  8
Default
 10
291.000000000026
 20
189.789115814408
 30
0.0000000004451
 42
0.0
  0
SEQEND
  0
POLYLINE
  8
Default
 66
     1
 10
0.0
 20
0.0
 30
0.0000000005407
 70
     9
  0
VERTEX
  8
Default
 10
148.028498662664
 20
305.463184543029
 30
0.0000000005407
 42
0.0
  0
VERTEX
  8
Default
 10
147.790120728768
 20
305.773844714809
 30
0.0000000005412
 42
0.0
  0
VERTEX
  8
Default
 10
147.479460556988
 20
306.012222648706
 30
0.0000000005417
 42
0.0
  0
VERTEX
  8
Default
 10
147.117689124642
 20
306.162073282463
 30
0.000000000542
 42
0.0
  0
VERTEX
  8
Default
 10
146.729460556988
 20
306.213184543029
 30
0.0000000005421
 42
0.0
  0
VERTEX
  8
Default
 10
146.341231989334
 20
306.162073282463
 30
0.000000000542
 42
0.0
  0
VERTEX
  8
Default
 10
145.979460556988
 20
306.012222648706
 30
0.0000000005417
 42
0.0
  0
VERTEX
  8
Default
 10
145.668800385208
 20
305.773844714809
 30
0.0000000005412
 42
0.0
  0
VERTEX
  8
Default
 10
145.430422451311
 20
305.463184543029
 30
0.0000000005407
 42
0.0
  0
VERTEX
  8
Default
 10
145.280571817554
 20
305.101413110683
 30
0.00000000054
 42
0.0
  0
VERTEX
  8
Default
 10
145.229460556988
 20
304.713184543029
 30
0.0000000005393
 42
0.0
  0
VERTEX
  8
Default
 10
145.280571817554
 20
304.324955975375
 30
0.0000000005386
 42
0.0
  0
VERTEX
  8
Default
 10
145.430422451311
 20
303.963184543029
 30
0.0000000005379
 42
0.0
  0
VERTEX
  8
Default
 10
145.668800385208
 20
303.652524371249
 30
0.0000000005374
 42
0.0
  0
VERTEX
  8
Default
 10
145.979460556988
 20
303.414146437352
 30
0.0000000005369
 42
0.0
  0
VERTEX
  8
Default
 10
146.341231989334
 20
303.264295803595
 30
0.0000000005366
 42
0.0
  0
VERTEX
  8
Default
 10
146.729460556988
 20
303.213184543029
 30
0.0000000005366
 42
0.0
  0
VERTEX
  8
Default
 10
147.117689124642
 20
303.264295803595
 30
0.0000000005366
 42
0.0
  0
VERTEX
  8
Default
 10
147.479460556988
 20
303.414146437352
 30
0.0000000005369
 42
0.0
  0
VERTEX
  8
Default
 10
147.790120728768
 20
303.652524371249
 30
0.0000000005374
 42
0.0
  0
VERTEX
  8
Default
 10
148.028498662664
 20
303.963184543029
 30
0.0000000005379
 42
0.0
  0
VERTEX
  8
Default
 10
148.178349296421
 20
304.324955975375
 30
0.0000000005386
 42
0.0
  0
VERTEX
  8
Default
 10
148.229460556988
 20
304.713184543029
 30
0.0000000005393
 42
0.0
  0
VERTEX
  8
Default
 10
148.178349296421
 20
305.101413110683
 30
0.00000000054
 42
0.0
  0
SEQEND
  0
POLYLINE
  8
Default
 66
     1
 10
0.0
 20
0.0
 30
0.0000000004485
 70
     9
  0
VERTEX
  8
Default
 10
112.130422451303
 20
238.663184543037
 30
0.0000000004485
 42
0.0
  0
VERTEX
  8
Default
 10
111.980571817544
 20
239.024955975381
 30
0.0000000004491
 42
0.0
  0
VERTEX
  8
Default
 10
111.929460556981
 20
239.413184543038
 30
0.0000000004498
 42
0.0
  0
VERTEX
  8
Default
 10
111.980571817545
 20
239.801413110688
 30
0.0000000004505
 42
0.0
  0
VERTEX
  8
Default
 10
112.1304224513
 20
240.163184543037
 30
0.0000000004512
 42
0.0
  0
VERTEX
  8
Default
 10
112.368800385199
 20
240.473844714818
 30
0.0000000004518
 42
0.0
  0
VERTEX
  8
Default
 10
112.67946055698
 20
240.712222648711
 30
0.0000000004522
 42
0.0
  0
VERTEX
  8
Default
 10
113.041231989328
 20
240.86207328247
 30
0.0000000004525
 42
0.0
  0
VERTEX
  8
Default
 10
113.429460556982
 20
240.913184543038
 30
0.0000000004526
 42
0.0
  0
VERTEX
  8
Default
 10
113.817689124635
 20
240.862073282471
 30
0.0000000004525
 42
0.0
  0
VERTEX
  8
Default
 10
114.179460556981
 20
240.712222648713
 30
0.0000000004522
 42
0.0
  0
VERTEX
  8
Default
 10
114.490120728759
 20
240.473844714817
 30
0.0000000004518
 42
0.0
  0
VERTEX
  8
Default
 10
114.728498662654
 20
240.163184543036
 30
0.0000000004512
 42
0.0
  0
VERTEX
  8
Default
 10
114.878349296413
 20
239.80141311069
 30
0.0000000004505
 42
0.0
  0
VERTEX
  8
Default
 10
114.929460556982
 20
239.413184543037
 30
0.0000000004499
 42
0.0
  0
VERTEX
  8
Default
 10
114.878349296412
 20
239.024955975383
 30
0.0000000004491
 42
0.0
  0
VERTEX
  8
Default
 10
114.728498662657
 20
238.663184543036
 30
0.0000000004485
 42
0.0
  0
VERTEX
  8
Default
 10
114.490120728755
 20
238.352524371257
 30
0.0000000004479
 42
0.0
  0
VERTEX
  8
Default
 10
114.179460556982
 20
238.11414643736
 30
0.0000000004475
 42
0.0
  0
VERTEX
  8
Default
 10
113.817689124634
 20
237.964295803603
 30
0.0000000004472
 42
0.0
  0
VERTEX
  8
Default
 10
113.429460556981
 20
237.913184543038
 30
0.0000000004471
 42
0.0
  0
VERTEX
  8
Default
 10
113.041231989326
 20
237.964295803603
 30
0.0000000004472
 42
0.0
  0
VERTEX
  8
Default
 10
112.679460556981
 20
238.114146437358
 30
0.0000000004475
 42
0.0
  0
VERTEX
  8
Default
 10
112.368800385194
 20
238.352524371258
 30
0.0000000004479
 42
0.0
  0
SEQEND
  0
POLYLINE
  8
Default
 66
     1
 10
0.0
 20
0.0
 30
0.0000000004574
 70
     9
  0
VERTEX
  8
Default
 10
118.641231989327
 20
243.564295803602
 30
0.0000000004574
 42
0.0
  0
VERTEX
  8
Default
 10
118.279460556982
 20
243.714146437359
 30
0.0000000004577
 42
0.0
  0
VERTEX
  8
Default
 10
117.968800385196
 20
243.952524371257
 30
0.0000000004582
 42
0.0
  0
VERTEX
  8
Default
 10
117.730422451304
 20
244.263184543036
 30
0.0000000004588
 42
0.0
  0
VERTEX
  8
Default
 10
117.580571817545
 20
244.624955975382
 30
0.0000000004594
 42
0.0
  0
VERTEX
  8
Default
 10
117.529460556983
 20
245.013184543036
 30
0.0000000004601
 42
0.0
  0
VERTEX
  8
Default
 10
117.580571817547
 20
245.40141311069
 30
0.0000000004608
 42
0.0
  0
VERTEX
  8
Default
 10
117.730422451302
 20
245.763184543036
 30
0.0000000004615
 42
0.0
  0
VERTEX
  8
Default
 10
117.968800385201
 20
246.073844714817
 30
0.0000000004621
 42
0.0
  0
VERTEX
  8
Default
 10
118.279460556978
 20
246.312222648712
 30
0.0000000004625
 42
0.0
  0
VERTEX
  8
Default
 10
118.641231989329
 20
246.462073282469
 30
0.0000000004628
 42
0.0
  0
VERTEX
  8
Default
 10
119.029460556982
 20
246.513184543035
 30
0.0000000004629
 42
0.0
  0
VERTEX
  8
Default
 10
119.417689124637
 20
246.46207328247
 30
0.0000000004628
 42
0.0
  0
VERTEX
  8
Default
 10
119.779460556978
 20
246.312222648713
 30
0.0000000004625
 42
0.0
  0
VERTEX
  8
Default
 10
120.09012072876
 20
246.073844714816
 30
0.0000000004621
 42
0.0
  0
VERTEX
  8
Default
 10
120.328498662655
 20
245.763184543035
 30
0.0000000004615
 42
0.0
  0
VERTEX
  8
Default
 10
120.478349296414
 20
245.40141311069
 30
0.0000000004608
 42
0.0
  0
VERTEX
  8
Default
 10
120.529460556983
 20
245.013184543036
 30
0.0000000004601
 42
0.0
  0
VERTEX
  8
Default
 10
120.478349296412
 20
244.624955975382
 30
0.0000000004594
 42
0.0
  0
VERTEX
  8
Default
 10
120.328498662658
 20
244.263184543035
 30
0.0000000004587
 42
0.0
  0
VERTEX
  8
Default
 10
120.090120728756
 20
243.952524371256
 30
0.0000000004582
 42
0.0
  0
VERTEX
  8
Default
 10
119.779460556983
 20
243.714146437359
 30
0.0000000004577
 42
0.0
  0
VERTEX
  8
Default
 10
119.417689124635
 20
243.564295803602
 30
0.0000000004574
 42
0.0
  0
VERTEX
  8
Default
 10
119.029460556977
 20
243.513184543035
 30
0.0000000004574
 42
0.0
  0
SEQEND
  0
POLYLINE
  8
Default
 66
     1
 10
0.0
 20
0.0
 30
0.0000000003912
 70
     9
  0
VERTEX
  8
Default
 10
111.172773826863
 20
197.45750686772
 30
0.0000000003912
 42
0.0
  0
VERTEX
  8
Default
 10
111.5508099378
 20
197.097392873942
 30
0.0000000003905
 42
0.0
  0
VERTEX
  8
Default
 10
112.009169140622
 20
196.84739241219
 30
0.0000000003901
 42
0.0
  0
VERTEX
  8
Default
 10
112.516615013131
 20
196.724542600789
 30
0.0000000003899
 42
0.0
  0
VERTEX
  8
Default
 10
113.038565957709
 20
196.737215451365
 30
0.0000000003899
 42
0.0
  0
VERTEX
  8
Default
 10
113.539451880047
 20
196.884547330095
 30
0.0000000003902
 42
0.0
  0
VERTEX
  8
Default
 10
113.985138232293
 20
197.156497812922
 30
0.0000000003907
 42
0.0
  0
VERTEX
  8
Default
 10
114.345252226071
 20
197.534533923859
 30
0.0000000003914
 42
0.0
  0
VERTEX
  8
Default
 10
114.595252687822
 20
197.992893126681
 30
0.0000000003922
 42
0.0
  0
VERTEX
  8
Default
 10
114.718102499224
 20
198.50033899919
 30
0.0000000003931
 42
0.0
  0
VERTEX
  8
Default
 10
114.705429648648
 20
199.022289943767
 30
0.0000000003941
 42
0.0
  0
VERTEX
  8
Default
 10
114.558097769917
 20
199.523175866106
 30
0.000000000395
 42
0.0
  0
VERTEX
  8
Default
 10
114.286147287091
 20
199.968862218352
 30
0.0000000003958
 42
0.0
  0
VERTEX
  8
Default
 10
113.908111176153
 20
200.32897621213
 30
0.0000000003965
 42
0.0
  0
VERTEX
  8
Default
 10
113.449751973332
 20
200.578976673881
 30
0.000000000397
 42
0.0
  0
VERTEX
  8
Default
 10
112.942306100823
 20
200.701826485283
 30
0.0000000003972
 42
0.0
  0
VERTEX
  8
Default
 10
112.420355156246
 20
200.689153634707
 30
0.0000000003972
 42
0.0
  0
VERTEX
  8
Default
 10
111.919469233907
 20
200.541821755976
 30
0.0000000003969
 42
0.0
  0
VERTEX
  8
Default
 10
111.473782881661
 20
200.26987127315
 30
0.0000000003964
 42
0.0
  0
VERTEX
  8
Default
 10
111.113668887883
 20
199.891835162213
 30
0.0000000003957
 42
0.0
  0
VERTEX
  8
Default
 10
110.863668426131
 20
199.433475959391
 30
0.0000000003948
 42
0.0
  0
VERTEX
  8
Default
 10
110.740818614729
 20
198.926030086882
 30
0.0000000003939
 42
0.0
  0
VERTEX
  8
Default
 10
110.753491465306
 20
198.404079142304
 30
0.0000000003929
 42
0.0
  0
VERTEX
  8
Default
 10
110.900823344037
 20
197.903193219965
 30
0.000000000392
 42
0.0
  0
SEQEND
  0
POLYLINE
  8
Default
 66
     1
 10
0.0
 20
0.0
 30
0.000000000271
 70
     9
  0
VERTEX
  8
Default
 10
281.267949192442
 20
119.821166621961
 30
0.000000000271
 42
0.0
  0
VERTEX
  8
Default
 10
281.068148347433
 20
119.338804712167
 30
0.0000000002701
 42
0.0
  0
VERTEX
  8
Default
 10
281.000000000012
 20
118.821166621961
 30
0.0000000002691
 42
0.0
  0
VERTEX
  8
Default
 10
281.068148347434
 20
118.303528531756
 30
0.0000000002682
 42
0.0
  0
VERTEX
  8
Default
 10
281.267949192444
 20
117.821166621961
 30
0.0000000002673
 42
0.0
  0
VERTEX
  8
Default
 10
281.58578643764
 20
117.406953059588
 30
0.0000000002666
 42
0.0
  0
VERTEX
  8
Default
 10
282.000000000013
 20
117.089115814392
 30
0.000000000266
 42
0.0
  0
VERTEX
  8
Default
 10
282.482361909808
 20
116.889314969384
 30
0.0000000002656
 42
0.0
  0
VERTEX
  8
Default
 10
283.000000000014
 20
116.821166621963
 30
0.0000000002655
 42
0.0
  0
VERTEX
  8
Default
 10
283.517638090218
 20
116.889314969385
 30
0.0000000002656
 42
0.0
  0
VERTEX
  8
Default
 10
284.000000000014
 20
117.089115814395
 30
0.000000000266
 42
0.0
  0
VERTEX
  8
Default
 10
284.414213562386
 20
117.406953059591
 30
0.0000000002665
 42
0.0
  0
VERTEX
  8
Default
 10
284.732050807582
 20
117.821166621964
 30
0.0000000002674
 42
0.0
  0
VERTEX
  8
Default
 10
284.93185165259
 20
118.303528531759
 30
0.0000000002682
 42
0.0
  0
VERTEX
  8
Default
 10
285.000000000012
 20
118.821166621965
 30
0.0000000002692
 42
0.0
  0
VERTEX
  8
Default
 10
284.931851652589
 20
119.338804712169
 30
0.0000000002701
 42
0.0
  0
VERTEX
  8
Default
 10
284.732050807581
 20
119.821166621965
 30
0.000000000271
 42
0.0
  0
VERTEX
  8
Default
 10
284.414213562385
 20
120.235380184337
 30
0.0000000002717
 42
0.0
  0
VERTEX
  8
Default
 10
284.000000000011
 20
120.553217429533
 30
0.0000000002724
 42
0.0
  0
VERTEX
  8
Default
 10
283.517638090215
 20
120.753018274541
 30
0.0000000002727
 42
0.0
  0
VERTEX
  8
Default
 10
283.00000000001
 20
120.821166621963
 30
0.0000000002728
 42
0.0
  0
VERTEX
  8
Default
 10
282.482361909804
 20
120.753018274541
 30
0.0000000002727
 42
0.0
  0
VERTEX
  8
Default
 10
282.00000000001
 20
120.553217429531
 30
0.0000000002723
 42
0.0
  0
VERTEX
  8
Default
 10
281.585786437637
 20
120.235380184334
 30
0.0000000002717
 42
0.0
  0
SEQEND
  0
POLYLINE
  8
Default
 66
     1
 10
0.0
 20
0.0
 30
0.0000000006976
 70
     9
  0
VERTEX
  8
Default
 10
283.517638090248
 20
329.457919948036
 30
0.0000000006976
 42
0.0
  0
VERTEX
  8
Default
 10
284.000000000043
 20
329.657720793044
 30
0.000000000698
 42
0.0
  0
VERTEX
  8
Default
 10
284.414213562416
 20
329.97555803824
 30
0.0000000006986
 42
0.0
  0
VERTEX
  8
Default
 10
284.732050807612
 20
330.389771600613
 30
0.0000000006993
 42
0.0
  0
VERTEX
  8
Default
 10
284.931851652621
 20
330.872133510408
 30
0.0000000007002
 42
0.0
  0
VERTEX
  8
Default
 10
285.000000000043
 20
331.389771600613
 30
0.0000000007012
 42
0.0
  0
VERTEX
  8
Default
 10
284.931851652621
 20
331.907409690818
 30
0.0000000007021
 42
0.0
  0
VERTEX
  8
Default
 10
284.732050807612
 20
332.389771600614
 30
0.000000000703
 42
0.0
  0
VERTEX
  8
Default
 10
284.414213562416
 20
332.803985162987
 30
0.0000000007038
 42
0.0
  0
VERTEX
  8
Default
 10
284.000000000043
 20
333.121822408182
 30
0.0000000007043
 42
0.0
  0
VERTEX
  8
Default
 10
283.517638090248
 20
333.321623253192
 30
0.0000000007047
 42
0.0
  0
VERTEX
  8
Default
 10
283.000000000044
 20
333.389771600614
 30
0.0000000007048
 42
0.0
  0
VERTEX
  8
Default
 10
282.482361909838
 20
333.321623253192
 30
0.0000000007047
 42
0.0
  0
VERTEX
  8
Default
 10
282.000000000043
 20
333.121822408183
 30
0.0000000007043
 42
0.0
  0
VERTEX
  8
Default
 10
281.58578643767
 20
332.803985162987
 30
0.0000000007038
 42
0.0
  0
VERTEX
  8
Default
 10
281.267949192474
 20
332.389771600614
 30
0.000000000703
 42
0.0
  0
VERTEX
  8
Default
 10
281.068148347465
 20
331.907409690819
 30
0.0000000007021
 42
0.0
  0
VERTEX
  8
Default
 10
281.000000000043
 20
331.389771600614
 30
0.0000000007012
 42
0.0
  0
VERTEX
  8
Default
 10
281.068148347465
 20
330.872133510409
 30
0.0000000007002
 42
0.0
  0
VERTEX
  8
Default
 10
281.267949192474
 20
330.389771600614
 30
0.0000000006993
 42
0.0
  0
VERTEX
  8
Default
 10
281.58578643767
 20
329.975558038241
 30
0.0000000006986
 42
0.0
  0
VERTEX
  8
Default
 10
282.000000000043
 20
329.657720793045
 30
0.000000000698
 42
0.0
  0
VERTEX
  8
Default
 10
282.482361909838
 20
329.457919948036
 30
0.0000000006976
 42
0.0
  0
VERTEX
  8
Default
 10
283.000000000043
 20
329.389771600614
 30
0.0000000006975
 42
0.0
  0
SEQEND
  0
POLYLINE
  8
Default
 66
     1
 10
0.0
 20
0.0
 30
0.000000000397
 70
     9
  0
VERTEX
  8
Default
 10
173.449751973332
 20
200.578976673873
 30
0.000000000397
 42
0.0
  0
VERTEX
  8
Default
 10
172.942306100824
 20
200.701826485275
 30
0.0000000003972
 42
0.0
  0
VERTEX
  8
Default
 10
172.420355156246
 20
200.689153634699
 30
0.0000000003972
 42
0.0
  0
VERTEX
  8
Default
 10
171.919469233907
 20
200.541821755968
 30
0.0000000003969
 42
0.0
  0
VERTEX
  8
Default
 10
171.473782881661
 20
200.269871273142
 30
0.0000000003964
 42
0.0
  0
VERTEX
  8
Default
 10
171.113668887883
 20
199.891835162205
 30
0.0000000003958
 42
0.0
  0
VERTEX
  8
Default
 10
170.863668426131
 20
199.433475959383
 30
0.0000000003949
 42
0.0
  0
VERTEX
  8
Default
 10
170.74081861473
 20
198.926030086874
 30
0.000000000394
 42
0.0
  0
VERTEX
  8
Default
 10
170.753491465306
 20
198.404079142296
 30
0.000000000393
 42
0.0
  0
VERTEX
  8
Default
 10
170.900823344037
 20
197.903193219957
 30
0.0000000003921
 42
0.0
  0
VERTEX
  8
Default
 10
171.172773826863
 20
197.457506867712
 30
0.0000000003913
 42
0.0
  0
VERTEX
  8
Default
 10
171.5508099378
 20
197.097392873934
 30
0.0000000003906
 42
0.0
  0
VERTEX
  8
Default
 10
172.009169140622
 20
196.847392412182
 30
0.0000000003902
 42
0.0
  0
VERTEX
  8
Default
 10
172.516615013131
 20
196.724542600781
 30
0.0000000003899
 42
0.0
  0
VERTEX
  8
Default
 10
173.038565957709
 20
196.737215451357
 30
0.00000000039
 42
0.0
  0
VERTEX
  8
Default
 10
173.539451880047
 20
196.884547330087
 30
0.0000000003903
 42
0.0
  0
VERTEX
  8
Default
 10
173.985138232293
 20
197.156497812914
 30
0.0000000003908
 42
0.0
  0
VERTEX
  8
Default
 10
174.345252226071
 20
197.534533923851
 30
0.0000000003914
 42
0.0
  0
VERTEX
  8
Default
 10
174.595252687822
 20
197.992893126673
 30
0.0000000003923
 42
0.0
  0
VERTEX
  8
Default
 10
174.718102499224
 20
198.500338999181
 30
0.0000000003932
 42
0.0
  0
VERTEX
  8
Default
 10
174.705429648648
 20
199.022289943759
 30
0.0000000003942
 42
0.0
  0
VERTEX
  8
Default
 10
174.558097769917
 20
199.523175866098
 30
0.0000000003951
 42
0.0
  0
VERTEX
  8
Default
 10
174.286147287091
 20
199.968862218344
 30
0.0000000003959
 42
0.0
  0
VERTEX
  8
Default
 10
173.908111176153
 20
200.328976212122
 30
0.0000000003966
 42
0.0
  0
SEQEND
  0
POLYLINE
  8
Default
 66
     1
 10
0.0
 20
0.0
 30
0.0000000002978
 70
     9
  0
VERTEX
  8
Default
 10
234.447239355014
 20
134.431526171912
 30
0.0000000002978
 42
0.0
  0
VERTEX
  8
Default
 10
234.809010787361
 20
134.281675538154
 30
0.0000000002974
 42
0.0
  0
VERTEX
  8
Default
 10
235.197239355015
 20
134.230564277588
 30
0.0000000002974
 42
0.0
  0
VERTEX
  8
Default
 10
235.585467922669
 20
134.281675538154
 30
0.0000000002974
 42
0.0
  0
VERTEX
  8
Default
 10
235.947239355014
 20
134.431526171911
 30
0.0000000002978
 42
0.0
  0
VERTEX
  8
Default
 10
236.257899526796
 20
134.669904105807
 30
0.0000000002982
 42
0.0
  0
VERTEX
  8
Default
 10
236.496277460692
 20
134.980564277587
 30
0.0000000002988
 42
0.0
  0
VERTEX
  8
Default
 10
236.64612809445
 20
135.342335709934
 30
0.0000000002994
 42
0.0
  0
VERTEX
  8
Default
 10
236.697239355014
 20
135.730564277588
 30
0.0000000003001
 42
0.0
  0
VERTEX
  8
Default
 10
236.64612809445
 20
136.118792845241
 30
0.0000000003009
 42
0.0
  0
VERTEX
  8
Default
 10
236.49627746069
 20
136.480564277587
 30
0.0000000003015
 42
0.0
  0
VERTEX
  8
Default
 10
236.257899526795
 20
136.791224449367
 30
0.0000000003021
 42
0.0
  0
VERTEX
  8
Default
 10
235.947239355015
 20
137.029602383264
 30
0.0000000003025
 42
0.0
  0
VERTEX
  8
Default
 10
235.585467922667
 20
137.179453017021
 30
0.0000000003028
 42
0.0
  0
VERTEX
  8
Default
 10
235.197239355014
 20
137.230564277588
 30
0.0000000003029
 42
0.0
  0
VERTEX
  8
Default
 10
234.809010787359
 20
137.179453017021
 30
0.0000000003028
 42
0.0
  0
VERTEX
  8
Default
 10
234.447239355014
 20
137.029602383265
 30
0.0000000003025
 42
0.0
  0
VERTEX
  8
Default
 10
234.136579183236
 20
136.791224449366
 30
0.0000000003021
 42
0.0
  0
VERTEX
  8
Default
 10
233.898201249337
 20
136.480564277588
 30
0.0000000003015
 42
0.0
  0
VERTEX
  8
Default
 10
233.748350615583
 20
136.118792845242
 30
0.0000000003009
 42
0.0
  0
VERTEX
  8
Default
 10
233.697239355014
 20
135.730564277587
 30
0.0000000003001
 42
0.0
  0
VERTEX
  8
Default
 10
233.748350615583
 20
135.342335709934
 30
0.0000000002994
 42
0.0
  0
VERTEX
  8
Default
 10
233.898201249339
 20
134.980564277588
 30
0.0000000002988
 42
0.0
  0
VERTEX
  8
Default
 10
234.136579183237
 20
134.669904105806
 30
0.0000000002982
 42
0.0
  0
SEQEND
  0
POLYLINE
  8
Default
 66
     1
 10
0.0
 20
0.0
 30
0.0000000006892
 70
     9
  0
VERTEX
  8
Default
 10
124.286147287112
 20
369.96886221835
 30
0.0000000006892
 42
0.0
  0
VERTEX
  8
Default
 10
123.908111176175
 20
370.328976212128
 30
0.0000000006899
 42
0.0
  0
VERTEX
  8
Default
 10
123.449751973353
 20
370.57897667388
 30
0.0000000006904
 42
0.0
  0
VERTEX
  8
Default
 10
122.942306100844
 20
370.701826485281
 30
0.0000000006906
 42
0.0
  0
VERTEX
  8
Default
 10
122.420355156267
 20
370.689153634705
 30
0.0000000006906
 42
0.0
  0
VERTEX
  8
Default
 10
121.919469233928
 20
370.541821755974
 30
0.0000000006903
 42
0.0
  0
VERTEX
  8
Default
 10
121.473782881682
 20
370.269871273148
 30
0.0000000006898
 42
0.0
  0
VERTEX
  8
Default
 10
121.113668887904
 20
369.891835162211
 30
0.0000000006891
 42
0.0
  0
VERTEX
  8
Default
 10
120.863668426153
 20
369.433475959389
 30
0.0000000006882
 42
0.0
  0
VERTEX
  8
Default
 10
120.740818614751
 20
368.926030086881
 30
0.0000000006874
 42
0.0
  0
VERTEX
  8
Default
 10
120.753491465327
 20
368.404079142302
 30
0.0000000006864
 42
0.0
  0
VERTEX
  8
Default
 10
120.900823344058
 20
367.903193219964
 30
0.0000000006855
 42
0.0
  0
VERTEX
  8
Default
 10
121.172773826884
 20
367.457506867718
 30
0.0000000006847
 42
0.0
  0
VERTEX
  8
Default
 10
121.550809937821
 20
367.09739287394
 30
0.000000000684
 42
0.0
  0
VERTEX
  8
Default
 10
122.009169140643
 20
366.847392412189
 30
0.0000000006835
 42
0.0
  0
VERTEX
  8
Default
 10
122.516615013152
 20
366.724542600787
 30
0.0000000006833
 42
0.0
  0
VERTEX
  8
Default
 10
123.038565957729
 20
366.737215451363
 30
0.0000000006833
 42
0.0
  0
VERTEX
  8
Default
 10
123.539451880068
 20
366.884547330094
 30
0.0000000006836
 42
0.0
  0
VERTEX
  8
Default
 10
123.985138232314
 20
367.15649781292
 30
0.0000000006841
 42
0.0
  0
VERTEX
  8
Default
 10
124.345252226092
 20
367.534533923857
 30
0.0000000006848
 42
0.0
  0
VERTEX
  8
Default
 10
124.595252687844
 20
367.992893126679
 30
0.0000000006856
 42
0.0
  0
VERTEX
  8
Default
 10
124.718102499245
 20
368.500338999188
 30
0.0000000006866
 42
0.0
  0
VERTEX
  8
Default
 10
124.705429648669
 20
369.022289943765
 30
0.0000000006875
 42
0.0
  0
VERTEX
  8
Default
 10
124.558097769938
 20
369.523175866105
 30
0.0000000006884
 42
0.0
  0
SEQEND
  0
POLYLINE
  8
Default
 66
     1
 10
0.0
 20
0.0
 30
0.0000000005037
 70
     9
  0
VERTEX
  8
Default
 10
11.705904774523
 20
256.829629131443
 30
0.0000000005037
 42
0.0
  0
VERTEX
  8
Default
 10
10.50000000003
 20
256.330127018922
 30
0.0000000005028
 42
0.0
  0
VERTEX
  8
Default
 10
9.4644660941
 20
255.535533905932
 30
0.0000000005013
 42
0.0
  0
VERTEX
  8
Default
 10
8.669872981111
 20
254.5
 30
0.0000000004994
 42
0.0
  0
VERTEX
  8
Default
 10
8.17037086858
 20
253.294095225512
 30
0.0000000004972
 42
0.0
  0
VERTEX
  8
Default
 10
8.000000000033
 20
252.0
 30
0.0000000004948
 42
0.0
  0
VERTEX
  8
Default
 10
8.170370868584
 20
250.705904774487
 30
0.0000000004924
 42
0.0
  0
VERTEX
  8
Default
 10
8.669872981103
 20
249.499999999999
 30
0.0000000004903
 42
0.0
  0
VERTEX
  8
Default
 10
9.4644660941
 20
248.464466094067
 30
0.0000000004884
 42
0.0
  0
VERTEX
  8
Default
 10
10.500000000026
 20
247.669872981078
 30
0.0000000004869
 42
0.0
  0
VERTEX
  8
Default
 10
11.705904774512
 20
247.170370868553
 30
0.000000000486
 42
0.0
  0
VERTEX
  8
Default
 10
13.000000000031
 20
246.999999999998
 30
0.0000000004857
 42
0.0
  0
VERTEX
  8
Default
 10
14.294095225536
 20
247.170370868553
 30
0.000000000486
 42
0.0
  0
VERTEX
  8
Default
 10
15.500000000027
 20
247.669872981076
 30
0.0000000004869
 42
0.0
  0
VERTEX
  8
Default
 10
16.535533905963
 20
248.464466094067
 30
0.0000000004884
 42
0.0
  0
VERTEX
  8
Default
 10
17.330127018947
 20
249.499999999999
 30
0.0000000004903
 42
0.0
  0
VERTEX
  8
Default
 10
17.829629131476
 20
250.705904774485
 30
0.0000000004925
 42
0.0
  0
VERTEX
  8
Default
 10
18.000000000033
 20
251.999999999997
 30
0.0000000004948
 42
0.0
  0
VERTEX
  8
Default
 10
17.829629131472
 20
253.294095225511
 30
0.0000000004972
 42
0.0
  0
VERTEX
  8
Default
 10
17.330127018955
 20
254.499999999999
 30
0.0000000004994
 42
0.0
  0
VERTEX
  8
Default
 10
16.535533905967
 20
255.535533905931
 30
0.0000000005013
 42
0.0
  0
VERTEX
  8
Default
 10
15.500000000032
 20
256.33012701892
 30
0.0000000005028
 42
0.0
  0
VERTEX
  8
Default
 10
14.294095225545
 20
256.829629131445
 30
0.0000000005037
 42
0.0
  0
VERTEX
  8
Default
 10
13.000000000024
 20
256.999999999998
 30
0.000000000504
 42
0.0
  0
SEQEND
  0
POLYLINE
  8
Default
 66
     1
 10
0.0
 20
0.0
 30
0.0000000002724
 70
     9
  0
VERTEX
  8
Default
 10
291.00000000001
 20
120.553217429546
 30
0.0000000002724
 42
0.0
  0
VERTEX
  8
Default
 10
290.585786437638
 20
120.23538018435
 30
0.0000000002717
 42
0.0
  0
VERTEX
  8
Default
 10
290.267949192442
 20
119.821166621976
 30
0.000000000271
 42
0.0
  0
VERTEX
  8
Default
 10
290.068148347432
 20
119.33880471218
 30
0.0000000002701
 42
0.0
  0
VERTEX
  8
Default
 10
290.000000000012
 20
118.821166621976
 30
0.0000000002692
 42
0.0
  0
VERTEX
  8
Default
 10
290.068148347433
 20
118.303528531771
 30
0.0000000002682
 42
0.0
  0
VERTEX
  8
Default
 10
290.267949192444
 20
117.821166621976
 30
0.0000000002674
 42
0.0
  0
VERTEX
  8
Default
 10
290.58578643764
 20
117.406953059603
 30
0.0000000002666
 42
0.0
  0
VERTEX
  8
Default
 10
291.000000000013
 20
117.089115814408
 30
0.000000000266
 42
0.0
  0
VERTEX
  8
Default
 10
291.482361909808
 20
116.889314969399
 30
0.0000000002656
 42
0.0
  0
VERTEX
  8
Default
 10
292.000000000013
 20
116.821166621977
 30
0.0000000002655
 42
0.0
  0
VERTEX
  8
Default
 10
292.517638090218
 20
116.889314969399
 30
0.0000000002656
 42
0.0
  0
VERTEX
  8
Default
 10
293.000000000013
 20
117.089115814409
 30
0.000000000266
 42
0.0
  0
VERTEX
  8
Default
 10
293.414213562386
 20
117.406953059605
 30
0.0000000002666
 42
0.0
  0
VERTEX
  8
Default
 10
293.732050807582
 20
117.821166621978
 30
0.0000000002674
 42
0.0
  0
VERTEX
  8
Default
 10
293.93185165259
 20
118.303528531774
 30
0.0000000002682
 42
0.0
  0
VERTEX
  8
Default
 10
294.000000000012
 20
118.821166621979
 30
0.0000000002692
 42
0.0
  0
VERTEX
  8
Default
 10
293.931851652588
 20
119.338804712184
 30
0.0000000002702
 42
0.0
  0
VERTEX
  8
Default
 10
293.73205080758
 20
119.821166621979
 30
0.000000000271
 42
0.0
  0
VERTEX
  8
Default
 10
293.414213562384
 20
120.235380184352
 30
0.0000000002718
 42
0.0
  0
VERTEX
  8
Default
 10
293.000000000011
 20
120.553217429547
 30
0.0000000002724
 42
0.0
  0
VERTEX
  8
Default
 10
292.517638090214
 20
120.753018274555
 30
0.0000000002727
 42
0.0
  0
VERTEX
  8
Default
 10
292.00000000001
 20
120.821166621978
 30
0.0000000002729
 42
0.0
  0
VERTEX
  8
Default
 10
291.482361909804
 20
120.753018274555
 30
0.0000000002727
 42
0.0
  0
SEQEND
  0
POLYLINE
  8
Default
 66
     1
 10
0.0
 20
0.0
 30
0.0000000006288
 70
     9
  0
VERTEX
  8
Default
 10
213.090120728772
 20
336.952524371243
 30
0.0000000006288
 42
0.0
  0
VERTEX
  8
Default
 10
212.779460556994
 20
336.714146437348
 30
0.0000000006284
 42
0.0
  0
VERTEX
  8
Default
 10
212.417689124646
 20
336.564295803591
 30
0.0000000006281
 42
0.0
  0
VERTEX
  8
Default
 10
212.029460556992
 20
336.513184543021
 30
0.000000000628
 42
0.0
  0
VERTEX
  8
Default
 10
211.641231989338
 20
336.564295803591
 30
0.0000000006281
 42
0.0
  0
VERTEX
  8
Default
 10
211.279460556994
 20
336.714146437348
 30
0.0000000006284
 42
0.0
  0
VERTEX
  8
Default
 10
210.968800385212
 20
336.952524371244
 30
0.0000000006288
 42
0.0
  0
VERTEX
  8
Default
 10
210.730422451315
 20
337.263184543023
 30
0.0000000006294
 42
0.0
  0
VERTEX
  8
Default
 10
210.580571817558
 20
337.624955975371
 30
0.00000000063
 42
0.0
  0
VERTEX
  8
Default
 10
210.529460556992
 20
338.013184543024
 30
0.0000000006307
 42
0.0
  0
VERTEX
  8
Default
 10
210.580571817556
 20
338.401413110679
 30
0.0000000006314
 42
0.0
  0
VERTEX
  8
Default
 10
210.730422451318
 20
338.763184543023
 30
0.0000000006321
 42
0.0
  0
VERTEX
  8
Default
 10
210.968800385212
 20
339.073844714804
 30
0.0000000006327
 42
0.0
  0
VERTEX
  8
Default
 10
211.279460556994
 20
339.312222648701
 30
0.0000000006331
 42
0.0
  0
VERTEX
  8
Default
 10
211.641231989339
 20
339.462073282458
 30
0.0000000006334
 42
0.0
  0
VERTEX
  8
Default
 10
212.029460556993
 20
339.513184543021
 30
0.0000000006335
 42
0.0
  0
VERTEX
  8
Default
 10
212.417689124646
 20
339.462073282458
 30
0.0000000006334
 42
0.0
  0
VERTEX
  8
Default
 10
212.779460556994
 20
339.312222648701
 30
0.0000000006331
 42
0.0
  0
VERTEX
  8
Default
 10
213.090120728772
 20
339.073844714803
 30
0.0000000006327
 42
0.0
  0
VERTEX
  8
Default
 10
213.328498662671
 20
338.763184543023
 30
0.0000000006321
 42
0.0
  0
VERTEX
  8
Default
 10
213.478349296423
 20
338.401413110678
 30
0.0000000006314
 42
0.0
  0
VERTEX
  8
Default
 10
213.529460556992
 20
338.013184543023
 30
0.0000000006307
 42
0.0
  0
VERTEX
  8
Default
 10
213.478349296426
 20
337.62495597537
 30
0.00000000063
 42
0.0
  0
VERTEX
  8
Default
 10
213.328498662669
 20
337.263184543023
 30
0.0000000006294
 42
0.0
  0
SEQEND
  0
POLYLINE
  8
Default
 66
     1
 10
0.0
 20
0.0
 30
0.000000000519
 70
     9
  0
VERTEX
  8
Default
 10
83.9851382323021
 20
277.156497812925
 30
0.000000000519
 42
0.0
  0
VERTEX
  8
Default
 10
84.3452522260801
 20
277.534533923862
 30
0.0000000005197
 42
0.0
  0
VERTEX
  8
Default
 10
84.5952526878321
 20
277.992893126684
 30
0.0000000005206
 42
0.0
  0
VERTEX
  8
Default
 10
84.7181024992331
 20
278.500338999193
 30
0.0000000005215
 42
0.0
  0
VERTEX
  8
Default
 10
84.7054296486571
 20
279.022289943771
 30
0.0000000005224
 42
0.0
  0
VERTEX
  8
Default
 10
84.5580977699271
 20
279.52317586611
 30
0.0000000005234
 42
0.0
  0
VERTEX
  8
Default
 10
84.2861472871001
 20
279.968862218355
 30
0.0000000005242
 42
0.0
  0
VERTEX
  8
Default
 10
83.9081111761631
 20
280.328976212133
 30
0.0000000005248
 42
0.0
  0
VERTEX
  8
Default
 10
83.4497519733411
 20
280.578976673885
 30
0.0000000005253
 42
0.0
  0
VERTEX
  8
Default
 10
82.9423061008321
 20
280.701826485286
 30
0.0000000005255
 42
0.0
  0
VERTEX
  8
Default
 10
82.4203551562541
 20
280.68915363471
 30
0.0000000005255
 42
0.0
  0
VERTEX
  8
Default
 10
81.9194692339161
 20
280.54182175598
 30
0.0000000005252
 42
0.0
  0
VERTEX
  8
Default
 10
81.4737828816701
 20
280.269871273153
 30
0.0000000005247
 42
0.0
  0
VERTEX
  8
Default
 10
81.1136688878921
 20
279.891835162216
 30
0.0000000005241
 42
0.0
  0
VERTEX
  8
Default
 10
80.8636684261411
 20
279.433475959394
 30
0.0000000005232
 42
0.0
  0
VERTEX
  8
Default
 10
80.7408186147391
 20
278.926030086886
 30
0.0000000005223
 42
0.0
  0
VERTEX
  8
Default
 10
80.7534914653161
 20
278.404079142308
 30
0.0000000005213
 42
0.0
  0
VERTEX
  8
Default
 10
80.9008233440451
 20
277.903193219969
 30
0.0000000005204
 42
0.0
  0
VERTEX
  8
Default
 10
81.1727738268721
 20
277.457506867723
 30
0.0000000005196
 42
0.0
  0
VERTEX
  8
Default
 10
81.5508099378091
 20
277.097392873945
 30
0.0000000005189
 42
0.0
  0
VERTEX
  8
Default
 10
82.0091691406311
 20
276.847392412194
 30
0.0000000005185
 42
0.0
  0
VERTEX
  8
Default
 10
82.5166150131401
 20
276.724542600792
 30
0.0000000005182
 42
0.0
  0
VERTEX
  8
Default
 10
83.0385659577181
 20
276.737215451369
 30
0.0000000005183
 42
0.0
  0
VERTEX
  8
Default
 10
83.5394518800571
 20
276.884547330099
 30
0.0000000005185
 42
0.0
  0
SEQEND
  0
POLYLINE
  8
Default
 66
     1
 10
0.0
 20
0.0
 30
0.000000000622
 70
     9
  0
VERTEX
  8
Default
 10
272.968089001658
 20
321.235307399638
 30
0.000000000622
 42
0.0
  0
VERTEX
  8
Default
 10
271.873284440874
 20
321.402338999173
 30
0.0000000006223
 42
0.0
  0
VERTEX
  8
Default
 10
261.298284440874
 20
321.402338999189
 30
0.0000000006223
 42
0.0
  0
VERTEX
  8
Default
 10
260.20347988009
 20
321.235307399659
 30
0.000000000622
 42
0.0
  0
VERTEX
  8
Default
 10
259.183284440873
 20
320.745595528544
 30
0.0000000006211
 42
0.0
  0
VERTEX
  8
Default
 10
258.307222756453
 20
319.96657644057
 30
0.0000000006197
 42
0.0
  0
VERTEX
  8
Default
 10
257.634996982862
 20
318.951338999195
 30
0.0000000006178
 42
0.0
  0
VERTEX
  8
Default
 10
257.212418195666
 20
317.769069958288
 30
0.0000000006157
 42
0.0
  0
VERTEX
  8
Default
 10
257.068284440867
 20
316.500338999197
 30
0.0000000006134
 42
0.0
  0
VERTEX
  8
Default
 10
257.212418195662
 20
315.231608040103
 30
0.000000000611
 42
0.0
  0
VERTEX
  8
Default
 10
257.634996982855
 20
314.049338999195
 30
0.0000000006089
 42
0.0
  0
VERTEX
  8
Default
 10
258.307222756442
 20
313.034101557817
 30
0.000000000607
 42
0.0
  0
VERTEX
  8
Default
 10
259.18328444086
 20
312.255082469841
 30
0.0000000006056
 42
0.0
  0
VERTEX
  8
Default
 10
260.203479880076
 20
311.765370598721
 30
0.0000000006047
 42
0.0
  0
VERTEX
  8
Default
 10
261.298284440859
 20
311.598338999189
 30
0.0000000006043
 42
0.0
  0
VERTEX
  8
Default
 10
271.873284440859
 20
311.598338999173
 30
0.0000000006043
 42
0.0
  0
VERTEX
  8
Default
 10
272.968089001643
 20
311.7653705987
 30
0.0000000006046
 42
0.0
  0
VERTEX
  8
Default
 10
273.988284440861
 20
312.255082469817
 30
0.0000000006055
 42
0.0
  0
VERTEX
  8
Default
 10
274.864346125281
 20
313.034101557792
 30
0.000000000607
 42
0.0
  0
VERTEX
  8
Default
 10
275.536571898871
 20
314.049338999166
 30
0.0000000006088
 42
0.0
  0
VERTEX
  8
Default
 10
275.959150686068
 20
315.231608040073
 30
0.000000000611
 42
0.0
  0
VERTEX
  8
Default
 10
276.103284440867
 20
316.500338999165
 30
0.0000000006133
 42
0.0
  0
VERTEX
  8
Default
 10
275.959150686072
 20
317.769069958258
 30
0.0000000006156
 42
0.0
  0
VERTEX
  8
Default
 10
275.536571898878
 20
318.951338999166
 30
0.0000000006178
 42
0.0
  0
VERTEX
  8
Default
 10
274.864346125291
 20
319.966576440545
 30
0.0000000006197
 42
0.0
  0
VERTEX
  8
Default
 10
273.988284440873
 20
320.74559552852
 30
0.0000000006211
 42
0.0
  0
SEQEND
  0
POLYLINE
  8
Default
 66
     1
 10
0.0
 20
0.0
 30
0.0000000003684
 70
     9
  0
VERTEX
  8
Default
 10
151.59525268782
 20
172.992893126677
 30
0.0000000003684
 42
0.0
  0
VERTEX
  8
Default
 10
151.718102499222
 20
173.500338999185
 30
0.0000000003693
 42
0.0
  0
VERTEX
  8
Default
 10
151.705429648646
 20
174.022289943763
 30
0.0000000003703
 42
0.0
  0
VERTEX
  8
Default
 10
151.558097769916
 20
174.523175866102
 30
0.0000000003712
 42
0.0
  0
VERTEX
  8
Default
 10
151.286147287089
 20
174.968862218348
 30
0.000000000372
 42
0.0
  0
VERTEX
  8
Default
 10
150.908111176152
 20
175.328976212126
 30
0.0000000003726
 42
0.0
  0
VERTEX
  8
Default
 10
150.44975197333
 20
175.578976673878
 30
0.0000000003731
 42
0.0
  0
VERTEX
  8
Default
 10
149.942306100822
 20
175.701826485279
 30
0.0000000003733
 42
0.0
  0
VERTEX
  8
Default
 10
149.420355156244
 20
175.689153634703
 30
0.0000000003733
 42
0.0
  0
VERTEX
  8
Default
 10
148.919469233905
 20
175.541821755972
 30
0.0000000003731
 42
0.0
  0
VERTEX
  8
Default
 10
148.473782881659
 20
175.269871273146
 30
0.0000000003725
 42
0.0
  0
VERTEX
  8
Default
 10
148.113668887881
 20
174.891835162209
 30
0.0000000003718
 42
0.0
  0
VERTEX
  8
Default
 10
147.863668426129
 20
174.433475959387
 30
0.000000000371
 42
0.0
  0
VERTEX
  8
Default
 10
147.740818614728
 20
173.926030086878
 30
0.0000000003701
 42
0.0
  0
VERTEX
  8
Default
 10
147.753491465304
 20
173.4040791423
 30
0.0000000003691
 42
0.0
  0
VERTEX
  8
Default
 10
147.900823344035
 20
172.903193219961
 30
0.0000000003682
 42
0.0
  0
VERTEX
  8
Default
 10
148.172773826861
 20
172.457506867716
 30
0.0000000003674
 42
0.0
  0
VERTEX
  8
Default
 10
148.550809937798
 20
172.097392873938
 30
0.0000000003667
 42
0.0
  0
VERTEX
  8
Default
 10
149.009169140621
 20
171.847392412186
 30
0.0000000003663
 42
0.0
  0
VERTEX
  8
Default
 10
149.516615013129
 20
171.724542600785
 30
0.0000000003661
 42
0.0
  0
VERTEX
  8
Default
 10
150.038565957707
 20
171.737215451361
 30
0.0000000003661
 42
0.0
  0
VERTEX
  8
Default
 10
150.539451880046
 20
171.884547330091
 30
0.0000000003664
 42
0.0
  0
VERTEX
  8
Default
 10
150.985138232291
 20
172.156497812917
 30
0.0000000003668
 42
0.0
  0
VERTEX
  8
Default
 10
151.34525222607
 20
172.534533923855
 30
0.0000000003675
 42
0.0
  0
SEQEND
  0
POLYLINE
  8
Default
 66
     1
 10
0.0
 20
0.0
 30
0.0000000006864
 70
     9
  0
VERTEX
  8
Default
 10
150.753491465328
 20
368.404079142298
 30
0.0000000006864
 42
0.0
  0
VERTEX
  8
Default
 10
150.900823344058
 20
367.90319321996
 30
0.0000000006855
 42
0.0
  0
VERTEX
  8
Default
 10
151.172773826884
 20
367.457506867714
 30
0.0000000006847
 42
0.0
  0
VERTEX
  8
Default
 10
151.550809937821
 20
367.097392873936
 30
0.000000000684
 42
0.0
  0
VERTEX
  8
Default
 10
152.009169140643
 20
366.847392412184
 30
0.0000000006836
 42
0.0
  0
VERTEX
  8
Default
 10
152.516615013152
 20
366.724542600783
 30
0.0000000006833
 42
0.0
  0
VERTEX
  8
Default
 10
153.038565957729
 20
366.737215451359
 30
0.0000000006834
 42
0.0
  0
VERTEX
  8
Default
 10
153.539451880068
 20
366.88454733009
 30
0.0000000006836
 42
0.0
  0
VERTEX
  8
Default
 10
153.985138232314
 20
367.156497812916
 30
0.0000000006841
 42
0.0
  0
VERTEX
  8
Default
 10
154.345252226092
 20
367.534533923853
 30
0.0000000006848
 42
0.0
  0
VERTEX
  8
Default
 10
154.595252687844
 20
367.992893126675
 30
0.0000000006857
 42
0.0
  0
VERTEX
  8
Default
 10
154.718102499245
 20
368.500338999184
 30
0.0000000006866
 42
0.0
  0
VERTEX
  8
Default
 10
154.705429648669
 20
369.022289943761
 30
0.0000000006875
 42
0.0
  0
VERTEX
  8
Default
 10
154.558097769938
 20
369.5231758661
 30
0.0000000006884
 42
0.0
  0
VERTEX
  8
Default
 10
154.286147287112
 20
369.968862218346
 30
0.0000000006893
 42
0.0
  0
VERTEX
  8
Default
 10
153.908111176175
 20
370.328976212124
 30
0.0000000006899
 42
0.0
  0
VERTEX
  8
Default
 10
153.449751973353
 20
370.578976673876
 30
0.0000000006904
 42
0.0
  0
VERTEX
  8
Default
 10
152.942306100844
 20
370.701826485277
 30
0.0000000006906
 42
0.0
  0
VERTEX
  8
Default
 10
152.420355156267
 20
370.689153634701
 30
0.0000000006906
 42
0.0
  0
VERTEX
  8
Default
 10
151.919469233928
 20
370.54182175597
 30
0.0000000006904
 42
0.0
  0
VERTEX
  8
Default
 10
151.473782881682
 20
370.269871273144
 30
0.0000000006898
 42
0.0
  0
VERTEX
  8
Default
 10
151.113668887904
 20
369.891835162207
 30
0.0000000006891
 42
0.0
  0
VERTEX
  8
Default
 10
150.863668426153
 20
369.433475959385
 30
0.0000000006883
 42
0.0
  0
VERTEX
  8
Default
 10
150.740818614751
 20
368.926030086876
 30
0.0000000006874
 42
0.0
  0
SEQEND
  0
POLYLINE
  8
Default
 66
     1
 10
0.0
 20
0.0
 30
0.0000000003913
 70
     9
  0
VERTEX
  8
Default
 10
151.172773826863
 20
197.457506867714
 30
0.0000000003913
 42
0.0
  0
VERTEX
  8
Default
 10
151.5508099378
 20
197.097392873936
 30
0.0000000003906
 42
0.0
  0
VERTEX
  8
Default
 10
152.009169140623
 20
196.847392412185
 30
0.0000000003901
 42
0.0
  0
VERTEX
  8
Default
 10
152.516615013132
 20
196.724542600783
 30
0.0000000003899
 42
0.0
  0
VERTEX
  8
Default
 10
153.038565957709
 20
196.73721545136
 30
0.00000000039
 42
0.0
  0
VERTEX
  8
Default
 10
153.539451880048
 20
196.88454733009
 30
0.0000000003902
 42
0.0
  0
VERTEX
  8
Default
 10
153.985138232293
 20
197.156497812917
 30
0.0000000003907
 42
0.0
  0
VERTEX
  8
Default
 10
154.345252226072
 20
197.534533923854
 30
0.0000000003914
 42
0.0
  0
VERTEX
  8
Default
 10
154.595252687823
 20
197.992893126676
 30
0.0000000003923
 42
0.0
  0
VERTEX
  8
Default
 10
154.718102499224
 20
198.500338999185
 30
0.0000000003932
 42
0.0
  0
VERTEX
  8
Default
 10
154.705429648647
 20
199.022289943763
 30
0.0000000003941
 42
0.0
  0
VERTEX
  8
Default
 10
154.558097769917
 20
199.523175866102
 30
0.0000000003951
 42
0.0
  0
VERTEX
  8
Default
 10
154.28614728709
 20
199.968862218347
 30
0.0000000003959
 42
0.0
  0
VERTEX
  8
Default
 10
153.908111176152
 20
200.328976212125
 30
0.0000000003965
 42
0.0
  0
VERTEX
  8
Default
 10
153.449751973331
 20
200.578976673876
 30
0.000000000397
 42
0.0
  0
VERTEX
  8
Default
 10
152.942306100822
 20
200.701826485278
 30
0.0000000003972
 42
0.0
  0
VERTEX
  8
Default
 10
152.420355156244
 20
200.689153634701
 30
0.0000000003972
 42
0.0
  0
VERTEX
  8
Default
 10
151.919469233906
 20
200.54182175597
 30
0.0000000003969
 42
0.0
  0
VERTEX
  8
Default
 10
151.47378288166
 20
200.269871273144
 30
0.0000000003964
 42
0.0
  0
VERTEX
  8
Default
 10
151.113668887882
 20
199.891835162206
 30
0.0000000003957
 42
0.0
  0
VERTEX
  8
Default
 10
150.863668426131
 20
199.433475959384
 30
0.0000000003949
 42
0.0
  0
VERTEX
  8
Default
 10
150.740818614729
 20
198.926030086876
 30
0.000000000394
 42
0.0
  0
VERTEX
  8
Default
 10
150.753491465306
 20
198.404079142298
 30
0.000000000393
 42
0.0
  0
VERTEX
  8
Default
 10
150.900823344037
 20
197.903193219959
 30
0.0000000003921
 42
0.0
  0
SEQEND
  0
POLYLINE
  8
Default
 66
     1
 10
0.0
 20
0.0
 30
0.0000000006906
 70
     9
  0
VERTEX
  8
Default
 10
142.420355156267
 20
370.689153634702
 30
0.0000000006906
 42
0.0
  0
VERTEX
  8
Default
 10
141.919469233928
 20
370.541821755972
 30
0.0000000006903
 42
0.0
  0
VERTEX
  8
Default
 10
141.473782881682
 20
370.269871273145
 30
0.0000000006898
 42
0.0
  0
VERTEX
  8
Default
 10
141.113668887904
 20
369.891835162208
 30
0.0000000006891
 42
0.0
  0
VERTEX
  8
Default
 10
140.863668426153
 20
369.433475959386
 30
0.0000000006883
 42
0.0
  0
VERTEX
  8
Default
 10
140.740818614751
 20
368.926030086878
 30
0.0000000006874
 42
0.0
  0
VERTEX
  8
Default
 10
140.753491465327
 20
368.4040791423
 30
0.0000000006864
 42
0.0
  0
VERTEX
  8
Default
 10
140.900823344058
 20
367.903193219961
 30
0.0000000006855
 42
0.0
  0
VERTEX
  8
Default
 10
141.172773826884
 20
367.457506867715
 30
0.0000000006847
 42
0.0
  0
VERTEX
  8
Default
 10
141.550809937821
 20
367.097392873937
 30
0.000000000684
 42
0.0
  0
VERTEX
  8
Default
 10
142.009169140643
 20
366.847392412186
 30
0.0000000006836
 42
0.0
  0
VERTEX
  8
Default
 10
142.516615013152
 20
366.724542600784
 30
0.0000000006833
 42
0.0
  0
VERTEX
  8
Default
 10
143.038565957729
 20
366.737215451361
 30
0.0000000006834
 42
0.0
  0
VERTEX
  8
Default
 10
143.539451880068
 20
366.884547330091
 30
0.0000000006836
 42
0.0
  0
VERTEX
  8
Default
 10
143.985138232314
 20
367.156497812917
 30
0.0000000006841
 42
0.0
  0
VERTEX
  8
Default
 10
144.345252226092
 20
367.534533923854
 30
0.0000000006848
 42
0.0
  0
VERTEX
  8
Default
 10
144.595252687844
 20
367.992893126676
 30
0.0000000006857
 42
0.0
  0
VERTEX
  8
Default
 10
144.718102499245
 20
368.500338999185
 30
0.0000000006866
 42
0.0
  0
VERTEX
  8
Default
 10
144.705429648669
 20
369.022289943763
 30
0.0000000006875
 42
0.0
  0
VERTEX
  8
Default
 10
144.558097769938
 20
369.523175866102
 30
0.0000000006885
 42
0.0
  0
VERTEX
  8
Default
 10
144.286147287112
 20
369.968862218347
 30
0.0000000006893
 42
0.0
  0
VERTEX
  8
Default
 10
143.908111176175
 20
370.328976212126
 30
0.0000000006899
 42
0.0
  0
VERTEX
  8
Default
 10
143.449751973353
 20
370.578976673877
 30
0.0000000006904
 42
0.0
  0
VERTEX
  8
Default
 10
142.942306100844
 20
370.701826485278
 30
0.0000000006906
 42
0.0
  0
SEQEND
  0
POLYLINE
  8
Default
 66
     1
 10
0.0
 20
0.0
 30
0.0000000005067
 70
     9
  0
VERTEX
  8
Default
 10
243.908111176162
 20
270.328976212112
 30
0.0000000005067
 42
0.0
  0
VERTEX
  8
Default
 10
243.44975197334
 20
270.578976673863
 30
0.0000000005071
 42
0.0
  0
VERTEX
  8
Default
 10
242.942306100831
 20
270.701826485265
 30
0.0000000005073
 42
0.0
  0
VERTEX
  8
Default
 10
242.420355156253
 20
270.689153634689
 30
0.0000000005073
 42
0.0
  0
VERTEX
  8
Default
 10
241.919469233914
 20
270.541821755959
 30
0.000000000507
 42
0.0
  0
VERTEX
  8
Default
 10
241.473782881669
 20
270.269871273132
 30
0.0000000005065
 42
0.0
  0
VERTEX
  8
Default
 10
241.113668887891
 20
269.891835162195
 30
0.0000000005058
 42
0.0
  0
VERTEX
  8
Default
 10
240.863668426139
 20
269.433475959373
 30
0.000000000505
 42
0.0
  0
VERTEX
  8
Default
 10
240.740818614738
 20
268.926030086864
 30
0.0000000005041
 42
0.0
  0
VERTEX
  8
Default
 10
240.753491465314
 20
268.404079142287
 30
0.0000000005031
 42
0.0
  0
VERTEX
  8
Default
 10
240.900823344044
 20
267.903193219948
 30
0.0000000005022
 42
0.0
  0
VERTEX
  8
Default
 10
241.172773826871
 20
267.457506867702
 30
0.0000000005014
 42
0.0
  0
VERTEX
  8
Default
 10
241.550809937808
 20
267.097392873924
 30
0.0000000005007
 42
0.0
  0
VERTEX
  8
Default
 10
242.00916914063
 20
266.847392412172
 30
0.0000000005003
 42
0.0
  0
VERTEX
  8
Default
 10
242.516615013139
 20
266.724542600771
 30
0.0000000005
 42
0.0
  0
VERTEX
  8
Default
 10
243.038565957716
 20
266.737215451347
 30
0.0000000005001
 42
0.0
  0
VERTEX
  8
Default
 10
243.539451880055
 20
266.884547330078
 30
0.0000000005003
 42
0.0
  0
VERTEX
  8
Default
 10
243.985138232301
 20
267.156497812904
 30
0.0000000005008
 42
0.0
  0
VERTEX
  8
Default
 10
244.345252226079
 20
267.534533923841
 30
0.0000000005015
 42
0.0
  0
VERTEX
  8
Default
 10
244.59525268783
 20
267.992893126663
 30
0.0000000005024
 42
0.0
  0
VERTEX
  8
Default
 10
244.718102499232
 20
268.500338999172
 30
0.0000000005033
 42
0.0
  0
VERTEX
  8
Default
 10
244.705429648656
 20
269.02228994375
 30
0.0000000005043
 42
0.0
  0
VERTEX
  8
Default
 10
244.558097769925
 20
269.523175866088
 30
0.0000000005052
 42
0.0
  0
VERTEX
  8
Default
 10
244.286147287099
 20
269.968862218334
 30
0.000000000506
 42
0.0
  0
SEQEND
  0
POLYLINE
  8
Default
 66
     1
 10
0.0
 20
0.0
 30
0.0000000006882
 70
     9
  0
VERTEX
  8
Default
 10
110.863668426152
 20
369.433475959389
 30
0.0000000006882
 42
0.0
  0
VERTEX
  8
Default
 10
110.740818614751
 20
368.926030086881
 30
0.0000000006873
 42
0.0
  0
VERTEX
  8
Default
 10
110.753491465328
 20
368.404079142303
 30
0.0000000006864
 42
0.0
  0
VERTEX
  8
Default
 10
110.900823344058
 20
367.903193219964
 30
0.0000000006855
 42
0.0
  0
VERTEX
  8
Default
 10
111.172773826885
 20
367.457506867719
 30
0.0000000006846
 42
0.0
  0
VERTEX
  8
Default
 10
111.550809937822
 20
367.097392873941
 30
0.000000000684
 42
0.0
  0
VERTEX
  8
Default
 10
112.009169140644
 20
366.84739241219
 30
0.0000000006835
 42
0.0
  0
VERTEX
  8
Default
 10
112.516615013153
 20
366.724542600788
 30
0.0000000006833
 42
0.0
  0
VERTEX
  8
Default
 10
113.038565957731
 20
366.737215451365
 30
0.0000000006833
 42
0.0
  0
VERTEX
  8
Default
 10
113.53945188007
 20
366.884547330095
 30
0.0000000006836
 42
0.0
  0
VERTEX
  8
Default
 10
113.985138232315
 20
367.156497812922
 30
0.0000000006841
 42
0.0
  0
VERTEX
  8
Default
 10
114.345252226093
 20
367.534533923859
 30
0.0000000006848
 42
0.0
  0
VERTEX
  8
Default
 10
114.595252687844
 20
367.992893126681
 30
0.0000000006856
 42
0.0
  0
VERTEX
  8
Default
 10
114.718102499246
 20
368.50033899919
 30
0.0000000006866
 42
0.0
  0
VERTEX
  8
Default
 10
114.705429648669
 20
369.022289943768
 30
0.0000000006875
 42
0.0
  0
VERTEX
  8
Default
 10
114.558097769938
 20
369.523175866107
 30
0.0000000006885
 42
0.0
  0
VERTEX
  8
Default
 10
114.286147287111
 20
369.968862218352
 30
0.0000000006892
 42
0.0
  0
VERTEX
  8
Default
 10
113.908111176174
 20
370.32897621213
 30
0.0000000006899
 42
0.0
  0
VERTEX
  8
Default
 10
113.449751973352
 20
370.578976673881
 30
0.0000000006904
 42
0.0
  0
VERTEX
  8
Default
 10
112.942306100843
 20
370.701826485283
 30
0.0000000006906
 42
0.0
  0
VERTEX
  8
Default
 10
112.420355156266
 20
370.689153634706
 30
0.0000000006906
 42
0.0
  0
VERTEX
  8
Default
 10
111.919469233927
 20
370.541821755975
 30
0.0000000006903
 42
0.0
  0
VERTEX
  8
Default
 10
111.473782881681
 20
370.269871273148
 30
0.0000000006898
 42
0.0
  0
VERTEX
  8
Default
 10
111.113668887903
 20
369.891835162211
 30
0.0000000006891
 42
0.0
  0
SEQEND
  0
POLYLINE
  8
Default
 66
     1
 10
0.0
 20
0.0
 30
0.0000000006907
 70
     9
  0
VERTEX
  8
Default
 10
202.420355156267
 20
370.689153634694
 30
0.0000000006907
 42
0.0
  0
VERTEX
  8
Default
 10
201.919469233928
 20
370.541821755964
 30
0.0000000006904
 42
0.0
  0
VERTEX
  8
Default
 10
201.473782881682
 20
370.269871273137
 30
0.0000000006899
 42
0.0
  0
VERTEX
  8
Default
 10
201.113668887904
 20
369.8918351622
 30
0.0000000006892
 42
0.0
  0
VERTEX
  8
Default
 10
200.863668426153
 20
369.433475959378
 30
0.0000000006883
 42
0.0
  0
VERTEX
  8
Default
 10
200.740818614751
 20
368.92603008687
 30
0.0000000006874
 42
0.0
  0
VERTEX
  8
Default
 10
200.753491465328
 20
368.404079142292
 30
0.0000000006865
 42
0.0
  0
VERTEX
  8
Default
 10
200.900823344058
 20
367.903193219953
 30
0.0000000006855
 42
0.0
  0
VERTEX
  8
Default
 10
201.172773826884
 20
367.457506867707
 30
0.0000000006847
 42
0.0
  0
VERTEX
  8
Default
 10
201.550809937821
 20
367.097392873929
 30
0.0000000006841
 42
0.0
  0
VERTEX
  8
Default
 10
202.009169140643
 20
366.847392412178
 30
0.0000000006836
 42
0.0
  0
VERTEX
  8
Default
 10
202.516615013152
 20
366.724542600776
 30
0.0000000006834
 42
0.0
  0
VERTEX
  8
Default
 10
203.038565957729
 20
366.737215451352
 30
0.0000000006834
 42
0.0
  0
VERTEX
  8
Default
 10
203.539451880068
 20
366.884547330083
 30
0.0000000006837
 42
0.0
  0
VERTEX
  8
Default
 10
203.985138232314
 20
367.156497812909
 30
0.0000000006842
 42
0.0
  0
VERTEX
  8
Default
 10
204.345252226092
 20
367.534533923846
 30
0.0000000006849
 42
0.0
  0
VERTEX
  8
Default
 10
204.595252687844
 20
367.992893126668
 30
0.0000000006857
 42
0.0
  0
VERTEX
  8
Default
 10
204.718102499246
 20
368.500338999177
 30
0.0000000006866
 42
0.0
  0
VERTEX
  8
Default
 10
204.705429648669
 20
369.022289943755
 30
0.0000000006876
 42
0.0
  0
VERTEX
  8
Default
 10
204.558097769939
 20
369.523175866094
 30
0.0000000006885
 42
0.0
  0
VERTEX
  8
Default
 10
204.286147287112
 20
369.968862218339
 30
0.0000000006893
 42
0.0
  0
VERTEX
  8
Default
 10
203.908111176175
 20
370.328976212117
 30
0.00000000069
 42
0.0
  0
VERTEX
  8
Default
 10
203.449751973353
 20
370.578976673869
 30
0.0000000006905
 42
0.0
  0
VERTEX
  8
Default
 10
202.942306100844
 20
370.70182648527
 30
0.0000000006907
 42
0.0
  0
SEQEND
  0
POLYLINE
  8
Default
 66
     1
 10
0.0
 20
0.0
 30
0.0000000003674
 70
     9
  0
VERTEX
  8
Default
 10
178.172773826861
 20
172.457506867712
 30
0.0000000003674
 42
0.0
  0
VERTEX
  8
Default
 10
178.550809937798
 20
172.097392873934
 30
0.0000000003668
 42
0.0
  0
VERTEX
  8
Default
 10
179.009169140621
 20
171.847392412182
 30
0.0000000003663
 42
0.0
  0
VERTEX
  8
Default
 10
179.516615013129
 20
171.724542600781
 30
0.0000000003661
 42
0.0
  0
VERTEX
  8
Default
 10
180.038565957707
 20
171.737215451357
 30
0.0000000003661
 42
0.0
  0
VERTEX
  8
Default
 10
180.539451880046
 20
171.884547330087
 30
0.0000000003664
 42
0.0
  0
VERTEX
  8
Default
 10
180.985138232291
 20
172.156497812914
 30
0.0000000003669
 42
0.0
  0
VERTEX
  8
Default
 10
181.34525222607
 20
172.534533923851
 30
0.0000000003676
 42
0.0
  0
VERTEX
  8
Default
 10
181.59525268782
 20
172.992893126673
 30
0.0000000003684
 42
0.0
  0
VERTEX
  8
Default
 10
181.718102499222
 20
173.500338999182
 30
0.0000000003694
 42
0.0
  0
VERTEX
  8
Default
 10
181.705429648646
 20
174.022289943759
 30
0.0000000003703
 42
0.0
  0
VERTEX
  8
Default
 10
181.558097769916
 20
174.523175866098
 30
0.0000000003712
 42
0.0
  0
VERTEX
  8
Default
 10
181.286147287089
 20
174.968862218344
 30
0.000000000372
 42
0.0
  0
VERTEX
  8
Default
 10
180.908111176152
 20
175.328976212122
 30
0.0000000003727
 42
0.0
  0
VERTEX
  8
Default
 10
180.44975197333
 20
175.578976673873
 30
0.0000000003732
 42
0.0
  0
VERTEX
  8
Default
 10
179.942306100822
 20
175.701826485275
 30
0.0000000003734
 42
0.0
  0
VERTEX
  8
Default
 10
179.420355156244
 20
175.689153634698
 30
0.0000000003734
 42
0.0
  0
VERTEX
  8
Default
 10
178.919469233905
 20
175.541821755968
 30
0.0000000003731
 42
0.0
  0
VERTEX
  8
Default
 10
178.473782881659
 20
175.269871273142
 30
0.0000000003726
 42
0.0
  0
VERTEX
  8
Default
 10
178.113668887881
 20
174.891835162205
 30
0.0000000003719
 42
0.0
  0
VERTEX
  8
Default
 10
177.86366842613
 20
174.433475959383
 30
0.000000000371
 42
0.0
  0
VERTEX
  8
Default
 10
177.740818614728
 20
173.926030086874
 30
0.0000000003701
 42
0.0
  0
VERTEX
  8
Default
 10
177.753491465304
 20
173.404079142296
 30
0.0000000003691
 42
0.0
  0
VERTEX
  8
Default
 10
177.900823344035
 20
172.903193219957
 30
0.0000000003682
 42
0.0
  0
SEQEND
  0
POLYLINE
  8
Default
 66
     1
 10
0.0
 20
0.0
 30
0.0000000001474
 70
     9
  0
VERTEX
  8
Default
 10
46.235981718252
 20
52.5218781645831
 30
0.0000000001474
 42
0.0
  0
VERTEX
  8
Default
 10
45.997603784357
 20
52.2112179928033
 30
0.0000000001468
 42
0.0
  0
VERTEX
  8
Default
 10
45.847753150596
 20
51.849446560457
 30
0.0000000001461
 42
0.0
  0
VERTEX
  8
Default
 10
45.796641890034
 20
51.4612179928033
 30
0.0000000001454
 42
0.0
  0
VERTEX
  8
Default
 10
45.847753150596
 20
51.0729894251496
 30
0.0000000001447
 42
0.0
  0
VERTEX
  8
Default
 10
45.997603784357
 20
50.7112179928032
 30
0.0000000001441
 42
0.0
  0
VERTEX
  8
Default
 10
46.235981718249
 20
50.4005578210235
 30
0.0000000001435
 42
0.0
  0
VERTEX
  8
Default
 10
46.546641890033
 20
50.1621798871268
 30
0.0000000001431
 42
0.0
  0
VERTEX
  8
Default
 10
46.908413322377
 20
50.0123292533697
 30
0.0000000001428
 42
0.0
  0
VERTEX
  8
Default
 10
47.296641890031
 20
49.9612179928033
 30
0.0000000001427
 42
0.0
  0
VERTEX
  8
Default
 10
47.684870457685
 20
50.0123292533699
 30
0.0000000001428
 42
0.0
  0
VERTEX
  8
Default
 10
48.046641890033
 20
50.1621798871268
 30
0.000000000143
 42
0.0
  0
VERTEX
  8
Default
 10
48.357302061809
 20
50.4005578210233
 30
0.0000000001435
 42
0.0
  0
VERTEX
  8
Default
 10
48.59567999571
 20
50.711217992803
 30
0.0000000001441
 42
0.0
  0
VERTEX
  8
Default
 10
48.745530629464
 20
51.0729894251497
 30
0.0000000001447
 42
0.0
  0
VERTEX
  8
Default
 10
48.796641890034
 20
51.4612179928029
 30
0.0000000001454
 42
0.0
  0
VERTEX
  8
Default
 10
48.745530629463
 20
51.8494465604571
 30
0.0000000001461
 42
0.0
  0
VERTEX
  8
Default
 10
48.59567999571
 20
52.211217992803
 30
0.0000000001468
 42
0.0
  0
VERTEX
  8
Default
 10
48.357302061811
 20
52.5218781645829
 30
0.0000000001474
 42
0.0
  0
VERTEX
  8
Default
 10
48.046641890032
 20
52.76025609848
 30
0.0000000001478
 42
0.0
  0
VERTEX
  8
Default
 10
47.684870457687
 20
52.9101067322369
 30
0.0000000001481
 42
0.0
  0
VERTEX
  8
Default
 10
47.296641890033
 20
52.9612179928033
 30
0.0000000001482
 42
0.0
  0
VERTEX
  8
Default
 10
46.90841332238
 20
52.9101067322368
 30
0.0000000001481
 42
0.0
  0
VERTEX
  8
Default
 10
46.546641890031
 20
52.7602560984799
 30
0.0000000001478
 42
0.0
  0
SEQEND
  0
POLYLINE
  8
Default
 66
     1
 10
0.0
 20
0.0
 30
0.0000000007038
 70
     9
  0
VERTEX
  8
Default
 10
293.414213562416
 20
332.803985162986
 30
0.0000000007038
 42
0.0
  0
VERTEX
  8
Default
 10
293.000000000043
 20
333.121822408181
 30
0.0000000007044
 42
0.0
  0
VERTEX
  8
Default
 10
292.517638090248
 20
333.321623253191
 30
0.0000000007047
 42
0.0
  0
VERTEX
  8
Default
 10
292.000000000043
 20
333.389771600613
 30
0.0000000007048
 42
0.0
  0
VERTEX
  8
Default
 10
291.482361909838
 20
333.321623253191
 30
0.0000000007047
 42
0.0
  0
VERTEX
  8
Default
 10
291.000000000043
 20
333.121822408181
 30
0.0000000007044
 42
0.0
  0
VERTEX
  8
Default
 10
290.58578643767
 20
332.803985162986
 30
0.0000000007038
 42
0.0
  0
VERTEX
  8
Default
 10
290.267949192474
 20
332.389771600613
 30
0.000000000703
 42
0.0
  0
VERTEX
  8
Default
 10
290.068148347465
 20
331.907409690818
 30
0.0000000007021
 42
0.0
  0
VERTEX
  8
Default
 10
290.000000000043
 20
331.389771600613
 30
0.0000000007012
 42
0.0
  0
VERTEX
  8
Default
 10
290.068148347465
 20
330.872133510408
 30
0.0000000007002
 42
0.0
  0
VERTEX
  8
Default
 10
290.267949192473
 20
330.389771600613
 30
0.0000000006993
 42
0.0
  0
VERTEX
  8
Default
 10
290.585786437669
 20
329.97555803824
 30
0.0000000006986
 42
0.0
  0
VERTEX
  8
Default
 10
291.000000000042
 20
329.657720793044
 30
0.000000000698
 42
0.0
  0
VERTEX
  8
Default
 10
291.482361909838
 20
329.457919948034
 30
0.0000000006976
 42
0.0
  0
VERTEX
  8
Default
 10
292.000000000042
 20
329.389771600612
 30
0.0000000006975
 42
0.0
  0
VERTEX
  8
Default
 10
292.517638090248
 20
329.457919948034
 30
0.0000000006976
 42
0.0
  0
VERTEX
  8
Default
 10
293.000000000043
 20
329.657720793043
 30
0.000000000698
 42
0.0
  0
VERTEX
  8
Default
 10
293.414213562416
 20
329.975558038239
 30
0.0000000006986
 42
0.0
  0
VERTEX
  8
Default
 10
293.732050807612
 20
330.389771600613
 30
0.0000000006993
 42
0.0
  0
VERTEX
  8
Default
 10
293.931851652621
 20
330.872133510407
 30
0.0000000007002
 42
0.0
  0
VERTEX
  8
Default
 10
294.000000000043
 20
331.389771600613
 30
0.0000000007012
 42
0.0
  0
VERTEX
  8
Default
 10
293.931851652621
 20
331.907409690817
 30
0.0000000007021
 42
0.0
  0
VERTEX
  8
Default
 10
293.732050807612
 20
332.389771600613
 30
0.000000000703
 42
0.0
  0
SEQEND
  0
POLYLINE
  8
Default
 66
     1
 10
0.0
 20
0.0
 30
0.0000000005256
 70
     9
  0
VERTEX
  8
Default
 10
242.420355156253
 20
280.689153634688
 30
0.0000000005256
 42
0.0
  0
VERTEX
  8
Default
 10
241.919469233915
 20
280.541821755958
 30
0.0000000005254
 42
0.0
  0
VERTEX
  8
Default
 10
241.473782881669
 20
280.269871273131
 30
0.0000000005248
 42
0.0
  0
VERTEX
  8
Default
 10
241.113668887891
 20
279.891835162194
 30
0.0000000005242
 42
0.0
  0
VERTEX
  8
Default
 10
240.86366842614
 20
279.433475959372
 30
0.0000000005234
 42
0.0
  0
VERTEX
  8
Default
 10
240.740818614738
 20
278.926030086863
 30
0.0000000005224
 42
0.0
  0
VERTEX
  8
Default
 10
240.753491465316
 20
278.404079142285
 30
0.0000000005214
 42
0.0
  0
VERTEX
  8
Default
 10
240.900823344046
 20
277.903193219947
 30
0.0000000005205
 42
0.0
  0
VERTEX
  8
Default
 10
241.172773826873
 20
277.457506867701
 30
0.0000000005197
 42
0.0
  0
VERTEX
  8
Default
 10
241.55080993781
 20
277.097392873923
 30
0.0000000005191
 42
0.0
  0
VERTEX
  8
Default
 10
242.009169140632
 20
276.847392412172
 30
0.0000000005186
 42
0.0
  0
VERTEX
  8
Default
 10
242.516615013141
 20
276.72454260077
 30
0.0000000005184
 42
0.0
  0
VERTEX
  8
Default
 10
243.038565957719
 20
276.737215451347
 30
0.0000000005184
 42
0.0
  0
VERTEX
  8
Default
 10
243.539451880058
 20
276.884547330078
 30
0.0000000005187
 42
0.0
  0
VERTEX
  8
Default
 10
243.985138232303
 20
277.156497812905
 30
0.0000000005191
 42
0.0
  0
VERTEX
  8
Default
 10
244.34525222608
 20
277.534533923842
 30
0.0000000005198
 42
0.0
  0
VERTEX
  8
Default
 10
244.595252687832
 20
277.992893126664
 30
0.0000000005207
 42
0.0
  0
VERTEX
  8
Default
 10
244.718102499234
 20
278.500338999173
 30
0.0000000005216
 42
0.0
  0
VERTEX
  8
Default
 10
244.705429648657
 20
279.02228994375
 30
0.0000000005226
 42
0.0
  0
VERTEX
  8
Default
 10
244.558097769926
 20
279.523175866089
 30
0.0000000005235
 42
0.0
  0
VERTEX
  8
Default
 10
244.286147287099
 20
279.968862218335
 30
0.0000000005243
 42
0.0
  0
VERTEX
  8
Default
 10
243.908111176162
 20
280.328976212113
 30
0.000000000525
 42
0.0
  0
VERTEX
  8
Default
 10
243.44975197334
 20
280.578976673864
 30
0.0000000005254
 42
0.0
  0
VERTEX
  8
Default
 10
242.942306100831
 20
280.701826485265
 30
0.0000000005257
 42
0.0
  0
SEQEND
  0
POLYLINE
  8
Default
 66
     1
 10
0.0
 20
0.0
 30
0.0000000003217
 70
     9
  0
VERTEX
  8
Default
 10
148.473782881655
 20
147.569871273146
 30
0.0000000003217
 42
0.0
  0
VERTEX
  8
Default
 10
148.113668887878
 20
147.191835162209
 30
0.000000000321
 42
0.0
  0
VERTEX
  8
Default
 10
147.863668426125
 20
146.733475959387
 30
0.0000000003202
 42
0.0
  0
VERTEX
  8
Default
 10
147.740818614724
 20
146.226030086878
 30
0.0000000003193
 42
0.0
  0
VERTEX
  8
Default
 10
147.753491465301
 20
145.7040791423
 30
0.0000000003183
 42
0.0
  0
VERTEX
  8
Default
 10
147.900823344031
 20
145.203193219961
 30
0.0000000003174
 42
0.0
  0
VERTEX
  8
Default
 10
148.172773826857
 20
144.757506867716
 30
0.0000000003165
 42
0.0
  0
VERTEX
  8
Default
 10
148.550809937795
 20
144.397392873938
 30
0.0000000003159
 42
0.0
  0
VERTEX
  8
Default
 10
149.009169140617
 20
144.147392412186
 30
0.0000000003155
 42
0.0
  0
VERTEX
  8
Default
 10
149.516615013125
 20
144.024542600785
 30
0.0000000003152
 42
0.0
  0
VERTEX
  8
Default
 10
150.038565957703
 20
144.037215451361
 30
0.0000000003152
 42
0.0
  0
VERTEX
  8
Default
 10
150.539451880042
 20
144.184547330091
 30
0.0000000003155
 42
0.0
  0
VERTEX
  8
Default
 10
150.985138232287
 20
144.456497812918
 30
0.000000000316
 42
0.0
  0
VERTEX
  8
Default
 10
151.345252226066
 20
144.834533923855
 30
0.0000000003167
 42
0.0
  0
VERTEX
  8
Default
 10
151.595252687817
 20
145.292893126677
 30
0.0000000003176
 42
0.0
  0
VERTEX
  8
Default
 10
151.718102499219
 20
145.800338999185
 30
0.0000000003185
 42
0.0
  0
VERTEX
  8
Default
 10
151.705429648642
 20
146.322289943763
 30
0.0000000003194
 42
0.0
  0
VERTEX
  8
Default
 10
151.558097769912
 20
146.823175866102
 30
0.0000000003203
 42
0.0
  0
VERTEX
  8
Default
 10
151.286147287085
 20
147.268862218348
 30
0.0000000003212
 42
0.0
  0
VERTEX
  8
Default
 10
150.908111176148
 20
147.628976212126
 30
0.0000000003218
 42
0.0
  0
VERTEX
  8
Default
 10
150.449751973326
 20
147.878976673878
 30
0.0000000003223
 42
0.0
  0
VERTEX
  8
Default
 10
149.942306100818
 20
148.001826485279
 30
0.0000000003225
 42
0.0
  0
VERTEX
  8
Default
 10
149.42035515624
 20
147.989153634703
 30
0.0000000003225
 42
0.0
  0
VERTEX
  8
Default
 10
148.919469233901
 20
147.841821755972
 30
0.0000000003222
 42
0.0
  0
SEQEND
  0
POLYLINE
  8
Default
 66
     1
 10
0.0
 20
0.0
 30
0.0000000005776
 70
     9
  0
VERTEX
  8
Default
 10
244.705429648661
 20
309.02228994375
 30
0.0000000005776
 42
0.0
  0
VERTEX
  8
Default
 10
244.558097769931
 20
309.523175866088
 30
0.0000000005785
 42
0.0
  0
VERTEX
  8
Default
 10
244.286147287105
 20
309.968862218334
 30
0.0000000005793
 42
0.0
  0
VERTEX
  8
Default
 10
243.908111176167
 20
310.328976212112
 30
0.00000000058
 42
0.0
  0
VERTEX
  8
Default
 10
243.449751973346
 20
310.578976673863
 30
0.0000000005805
 42
0.0
  0
VERTEX
  8
Default
 10
242.942306100837
 20
310.701826485265
 30
0.0000000005807
 42
0.0
  0
VERTEX
  8
Default
 10
242.420355156259
 20
310.689153634689
 30
0.0000000005807
 42
0.0
  0
VERTEX
  8
Default
 10
241.91946923392
 20
310.541821755959
 30
0.0000000005804
 42
0.0
  0
VERTEX
  8
Default
 10
241.473782881675
 20
310.269871273132
 30
0.0000000005799
 42
0.0
  0
VERTEX
  8
Default
 10
241.113668887896
 20
309.891835162195
 30
0.0000000005792
 42
0.0
  0
VERTEX
  8
Default
 10
240.863668426145
 20
309.433475959373
 30
0.0000000005783
 42
0.0
  0
VERTEX
  8
Default
 10
240.740818614743
 20
308.926030086864
 30
0.0000000005774
 42
0.0
  0
VERTEX
  8
Default
 10
240.75349146532
 20
308.404079142287
 30
0.0000000005764
 42
0.0
  0
VERTEX
  8
Default
 10
240.90082334405
 20
307.903193219948
 30
0.0000000005755
 42
0.0
  0
VERTEX
  8
Default
 10
241.172773826877
 20
307.457506867702
 30
0.0000000005747
 42
0.0
  0
VERTEX
  8
Default
 10
241.550809937814
 20
307.097392873924
 30
0.000000000574
 42
0.0
  0
VERTEX
  8
Default
 10
242.009169140635
 20
306.847392412172
 30
0.0000000005736
 42
0.0
  0
VERTEX
  8
Default
 10
242.516615013144
 20
306.724542600771
 30
0.0000000005734
 42
0.0
  0
VERTEX
  8
Default
 10
243.038565957722
 20
306.737215451347
 30
0.0000000005734
 42
0.0
  0
VERTEX
  8
Default
 10
243.539451880061
 20
306.884547330078
 30
0.0000000005737
 42
0.0
  0
VERTEX
  8
Default
 10
243.985138232306
 20
307.156497812904
 30
0.0000000005742
 42
0.0
  0
VERTEX
  8
Default
 10
244.345252226085
 20
307.534533923841
 30
0.0000000005749
 42
0.0
  0
VERTEX
  8
Default
 10
244.595252687835
 20
307.992893126663
 30
0.0000000005757
 42
0.0
  0
VERTEX
  8
Default
 10
244.718102499237
 20
308.500338999172
 30
0.0000000005766
 42
0.0
  0
SEQEND
  0
POLYLINE
  8
Default
 66
     1
 10
0.0
 20
0.0
 30
0.0000000005581
 70
     9
  0
VERTEX
  8
Default
 10
240.753491465319
 20
298.404079142287
 30
0.0000000005581
 42
0.0
  0
VERTEX
  8
Default
 10
240.900823344049
 20
297.903193219948
 30
0.0000000005572
 42
0.0
  0
VERTEX
  8
Default
 10
241.172773826875
 20
297.457506867702
 30
0.0000000005564
 42
0.0
  0
VERTEX
  8
Default
 10
241.550809937812
 20
297.097392873924
 30
0.0000000005557
 42
0.0
  0
VERTEX
  8
Default
 10
242.009169140634
 20
296.847392412172
 30
0.0000000005553
 42
0.0
  0
VERTEX
  8
Default
 10
242.516615013143
 20
296.724542600771
 30
0.000000000555
 42
0.0
  0
VERTEX
  8
Default
 10
243.03856595772
 20
296.737215451347
 30
0.0000000005551
 42
0.0
  0
VERTEX
  8
Default
 10
243.539451880059
 20
296.884547330078
 30
0.0000000005553
 42
0.0
  0
VERTEX
  8
Default
 10
243.985138232305
 20
297.156497812904
 30
0.0000000005558
 42
0.0
  0
VERTEX
  8
Default
 10
244.345252226083
 20
297.534533923841
 30
0.0000000005565
 42
0.0
  0
VERTEX
  8
Default
 10
244.595252687834
 20
297.992893126663
 30
0.0000000005574
 42
0.0
  0
VERTEX
  8
Default
 10
244.718102499236
 20
298.500338999172
 30
0.0000000005583
 42
0.0
  0
VERTEX
  8
Default
 10
244.70542964866
 20
299.02228994375
 30
0.0000000005593
 42
0.0
  0
VERTEX
  8
Default
 10
244.55809776993
 20
299.523175866088
 30
0.0000000005602
 42
0.0
  0
VERTEX
  8
Default
 10
244.286147287103
 20
299.968862218334
 30
0.000000000561
 42
0.0
  0
VERTEX
  8
Default
 10
243.908111176166
 20
300.328976212112
 30
0.0000000005617
 42
0.0
  0
VERTEX
  8
Default
 10
243.449751973344
 20
300.578976673863
 30
0.0000000005621
 42
0.0
  0
VERTEX
  8
Default
 10
242.942306100835
 20
300.701826485265
 30
0.0000000005623
 42
0.0
  0
VERTEX
  8
Default
 10
242.420355156258
 20
300.689153634689
 30
0.0000000005623
 42
0.0
  0
VERTEX
  8
Default
 10
241.919469233919
 20
300.541821755959
 30
0.0000000005621
 42
0.0
  0
VERTEX
  8
Default
 10
241.473782881672
 20
300.269871273132
 30
0.0000000005616
 42
0.0
  0
VERTEX
  8
Default
 10
241.113668887895
 20
299.891835162195
 30
0.0000000005608
 42
0.0
  0
VERTEX
  8
Default
 10
240.863668426144
 20
299.433475959373
 30
0.00000000056
 42
0.0
  0
VERTEX
  8
Default
 10
240.740818614742
 20
298.926030086864
 30
0.0000000005591
 42
0.0
  0
SEQEND
  0
POLYLINE
  8
Default
 66
     1
 10
0.0
 20
0.0
 30
0.0000000006865
 70
     9
  0
VERTEX
  8
Default
 10
180.753491465328
 20
368.404079142294
 30
0.0000000006865
 42
0.0
  0
VERTEX
  8
Default
 10
180.900823344058
 20
367.903193219956
 30
0.0000000006855
 42
0.0
  0
VERTEX
  8
Default
 10
181.172773826884
 20
367.45750686771
 30
0.0000000006847
 42
0.0
  0
VERTEX
  8
Default
 10
181.550809937821
 20
367.097392873932
 30
0.000000000684
 42
0.0
  0
VERTEX
  8
Default
 10
182.009169140643
 20
366.84739241218
 30
0.0000000006836
 42
0.0
  0
VERTEX
  8
Default
 10
182.516615013152
 20
366.724542600779
 30
0.0000000006834
 42
0.0
  0
VERTEX
  8
Default
 10
183.03856595773
 20
366.737215451355
 30
0.0000000006834
 42
0.0
  0
VERTEX
  8
Default
 10
183.539451880068
 20
366.884547330086
 30
0.0000000006836
 42
0.0
  0
VERTEX
  8
Default
 10
183.985138232314
 20
367.156497812912
 30
0.0000000006841
 42
0.0
  0
VERTEX
  8
Default
 10
184.345252226092
 20
367.534533923849
 30
0.0000000006848
 42
0.0
  0
VERTEX
  8
Default
 10
184.595252687844
 20
367.992893126671
 30
0.0000000006857
 42
0.0
  0
VERTEX
  8
Default
 10
184.718102499245
 20
368.50033899918
 30
0.0000000006866
 42
0.0
  0
VERTEX
  8
Default
 10
184.705429648669
 20
369.022289943758
 30
0.0000000006876
 42
0.0
  0
VERTEX
  8
Default
 10
184.558097769939
 20
369.523175866096
 30
0.0000000006885
 42
0.0
  0
VERTEX
  8
Default
 10
184.286147287112
 20
369.968862218342
 30
0.0000000006893
 42
0.0
  0
VERTEX
  8
Default
 10
183.908111176175
 20
370.32897621212
 30
0.00000000069
 42
0.0
  0
VERTEX
  8
Default
 10
183.449751973353
 20
370.578976673871
 30
0.0000000006904
 42
0.0
  0
VERTEX
  8
Default
 10
182.942306100844
 20
370.701826485273
 30
0.0000000006907
 42
0.0
  0
VERTEX
  8
Default
 10
182.420355156267
 20
370.689153634697
 30
0.0000000006906
 42
0.0
  0
VERTEX
  8
Default
 10
181.919469233928
 20
370.541821755966
 30
0.0000000006904
 42
0.0
  0
VERTEX
  8
Default
 10
181.473782881682
 20
370.26987127314
 30
0.0000000006898
 42
0.0
  0
VERTEX
  8
Default
 10
181.113668887904
 20
369.891835162203
 30
0.0000000006892
 42
0.0
  0
VERTEX
  8
Default
 10
180.863668426153
 20
369.433475959381
 30
0.0000000006883
 42
0.0
  0
VERTEX
  8
Default
 10
180.74081861475
 20
368.926030086872
 30
0.0000000006874
 42
0.0
  0
SEQEND
  0
POLYLINE
  8
Default
 66
     1
 10
0.0
 20
0.0
 30
0.0000000005234
 70
     9
  0
VERTEX
  8
Default
 10
180.028498662664
 20
271.963184543029
 30
0.0000000005234
 42
0.0
  0
VERTEX
  8
Default
 10
180.178349296421
 20
272.324955975375
 30
0.0000000005241
 42
0.0
  0
VERTEX
  8
Default
 10
180.229460556988
 20
272.713184543029
 30
0.0000000005247
 42
0.0
  0
VERTEX
  8
Default
 10
180.178349296422
 20
273.101413110683
 30
0.0000000005255
 42
0.0
  0
VERTEX
  8
Default
 10
180.028498662664
 20
273.463184543029
 30
0.0000000005261
 42
0.0
  0
VERTEX
  8
Default
 10
179.790120728768
 20
273.773844714809
 30
0.0000000005267
 42
0.0
  0
VERTEX
  8
Default
 10
179.479460556988
 20
274.012222648706
 30
0.0000000005271
 42
0.0
  0
VERTEX
  8
Default
 10
179.117689124642
 20
274.162073282462
 30
0.0000000005274
 42
0.0
  0
VERTEX
  8
Default
 10
178.729460556988
 20
274.213184543029
 30
0.0000000005275
 42
0.0
  0
VERTEX
  8
Default
 10
178.341231989334
 20
274.162073282462
 30
0.0000000005274
 42
0.0
  0
VERTEX
  8
Default
 10
177.979460556988
 20
274.012222648706
 30
0.0000000005272
 42
0.0
  0
VERTEX
  8
Default
 10
177.668800385208
 20
273.773844714809
 30
0.0000000005267
 42
0.0
  0
VERTEX
  8
Default
 10
177.430422451311
 20
273.463184543029
 30
0.0000000005261
 42
0.0
  0
VERTEX
  8
Default
 10
177.280571817554
 20
273.101413110683
 30
0.0000000005255
 42
0.0
  0
VERTEX
  8
Default
 10
177.229460556988
 20
272.713184543029
 30
0.0000000005247
 42
0.0
  0
VERTEX
  8
Default
 10
177.280571817554
 20
272.324955975375
 30
0.000000000524
 42
0.0
  0
VERTEX
  8
Default
 10
177.430422451311
 20
271.963184543029
 30
0.0000000005234
 42
0.0
  0
VERTEX
  8
Default
 10
177.668800385208
 20
271.652524371249
 30
0.0000000005228
 42
0.0
  0
VERTEX
  8
Default
 10
177.979460556988
 20
271.414146437352
 30
0.0000000005224
 42
0.0
  0
VERTEX
  8
Default
 10
178.341231989334
 20
271.264295803595
 30
0.0000000005221
 42
0.0
  0
VERTEX
  8
Default
 10
178.729460556988
 20
271.213184543029
 30
0.000000000522
 42
0.0
  0
VERTEX
  8
Default
 10
179.117689124642
 20
271.264295803595
 30
0.0000000005221
 42
0.0
  0
VERTEX
  8
Default
 10
179.479460556988
 20
271.414146437352
 30
0.0000000005224
 42
0.0
  0
VERTEX
  8
Default
 10
179.790120728768
 20
271.652524371249
 30
0.0000000005228
 42
0.0
  0
SEQEND
  0
POLYLINE
  8
Default
 66
     1
 10
0.0
 20
0.0
 30
0.0000000006231
 70
     9
  0
VERTEX
  8
Default
 10
119.029460556993
 20
333.905902639654
 30
0.0000000006231
 42
0.0
  0
VERTEX
  8
Default
 10
119.35265442595
 20
333.877952689559
 30
0.0000000006231
 42
0.0
  0
VERTEX
  8
Default
 10
119.720751754898
 20
333.74439319674
 30
0.0000000006228
 42
0.0
  0
VERTEX
  8
Default
 10
120.041738731117
 20
333.520114034101
 30
0.0000000006224
 42
0.0
  0
VERTEX
  8
Default
 10
120.293740622639
 20
333.220399455931
 30
0.0000000006219
 42
0.0
  0
VERTEX
  8
Default
 10
120.459583917013
 20
332.865674515433
 30
0.0000000006212
 42
0.0
  0
VERTEX
  8
Default
 10
120.527966667792
 20
332.480113131092
 30
0.0000000006205
 42
0.0
  0
VERTEX
  8
Default
 10
120.494228703515
 20
332.089990674078
 30
0.0000000006198
 42
0.0
  0
VERTEX
  8
Default
 10
120.360669210696
 20
331.721893345132
 30
0.0000000006191
 42
0.0
  0
VERTEX
  8
Default
 10
120.136390048056
 20
331.40090636891
 30
0.0000000006185
 42
0.0
  0
VERTEX
  8
Default
 10
119.836675469889
 20
331.148904477386
 30
0.0000000006181
 42
0.0
  0
VERTEX
  8
Default
 10
119.481950529391
 20
330.983061183012
 30
0.0000000006178
 42
0.0
  0
VERTEX
  8
Default
 10
119.09638914505
 20
330.914678432237
 30
0.0000000006177
 42
0.0
  0
VERTEX
  8
Default
 10
118.706266688037
 20
330.948416396514
 30
0.0000000006177
 42
0.0
  0
VERTEX
  8
Default
 10
118.338169359089
 20
331.081975889331
 30
0.000000000618
 42
0.0
  0
VERTEX
  8
Default
 10
118.017182382862
 20
331.306255051972
 30
0.0000000006183
 42
0.0
  0
VERTEX
  8
Default
 10
117.765180491344
 20
331.605969630142
 30
0.0000000006189
 42
0.0
  0
VERTEX
  8
Default
 10
117.59933719697
 20
331.960694570639
 30
0.0000000006196
 42
0.0
  0
VERTEX
  8
Default
 10
117.530954446195
 20
332.346255954981
 30
0.0000000006202
 42
0.0
  0
VERTEX
  8
Default
 10
117.536742460375
 20
332.413184543037
 30
0.0000000006204
 42
0.0
  0
VERTEX
  8
Default
 10
117.564692410465
 20
332.736378411994
 30
0.000000000621
 42
0.0
  0
VERTEX
  8
Default
 10
117.698251903284
 20
333.10447574094
 30
0.0000000006217
 42
0.0
  0
VERTEX
  8
Default
 10
117.922531065928
 20
333.425462717162
 30
0.0000000006223
 42
0.0
  0
VERTEX
  8
Default
 10
118.222245644093
 20
333.677464608686
 30
0.0000000006227
 42
0.0
  0
VERTEX
  8
Default
 10
118.576970584597
 20
333.843307903058
 30
0.000000000623
 42
0.0
  0
VERTEX
  8
Default
 10
118.962531968938
 20
333.911690653835
 30
0.0000000006231
 42
0.0
  0
SEQEND
  0
POLYLINE
  8
Default
 66
     1
 10
0.0
 20
0.0
 30
0.0000000005234
 70
     9
  0
VERTEX
  8
Default
 10
180.028498662664
 20
303.789838098203
 30
0.0000000005234
 42
0.0
  0
VERTEX
  8
Default
 10
180.178349296421
 20
304.151609530549
 30
0.0000000005241
 42
0.0
  0
VERTEX
  8
Default
 10
180.229460556988
 20
304.539838098203
 30
0.0000000005247
 42
0.0
  0
VERTEX
  8
Default
 10
180.178349296422
 20
304.928066665857
 30
0.0000000005255
 42
0.0
  0
VERTEX
  8
Default
 10
180.028498662664
 20
305.289838098203
 30
0.0000000005261
 42
0.0
  0
VERTEX
  8
Default
 10
179.790120728768
 20
305.600498269983
 30
0.0000000005267
 42
0.0
  0
VERTEX
  8
Default
 10
179.479460556988
 20
305.83887620388
 30
0.0000000005271
 42
0.0
  0
VERTEX
  8
Default
 10
179.117689124642
 20
305.988726837637
 30
0.0000000005274
 42
0.0
  0
VERTEX
  8
Default
 10
178.729460556988
 20
306.039838098203
 30
0.0000000005275
 42
0.0
  0
VERTEX
  8
Default
 10
178.341231989334
 20
305.988726837637
 30
0.0000000005274
 42
0.0
  0
VERTEX
  8
Default
 10
177.979460556988
 20
305.83887620388
 30
0.0000000005272
 42
0.0
  0
VERTEX
  8
Default
 10
177.668800385208
 20
305.600498269983
 30
0.0000000005267
 42
0.0
  0
VERTEX
  8
Default
 10
177.430422451311
 20
305.289838098203
 30
0.0000000005261
 42
0.0
  0
VERTEX
  8
Default
 10
177.280571817554
 20
304.928066665857
 30
0.0000000005255
 42
0.0
  0
VERTEX
  8
Default
 10
177.229460556988
 20
304.539838098203
 30
0.0000000005247
 42
0.0
  0
VERTEX
  8
Default
 10
177.280571817554
 20
304.151609530549
 30
0.000000000524
 42
0.0
  0
VERTEX
  8
Default
 10
177.430422451311
 20
303.789838098203
 30
0.0000000005234
 42
0.0
  0
VERTEX
  8
Default
 10
177.668800385208
 20
303.479177926423
 30
0.0000000005228
 42
0.0
  0
VERTEX
  8
Default
 10
177.979460556988
 20
303.240799992526
 30
0.0000000005224
 42
0.0
  0
VERTEX
  8
Default
 10
178.341231989334
 20
303.090949358769
 30
0.0000000005221
 42
0.0
  0
VERTEX
  8
Default
 10
178.729460556988
 20
303.039838098203
 30
0.000000000522
 42
0.0
  0
VERTEX
  8
Default
 10
179.117689124642
 20
303.090949358769
 30
0.0000000005221
 42
0.0
  0
VERTEX
  8
Default
 10
179.479460556988
 20
303.240799992526
 30
0.0000000005224
 42
0.0
  0
VERTEX
  8
Default
 10
179.790120728768
 20
303.479177926423
 30
0.0000000005228
 42
0.0
  0
SEQEND
  0
POLYLINE
  8
Default
 66
     1
 10
0.0
 20
0.0
 30
0.0000000006286
 70
     9
  0
VERTEX
  8
Default
 10
242.009169140641
 20
336.847392412172
 30
0.0000000006286
 42
0.0
  0
VERTEX
  8
Default
 10
242.516615013149
 20
336.724542600771
 30
0.0000000006284
 42
0.0
  0
VERTEX
  8
Default
 10
243.038565957727
 20
336.737215451347
 30
0.0000000006284
 42
0.0
  0
VERTEX
  8
Default
 10
243.539451880066
 20
336.884547330078
 30
0.0000000006287
 42
0.0
  0
VERTEX
  8
Default
 10
243.985138232311
 20
337.156497812905
 30
0.0000000006292
 42
0.0
  0
VERTEX
  8
Default
 10
244.345252226089
 20
337.534533923842
 30
0.0000000006299
 42
0.0
  0
VERTEX
  8
Default
 10
244.59525268784
 20
337.992893126664
 30
0.0000000006307
 42
0.0
  0
VERTEX
  8
Default
 10
244.718102499242
 20
338.500338999173
 30
0.0000000006317
 42
0.0
  0
VERTEX
  8
Default
 10
244.705429648666
 20
339.02228994375
 30
0.0000000006326
 42
0.0
  0
VERTEX
  8
Default
 10
244.558097769934
 20
339.523175866089
 30
0.0000000006335
 42
0.0
  0
VERTEX
  8
Default
 10
244.286147287108
 20
339.968862218335
 30
0.0000000006343
 42
0.0
  0
VERTEX
  8
Default
 10
243.908111176171
 20
340.328976212113
 30
0.000000000635
 42
0.0
  0
VERTEX
  8
Default
 10
243.449751973349
 20
340.578976673864
 30
0.0000000006355
 42
0.0
  0
VERTEX
  8
Default
 10
242.94230610084
 20
340.701826485265
 30
0.0000000006357
 42
0.0
  0
VERTEX
  8
Default
 10
242.420355156262
 20
340.689153634688
 30
0.0000000006357
 42
0.0
  0
VERTEX
  8
Default
 10
241.919469233923
 20
340.541821755958
 30
0.0000000006354
 42
0.0
  0
VERTEX
  8
Default
 10
241.473782881678
 20
340.269871273131
 30
0.0000000006349
 42
0.0
  0
VERTEX
  8
Default
 10
241.1136688879
 20
339.891835162194
 30
0.0000000006342
 42
0.0
  0
VERTEX
  8
Default
 10
240.863668426149
 20
339.433475959372
 30
0.0000000006334
 42
0.0
  0
VERTEX
  8
Default
 10
240.740818614748
 20
338.926030086863
 30
0.0000000006325
 42
0.0
  0
VERTEX
  8
Default
 10
240.753491465324
 20
338.404079142285
 30
0.0000000006315
 42
0.0
  0
VERTEX
  8
Default
 10
240.900823344055
 20
337.903193219947
 30
0.0000000006306
 42
0.0
  0
VERTEX
  8
Default
 10
241.172773826882
 20
337.457506867701
 30
0.0000000006297
 42
0.0
  0
VERTEX
  8
Default
 10
241.550809937819
 20
337.097392873923
 30
0.0000000006291
 42
0.0
  0
SEQEND
  0
POLYLINE
  8
Default
 66
     1
 10
0.0
 20
0.0
 30
0.0000000003195
 70
     9
  0
VERTEX
  8
Default
 10
181.705429648642
 20
146.322289943759
 30
0.0000000003195
 42
0.0
  0
VERTEX
  8
Default
 10
181.558097769912
 20
146.823175866098
 30
0.0000000003204
 42
0.0
  0
VERTEX
  8
Default
 10
181.286147287085
 20
147.268862218344
 30
0.0000000003212
 42
0.0
  0
VERTEX
  8
Default
 10
180.908111176148
 20
147.628976212122
 30
0.0000000003219
 42
0.0
  0
VERTEX
  8
Default
 10
180.449751973326
 20
147.878976673873
 30
0.0000000003223
 42
0.0
  0
VERTEX
  8
Default
 10
179.942306100818
 20
148.001826485275
 30
0.0000000003226
 42
0.0
  0
VERTEX
  8
Default
 10
179.42035515624
 20
147.989153634698
 30
0.0000000003225
 42
0.0
  0
VERTEX
  8
Default
 10
178.919469233902
 20
147.841821755968
 30
0.0000000003223
 42
0.0
  0
VERTEX
  8
Default
 10
178.473782881655
 20
147.569871273142
 30
0.0000000003218
 42
0.0
  0
VERTEX
  8
Default
 10
178.113668887878
 20
147.191835162205
 30
0.000000000321
 42
0.0
  0
VERTEX
  8
Default
 10
177.863668426126
 20
146.733475959383
 30
0.0000000003202
 42
0.0
  0
VERTEX
  8
Default
 10
177.740818614724
 20
146.226030086874
 30
0.0000000003193
 42
0.0
  0
VERTEX
  8
Default
 10
177.753491465301
 20
145.704079142296
 30
0.0000000003183
 42
0.0
  0
VERTEX
  8
Default
 10
177.900823344031
 20
145.203193219957
 30
0.0000000003174
 42
0.0
  0
VERTEX
  8
Default
 10
178.172773826857
 20
144.757506867712
 30
0.0000000003166
 42
0.0
  0
VERTEX
  8
Default
 10
178.550809937795
 20
144.397392873934
 30
0.0000000003159
 42
0.0
  0
VERTEX
  8
Default
 10
179.009169140617
 20
144.147392412182
 30
0.0000000003155
 42
0.0
  0
VERTEX
  8
Default
 10
179.516615013125
 20
144.024542600781
 30
0.0000000003153
 42
0.0
  0
VERTEX
  8
Default
 10
180.038565957703
 20
144.037215451357
 30
0.0000000003153
 42
0.0
  0
VERTEX
  8
Default
 10
180.539451880042
 20
144.184547330087
 30
0.0000000003156
 42
0.0
  0
VERTEX
  8
Default
 10
180.985138232287
 20
144.456497812914
 30
0.000000000316
 42
0.0
  0
VERTEX
  8
Default
 10
181.345252226066
 20
144.834533923851
 30
0.0000000003167
 42
0.0
  0
VERTEX
  8
Default
 10
181.595252687816
 20
145.292893126673
 30
0.0000000003176
 42
0.0
  0
VERTEX
  8
Default
 10
181.718102499219
 20
145.800338999182
 30
0.0000000003185
 42
0.0
  0
SEQEND
  0
POLYLINE
  8
Default
 66
     1
 10
0.0
 20
0.0
 30
0.0000000005275
 70
     9
  0
VERTEX
  8
Default
 10
146.426978638397
 20
274.182369585468
 30
0.0000000005275
 42
0.0
  0
VERTEX
  8
Default
 10
146.057032390073
 20
274.054020237788
 30
0.0000000005272
 42
0.0
  0
VERTEX
  8
Default
 10
145.732911010083
 20
273.834295153346
 30
0.0000000005268
 42
0.0
  0
VERTEX
  8
Default
 10
145.47670283484
 20
273.538168233533
 30
0.0000000005263
 42
0.0
  0
VERTEX
  8
Default
 10
145.30586802808
 20
273.185820038563
 30
0.0000000005256
 42
0.0
  0
VERTEX
  8
Default
 10
145.232048699568
 20
272.80126251564
 30
0.0000000005249
 42
0.0
  0
VERTEX
  8
Default
 10
145.260275514549
 20
272.410702624438
 30
0.0000000005242
 42
0.0
  0
VERTEX
  8
Default
 10
145.388624862229
 20
272.040756376114
 30
0.0000000005235
 42
0.0
  0
VERTEX
  8
Default
 10
145.608349946671
 20
271.716634996125
 30
0.0000000005229
 42
0.0
  0
VERTEX
  8
Default
 10
145.904476866483
 20
271.460426820881
 30
0.0000000005225
 42
0.0
  0
VERTEX
  8
Default
 10
146.256825061453
 20
271.289592014122
 30
0.0000000005222
 42
0.0
  0
VERTEX
  8
Default
 10
146.641382584377
 20
271.215772685609
 30
0.000000000522
 42
0.0
  0
VERTEX
  8
Default
 10
147.031942475578
 20
271.24399950059
 30
0.0000000005221
 42
0.0
  0
VERTEX
  8
Default
 10
147.401888723903
 20
271.37234884827
 30
0.0000000005223
 42
0.0
  0
VERTEX
  8
Default
 10
147.726010103892
 20
271.592073932712
 30
0.0000000005227
 42
0.0
  0
VERTEX
  8
Default
 10
147.982218279136
 20
271.888200852524
 30
0.0000000005233
 42
0.0
  0
VERTEX
  8
Default
 10
148.153053085895
 20
272.240549047495
 30
0.0000000005239
 42
0.0
  0
VERTEX
  8
Default
 10
148.226872414407
 20
272.625106570418
 30
0.0000000005246
 42
0.0
  0
VERTEX
  8
Default
 10
148.198645599427
 20
273.01566646162
 30
0.0000000005253
 42
0.0
  0
VERTEX
  8
Default
 10
148.070296251746
 20
273.385612709944
 30
0.000000000526
 42
0.0
  0
VERTEX
  8
Default
 10
147.850571167304
 20
273.709734089933
 30
0.0000000005266
 42
0.0
  0
VERTEX
  8
Default
 10
147.554444247492
 20
273.965942265177
 30
0.0000000005271
 42
0.0
  0
VERTEX
  8
Default
 10
147.202096052522
 20
274.136777071936
 30
0.0000000005274
 42
0.0
  0
VERTEX
  8
Default
 10
146.817538529598
 20
274.210596400448
 30
0.0000000005275
 42
0.0
  0
SEQEND
  0
POLYLINE
  8
Default
 66
     1
 10
0.0
 20
0.0
 30
0.0000000004464
 70
     9
  0
VERTEX
  8
Default
 10
84.345252226076
 20
237.534533923863
 30
0.0000000004464
 42
0.0
  0
VERTEX
  8
Default
 10
84.595252687826
 20
237.992893126685
 30
0.0000000004472
 42
0.0
  0
VERTEX
  8
Default
 10
84.7181024992281
 20
238.500338999194
 30
0.0000000004481
 42
0.0
  0
VERTEX
  8
Default
 10
84.705429648651
 20
239.022289943772
 30
0.0000000004491
 42
0.0
  0
VERTEX
  8
Default
 10
84.558097769921
 20
239.523175866111
 30
0.00000000045
 42
0.0
  0
VERTEX
  8
Default
 10
84.2861472870941
 20
239.968862218356
 30
0.0000000004508
 42
0.0
  0
VERTEX
  8
Default
 10
83.908111176157
 20
240.328976212134
 30
0.0000000004515
 42
0.0
  0
VERTEX
  8
Default
 10
83.4497519733351
 20
240.578976673885
 30
0.0000000004519
 42
0.0
  0
VERTEX
  8
Default
 10
82.942306100826
 20
240.701826485287
 30
0.0000000004522
 42
0.0
  0
VERTEX
  8
Default
 10
82.420355156248
 20
240.68915363471
 30
0.0000000004521
 42
0.0
  0
VERTEX
  8
Default
 10
81.91946923391
 20
240.541821755979
 30
0.0000000004519
 42
0.0
  0
VERTEX
  8
Default
 10
81.4737828816641
 20
240.269871273153
 30
0.0000000004514
 42
0.0
  0
VERTEX
  8
Default
 10
81.113668887886
 20
239.891835162215
 30
0.0000000004507
 42
0.0
  0
VERTEX
  8
Default
 10
80.863668426135
 20
239.433475959393
 30
0.0000000004499
 42
0.0
  0
VERTEX
  8
Default
 10
80.7408186147341
 20
238.926030086885
 30
0.0000000004489
 42
0.0
  0
VERTEX
  8
Default
 10
80.75349146531
 20
238.404079142307
 30
0.000000000448
 42
0.0
  0
VERTEX
  8
Default
 10
80.900823344041
 20
237.903193219968
 30
0.000000000447
 42
0.0
  0
VERTEX
  8
Default
 10
81.1727738268681
 20
237.457506867722
 30
0.0000000004462
 42
0.0
  0
VERTEX
  8
Default
 10
81.550809937805
 20
237.097392873944
 30
0.0000000004456
 42
0.0
  0
VERTEX
  8
Default
 10
82.0091691406271
 20
236.847392412194
 30
0.0000000004451
 42
0.0
  0
VERTEX
  8
Default
 10
82.516615013136
 20
236.724542600792
 30
0.0000000004449
 42
0.0
  0
VERTEX
  8
Default
 10
83.038565957713
 20
236.737215451369
 30
0.0000000004449
 42
0.0
  0
VERTEX
  8
Default
 10
83.539451880052
 20
236.884547330099
 30
0.0000000004452
 42
0.0
  0
VERTEX
  8
Default
 10
83.9851382322981
 20
237.156497812926
 30
0.0000000004457
 42
0.0
  0
SEQEND
  0
POLYLINE
  8
Default
 66
     1
 10
0.0
 20
0.0
 30
0.0000000003913
 70
     9
  0
VERTEX
  8
Default
 10
141.172773826863
 20
197.457506867716
 30
0.0000000003913
 42
0.0
  0
VERTEX
  8
Default
 10
141.5508099378
 20
197.097392873938
 30
0.0000000003906
 42
0.0
  0
VERTEX
  8
Default
 10
142.009169140622
 20
196.847392412186
 30
0.0000000003901
 42
0.0
  0
VERTEX
  8
Default
 10
142.516615013131
 20
196.724542600785
 30
0.0000000003899
 42
0.0
  0
VERTEX
  8
Default
 10
143.038565957709
 20
196.737215451361
 30
0.0000000003899
 42
0.0
  0
VERTEX
  8
Default
 10
143.539451880047
 20
196.884547330091
 30
0.0000000003902
 42
0.0
  0
VERTEX
  8
Default
 10
143.985138232293
 20
197.156497812917
 30
0.0000000003907
 42
0.0
  0
VERTEX
  8
Default
 10
144.345252226071
 20
197.534533923855
 30
0.0000000003914
 42
0.0
  0
VERTEX
  8
Default
 10
144.595252687822
 20
197.992893126677
 30
0.0000000003923
 42
0.0
  0
VERTEX
  8
Default
 10
144.718102499224
 20
198.500338999185
 30
0.0000000003932
 42
0.0
  0
VERTEX
  8
Default
 10
144.705429648648
 20
199.022289943763
 30
0.0000000003941
 42
0.0
  0
VERTEX
  8
Default
 10
144.558097769917
 20
199.523175866102
 30
0.0000000003951
 42
0.0
  0
VERTEX
  8
Default
 10
144.286147287091
 20
199.968862218348
 30
0.0000000003959
 42
0.0
  0
VERTEX
  8
Default
 10
143.908111176153
 20
200.328976212126
 30
0.0000000003965
 42
0.0
  0
VERTEX
  8
Default
 10
143.449751973332
 20
200.578976673877
 30
0.000000000397
 42
0.0
  0
VERTEX
  8
Default
 10
142.942306100823
 20
200.701826485279
 30
0.0000000003972
 42
0.0
  0
VERTEX
  8
Default
 10
142.420355156246
 20
200.689153634703
 30
0.0000000003972
 42
0.0
  0
VERTEX
  8
Default
 10
141.919469233907
 20
200.541821755972
 30
0.0000000003969
 42
0.0
  0
VERTEX
  8
Default
 10
141.473782881661
 20
200.269871273146
 30
0.0000000003964
 42
0.0
  0
VERTEX
  8
Default
 10
141.113668887883
 20
199.891835162209
 30
0.0000000003957
 42
0.0
  0
VERTEX
  8
Default
 10
140.863668426131
 20
199.433475959387
 30
0.0000000003949
 42
0.0
  0
VERTEX
  8
Default
 10
140.740818614729
 20
198.926030086878
 30
0.0000000003939
 42
0.0
  0
VERTEX
  8
Default
 10
140.753491465306
 20
198.4040791423
 30
0.000000000393
 42
0.0
  0
VERTEX
  8
Default
 10
140.900823344037
 20
197.903193219961
 30
0.0000000003921
 42
0.0
  0
SEQEND
  0
POLYLINE
  8
Default
 66
     1
 10
0.0
 20
0.0
 30
0.00000000069
 70
     9
  0
VERTEX
  8
Default
 10
213.908111176174
 20
370.328976212116
 30
0.00000000069
 42
0.0
  0
VERTEX
  8
Default
 10
213.449751973353
 20
370.578976673867
 30
0.0000000006905
 42
0.0
  0
VERTEX
  8
Default
 10
212.942306100844
 20
370.701826485269
 30
0.0000000006907
 42
0.0
  0
VERTEX
  8
Default
 10
212.420355156267
 20
370.689153634693
 30
0.0000000006907
 42
0.0
  0
VERTEX
  8
Default
 10
211.919469233928
 20
370.541821755962
 30
0.0000000006904
 42
0.0
  0
VERTEX
  8
Default
 10
211.473782881682
 20
370.269871273136
 30
0.0000000006899
 42
0.0
  0
VERTEX
  8
Default
 10
211.113668887904
 20
369.891835162199
 30
0.0000000006892
 42
0.0
  0
VERTEX
  8
Default
 10
210.863668426153
 20
369.433475959377
 30
0.0000000006883
 42
0.0
  0
VERTEX
  8
Default
 10
210.740818614751
 20
368.926030086868
 30
0.0000000006874
 42
0.0
  0
VERTEX
  8
Default
 10
210.753491465327
 20
368.404079142291
 30
0.0000000006865
 42
0.0
  0
VERTEX
  8
Default
 10
210.900823344058
 20
367.903193219951
 30
0.0000000006855
 42
0.0
  0
VERTEX
  8
Default
 10
211.172773826884
 20
367.457506867706
 30
0.0000000006847
 42
0.0
  0
VERTEX
  8
Default
 10
211.550809937821
 20
367.097392873928
 30
0.000000000684
 42
0.0
  0
VERTEX
  8
Default
 10
212.009169140643
 20
366.847392412176
 30
0.0000000006836
 42
0.0
  0
VERTEX
  8
Default
 10
212.516615013152
 20
366.724542600775
 30
0.0000000006834
 42
0.0
  0
VERTEX
  8
Default
 10
213.03856595773
 20
366.737215451351
 30
0.0000000006834
 42
0.0
  0
VERTEX
  8
Default
 10
213.539451880068
 20
366.884547330082
 30
0.0000000006837
 42
0.0
  0
VERTEX
  8
Default
 10
213.985138232314
 20
367.156497812908
 30
0.0000000006842
 42
0.0
  0
VERTEX
  8
Default
 10
214.345252226092
 20
367.534533923845
 30
0.0000000006849
 42
0.0
  0
VERTEX
  8
Default
 10
214.595252687844
 20
367.992893126667
 30
0.0000000006857
 42
0.0
  0
VERTEX
  8
Default
 10
214.718102499246
 20
368.500338999176
 30
0.0000000006867
 42
0.0
  0
VERTEX
  8
Default
 10
214.705429648669
 20
369.022289943754
 30
0.0000000006876
 42
0.0
  0
VERTEX
  8
Default
 10
214.558097769939
 20
369.523175866093
 30
0.0000000006885
 42
0.0
  0
VERTEX
  8
Default
 10
214.286147287111
 20
369.968862218338
 30
0.0000000006893
 42
0.0
  0
SEQEND
  0
POLYLINE
  8
Default
 66
     1
 10
0.0
 20
0.0
 30
0.0000000004705
 70
     9
  0
VERTEX
  8
Default
 10
82.9423061008291
 20
250.701826485286
 30
0.0000000004705
 42
0.0
  0
VERTEX
  8
Default
 10
82.420355156251
 20
250.68915363471
 30
0.0000000004704
 42
0.0
  0
VERTEX
  8
Default
 10
81.9194692339121
 20
250.54182175598
 30
0.0000000004702
 42
0.0
  0
VERTEX
  8
Default
 10
81.473782881667
 20
250.269871273153
 30
0.0000000004697
 42
0.0
  0
VERTEX
  8
Default
 10
81.1136688878881
 20
249.891835162216
 30
0.000000000469
 42
0.0
  0
VERTEX
  8
Default
 10
80.8636684261371
 20
249.433475959394
 30
0.0000000004682
 42
0.0
  0
VERTEX
  8
Default
 10
80.740818614735
 20
248.926030086885
 30
0.0000000004673
 42
0.0
  0
VERTEX
  8
Default
 10
80.753491465312
 20
248.404079142308
 30
0.0000000004663
 42
0.0
  0
VERTEX
  8
Default
 10
80.900823344042
 20
247.903193219969
 30
0.0000000004654
 42
0.0
  0
VERTEX
  8
Default
 10
81.1727738268681
 20
247.457506867723
 30
0.0000000004646
 42
0.0
  0
VERTEX
  8
Default
 10
81.550809937805
 20
247.097392873945
 30
0.0000000004639
 42
0.0
  0
VERTEX
  8
Default
 10
82.009169140628
 20
246.847392412194
 30
0.0000000004634
 42
0.0
  0
VERTEX
  8
Default
 10
82.516615013135
 20
246.724542600792
 30
0.0000000004632
 42
0.0
  0
VERTEX
  8
Default
 10
83.038565957713
 20
246.737215451369
 30
0.0000000004633
 42
0.0
  0
VERTEX
  8
Default
 10
83.539451880052
 20
246.884547330099
 30
0.0000000004635
 42
0.0
  0
VERTEX
  8
Default
 10
83.9851382322981
 20
247.156497812925
 30
0.000000000464
 42
0.0
  0
VERTEX
  8
Default
 10
84.345252226076
 20
247.534533923862
 30
0.0000000004647
 42
0.0
  0
VERTEX
  8
Default
 10
84.595252687828
 20
247.992893126684
 30
0.0000000004655
 42
0.0
  0
VERTEX
  8
Default
 10
84.718102499229
 20
248.500338999193
 30
0.0000000004665
 42
0.0
  0
VERTEX
  8
Default
 10
84.7054296486531
 20
249.022289943771
 30
0.0000000004674
 42
0.0
  0
VERTEX
  8
Default
 10
84.5580977699221
 20
249.523175866109
 30
0.0000000004683
 42
0.0
  0
VERTEX
  8
Default
 10
84.286147287096
 20
249.968862218355
 30
0.0000000004692
 42
0.0
  0
VERTEX
  8
Default
 10
83.9081111761591
 20
250.328976212133
 30
0.0000000004698
 42
0.0
  0
VERTEX
  8
Default
 10
83.449751973336
 20
250.578976673885
 30
0.0000000004703
 42
0.0
  0
SEQEND
  0
POLYLINE
  8
Default
 66
     1
 10
0.0
 20
0.0
 30
0.0000000006181
 70
     9
  0
VERTEX
  8
Default
 10
207.179460556996
 20
331.114146437349
 30
0.0000000006181
 42
0.0
  0
VERTEX
  8
Default
 10
206.81768912465
 20
330.964295803592
 30
0.0000000006178
 42
0.0
  0
VERTEX
  8
Default
 10
206.429460556996
 20
330.913184543024
 30
0.0000000006177
 42
0.0
  0
VERTEX
  8
Default
 10
206.041231989342
 20
330.964295803592
 30
0.0000000006178
 42
0.0
  0
VERTEX
  8
Default
 10
205.679460556995
 20
331.114146437347
 30
0.0000000006181
 42
0.0
  0
VERTEX
  8
Default
 10
205.368800385213
 20
331.352524371245
 30
0.0000000006185
 42
0.0
  0
VERTEX
  8
Default
 10
205.130422451319
 20
331.663184543024
 30
0.0000000006191
 42
0.0
  0
VERTEX
  8
Default
 10
204.980571817559
 20
332.02495597537
 30
0.0000000006197
 42
0.0
  0
VERTEX
  8
Default
 10
204.929460556994
 20
332.413184543025
 30
0.0000000006204
 42
0.0
  0
VERTEX
  8
Default
 10
204.98057181756
 20
332.801413110677
 30
0.0000000006212
 42
0.0
  0
VERTEX
  8
Default
 10
205.130422451319
 20
333.163184543024
 30
0.0000000006218
 42
0.0
  0
VERTEX
  8
Default
 10
205.368800385214
 20
333.473844714804
 30
0.0000000006224
 42
0.0
  0
VERTEX
  8
Default
 10
205.679460556996
 20
333.7122226487
 30
0.0000000006229
 42
0.0
  0
VERTEX
  8
Default
 10
206.041231989342
 20
333.862073282459
 30
0.0000000006231
 42
0.0
  0
VERTEX
  8
Default
 10
206.429460556996
 20
333.913184543024
 30
0.0000000006232
 42
0.0
  0
VERTEX
  8
Default
 10
206.81768912465
 20
333.862073282459
 30
0.0000000006231
 42
0.0
  0
VERTEX
  8
Default
 10
207.179460556996
 20
333.712222648702
 30
0.0000000006229
 42
0.0
  0
VERTEX
  8
Default
 10
207.490120728774
 20
333.473844714804
 30
0.0000000006224
 42
0.0
  0
VERTEX
  8
Default
 10
207.728498662673
 20
333.163184543024
 30
0.0000000006218
 42
0.0
  0
VERTEX
  8
Default
 10
207.878349296427
 20
332.801413110679
 30
0.0000000006212
 42
0.0
  0
VERTEX
  8
Default
 10
207.929460556994
 20
332.413184543024
 30
0.0000000006204
 42
0.0
  0
VERTEX
  8
Default
 10
207.878349296427
 20
332.024955975371
 30
0.0000000006197
 42
0.0
  0
VERTEX
  8
Default
 10
207.728498662672
 20
331.663184543024
 30
0.0000000006191
 42
0.0
  0
VERTEX
  8
Default
 10
207.490120728773
 20
331.352524371244
 30
0.0000000006185
 42
0.0
  0
SEQEND
  0
POLYLINE
  8
Default
 66
     1
 10
0.0
 20
0.0
 30
0.0000000003913
 70
     9
  0
VERTEX
  8
Default
 10
201.172773826863
 20
197.457506867708
 30
0.0000000003913
 42
0.0
  0
VERTEX
  8
Default
 10
201.5508099378
 20
197.09739287393
 30
0.0000000003906
 42
0.0
  0
VERTEX
  8
Default
 10
202.009169140622
 20
196.847392412178
 30
0.0000000003902
 42
0.0
  0
VERTEX
  8
Default
 10
202.516615013131
 20
196.724542600777
 30
0.00000000039
 42
0.0
  0
VERTEX
  8
Default
 10
203.038565957709
 20
196.737215451353
 30
0.00000000039
 42
0.0
  0
VERTEX
  8
Default
 10
203.539451880048
 20
196.884547330083
 30
0.0000000003903
 42
0.0
  0
VERTEX
  8
Default
 10
203.985138232293
 20
197.15649781291
 30
0.0000000003908
 42
0.0
  0
VERTEX
  8
Default
 10
204.345252226071
 20
197.534533923847
 30
0.0000000003914
 42
0.0
  0
VERTEX
  8
Default
 10
204.595252687822
 20
197.992893126669
 30
0.0000000003923
 42
0.0
  0
VERTEX
  8
Default
 10
204.718102499224
 20
198.500338999178
 30
0.0000000003932
 42
0.0
  0
VERTEX
  8
Default
 10
204.705429648648
 20
199.022289943756
 30
0.0000000003942
 42
0.0
  0
VERTEX
  8
Default
 10
204.558097769918
 20
199.523175866094
 30
0.0000000003951
 42
0.0
  0
VERTEX
  8
Default
 10
204.286147287091
 20
199.96886221834
 30
0.0000000003959
 42
0.0
  0
VERTEX
  8
Default
 10
203.908111176154
 20
200.328976212118
 30
0.0000000003966
 42
0.0
  0
VERTEX
  8
Default
 10
203.449751973332
 20
200.578976673869
 30
0.000000000397
 42
0.0
  0
VERTEX
  8
Default
 10
202.942306100824
 20
200.701826485271
 30
0.0000000003973
 42
0.0
  0
VERTEX
  8
Default
 10
202.420355156246
 20
200.689153634695
 30
0.0000000003972
 42
0.0
  0
VERTEX
  8
Default
 10
201.919469233907
 20
200.541821755964
 30
0.0000000003969
 42
0.0
  0
VERTEX
  8
Default
 10
201.473782881661
 20
200.269871273138
 30
0.0000000003965
 42
0.0
  0
VERTEX
  8
Default
 10
201.113668887883
 20
199.891835162201
 30
0.0000000003958
 42
0.0
  0
VERTEX
  8
Default
 10
200.863668426131
 20
199.433475959379
 30
0.0000000003949
 42
0.0
  0
VERTEX
  8
Default
 10
200.740818614729
 20
198.92603008687
 30
0.000000000394
 42
0.0
  0
VERTEX
  8
Default
 10
200.753491465306
 20
198.404079142292
 30
0.0000000003931
 42
0.0
  0
VERTEX
  8
Default
 10
200.900823344037
 20
197.903193219953
 30
0.0000000003921
 42
0.0
  0
SEQEND
  0
POLYLINE
  8
Default
 66
     1
 10
0.0
 20
0.0
 30
0.0000000003027
 70
     9
  0
VERTEX
  8
Default
 10
47.511181199695
 20
137.21514263008
 30
0.0000000003027
 42
0.0
  0
VERTEX
  8
Default
 10
47.119633798426
 20
137.220083708671
 30
0.0000000003027
 42
0.0
  0
VERTEX
  8
Default
 10
46.740149206079
 20
137.123516499583
 30
0.0000000003025
 42
0.0
  0
VERTEX
  8
Default
 10
46.398588670498
 20
136.932021898531
 30
0.0000000003022
 42
0.0
  0
VERTEX
  8
Default
 10
46.118228977725
 20
136.658649946115
 30
0.0000000003017
 42
0.0
  0
VERTEX
  8
Default
 10
45.918176177508
 20
136.322030489125
 30
0.0000000003011
 42
0.0
  0
VERTEX
  8
Default
 10
45.812063537578
 20
135.945103587264
 30
0.0000000003004
 42
0.0
  0
VERTEX
  8
Default
 10
45.807122458986
 20
135.553556185993
 30
0.0000000002997
 42
0.0
  0
VERTEX
  8
Default
 10
45.903689668074
 20
135.174071593647
 30
0.000000000299
 42
0.0
  0
VERTEX
  8
Default
 10
46.095184269127
 20
134.832511058066
 30
0.0000000002983
 42
0.0
  0
VERTEX
  8
Default
 10
46.368556221543
 20
134.552151365293
 30
0.0000000002978
 42
0.0
  0
VERTEX
  8
Default
 10
46.705175678534
 20
134.352098565076
 30
0.0000000002975
 42
0.0
  0
VERTEX
  8
Default
 10
47.082102580394
 20
134.245985925145
 30
0.0000000002973
 42
0.0
  0
VERTEX
  8
Default
 10
47.473649981664
 20
134.241044846554
 30
0.0000000002973
 42
0.0
  0
VERTEX
  8
Default
 10
47.85313457401
 20
134.337612055643
 30
0.0000000002974
 42
0.0
  0
VERTEX
  8
Default
 10
48.194695109592
 20
134.529106656696
 30
0.0000000002978
 42
0.0
  0
VERTEX
  8
Default
 10
48.475054802365
 20
134.802478609111
 30
0.0000000002983
 42
0.0
  0
VERTEX
  8
Default
 10
48.675107602582
 20
135.139098066101
 30
0.0000000002989
 42
0.0
  0
VERTEX
  8
Default
 10
48.781220242512
 20
135.516024967962
 30
0.0000000002996
 42
0.0
  0
VERTEX
  8
Default
 10
48.786161321104
 20
135.907572369232
 30
0.0000000003003
 42
0.0
  0
VERTEX
  8
Default
 10
48.689594112016
 20
136.287056961578
 30
0.000000000301
 42
0.0
  0
VERTEX
  8
Default
 10
48.498099510963
 20
136.62861749716
 30
0.0000000003016
 42
0.0
  0
VERTEX
  8
Default
 10
48.224727558547
 20
136.908977189932
 30
0.0000000003021
 42
0.0
  0
VERTEX
  8
Default
 10
47.888108101556
 20
137.10902999015
 30
0.0000000003025
 42
0.0
  0
SEQEND
  0
POLYLINE
  8
Default
 66
     1
 10
0.0
 20
0.0
 30
0.0000000003913
 70
     9
  0
VERTEX
  8
Default
 10
211.172773826863
 20
197.457506867706
 30
0.0000000003913
 42
0.0
  0
VERTEX
  8
Default
 10
211.5508099378
 20
197.097392873928
 30
0.0000000003906
 42
0.0
  0
VERTEX
  8
Default
 10
212.009169140623
 20
196.847392412177
 30
0.0000000003902
 42
0.0
  0
VERTEX
  8
Default
 10
212.516615013132
 20
196.724542600775
 30
0.00000000039
 42
0.0
  0
VERTEX
  8
Default
 10
213.038565957709
 20
196.737215451352
 30
0.00000000039
 42
0.0
  0
VERTEX
  8
Default
 10
213.539451880048
 20
196.884547330082
 30
0.0000000003903
 42
0.0
  0
VERTEX
  8
Default
 10
213.985138232293
 20
197.156497812909
 30
0.0000000003908
 42
0.0
  0
VERTEX
  8
Default
 10
214.345252226072
 20
197.534533923846
 30
0.0000000003915
 42
0.0
  0
VERTEX
  8
Default
 10
214.595252687822
 20
197.992893126668
 30
0.0000000003923
 42
0.0
  0
VERTEX
  8
Default
 10
214.718102499224
 20
198.500338999177
 30
0.0000000003932
 42
0.0
  0
VERTEX
  8
Default
 10
214.705429648648
 20
199.022289943755
 30
0.0000000003942
 42
0.0
  0
VERTEX
  8
Default
 10
214.558097769917
 20
199.523175866094
 30
0.0000000003951
 42
0.0
  0
VERTEX
  8
Default
 10
214.28614728709
 20
199.968862218339
 30
0.0000000003959
 42
0.0
  0
VERTEX
  8
Default
 10
213.908111176152
 20
200.328976212117
 30
0.0000000003966
 42
0.0
  0
VERTEX
  8
Default
 10
213.449751973331
 20
200.578976673868
 30
0.000000000397
 42
0.0
  0
VERTEX
  8
Default
 10
212.942306100822
 20
200.70182648527
 30
0.0000000003973
 42
0.0
  0
VERTEX
  8
Default
 10
212.420355156245
 20
200.689153634693
 30
0.0000000003973
 42
0.0
  0
VERTEX
  8
Default
 10
211.919469233906
 20
200.541821755962
 30
0.000000000397
 42
0.0
  0
VERTEX
  8
Default
 10
211.47378288166
 20
200.269871273136
 30
0.0000000003965
 42
0.0
  0
VERTEX
  8
Default
 10
211.113668887882
 20
199.891835162198
 30
0.0000000003958
 42
0.0
  0
VERTEX
  8
Default
 10
210.863668426131
 20
199.433475959376
 30
0.0000000003949
 42
0.0
  0
VERTEX
  8
Default
 10
210.740818614729
 20
198.926030086868
 30
0.000000000394
 42
0.0
  0
VERTEX
  8
Default
 10
210.753491465307
 20
198.40407914229
 30
0.0000000003931
 42
0.0
  0
VERTEX
  8
Default
 10
210.900823344037
 20
197.903193219951
 30
0.0000000003921
 42
0.0
  0
SEQEND
  0
POLYLINE
  8
Default
 66
     1
 10
0.0
 20
0.0
 30
0.0000000006172
 70
     9
  0
VERTEX
  8
Default
 10
82.4203551562611
 20
330.68915363471
 30
0.0000000006172
 42
0.0
  0
VERTEX
  8
Default
 10
81.9194692339231
 20
330.54182175598
 30
0.0000000006169
 42
0.0
  0
VERTEX
  8
Default
 10
81.4737828816771
 20
330.269871273153
 30
0.0000000006164
 42
0.0
  0
VERTEX
  8
Default
 10
81.1136688878991
 20
329.891835162216
 30
0.0000000006158
 42
0.0
  0
VERTEX
  8
Default
 10
80.8636684261471
 20
329.433475959394
 30
0.0000000006149
 42
0.0
  0
VERTEX
  8
Default
 10
80.7408186147461
 20
328.926030086886
 30
0.000000000614
 42
0.0
  0
VERTEX
  8
Default
 10
80.7534914653221
 20
328.404079142308
 30
0.000000000613
 42
0.0
  0
VERTEX
  8
Default
 10
80.9008233440521
 20
327.903193219969
 30
0.0000000006121
 42
0.0
  0
VERTEX
  8
Default
 10
81.1727738268791
 20
327.457506867723
 30
0.0000000006113
 42
0.0
  0
VERTEX
  8
Default
 10
81.5508099378161
 20
327.097392873945
 30
0.0000000006106
 42
0.0
  0
VERTEX
  8
Default
 10
82.0091691406381
 20
326.847392412194
 30
0.0000000006101
 42
0.0
  0
VERTEX
  8
Default
 10
82.5166150131471
 20
326.724542600792
 30
0.0000000006099
 42
0.0
  0
VERTEX
  8
Default
 10
83.0385659577251
 20
326.737215451369
 30
0.00000000061
 42
0.0
  0
VERTEX
  8
Default
 10
83.5394518800631
 20
326.884547330099
 30
0.0000000006102
 42
0.0
  0
VERTEX
  8
Default
 10
83.9851382323091
 20
327.156497812925
 30
0.0000000006108
 42
0.0
  0
VERTEX
  8
Default
 10
84.3452522260871
 20
327.534533923862
 30
0.0000000006114
 42
0.0
  0
VERTEX
  8
Default
 10
84.5952526878391
 20
327.992893126684
 30
0.0000000006122
 42
0.0
  0
VERTEX
  8
Default
 10
84.7181024992401
 20
328.500338999193
 30
0.0000000006132
 42
0.0
  0
VERTEX
  8
Default
 10
84.7054296486641
 20
329.022289943771
 30
0.0000000006142
 42
0.0
  0
VERTEX
  8
Default
 10
84.5580977699341
 20
329.52317586611
 30
0.0000000006151
 42
0.0
  0
VERTEX
  8
Default
 10
84.2861472871071
 20
329.968862218355
 30
0.0000000006159
 42
0.0
  0
VERTEX
  8
Default
 10
83.9081111761691
 20
330.328976212133
 30
0.0000000006165
 42
0.0
  0
VERTEX
  8
Default
 10
83.4497519733481
 20
330.578976673885
 30
0.000000000617
 42
0.0
  0
VERTEX
  8
Default
 10
82.9423061008391
 20
330.701826485286
 30
0.0000000006172
 42
0.0
  0
SEQEND
  0
POLYLINE
  8
Default
 66
     1
 10
0.0
 20
0.0
 30
0.0000000005622
 70
     9
  0
VERTEX
  8
Default
 10
82.9423061008341
 20
300.701826485287
 30
0.0000000005622
 42
0.0
  0
VERTEX
  8
Default
 10
82.4203551562571
 20
300.68915363471
 30
0.0000000005622
 42
0.0
  0
VERTEX
  8
Default
 10
81.9194692339181
 20
300.54182175598
 30
0.0000000005619
 42
0.0
  0
VERTEX
  8
Default
 10
81.4737828816721
 20
300.269871273153
 30
0.0000000005614
 42
0.0
  0
VERTEX
  8
Default
 10
81.1136688878941
 20
299.891835162215
 30
0.0000000005607
 42
0.0
  0
VERTEX
  8
Default
 10
80.8636684261431
 20
299.433475959394
 30
0.0000000005599
 42
0.0
  0
VERTEX
  8
Default
 10
80.7408186147421
 20
298.926030086885
 30
0.0000000005589
 42
0.0
  0
VERTEX
  8
Default
 10
80.7534914653181
 20
298.404079142307
 30
0.000000000558
 42
0.0
  0
VERTEX
  8
Default
 10
80.9008233440491
 20
297.903193219969
 30
0.0000000005571
 42
0.0
  0
VERTEX
  8
Default
 10
81.1727738268751
 20
297.457506867723
 30
0.0000000005563
 42
0.0
  0
VERTEX
  8
Default
 10
81.5508099378121
 20
297.097392873945
 30
0.0000000005556
 42
0.0
  0
VERTEX
  8
Default
 10
82.0091691406351
 20
296.847392412194
 30
0.0000000005551
 42
0.0
  0
VERTEX
  8
Default
 10
82.5166150131441
 20
296.724542600792
 30
0.0000000005549
 42
0.0
  0
VERTEX
  8
Default
 10
83.0385659577211
 20
296.737215451369
 30
0.0000000005549
 42
0.0
  0
VERTEX
  8
Default
 10
83.5394518800601
 20
296.884547330099
 30
0.0000000005552
 42
0.0
  0
VERTEX
  8
Default
 10
83.9851382323051
 20
297.156497812926
 30
0.0000000005557
 42
0.0
  0
VERTEX
  8
Default
 10
84.3452522260841
 20
297.534533923864
 30
0.0000000005564
 42
0.0
  0
VERTEX
  8
Default
 10
84.5952526878351
 20
297.992893126685
 30
0.0000000005572
 42
0.0
  0
VERTEX
  8
Default
 10
84.7181024992361
 20
298.500338999195
 30
0.0000000005582
 42
0.0
  0
VERTEX
  8
Default
 10
84.7054296486601
 20
299.022289943772
 30
0.0000000005591
 42
0.0
  0
VERTEX
  8
Default
 10
84.5580977699291
 20
299.523175866111
 30
0.0000000005601
 42
0.0
  0
VERTEX
  8
Default
 10
84.2861472871031
 20
299.968862218356
 30
0.0000000005609
 42
0.0
  0
VERTEX
  8
Default
 10
83.9081111761651
 20
300.328976212134
 30
0.0000000005615
 42
0.0
  0
VERTEX
  8
Default
 10
83.4497519733421
 20
300.578976673886
 30
0.000000000562
 42
0.0
  0
SEQEND
  0
POLYLINE
  8
Default
 66
     1
 10
0.0
 20
0.0
 30
0.0000000006906
 70
     9
  0
VERTEX
  8
Default
 10
172.420355156266
 20
370.689153634698
 30
0.0000000006906
 42
0.0
  0
VERTEX
  8
Default
 10
171.919469233928
 20
370.541821755967
 30
0.0000000006904
 42
0.0
  0
VERTEX
  8
Default
 10
171.473782881681
 20
370.269871273141
 30
0.0000000006898
 42
0.0
  0
VERTEX
  8
Default
 10
171.113668887904
 20
369.891835162204
 30
0.0000000006892
 42
0.0
  0
VERTEX
  8
Default
 10
170.863668426153
 20
369.433475959381
 30
0.0000000006883
 42
0.0
  0
VERTEX
  8
Default
 10
170.740818614751
 20
368.926030086873
 30
0.0000000006874
 42
0.0
  0
VERTEX
  8
Default
 10
170.753491465328
 20
368.404079142295
 30
0.0000000006864
 42
0.0
  0
VERTEX
  8
Default
 10
170.900823344058
 20
367.903193219956
 30
0.0000000006855
 42
0.0
  0
VERTEX
  8
Default
 10
171.172773826885
 20
367.457506867711
 30
0.0000000006847
 42
0.0
  0
VERTEX
  8
Default
 10
171.550809937822
 20
367.097392873933
 30
0.000000000684
 42
0.0
  0
VERTEX
  8
Default
 10
172.009169140644
 20
366.847392412181
 30
0.0000000006836
 42
0.0
  0
VERTEX
  8
Default
 10
172.516615013153
 20
366.72454260078
 30
0.0000000006834
 42
0.0
  0
VERTEX
  8
Default
 10
173.038565957731
 20
366.737215451357
 30
0.0000000006834
 42
0.0
  0
VERTEX
  8
Default
 10
173.53945188007
 20
366.884547330087
 30
0.0000000006837
 42
0.0
  0
VERTEX
  8
Default
 10
173.985138232315
 20
367.156497812914
 30
0.0000000006842
 42
0.0
  0
VERTEX
  8
Default
 10
174.345252226093
 20
367.534533923851
 30
0.0000000006848
 42
0.0
  0
VERTEX
  8
Default
 10
174.595252687845
 20
367.992893126674
 30
0.0000000006857
 42
0.0
  0
VERTEX
  8
Default
 10
174.718102499246
 20
368.500338999182
 30
0.0000000006866
 42
0.0
  0
VERTEX
  8
Default
 10
174.705429648669
 20
369.02228994376
 30
0.0000000006875
 42
0.0
  0
VERTEX
  8
Default
 10
174.558097769938
 20
369.523175866099
 30
0.0000000006885
 42
0.0
  0
VERTEX
  8
Default
 10
174.286147287111
 20
369.968862218344
 30
0.0000000006893
 42
0.0
  0
VERTEX
  8
Default
 10
173.908111176174
 20
370.328976212122
 30
0.00000000069
 42
0.0
  0
VERTEX
  8
Default
 10
173.449751973352
 20
370.578976673873
 30
0.0000000006904
 42
0.0
  0
VERTEX
  8
Default
 10
172.942306100843
 20
370.701826485275
 30
0.0000000006907
 42
0.0
  0
SEQEND
  0
POLYLINE
  8
Default
 66
     1
 10
0.0
 20
0.0
 30
0.0000000005917
 70
     9
  0
VERTEX
  8
Default
 10
242.516615013145
 20
316.724542600771
 30
0.0000000005917
 42
0.0
  0
VERTEX
  8
Default
 10
243.038565957723
 20
316.737215451347
 30
0.0000000005917
 42
0.0
  0
VERTEX
  8
Default
 10
243.539451880062
 20
316.884547330078
 30
0.000000000592
 42
0.0
  0
VERTEX
  8
Default
 10
243.985138232308
 20
317.156497812904
 30
0.0000000005925
 42
0.0
  0
VERTEX
  8
Default
 10
244.345252226086
 20
317.534533923841
 30
0.0000000005932
 42
0.0
  0
VERTEX
  8
Default
 10
244.595252687837
 20
317.992893126663
 30
0.000000000594
 42
0.0
  0
VERTEX
  8
Default
 10
244.718102499238
 20
318.500338999172
 30
0.000000000595
 42
0.0
  0
VERTEX
  8
Default
 10
244.705429648663
 20
319.02228994375
 30
0.0000000005959
 42
0.0
  0
VERTEX
  8
Default
 10
244.558097769932
 20
319.523175866088
 30
0.0000000005968
 42
0.0
  0
VERTEX
  8
Default
 10
244.286147287106
 20
319.968862218334
 30
0.0000000005977
 42
0.0
  0
VERTEX
  8
Default
 10
243.908111176169
 20
320.328976212112
 30
0.0000000005983
 42
0.0
  0
VERTEX
  8
Default
 10
243.449751973346
 20
320.578976673863
 30
0.0000000005988
 42
0.0
  0
VERTEX
  8
Default
 10
242.942306100838
 20
320.701826485265
 30
0.000000000599
 42
0.0
  0
VERTEX
  8
Default
 10
242.42035515626
 20
320.689153634689
 30
0.000000000599
 42
0.0
  0
VERTEX
  8
Default
 10
241.919469233921
 20
320.541821755959
 30
0.0000000005987
 42
0.0
  0
VERTEX
  8
Default
 10
241.473782881676
 20
320.269871273132
 30
0.0000000005982
 42
0.0
  0
VERTEX
  8
Default
 10
241.113668887897
 20
319.891835162195
 30
0.0000000005975
 42
0.0
  0
VERTEX
  8
Default
 10
240.863668426146
 20
319.433475959373
 30
0.0000000005967
 42
0.0
  0
VERTEX
  8
Default
 10
240.740818614745
 20
318.926030086864
 30
0.0000000005957
 42
0.0
  0
VERTEX
  8
Default
 10
240.753491465321
 20
318.404079142287
 30
0.0000000005948
 42
0.0
  0
VERTEX
  8
Default
 10
240.900823344052
 20
317.903193219948
 30
0.0000000005939
 42
0.0
  0
VERTEX
  8
Default
 10
241.172773826877
 20
317.457506867702
 30
0.0000000005931
 42
0.0
  0
VERTEX
  8
Default
 10
241.550809937814
 20
317.097392873924
 30
0.0000000005924
 42
0.0
  0
VERTEX
  8
Default
 10
242.009169140637
 20
316.847392412172
 30
0.0000000005919
 42
0.0
  0
SEQEND
  0
POLYLINE
  8
Default
 66
     1
 10
0.0
 20
0.0
 30
0.0000000005059
 70
     9
  0
VERTEX
  8
Default
 10
84.2861472870991
 20
269.968862218355
 30
0.0000000005059
 42
0.0
  0
VERTEX
  8
Default
 10
83.9081111761621
 20
270.328976212133
 30
0.0000000005065
 42
0.0
  0
VERTEX
  8
Default
 10
83.4497519733401
 20
270.578976673885
 30
0.000000000507
 42
0.0
  0
VERTEX
  8
Default
 10
82.9423061008311
 20
270.701826485286
 30
0.0000000005072
 42
0.0
  0
VERTEX
  8
Default
 10
82.4203551562531
 20
270.68915363471
 30
0.0000000005072
 42
0.0
  0
VERTEX
  8
Default
 10
81.9194692339141
 20
270.54182175598
 30
0.0000000005069
 42
0.0
  0
VERTEX
  8
Default
 10
81.4737828816691
 20
270.269871273153
 30
0.0000000005064
 42
0.0
  0
VERTEX
  8
Default
 10
81.1136688878911
 20
269.891835162216
 30
0.0000000005057
 42
0.0
  0
VERTEX
  8
Default
 10
80.8636684261391
 20
269.433475959394
 30
0.0000000005049
 42
0.0
  0
VERTEX
  8
Default
 10
80.7408186147381
 20
268.926030086886
 30
0.0000000005039
 42
0.0
  0
VERTEX
  8
Default
 10
80.7534914653141
 20
268.404079142308
 30
0.000000000503
 42
0.0
  0
VERTEX
  8
Default
 10
80.9008233440451
 20
267.903193219969
 30
0.0000000005021
 42
0.0
  0
VERTEX
  8
Default
 10
81.1727738268711
 20
267.457506867723
 30
0.0000000005012
 42
0.0
  0
VERTEX
  8
Default
 10
81.5508099378081
 20
267.097392873945
 30
0.0000000005006
 42
0.0
  0
VERTEX
  8
Default
 10
82.0091691406301
 20
266.847392412194
 30
0.0000000005001
 42
0.0
  0
VERTEX
  8
Default
 10
82.5166150131391
 20
266.724542600792
 30
0.0000000004999
 42
0.0
  0
VERTEX
  8
Default
 10
83.0385659577171
 20
266.737215451368
 30
0.0000000004999
 42
0.0
  0
VERTEX
  8
Default
 10
83.5394518800551
 20
266.884547330099
 30
0.0000000005002
 42
0.0
  0
VERTEX
  8
Default
 10
83.9851382323011
 20
267.156497812925
 30
0.0000000005007
 42
0.0
  0
VERTEX
  8
Default
 10
84.3452522260791
 20
267.534533923862
 30
0.0000000005014
 42
0.0
  0
VERTEX
  8
Default
 10
84.5952526878301
 20
267.992893126684
 30
0.0000000005022
 42
0.0
  0
VERTEX
  8
Default
 10
84.7181024992321
 20
268.500338999193
 30
0.0000000005032
 42
0.0
  0
VERTEX
  8
Default
 10
84.7054296486561
 20
269.022289943771
 30
0.0000000005041
 42
0.0
  0
VERTEX
  8
Default
 10
84.5580977699251
 20
269.52317586611
 30
0.0000000005051
 42
0.0
  0
SEQEND
  0
POLYLINE
  8
Default
 66
     1
 10
0.0
 20
0.0
 30
0.00000000039
 70
     9
  0
VERTEX
  8
Default
 10
183.038565957709
 20
196.737215451356
 30
0.00000000039
 42
0.0
  0
VERTEX
  8
Default
 10
183.539451880047
 20
196.884547330086
 30
0.0000000003902
 42
0.0
  0
VERTEX
  8
Default
 10
183.985138232293
 20
197.156497812912
 30
0.0000000003907
 42
0.0
  0
VERTEX
  8
Default
 10
184.345252226071
 20
197.53453392385
 30
0.0000000003914
 42
0.0
  0
VERTEX
  8
Default
 10
184.595252687822
 20
197.992893126671
 30
0.0000000003923
 42
0.0
  0
VERTEX
  8
Default
 10
184.718102499224
 20
198.50033899918
 30
0.0000000003932
 42
0.0
  0
VERTEX
  8
Default
 10
184.705429648648
 20
199.022289943758
 30
0.0000000003942
 42
0.0
  0
VERTEX
  8
Default
 10
184.558097769918
 20
199.523175866097
 30
0.0000000003951
 42
0.0
  0
VERTEX
  8
Default
 10
184.286147287091
 20
199.968862218342
 30
0.0000000003959
 42
0.0
  0
VERTEX
  8
Default
 10
183.908111176154
 20
200.32897621212
 30
0.0000000003966
 42
0.0
  0
VERTEX
  8
Default
 10
183.449751973332
 20
200.578976673872
 30
0.000000000397
 42
0.0
  0
VERTEX
  8
Default
 10
182.942306100824
 20
200.701826485274
 30
0.0000000003972
 42
0.0
  0
VERTEX
  8
Default
 10
182.420355156246
 20
200.689153634697
 30
0.0000000003972
 42
0.0
  0
VERTEX
  8
Default
 10
181.919469233907
 20
200.541821755967
 30
0.000000000397
 42
0.0
  0
VERTEX
  8
Default
 10
181.473782881661
 20
200.26987127314
 30
0.0000000003965
 42
0.0
  0
VERTEX
  8
Default
 10
181.113668887883
 20
199.891835162203
 30
0.0000000003957
 42
0.0
  0
VERTEX
  8
Default
 10
180.863668426131
 20
199.433475959381
 30
0.0000000003949
 42
0.0
  0
VERTEX
  8
Default
 10
180.740818614729
 20
198.926030086873
 30
0.000000000394
 42
0.0
  0
VERTEX
  8
Default
 10
180.753491465306
 20
198.404079142295
 30
0.000000000393
 42
0.0
  0
VERTEX
  8
Default
 10
180.900823344037
 20
197.903193219956
 30
0.0000000003921
 42
0.0
  0
VERTEX
  8
Default
 10
181.172773826863
 20
197.45750686771
 30
0.0000000003913
 42
0.0
  0
VERTEX
  8
Default
 10
181.5508099378
 20
197.097392873932
 30
0.0000000003906
 42
0.0
  0
VERTEX
  8
Default
 10
182.009169140622
 20
196.847392412181
 30
0.0000000003902
 42
0.0
  0
VERTEX
  8
Default
 10
182.516615013131
 20
196.724542600779
 30
0.0000000003899
 42
0.0
  0
SEQEND
  0
POLYLINE
  8
Default
 66
     1
 10
0.0
 20
0.0
 30
0.0000000004905
 70
     9
  0
VERTEX
  8
Default
 10
317.33012701895
 20
249.499999999957
 30
0.0000000004905
 42
0.0
  0
VERTEX
  8
Default
 10
317.829629131472
 20
250.705904774445
 30
0.0000000004927
 42
0.0
  0
VERTEX
  8
Default
 10
318.00000000003
 20
251.999999999958
 30
0.0000000004951
 42
0.0
  0
VERTEX
  8
Default
 10
317.829629131475
 20
253.29409522547
 30
0.0000000004975
 42
0.0
  0
VERTEX
  8
Default
 10
317.330127018953
 20
254.499999999957
 30
0.0000000004997
 42
0.0
  0
VERTEX
  8
Default
 10
316.535533905961
 20
255.535533905891
 30
0.0000000005016
 42
0.0
  0
VERTEX
  8
Default
 10
315.500000000028
 20
256.33012701888
 30
0.000000000503
 42
0.0
  0
VERTEX
  8
Default
 10
314.294095225543
 20
256.829629131404
 30
0.0000000005039
 42
0.0
  0
VERTEX
  8
Default
 10
313.000000000031
 20
256.999999999959
 30
0.0000000005043
 42
0.0
  0
VERTEX
  8
Default
 10
311.705904774518
 20
256.829629131404
 30
0.0000000005039
 42
0.0
  0
VERTEX
  8
Default
 10
310.500000000028
 20
256.330127018881
 30
0.000000000503
 42
0.0
  0
VERTEX
  8
Default
 10
309.464466094095
 20
255.535533905891
 30
0.0000000005016
 42
0.0
  0
VERTEX
  8
Default
 10
308.669872981108
 20
254.499999999958
 30
0.0000000004997
 42
0.0
  0
VERTEX
  8
Default
 10
308.170370868584
 20
253.294095225472
 30
0.0000000004975
 42
0.0
  0
VERTEX
  8
Default
 10
308.00000000003
 20
251.99999999996
 30
0.0000000004951
 42
0.0
  0
VERTEX
  8
Default
 10
308.170370868582
 20
250.705904774447
 30
0.0000000004927
 42
0.0
  0
VERTEX
  8
Default
 10
308.669872981108
 20
249.499999999959
 30
0.0000000004905
 42
0.0
  0
VERTEX
  8
Default
 10
309.464466094096
 20
248.464466094025
 30
0.0000000004886
 42
0.0
  0
VERTEX
  8
Default
 10
310.500000000028
 20
247.669872981036
 30
0.0000000004871
 42
0.0
  0
VERTEX
  8
Default
 10
311.705904774515
 20
247.170370868513
 30
0.0000000004862
 42
0.0
  0
VERTEX
  8
Default
 10
313.000000000028
 20
246.999999999959
 30
0.0000000004859
 42
0.0
  0
VERTEX
  8
Default
 10
314.29409522554
 20
247.170370868514
 30
0.0000000004862
 42
0.0
  0
VERTEX
  8
Default
 10
315.500000000028
 20
247.669872981036
 30
0.0000000004871
 42
0.0
  0
VERTEX
  8
Default
 10
316.535533905962
 20
248.464466094025
 30
0.0000000004886
 42
0.0
  0
SEQEND
  0
POLYLINE
  8
Default
 66
     1
 10
0.0
 20
0.0
 30
0.0
 70
     1
  0
VERTEX
  8
Default
 10
248.0
 20
423.0
 42
0.4142135623731
  0
VERTEX
  8
Default
 10
253.0
 20
428.0
 42
-0.4142135623731
  0
VERTEX
  8
Default
 10
258.0
 20
433.0
 42
0.0
  0
VERTEX
  8
Default
 10
288.0
 20
433.0
 42
-0.4142135623731
  0
VERTEX
  8
Default
 10
293.0
 20
428.0
 42
0.4142135623731
  0
VERTEX
  8
Default
 10
298.0
 20
423.0
 42
-0.4142135623731
  0
VERTEX
  8
Default
 10
303.0
 20
418.0
 42
0.0
  0
VERTEX
  8
Default
 10
303.0
 20
368.0
 42
-0.4142135623731
  0
VERTEX
  8
Default
 10
298.0
 20
363.0
 42
0.4142135623731
  0
VERTEX
  8
Default
 10
293.0
 20
358.0
 42
-0.4142135623731
  0
VERTEX
  8
Default
 10
288.0
 20
353.0
 42
0.0
  0
VERTEX
  8
Default
 10
258.0
 20
353.0
 42
-0.4142135623731
  0
VERTEX
  8
Default
 10
253.0
 20
358.0
 42
0.4142135623731
  0
VERTEX
  8
Default
 10
248.0
 20
363.0
 42
-0.4142135623731
  0
VERTEX
  8
Default
 10
243.0
 20
368.0
 42
0.0
  0
VERTEX
  8
Default
 10
243.0
 20
418.0
 42
-0.4142135623731
  0
SEQEND
  0
CIRCLE
  8
Default
 10
66.5
 20
118.5
 30
0.0
 40
1.5
  0
CIRCLE
  8
Default
 10
216.5
 20
118.5
 30
0.0
 40
1.5
  0
CIRCLE
  8
Default
 10
216.5
 20
68.5
 30
0.0
 40
1.5
  0
CIRCLE
  8
Default
 10
66.5
 20
68.5
 30
0.0
 40
1.5
  0
POLYLINE
  8
Default
 66
     1
 10
0.0
 20
0.0
 30
0.0
 70
     1
  0
VERTEX
  8
Default
 10
5.0
 20
3.0
 42
0.0
  0
VERTEX
  8
Default
 10
321.0
 20
3.0
 42
0.4142135623731
  0
VERTEX
  8
Default
 10
323.0
 20
5.0
 42
0.0
  0
VERTEX
  8
Default
 10
323.0
 20
221.0
 42
0.4142135623731
  0
VERTEX
  8
Default
 10
321.0
 20
223.0
 42
0.0
  0
VERTEX
  8
Default
 10
5.0
 20
223.0
 42
0.4142135623731
  0
VERTEX
  8
Default
 10
3.0
 20
221.0
 42
0.0
  0
VERTEX
  8
Default
 10
3.0
 20
5.0
 42
0.4142135623731
  0
SEQEND
  0
POLYLINE
  8
Default
 66
     1
 10
0.0
 20
0.0
 30
0.0
 70
     1
  0
VERTEX
  8
Default
 10
5.0
 20
233.0
 42
0.0
  0
VERTEX
  8
Default
 10
321.000000000054
 20
233.0
 42
0.4142135623731
  0
VERTEX
  8
Default
 10
323.000000000054
 20
235.0
 42
0.0
  0
VERTEX
  8
Default
 10
323.000000000054
 20
450.999999999956
 42
0.4142135623731
  0
VERTEX
  8
Default
 10
321.000000000054
 20
452.999999999956
 42
0.0
  0
VERTEX
  8
Default
 10
5.0
 20
452.999999999956
 42
0.4142135623731
  0
VERTEX
  8
Default
 10
3.0
 20
450.999999999956
 42
0.0
  0
VERTEX
  8
Default
 10
3.0
 20
235.0
 42
0.4142135623731
  0
SEQEND
  0
CIRCLE
  8
Default
 10
147.5
 20
424.5
 30
0.0
 40
2.0
  0
CIRCLE
  8
Default
 10
178.5
 20
424.5
 30
0.0
 40
2.0
  0
CIRCLE
  8
Default
 10
178.5
 20
393.5
 30
0.0
 40
2.0
  0
CIRCLE
  8
Default
 10
147.5
 20
393.5
 30
0.0
 40
2.0
  0
CIRCLE
  8
Default
 10
163.0
 20
409.0
 30
0.0
 40
13.0
  0
POLYLINE
  8
Default
 66
     1
 10
0.0
 20
0.0
 30
0.000000000622
 70
     9
  0
VERTEX
  8
Default
 10
219.968089001658
 20
410.235307399638
 30
0.000000000622
 42
0.0
  0
VERTEX
  8
Default
 10
218.873284440874
 20
410.402338999173
 30
0.0000000006223
 42
0.0
  0
VERTEX
  8
Default
 10
208.298284440874
 20
410.402338999189
 30
0.0000000006223
 42
0.0
  0
VERTEX
  8
Default
 10
207.20347988009
 20
410.235307399659
 30
0.000000000622
 42
0.0
  0
VERTEX
  8
Default
 10
206.183284440873
 20
409.745595528544
 30
0.0000000006211
 42
0.0
  0
VERTEX
  8
Default
 10
205.307222756453
 20
408.96657644057
 30
0.0000000006197
 42
0.0
  0
VERTEX
  8
Default
 10
204.634996982862
 20
407.951338999195
 30
0.0000000006178
 42
0.0
  0
VERTEX
  8
Default
 10
204.212418195666
 20
406.769069958288
 30
0.0000000006157
 42
0.0
  0
VERTEX
  8
Default
 10
204.068284440867
 20
405.500338999197
 30
0.0000000006134
 42
0.0
  0
VERTEX
  8
Default
 10
204.212418195662
 20
404.231608040103
 30
0.000000000611
 42
0.0
  0
VERTEX
  8
Default
 10
204.634996982855
 20
403.049338999195
 30
0.0000000006089
 42
0.0
  0
VERTEX
  8
Default
 10
205.307222756442
 20
402.034101557817
 30
0.000000000607
 42
0.0
  0
VERTEX
  8
Default
 10
206.18328444086
 20
401.255082469841
 30
0.0000000006056
 42
0.0
  0
VERTEX
  8
Default
 10
207.203479880076
 20
400.765370598721
 30
0.0000000006047
 42
0.0
  0
VERTEX
  8
Default
 10
208.298284440859
 20
400.598338999189
 30
0.0000000006043
 42
0.0
  0
VERTEX
  8
Default
 10
218.873284440859
 20
400.598338999173
 30
0.0000000006043
 42
0.0
  0
VERTEX
  8
Default
 10
219.968089001643
 20
400.7653705987
 30
0.0000000006046
 42
0.0
  0
VERTEX
  8
Default
 10
220.988284440861
 20
401.255082469817
 30
0.0000000006055
 42
0.0
  0
VERTEX
  8
Default
 10
221.864346125281
 20
402.034101557792
 30
0.000000000607
 42
0.0
  0
VERTEX
  8
Default
 10
222.536571898871
 20
403.049338999166
 30
0.0000000006088
 42
0.0
  0
VERTEX
  8
Default
 10
222.959150686068
 20
404.231608040073
 30
0.000000000611
 42
0.0
  0
VERTEX
  8
Default
 10
223.103284440867
 20
405.500338999165
 30
0.0000000006133
 42
0.0
  0
VERTEX
  8
Default
 10
222.959150686072
 20
406.769069958258
 30
0.0000000006156
 42
0.0
  0
VERTEX
  8
Default
 10
222.536571898878
 20
407.951338999166
 30
0.0000000006178
 42
0.0
  0
VERTEX
  8
Default
 10
221.864346125291
 20
408.966576440545
 30
0.0000000006197
 42
0.0
  0
VERTEX
  8
Default
 10
220.988284440873
 20
409.74559552852
 30
0.0000000006211
 42
0.0
  0
SEQEND
  0
CIRCLE
  8
Trous
 10
13.0
 20
241.0
 30
0.0
 40
2.1
  0
CIRCLE
  8
Trous
 10
13.0
 20
263.0
 30
0.0
 40
2.1
  0
CIRCLE
  8
Trous
 10
313.0
 20
263.0
 30
0.0
 40
2.1
  0
CIRCLE
  8
Trous
 10
313.0
 20
241.0
 30
0.0
 40
2.1
  0
CIRCLE
  8
Trous
 10
53.0
 20
443.0
 30
0.0
 40
2.6
  0
CIRCLE
  8
Trous
 10
103.0
 20
443.0
 30
0.0
 40
2.1
  0
CIRCLE
  8
Trous
 10
223.0
 20
443.0
 30
0.0
 40
2.1
  0
CIRCLE
  8
Trous
 10
273.0
 20
443.0
 30
0.0
 40
2.6
  0
CIRCLE
  8
Trous
 10
53.0
 20
13.0
 30
0.0
 40
2.6
  0
CIRCLE
  8
Trous
 10
103.0
 20
13.0
 30
0.0
 40
2.1
  0
CIRCLE
  8
Trous
 10
163.0
 20
13.0
 30
0.0
 40
2.1
  0
CIRCLE
  8
Trous
 10
223.0
 20
13.0
 30
0.0
 40
2.1
  0
CIRCLE
  8
Trous
 10
273.0
 20
13.0
 30
0.0
 40
2.6
  0
CIRCLE
  8
Trous
 10
13.0
 20
283.0
 30
0.0
 40
2.6
  0
CIRCLE
  8
Trous
 10
13.0
 20
213.0
 30
0.0
 40
2.6
  0
CIRCLE
  8
Trous
 10
313.0
 20
283.0
 30
0.0
 40
2.6
  0
CIRCLE
  8
Trous
 10
313.0
 20
213.0
 30
0.0
 40
2.6
  0
CIRCLE
  8
Trous
 10
248.0
 20
428.0
 30
0.0
 40
2.5
  0
CIRCLE
  8
Trous
 10
298.0
 20
428.0
 30
0.0
 40
2.5
  0
CIRCLE
  8
Trous
 10
298.0
 20
358.0
 30
0.0
 40
2.5
  0
CIRCLE
  8
Trous
 10
248.0
 20
358.0
 30
0.0
 40
2.5
  0
POLYLINE
  8
Trous
 66
     1
 10
0.0
 20
0.0
 30
0.0
 70
     1
  0
VERTEX
  8
Trous
 10
276.0
 20
28.0
 42
0.0
  0
VERTEX
  8
Trous
 10
298.0
 20
28.0
 42
0.0
  0
VERTEX
  8
Trous
 10
298.0
 20
58.0
 42
0.0
  0
VERTEX
  8
Trous
 10
276.0
 20
58.0
 42
0.0
  0
SEQEND
  0
ENDSEC
  0
EOF
