solid boxcarter
facet normal 0.0 0.0 1.0
outer loop
vertex 0.0 374.1221597292395 0.0
vertex 7.400000000000031 110.00000000000003 0.0
vertex 11.079640803541409 399.99999999999983 0.0
endloop
endfacet
facet normal 0.0 0.0 1.0
outer loop
vertex 7.400000000000031 110.00000000000003 0.0
vertex 0.0 374.1221597292395 0.0
vertex 7.400000000000031 90.0 0.0
endloop
endfacet
facet normal 0.0 0.0 1.0
outer loop
vertex 11.079640803541409 399.99999999999983 0.0
vertex 7.400000000000031 110.00000000000003 0.0
vertex 7.488592851648464 110.67292951726657 0.0
endloop
endfacet
facet normal 0.0 0.0 1.0
outer loop
vertex 11.079640803541409 399.99999999999983 0.0
vertex 7.488592851648464 110.67292951726657 0.0
vertex 7.748333950160464 111.30000000000004 0.0
endloop
endfacet
facet normal 0.0 0.0 1.0
outer loop
vertex 11.079640803541409 399.99999999999983 0.0
vertex 7.748333950160464 111.30000000000004 0.0
vertex 8.161522368915053 111.83847763108504 0.0
endloop
endfacet
facet normal 0.0 0.0 1.0
outer loop
vertex 11.079640803541409 399.99999999999983 0.0
vertex 8.161522368915053 111.83847763108504 0.0
vertex 8.700000000000006 112.25166604983959 0.0
endloop
endfacet
facet normal 0.0 0.0 1.0
outer loop
vertex 11.079640803541409 399.99999999999983 0.0
vertex 8.700000000000006 112.25166604983959 0.0
vertex 9.327070482733484 112.51140714835164 0.0
endloop
endfacet
facet normal 0.0 0.0 1.0
outer loop
vertex 11.079640803541409 399.99999999999983 0.0
vertex 9.327070482733484 112.51140714835164 0.0
vertex 10.000000000000071 112.60000000000007 0.0
endloop
endfacet
facet normal 0.0 0.0 1.0
outer loop
vertex 11.079640803541409 399.99999999999983 0.0
vertex 10.000000000000071 112.60000000000007 0.0
vertex 10.67292951726666 112.51140714835164 0.0
endloop
endfacet
facet normal 0.0 0.0 1.0
outer loop
vertex 11.079640803541409 399.99999999999983 0.0
vertex 10.67292951726666 112.51140714835164 0.0
vertex 11.300000000000047 112.25166604983959 0.0
endloop
endfacet
facet normal 0.0 0.0 1.0
outer loop
vertex 11.079640803541409 399.99999999999983 0.0
vertex 11.300000000000047 112.25166604983959 0.0
vertex 87.4885928516484 390.6729295172665 0.0
endloop
endfacet
facet normal 0.0 0.0 1.0
outer loop
vertex 11.079640803541409 399.99999999999983 0.0
vertex 87.4885928516484 390.6729295172665 0.0
vertex 87.7483339501604 391.29999999999984 0.0
endloop
endfacet
facet normal 0.0 0.0 1.0
outer loop
vertex 11.079640803541409 399.99999999999983 0.0
vertex 87.7483339501604 391.29999999999984 0.0
vertex 88.161522368915 391.8384776310849 0.0
endloop
endfacet
facet normal 0.0 0.0 1.0
outer loop
vertex 11.079640803541409 399.99999999999983 0.0
vertex 88.161522368915 391.8384776310849 0.0
vertex 88.69999999999995 392.25166604983946 0.0
endloop
endfacet
facet normal 0.0 0.0 1.0
outer loop
vertex 11.079640803541409 399.99999999999983 0.0
vertex 88.69999999999995 392.25166604983946 0.0
vertex 89.32707048273343 392.51140714835145 0.0
endloop
endfacet
facet normal 0.0 0.0 1.0
outer loop
vertex 11.079640803541409 399.99999999999983 0.0
vertex 89.32707048273343 392.51140714835145 0.0
vertex 90.00000000000001 392.5999999999999 0.0
endloop
endfacet
facet normal 0.0 0.0 1.0
outer loop
vertex 11.079640803541409 399.99999999999983 0.0
vertex 90.00000000000001 392.5999999999999 0.0
vertex 411.4380042707103 399.99999999999983 0.0
endloop
endfacet
facet normal 0.0 0.0 1.0
outer loop
vertex 87.4885928516484 390.6729295172665 0.0
vertex 11.300000000000047 112.25166604983959 0.0
vertex 11.838477631085091 111.83847763108504 0.0
endloop
endfacet
facet normal 0.0 0.0 1.0
outer loop
vertex 87.4885928516484 390.6729295172665 0.0
vertex 11.838477631085091 111.83847763108504 0.0
vertex 12.251666049839681 111.30000000000004 0.0
endloop
endfacet
facet normal 0.0 0.0 1.0
outer loop
vertex 87.4885928516484 390.6729295172665 0.0
vertex 12.251666049839681 111.30000000000004 0.0
vertex 12.51140714835168 110.67292951726657 0.0
endloop
endfacet
facet normal 0.0 0.0 1.0
outer loop
vertex 87.4885928516484 390.6729295172665 0.0
vertex 12.51140714835168 110.67292951726657 0.0
vertex 12.600000000000112 110.00000000000003 0.0
endloop
endfacet
facet normal 0.0 0.0 1.0
outer loop
vertex 87.4885928516484 390.6729295172665 0.0
vertex 12.600000000000112 110.00000000000003 0.0
vertex 87.39999999999998 389.9999999999999 0.0
endloop
endfacet
facet normal 0.0 0.0 1.0
outer loop
vertex 411.4380042707103 399.99999999999983 0.0
vertex 90.00000000000001 392.5999999999999 0.0
vertex 90.67292951726661 392.51140714835145 0.0
endloop
endfacet
facet normal 0.0 0.0 1.0
outer loop
vertex 411.4380042707103 399.99999999999983 0.0
vertex 90.67292951726661 392.51140714835145 0.0
vertex 91.3 392.25166604983946 0.0
endloop
endfacet
facet normal 0.0 0.0 1.0
outer loop
vertex 411.4380042707103 399.99999999999983 0.0
vertex 91.3 392.25166604983946 0.0
vertex 109.99999999999999 392.5999999999999 0.0
endloop
endfacet
facet normal 0.0 0.0 1.0
outer loop
vertex 109.99999999999999 392.5999999999999 0.0
vertex 91.3 392.25166604983946 0.0
vertex 91.83847763108504 391.8384776310849 0.0
endloop
endfacet
facet normal 0.0 0.0 1.0
outer loop
vertex 109.99999999999999 392.5999999999999 0.0
vertex 91.83847763108504 391.8384776310849 0.0
vertex 92.25166604983963 391.29999999999995 0.0
endloop
endfacet
facet normal 0.0 0.0 1.0
outer loop
vertex 109.99999999999999 392.5999999999999 0.0
vertex 92.25166604983963 391.29999999999995 0.0
vertex 92.51140714835162 390.6729295172665 0.0
endloop
endfacet
facet normal 0.0 0.0 1.0
outer loop
vertex 109.99999999999999 392.5999999999999 0.0
vertex 92.51140714835162 390.6729295172665 0.0
vertex 109.32707048273339 392.51140714835145 0.0
endloop
endfacet
facet normal 0.0 0.0 1.0
outer loop
vertex 109.32707048273339 392.51140714835145 0.0
vertex 92.51140714835162 390.6729295172665 0.0
vertex 92.60000000000005 389.9999999999999 0.0
endloop
endfacet
facet normal 0.0 0.0 1.0
outer loop
vertex 109.32707048273339 392.51140714835145 0.0
vertex 92.60000000000005 389.9999999999999 0.0
vertex 108.69999999999992 392.25166604983946 0.0
endloop
endfacet
facet normal 0.0 0.0 1.0
outer loop
vertex 108.69999999999992 392.25166604983946 0.0
vertex 92.60000000000005 389.9999999999999 0.0
vertex 108.16152236891496 391.8384776310849 0.0
endloop
endfacet
facet normal 0.0 0.0 1.0
outer loop
vertex 108.16152236891496 391.8384776310849 0.0
vertex 92.60000000000005 389.9999999999999 0.0
vertex 107.74833395016037 391.29999999999984 0.0
endloop
endfacet
facet normal 0.0 0.0 1.0
outer loop
vertex 107.74833395016037 391.29999999999984 0.0
vertex 92.60000000000005 389.9999999999999 0.0
vertex 107.48859285164838 390.6729295172665 0.0
endloop
endfacet
facet normal 0.0 0.0 1.0
outer loop
vertex 107.48859285164838 390.6729295172665 0.0
vertex 92.60000000000005 389.9999999999999 0.0
vertex 107.39999999999993 389.9999999999999 0.0
endloop
endfacet
facet normal 0.0 0.0 1.0
outer loop
vertex 411.4380042707103 399.99999999999983 0.0
vertex 109.99999999999999 392.5999999999999 0.0
vertex 110.67292951726657 392.51140714835145 0.0
endloop
endfacet
facet normal 0.0 0.0 1.0
outer loop
vertex 411.4380042707103 399.99999999999983 0.0
vertex 110.67292951726657 392.51140714835145 0.0
vertex 111.29999999999995 392.25166604983946 0.0
endloop
endfacet
facet normal 0.0 0.0 1.0
outer loop
vertex 411.4380042707103 399.99999999999983 0.0
vertex 111.29999999999995 392.25166604983946 0.0
vertex 111.838477631085 391.8384776310849 0.0
endloop
endfacet
facet normal 0.0 0.0 1.0
outer loop
vertex 411.4380042707103 399.99999999999983 0.0
vertex 111.838477631085 391.8384776310849 0.0
vertex 112.25166604983959 391.29999999999995 0.0
endloop
endfacet
facet normal 0.0 0.0 1.0
outer loop
vertex 411.4380042707103 399.99999999999983 0.0
vertex 112.25166604983959 391.29999999999995 0.0
vertex 112.51140714835158 390.6729295172665 0.0
endloop
endfacet
facet normal 0.0 0.0 1.0
outer loop
vertex 411.4380042707103 399.99999999999983 0.0
vertex 112.51140714835158 390.6729295172665 0.0
vertex 112.60000000000002 389.9999999999999 0.0
endloop
endfacet
facet normal 0.0 0.0 1.0
outer loop
vertex 7.488592851648464 90.67292951726657 0.0
vertex 7.400000000000031 110.00000000000003 0.0
vertex 7.400000000000031 90.0 0.0
endloop
endfacet
facet normal 0.0 0.0 1.0
outer loop
vertex 7.400000000000031 110.00000000000003 0.0
vertex 7.488592851648464 90.67292951726657 0.0
vertex 7.488592851648464 109.32707048273343 0.0
endloop
endfacet
facet normal 0.0 0.0 1.0
outer loop
vertex 7.488592851648464 109.32707048273343 0.0
vertex 7.488592851648464 90.67292951726657 0.0
vertex 7.748333950160464 91.30000000000003 0.0
endloop
endfacet
facet normal 0.0 0.0 1.0
outer loop
vertex 7.488592851648464 109.32707048273343 0.0
vertex 7.748333950160464 91.30000000000003 0.0
vertex 7.748333950160464 108.7 0.0
endloop
endfacet
facet normal 0.0 0.0 1.0
outer loop
vertex 7.748333950160464 108.7 0.0
vertex 7.748333950160464 91.30000000000003 0.0
vertex 8.161522368915053 91.83847763108504 0.0
endloop
endfacet
facet normal 0.0 0.0 1.0
outer loop
vertex 7.748333950160464 108.7 0.0
vertex 8.161522368915053 91.83847763108504 0.0
vertex 8.161522368915053 108.16152236891496 0.0
endloop
endfacet
facet normal 0.0 0.0 1.0
outer loop
vertex 8.161522368915053 108.16152236891496 0.0
vertex 8.161522368915053 91.83847763108504 0.0
vertex 8.700000000000006 92.25166604983959 0.0
endloop
endfacet
facet normal 0.0 0.0 1.0
outer loop
vertex 8.161522368915053 108.16152236891496 0.0
vertex 8.700000000000006 92.25166604983959 0.0
vertex 8.700000000000097 107.74833395016041 0.0
endloop
endfacet
facet normal 0.0 0.0 1.0
outer loop
vertex 8.700000000000097 107.74833395016041 0.0
vertex 8.700000000000006 92.25166604983959 0.0
vertex 9.327070482733484 92.51140714835161 0.0
endloop
endfacet
facet normal 0.0 0.0 1.0
outer loop
vertex 8.700000000000097 107.74833395016041 0.0
vertex 9.327070482733484 92.51140714835161 0.0
vertex 9.327070482733484 107.48859285164842 0.0
endloop
endfacet
facet normal 0.0 0.0 1.0
outer loop
vertex 9.327070482733484 107.48859285164842 0.0
vertex 9.327070482733484 92.51140714835161 0.0
vertex 10.000000000000071 92.60000000000005 0.0
endloop
endfacet
facet normal 0.0 0.0 1.0
outer loop
vertex 9.327070482733484 107.48859285164842 0.0
vertex 10.000000000000071 92.60000000000005 0.0
vertex 10.000000000000071 107.39999999999998 0.0
endloop
endfacet
facet normal 0.0 0.0 1.0
outer loop
vertex 10.000000000000071 107.39999999999998 0.0
vertex 10.000000000000071 92.60000000000005 0.0
vertex 10.67292951726666 92.51140714835161 0.0
endloop
endfacet
facet normal 0.0 0.0 1.0
outer loop
vertex 10.000000000000071 107.39999999999998 0.0
vertex 10.67292951726666 92.51140714835161 0.0
vertex 10.67292951726666 107.48859285164842 0.0
endloop
endfacet
facet normal 0.0 0.0 1.0
outer loop
vertex 10.67292951726666 107.48859285164842 0.0
vertex 10.67292951726666 92.51140714835161 0.0
vertex 11.300000000000047 92.25166604983959 0.0
endloop
endfacet
facet normal 0.0 0.0 1.0
outer loop
vertex 10.67292951726666 107.48859285164842 0.0
vertex 11.300000000000047 92.25166604983959 0.0
vertex 11.300000000000137 107.74833395016041 0.0
endloop
endfacet
facet normal 0.0 0.0 1.0
outer loop
vertex 11.300000000000137 107.74833395016041 0.0
vertex 11.300000000000047 92.25166604983959 0.0
vertex 11.838477631085091 91.83847763108504 0.0
endloop
endfacet
facet normal 0.0 0.0 1.0
outer loop
vertex 11.300000000000137 107.74833395016041 0.0
vertex 11.838477631085091 91.83847763108504 0.0
vertex 11.838477631085091 108.16152236891496 0.0
endloop
endfacet
facet normal 0.0 0.0 1.0
outer loop
vertex 11.838477631085091 108.16152236891496 0.0
vertex 11.838477631085091 91.83847763108504 0.0
vertex 12.251666049839681 91.30000000000003 0.0
endloop
endfacet
facet normal 0.0 0.0 1.0
outer loop
vertex 11.838477631085091 108.16152236891496 0.0
vertex 12.251666049839681 91.30000000000003 0.0
vertex 12.251666049839681 108.7 0.0
endloop
endfacet
facet normal 0.0 0.0 1.0
outer loop
vertex 12.251666049839681 108.7 0.0
vertex 12.251666049839681 91.30000000000003 0.0
vertex 12.51140714835168 90.67292951726657 0.0
endloop
endfacet
facet normal 0.0 0.0 1.0
outer loop
vertex 12.251666049839681 108.7 0.0
vertex 12.51140714835168 90.67292951726657 0.0
vertex 12.51140714835168 109.32707048273343 0.0
endloop
endfacet
facet normal 0.0 0.0 1.0
outer loop
vertex 12.51140714835168 109.32707048273343 0.0
vertex 12.51140714835168 90.67292951726657 0.0
vertex 12.600000000000112 90.0 0.0
endloop
endfacet
facet normal 0.0 0.0 1.0
outer loop
vertex 12.51140714835168 109.32707048273343 0.0
vertex 12.600000000000112 90.0 0.0
vertex 12.600000000000112 110.00000000000003 0.0
endloop
endfacet
facet normal 0.0 0.0 1.0
outer loop
vertex 0.0 0.0 0.0
vertex 7.400000000000031 90.0 0.0
vertex 0.0 374.1221597292395 0.0
endloop
endfacet
facet normal 0.0 0.0 1.0
outer loop
vertex 7.400000000000031 90.0 0.0
vertex 0.0 0.0 0.0
vertex 7.488592851648464 89.32707048273343 0.0
endloop
endfacet
facet normal 0.0 0.0 1.0
outer loop
vertex 7.488592851648464 89.32707048273343 0.0
vertex 0.0 0.0 0.0
vertex 7.748333950160464 88.69999999999999 0.0
endloop
endfacet
facet normal 0.0 0.0 1.0
outer loop
vertex 7.748333950160464 88.69999999999999 0.0
vertex 0.0 0.0 0.0
vertex 8.161522368915053 88.16152236891496 0.0
endloop
endfacet
facet normal 0.0 0.0 1.0
outer loop
vertex 8.161522368915053 88.16152236891496 0.0
vertex 0.0 0.0 0.0
vertex 8.700000000000097 87.74833395016041 0.0
endloop
endfacet
facet normal 0.0 0.0 1.0
outer loop
vertex 8.700000000000097 87.74833395016041 0.0
vertex 0.0 0.0 0.0
vertex 9.327070482733484 87.48859285164839 0.0
endloop
endfacet
facet normal 0.0 0.0 1.0
outer loop
vertex 9.327070482733484 87.48859285164839 0.0
vertex 0.0 0.0 0.0
vertex 439.99999999999983 1.127986593019159e-14 0.0
endloop
endfacet
facet normal 0.0 0.0 1.0
outer loop
vertex 9.327070482733484 87.48859285164839 0.0
vertex 439.99999999999983 1.127986593019159e-14 0.0
vertex 10.000000000000071 87.39999999999996 0.0
endloop
endfacet
facet normal 0.0 0.0 1.0
outer loop
vertex 10.000000000000071 87.39999999999996 0.0
vertex 439.99999999999983 1.127986593019159e-14 0.0
vertex 10.67292951726666 87.48859285164839 0.0
endloop
endfacet
facet normal 0.0 0.0 1.0
outer loop
vertex 10.67292951726666 87.48859285164839 0.0
vertex 439.99999999999983 1.127986593019159e-14 0.0
vertex 11.300000000000137 87.74833395016041 0.0
endloop
endfacet
facet normal 0.0 0.0 1.0
outer loop
vertex 11.300000000000137 87.74833395016041 0.0
vertex 439.99999999999983 1.127986593019159e-14 0.0
vertex 11.838477631085091 88.16152236891496 0.0
endloop
endfacet
facet normal 0.0 0.0 1.0
outer loop
vertex 11.838477631085091 88.16152236891496 0.0
vertex 439.99999999999983 1.127986593019159e-14 0.0
vertex 12.251666049839681 88.69999999999999 0.0
endloop
endfacet
facet normal 0.0 0.0 1.0
outer loop
vertex 12.251666049839681 88.69999999999999 0.0
vertex 439.99999999999983 1.127986593019159e-14 0.0
vertex 12.51140714835168 89.32707048273343 0.0
endloop
endfacet
facet normal 0.0 0.0 1.0
outer loop
vertex 12.51140714835168 89.32707048273343 0.0
vertex 439.99999999999983 1.127986593019159e-14 0.0
vertex 12.600000000000112 90.0 0.0
endloop
endfacet
facet normal 0.0 0.0 1.0
outer loop
vertex 12.600000000000112 90.0 0.0
vertex 439.99999999999983 1.127986593019159e-14 0.0
vertex 12.600000000000112 110.00000000000003 0.0
endloop
endfacet
facet normal 0.0 0.0 1.0
outer loop
vertex 12.600000000000112 110.00000000000003 0.0
vertex 439.99999999999983 1.127986593019159e-14 0.0
vertex 88.161522368915 388.16152236891486 0.0
endloop
endfacet
facet normal 0.0 0.0 1.0
outer loop
vertex 12.600000000000112 110.00000000000003 0.0
vertex 88.161522368915 388.16152236891486 0.0
vertex 87.7483339501604 388.6999999999998 0.0
endloop
endfacet
facet normal 0.0 0.0 1.0
outer loop
vertex 12.600000000000112 110.00000000000003 0.0
vertex 87.7483339501604 388.6999999999998 0.0
vertex 87.4885928516484 389.3270704827333 0.0
endloop
endfacet
facet normal 0.0 0.0 1.0
outer loop
vertex 12.600000000000112 110.00000000000003 0.0
vertex 87.4885928516484 389.3270704827333 0.0
vertex 87.39999999999998 389.9999999999999 0.0
endloop
endfacet
facet normal 0.0 0.0 1.0
outer loop
vertex 88.161522368915 388.16152236891486 0.0
vertex 439.99999999999983 1.127986593019159e-14 0.0
vertex 88.70000000000005 387.74833395016026 0.0
endloop
endfacet
facet normal 0.0 0.0 1.0
outer loop
vertex 88.70000000000005 387.74833395016026 0.0
vertex 439.99999999999983 1.127986593019159e-14 0.0
vertex 89.32707048273343 387.48859285164826 0.0
endloop
endfacet
facet normal 0.0 0.0 1.0
outer loop
vertex 89.32707048273343 387.48859285164826 0.0
vertex 439.99999999999983 1.127986593019159e-14 0.0
vertex 90.00000000000001 387.3999999999998 0.0
endloop
endfacet
facet normal 0.0 0.0 1.0
outer loop
vertex 90.00000000000001 387.3999999999998 0.0
vertex 439.99999999999983 1.127986593019159e-14 0.0
vertex 90.67292951726661 387.48859285164826 0.0
endloop
endfacet
facet normal 0.0 0.0 1.0
outer loop
vertex 90.67292951726661 387.48859285164826 0.0
vertex 439.99999999999983 1.127986593019159e-14 0.0
vertex 91.30000000000008 387.74833395016026 0.0
endloop
endfacet
facet normal 0.0 0.0 1.0
outer loop
vertex 91.30000000000008 387.74833395016026 0.0
vertex 439.99999999999983 1.127986593019159e-14 0.0
vertex 91.83847763108504 388.16152236891486 0.0
endloop
endfacet
facet normal 0.0 0.0 1.0
outer loop
vertex 91.83847763108504 388.16152236891486 0.0
vertex 439.99999999999983 1.127986593019159e-14 0.0
vertex 92.25166604983963 388.6999999999999 0.0
endloop
endfacet
facet normal 0.0 0.0 1.0
outer loop
vertex 92.25166604983963 388.6999999999999 0.0
vertex 439.99999999999983 1.127986593019159e-14 0.0
vertex 92.51140714835162 389.3270704827333 0.0
endloop
endfacet
facet normal 0.0 0.0 1.0
outer loop
vertex 92.51140714835162 389.3270704827333 0.0
vertex 439.99999999999983 1.127986593019159e-14 0.0
vertex 92.60000000000005 389.9999999999999 0.0
endloop
endfacet
facet normal 0.0 0.0 1.0
outer loop
vertex 92.60000000000005 389.9999999999999 0.0
vertex 439.99999999999983 1.127986593019159e-14 0.0
vertex 108.16152236891496 388.16152236891486 0.0
endloop
endfacet
facet normal 0.0 0.0 1.0
outer loop
vertex 92.60000000000005 389.9999999999999 0.0
vertex 108.16152236891496 388.16152236891486 0.0
vertex 107.74833395016037 388.6999999999998 0.0
endloop
endfacet
facet normal 0.0 0.0 1.0
outer loop
vertex 92.60000000000005 389.9999999999999 0.0
vertex 107.74833395016037 388.6999999999998 0.0
vertex 107.48859285164838 389.3270704827333 0.0
endloop
endfacet
facet normal 0.0 0.0 1.0
outer loop
vertex 92.60000000000005 389.9999999999999 0.0
vertex 107.48859285164838 389.3270704827333 0.0
vertex 107.39999999999993 389.9999999999999 0.0
endloop
endfacet
facet normal 0.0 0.0 1.0
outer loop
vertex 108.16152236891496 388.16152236891486 0.0
vertex 439.99999999999983 1.127986593019159e-14 0.0
vertex 108.7 387.74833395016026 0.0
endloop
endfacet
facet normal 0.0 0.0 1.0
outer loop
vertex 108.7 387.74833395016026 0.0
vertex 439.99999999999983 1.127986593019159e-14 0.0
vertex 109.32707048273339 387.48859285164826 0.0
endloop
endfacet
facet normal 0.0 0.0 1.0
outer loop
vertex 109.32707048273339 387.48859285164826 0.0
vertex 439.99999999999983 1.127986593019159e-14 0.0
vertex 109.99999999999999 387.3999999999998 0.0
endloop
endfacet
facet normal 0.0 0.0 1.0
outer loop
vertex 109.99999999999999 387.3999999999998 0.0
vertex 439.99999999999983 1.127986593019159e-14 0.0
vertex 110.67292951726657 387.48859285164826 0.0
endloop
endfacet
facet normal 0.0 0.0 1.0
outer loop
vertex 110.67292951726657 387.48859285164826 0.0
vertex 439.99999999999983 1.127986593019159e-14 0.0
vertex 111.30000000000004 387.74833395016026 0.0
endloop
endfacet
facet normal 0.0 0.0 1.0
outer loop
vertex 111.30000000000004 387.74833395016026 0.0
vertex 439.99999999999983 1.127986593019159e-14 0.0
vertex 111.838477631085 388.16152236891486 0.0
endloop
endfacet
facet normal 0.0 0.0 1.0
outer loop
vertex 111.838477631085 388.16152236891486 0.0
vertex 439.99999999999983 1.127986593019159e-14 0.0
vertex 112.25166604983959 388.6999999999999 0.0
endloop
endfacet
facet normal 0.0 0.0 1.0
outer loop
vertex 112.25166604983959 388.6999999999999 0.0
vertex 439.99999999999983 1.127986593019159e-14 0.0
vertex 112.51140714835158 389.3270704827333 0.0
endloop
endfacet
facet normal 0.0 0.0 1.0
outer loop
vertex 112.51140714835158 389.3270704827333 0.0
vertex 439.99999999999983 1.127986593019159e-14 0.0
vertex 112.60000000000002 389.9999999999999 0.0
endloop
endfacet
facet normal 0.0 0.0 1.0
outer loop
vertex 112.60000000000002 389.9999999999999 0.0
vertex 439.99999999999983 1.127986593019159e-14 0.0
vertex 411.4380042707103 399.99999999999983 0.0
endloop
endfacet
facet normal 0.0 0.0 1.0
outer loop
vertex 411.4380042707103 399.99999999999983 0.0
vertex 439.99999999999983 1.127986593019159e-14 0.0
vertex 427.4 340.0 0.0
endloop
endfacet
facet normal 0.0 0.0 1.0
outer loop
vertex 427.4 340.0 0.0
vertex 439.99999999999983 1.127986593019159e-14 0.0
vertex 427.48859285164843 339.32707048273346 0.0
endloop
endfacet
facet normal 0.0 0.0 1.0
outer loop
vertex 427.48859285164843 339.32707048273346 0.0
vertex 439.99999999999983 1.127986593019159e-14 0.0
vertex 427.74833395016043 338.70000000000005 0.0
endloop
endfacet
facet normal 0.0 0.0 1.0
outer loop
vertex 427.74833395016043 338.70000000000005 0.0
vertex 439.99999999999983 1.127986593019159e-14 0.0
vertex 428.16152236891503 338.16152236891503 0.0
endloop
endfacet
facet normal 0.0 0.0 1.0
outer loop
vertex 428.16152236891503 338.16152236891503 0.0
vertex 439.99999999999983 1.127986593019159e-14 0.0
vertex 428.70000000000005 337.7483339501605 0.0
endloop
endfacet
facet normal 0.0 0.0 1.0
outer loop
vertex 428.70000000000005 337.7483339501605 0.0
vertex 439.99999999999983 1.127986593019159e-14 0.0
vertex 429.32707048273335 337.4885928516485 0.0
endloop
endfacet
facet normal 0.0 0.0 1.0
outer loop
vertex 429.32707048273335 337.4885928516485 0.0
vertex 439.99999999999983 1.127986593019159e-14 0.0
vertex 429.99999999999994 337.40000000000003 0.0
endloop
endfacet
facet normal 0.0 0.0 1.0
outer loop
vertex 429.99999999999994 337.40000000000003 0.0
vertex 439.99999999999983 1.127986593019159e-14 0.0
vertex 430.67292951726654 337.4885928516485 0.0
endloop
endfacet
facet normal 0.0 0.0 1.0
outer loop
vertex 430.67292951726654 337.4885928516485 0.0
vertex 439.99999999999983 1.127986593019159e-14 0.0
vertex 431.3 337.7483339501605 0.0
endloop
endfacet
facet normal 0.0 0.0 1.0
outer loop
vertex 431.3 337.7483339501605 0.0
vertex 439.99999999999983 1.127986593019159e-14 0.0
vertex 431.83847763108486 338.16152236891503 0.0
endloop
endfacet
facet normal 0.0 0.0 1.0
outer loop
vertex 431.83847763108486 338.16152236891503 0.0
vertex 439.99999999999983 1.127986593019159e-14 0.0
vertex 432.25166604983946 338.70000000000005 0.0
endloop
endfacet
facet normal 0.0 0.0 1.0
outer loop
vertex 432.25166604983946 338.70000000000005 0.0
vertex 439.99999999999983 1.127986593019159e-14 0.0
vertex 432.51140714835145 339.32707048273346 0.0
endloop
endfacet
facet normal 0.0 0.0 1.0
outer loop
vertex 432.51140714835145 339.32707048273346 0.0
vertex 439.99999999999983 1.127986593019159e-14 0.0
vertex 432.5999999999999 340.0 0.0
endloop
endfacet
facet normal 0.0 0.0 1.0
outer loop
vertex 432.5999999999999 340.0 0.0
vertex 439.99999999999983 1.127986593019159e-14 0.0
vertex 432.5999999999999 360.0 0.0
endloop
endfacet
facet normal 0.0 0.0 1.0
outer loop
vertex 411.4380042707103 399.99999999999983 0.0
vertex 427.74833395016043 361.3 0.0
vertex 439.99999999999983 379.8050669914391 0.0
endloop
endfacet
facet normal 0.0 0.0 1.0
outer loop
vertex 427.74833395016043 361.3 0.0
vertex 411.4380042707103 399.99999999999983 0.0
vertex 427.48859285164843 360.67292951726654 0.0
endloop
endfacet
facet normal 0.0 0.0 1.0
outer loop
vertex 427.48859285164843 360.67292951726654 0.0
vertex 411.4380042707103 399.99999999999983 0.0
vertex 427.4 360.0 0.0
endloop
endfacet
facet normal 0.0 0.0 1.0
outer loop
vertex 427.4 360.0 0.0
vertex 411.4380042707103 399.99999999999983 0.0
vertex 427.4 340.0 0.0
endloop
endfacet
facet normal 0.0 0.0 1.0
outer loop
vertex 439.99999999999983 379.8050669914391 0.0
vertex 427.74833395016043 361.3 0.0
vertex 428.16152236891503 361.838477631085 0.0
endloop
endfacet
facet normal 0.0 0.0 1.0
outer loop
vertex 439.99999999999983 379.8050669914391 0.0
vertex 428.16152236891503 361.838477631085 0.0
vertex 428.6999999999999 362.2516660498395 0.0
endloop
endfacet
facet normal 0.0 0.0 1.0
outer loop
vertex 439.99999999999983 379.8050669914391 0.0
vertex 428.6999999999999 362.2516660498395 0.0
vertex 429.32707048273335 362.5114071483515 0.0
endloop
endfacet
facet normal 0.0 0.0 1.0
outer loop
vertex 439.99999999999983 379.8050669914391 0.0
vertex 429.32707048273335 362.5114071483515 0.0
vertex 429.99999999999994 362.59999999999997 0.0
endloop
endfacet
facet normal 0.0 0.0 1.0
outer loop
vertex 439.99999999999983 379.8050669914391 0.0
vertex 429.99999999999994 362.59999999999997 0.0
vertex 430.67292951726654 362.5114071483515 0.0
endloop
endfacet
facet normal 0.0 0.0 1.0
outer loop
vertex 439.99999999999983 379.8050669914391 0.0
vertex 430.67292951726654 362.5114071483515 0.0
vertex 431.29999999999984 362.2516660498395 0.0
endloop
endfacet
facet normal 0.0 0.0 1.0
outer loop
vertex 439.99999999999983 379.8050669914391 0.0
vertex 431.29999999999984 362.2516660498395 0.0
vertex 431.83847763108486 361.838477631085 0.0
endloop
endfacet
facet normal 0.0 0.0 1.0
outer loop
vertex 439.99999999999983 379.8050669914391 0.0
vertex 431.83847763108486 361.838477631085 0.0
vertex 432.25166604983946 361.3 0.0
endloop
endfacet
facet normal 0.0 0.0 1.0
outer loop
vertex 439.99999999999983 379.8050669914391 0.0
vertex 432.25166604983946 361.3 0.0
vertex 432.51140714835145 360.67292951726654 0.0
endloop
endfacet
facet normal 0.0 0.0 1.0
outer loop
vertex 439.99999999999983 379.8050669914391 0.0
vertex 432.51140714835145 360.67292951726654 0.0
vertex 432.5999999999999 360.0 0.0
endloop
endfacet
facet normal 0.0 0.0 1.0
outer loop
vertex 439.99999999999983 379.8050669914391 0.0
vertex 432.5999999999999 360.0 0.0
vertex 439.99999999999983 1.127986593019159e-14 0.0
endloop
endfacet
facet normal 0.0 0.0 1.0
outer loop
vertex 427.48859285164843 340.67292951726654 0.0
vertex 427.4 360.0 0.0
vertex 427.4 340.0 0.0
endloop
endfacet
facet normal 0.0 0.0 1.0
outer loop
vertex 427.4 360.0 0.0
vertex 427.48859285164843 340.67292951726654 0.0
vertex 427.48859285164843 359.3270704827335 0.0
endloop
endfacet
facet normal 0.0 0.0 1.0
outer loop
vertex 427.48859285164843 359.3270704827335 0.0
vertex 427.48859285164843 340.67292951726654 0.0
vertex 427.74833395016043 341.3 0.0
endloop
endfacet
facet normal 0.0 0.0 1.0
outer loop
vertex 427.48859285164843 359.3270704827335 0.0
vertex 427.74833395016043 341.3 0.0
vertex 427.74833395016043 358.70000000000005 0.0
endloop
endfacet
facet normal 0.0 0.0 1.0
outer loop
vertex 427.74833395016043 358.70000000000005 0.0
vertex 427.74833395016043 341.3 0.0
vertex 428.16152236891503 341.83847763108497 0.0
endloop
endfacet
facet normal 0.0 0.0 1.0
outer loop
vertex 427.74833395016043 358.70000000000005 0.0
vertex 428.16152236891503 341.83847763108497 0.0
vertex 428.16152236891503 358.161522368915 0.0
endloop
endfacet
facet normal 0.0 0.0 1.0
outer loop
vertex 428.16152236891503 358.161522368915 0.0
vertex 428.16152236891503 341.83847763108497 0.0
vertex 428.6999999999999 342.2516660498395 0.0
endloop
endfacet
facet normal 0.0 0.0 1.0
outer loop
vertex 428.16152236891503 358.161522368915 0.0
vertex 428.6999999999999 342.2516660498395 0.0
vertex 428.70000000000005 357.7483339501605 0.0
endloop
endfacet
facet normal 0.0 0.0 1.0
outer loop
vertex 428.70000000000005 357.7483339501605 0.0
vertex 428.6999999999999 342.2516660498395 0.0
vertex 429.32707048273335 342.5114071483515 0.0
endloop
endfacet
facet normal 0.0 0.0 1.0
outer loop
vertex 428.70000000000005 357.7483339501605 0.0
vertex 429.32707048273335 342.5114071483515 0.0
vertex 429.32707048273335 357.4885928516485 0.0
endloop
endfacet
facet normal 0.0 0.0 1.0
outer loop
vertex 429.32707048273335 357.4885928516485 0.0
vertex 429.32707048273335 342.5114071483515 0.0
vertex 429.99999999999994 342.59999999999997 0.0
endloop
endfacet
facet normal 0.0 0.0 1.0
outer loop
vertex 429.32707048273335 357.4885928516485 0.0
vertex 429.99999999999994 342.59999999999997 0.0
vertex 429.99999999999994 357.4000000000001 0.0
endloop
endfacet
facet normal 0.0 0.0 1.0
outer loop
vertex 429.99999999999994 357.4000000000001 0.0
vertex 429.99999999999994 342.59999999999997 0.0
vertex 430.67292951726654 342.5114071483515 0.0
endloop
endfacet
facet normal 0.0 0.0 1.0
outer loop
vertex 429.99999999999994 357.4000000000001 0.0
vertex 430.67292951726654 342.5114071483515 0.0
vertex 430.67292951726654 357.4885928516485 0.0
endloop
endfacet
facet normal 0.0 0.0 1.0
outer loop
vertex 430.67292951726654 357.4885928516485 0.0
vertex 430.67292951726654 342.5114071483515 0.0
vertex 431.29999999999984 342.2516660498395 0.0
endloop
endfacet
facet normal 0.0 0.0 1.0
outer loop
vertex 430.67292951726654 357.4885928516485 0.0
vertex 431.29999999999984 342.2516660498395 0.0
vertex 431.3 357.7483339501605 0.0
endloop
endfacet
facet normal 0.0 0.0 1.0
outer loop
vertex 431.3 357.7483339501605 0.0
vertex 431.29999999999984 342.2516660498395 0.0
vertex 431.83847763108486 341.83847763108497 0.0
endloop
endfacet
facet normal 0.0 0.0 1.0
outer loop
vertex 431.3 357.7483339501605 0.0
vertex 431.83847763108486 341.83847763108497 0.0
vertex 431.83847763108486 358.161522368915 0.0
endloop
endfacet
facet normal 0.0 0.0 1.0
outer loop
vertex 431.83847763108486 358.161522368915 0.0
vertex 431.83847763108486 341.83847763108497 0.0
vertex 432.25166604983946 341.3 0.0
endloop
endfacet
facet normal 0.0 0.0 1.0
outer loop
vertex 431.83847763108486 358.161522368915 0.0
vertex 432.25166604983946 341.3 0.0
vertex 432.25166604983946 358.70000000000005 0.0
endloop
endfacet
facet normal 0.0 0.0 1.0
outer loop
vertex 432.25166604983946 358.70000000000005 0.0
vertex 432.25166604983946 341.3 0.0
vertex 432.51140714835145 340.67292951726654 0.0
endloop
endfacet
facet normal 0.0 0.0 1.0
outer loop
vertex 432.25166604983946 358.70000000000005 0.0
vertex 432.51140714835145 340.67292951726654 0.0
vertex 432.51140714835145 359.3270704827335 0.0
endloop
endfacet
facet normal 0.0 0.0 1.0
outer loop
vertex 432.51140714835145 359.3270704827335 0.0
vertex 432.51140714835145 340.67292951726654 0.0
vertex 432.5999999999999 340.0 0.0
endloop
endfacet
facet normal 0.0 0.0 1.0
outer loop
vertex 432.51140714835145 359.3270704827335 0.0
vertex 432.5999999999999 340.0 0.0
vertex 432.5999999999999 360.0 0.0
endloop
endfacet
endsolid boxcarter
