  0
SECTION
  2
HEADER
  9
$ACADVER
  1
AC1009
  9
$DWGCODEPAGE
  3
ansi_1252
  9
$INSBASE
 10
0.0
 20
0.0
 30
0.0
  9
$EXTMIN
 10
0.0
 20
0.0
 30
0.0
  9
$EXTMAX
 10
270.0
 20
230.0
 30
0.000000000000212
  9
$LIMMIN
 10
0.0
 20
0.0
  9
$LIMMAX
 10
12.0
 20
9.0
  9
$ORTHOMODE
 70
     0
  9
$REGENMODE
 70
     1
  9
$FILLMODE
 70
     1
  9
$QTEXTMODE
 70
     0
  9
$MIRRTEXT
 70
     1
  9
$DRAGMODE
 70
     2
  9
$LTSCALE
 40
1.0
  9
$OSMODE
 70
   511
  9
$ATTMODE
 70
     1
  9
$TEXTSIZE
 40
0.2
  9
$TRACEWID
 40
0.05
  9
$TEXTSTYLE
  7
STANDARD
  9
$CLAYER
  8
0
  9
$CELTYPE
  6
BYBLOCK
  9
$CECOLOR
 62
   256
  9
$DIMSCALE
 40
1.0
  9
$DIMASZ
 40
0.18
  9
$DIMEXO
 40
0.0625
  9
$DIMDLI
 40
0.38
  9
$DIMRND
 40
0.0
  9
$DIMDLE
 40
0.0
  9
$DIMEXE
 40
0.18
  9
$DIMTP
 40
0.0
  9
$DIMTM
 40
0.0
  9
$DIMTXT
 40
0.18
  9
$DIMCEN
 40
0.09
  9
$DIMTSZ
 40
0.0
  9
$DIMTOL
 70
     0
  9
$DIMLIM
 70
     0
  9
$DIMTIH
 70
     1
  9
$DIMTOH
 70
     1
  9
$DIMSE1
 70
     0
  9
$DIMSE2
 70
     0
  9
$DIMTAD
 70
     0
  9
$DIMZIN
 70
     0
  9
$DIMBLK
  1

  9
$DIMASO
 70
     1
  9
$DIMSHO
 70
     1
  9
$DIMPOST
  1

  9
$DIMAPOST
  1

  9
$DIMALT
 70
     0
  9
$DIMALTD
 70
     2
  9
$DIMALTF
 40
25.4
  9
$DIMLFAC
 40
1.0
  9
$DIMTOFL
 70
     0
  9
$DIMTVP
 40
0.0
  9
$DIMTIX
 70
     0
  9
$DIMSOXD
 70
     0
  9
$DIMSAH
 70
     0
  9
$DIMBLK1
  1

  9
$DIMBLK2
  1

  9
$DIMSTYLE
  2
STANDARD
  9
$DIMCLRD
 70
     0
  9
$DIMCLRE
 70
     0
  9
$DIMCLRT
 70
     0
  9
$DIMTFAC
 40
1.0
  9
$DIMGAP
 40
0.09
  9
$LUNITS
 70
     2
  9
$LUPREC
 70
     4
  9
$SKETCHINC
 40
0.1
  9
$FILLETRAD
 40
0.5
  9
$AUNITS
 70
     0
  9
$AUPREC
 70
     0
  9
$MENU
  1
.
  9
$ELEVATION
 40
0.0
  9
$PELEVATION
 40
0.0
  9
$THICKNESS
 40
0.0
  9
$LIMCHECK
 70
     0
  9
$CHAMFERA
 40
0.5
  9
$CHAMFERB
 40
0.5
  9
$SKPOLY
 70
     0
  9
$TDCREATE
 40
2456637.664041979
  9
$TDUPDATE
 40
2456637.664460266
  9
$TDINDWG
 40
0.0000000116
  9
$TDUSRTIMER
 40
2456637.622377442
  9
$USRTIMER
 70
     1
  9
$ANGBASE
 50
0.0
  9
$ANGDIR
 70
     0
  9
$PDMODE
 70
     0
  9
$PDSIZE
 40
0.0
  9
$PLINEWID
 40
0.0
  9
$COORDS
 70
     1
  9
$SPLFRAME
 70
     0
  9
$SPLINETYPE
 70
     6
  9
$SPLINESEGS
 70
     8
  9
$ATTDIA
 70
     0
  9
$ATTREQ
 70
     1
  9
$HANDLING
 70
     1
  9
$HANDSEED
  5
1D9
  9
$SURFTAB1
 70
     6
  9
$SURFTAB2
 70
     6
  9
$SURFTYPE
 70
     6
  9
$SURFU
 70
     6
  9
$SURFV
 70
     6
  9
$UCSNAME
  2

  9
$UCSORG
 10
0.0
 20
0.0
 30
0.0
  9
$UCSXDIR
 10
1.0
 20
0.0
 30
0.0
  9
$UCSYDIR
 10
0.0
 20
1.0
 30
0.0
  9
$PUCSNAME
  2

  9
$PUCSORG
 10
0.0
 20
0.0
 30
0.0
  9
$PUCSXDIR
 10
1.0
 20
0.0
 30
0.0
  9
$PUCSYDIR
 10
0.0
 20
1.0
 30
0.0
  9
$USERI1
 70
     0
  9
$USERI2
 70
     0
  9
$USERI3
 70
     0
  9
$USERI4
 70
     0
  9
$USERI5
 70
     0
  9
$USERR1
 40
0.0
  9
$USERR2
 40
0.0
  9
$USERR3
 40
0.0
  9
$USERR4
 40
0.0
  9
$USERR5
 40
0.0
  9
$WORLDVIEW
 70
     1
  9
$SHADEDGE
 70
     3
  9
$SHADEDIF
 70
    70
  9
$TILEMODE
 70
     1
  9
$MAXACTVP
 70
    64
  9
$PLIMCHECK
 70
     0
  9
$PEXTMIN
 10
1.000000000000000E+20
 20
1.000000000000000E+20
 30
1.000000000000000E+20
  9
$PEXTMAX
 10
-1.000000000000000E+20
 20
-1.000000000000000E+20
 30
-1.000000000000000E+20
  9
$PLIMMIN
 10
0.0
 20
0.0
  9
$PLIMMAX
 10
0.0
 20
0.0
  9
$UNITMODE
 70
     0
  9
$VISRETAIN
 70
     1
  9
$PLINEGEN
 70
     0
  9
$PSLTSCALE
 70
     1
  0
ENDSEC
  0
SECTION
  2
TABLES
  0
TABLE
  2
VPORT
 70
     1
  0
VPORT
  2
*ACTIVE
 70
     0
 10
0.0
 20
0.0
 11
1.0
 21
1.0
 12
155.3737774059943
 22
101.8204545923219
 13
0.0
 23
0.0
 14
0.5
 24
0.5
 15
0.5
 25
0.5
 16
0.0
 26
0.0
 36
1.0
 17
0.0
 27
0.0
 37
0.0
 40
364.266054618808
 41
1.731829573934837
 42
50.0
 43
0.0
 44
0.0
 50
0.0
 51
0.0
 71
    16
 72
   100
 73
     1
 74
     3
 75
     0
 76
     0
 77
     0
 78
     0
  0
ENDTAB
  0
TABLE
  2
LTYPE
 70
     1
  0
LTYPE
  2
CONTINUOUS
 70
     0
  3
Solid line
 72
    65
 73
     0
 40
0.0
  0
ENDTAB
  0
TABLE
  2
LAYER
 70
     3
  0
LAYER
  2
0
 70
     0
 62
     7
  6
CONTINUOUS
  0
LAYER
  2
GROUPE_1
 70
     0
 62
     7
  6
CONTINUOUS
  0
LAYER
  2
DEFPOINTS
 70
     0
 62
     7
  6
CONTINUOUS
  0
ENDTAB
  0
TABLE
  2
STYLE
 70
     1
  0
STYLE
  2
STANDARD
 70
     0
 40
0.0
 41
1.0
 50
0.0
 71
     0
 42
0.2
  3
txt
  4

  0
ENDTAB
  0
TABLE
  2
VIEW
 70
     0
  0
ENDTAB
  0
TABLE
  2
UCS
 70
     0
  0
ENDTAB
  0
TABLE
  2
APPID
 70
     1
  0
APPID
  2
ACAD
 70
     0
  0
ENDTAB
  0
TABLE
  2
DIMSTYLE
 70
     1
  0
DIMSTYLE
  2
STANDARD
 70
     0
  3

  4

  5

  6

  7

 40
1.0
 41
0.18
 42
0.0625
 43
0.38
 44
0.18
 45
0.0
 46
0.0
 47
0.0
 48
0.0
140
0.18
141
0.09
142
0.0
143
25.4
144
1.0
145
0.0
146
1.0
147
0.09
 71
     0
 72
     0
 73
     1
 74
     1
 75
     0
 76
     0
 77
     0
 78
     0
170
     0
171
     2
172
     0
173
     0
174
     0
175
     0
176
     0
177
     0
178
     0
  0
ENDTAB
  0
ENDSEC
  0
SECTION
  2
BLOCKS
  0
BLOCK
  8
0
  2
$MODEL_SPACE
 70
     0
 10
0.0
 20
0.0
 30
0.0
  3
$MODEL_SPACE
  1

  0
ENDBLK
  5
18A
  8
0
  0
BLOCK
 67
     1
  8
0
  2
$PAPER_SPACE
 70
     0
 10
0.0
 20
0.0
 30
0.0
  3
$PAPER_SPACE
  1

  0
ENDBLK
  5
188
 67
     1
  8
0
  0
ENDSEC
  0
SECTION
  2
ENTITIES
  0
POLYLINE
  5
21
  8
GROUPE_1
 66
     1
 10
0.0
 20
0.0
 30
0.0
 70
    64
 71
   172
 72
   182
  0
VERTEX
  5
22
  8
GROUPE_1
 10
254.573848521586
 20
17.463411235958
 30
0.0000000000000706
 70
   192
  0
VERTEX
  5
23
  8
GROUPE_1
 10
15.2665025208886
 20
17.485754695532
 30
0.0000000000000992
 70
   192
  0
VERTEX
  5
24
  8
GROUPE_1
 10
255.225947024875
 20
17.489768652295
 30
0.0000000000000933
 70
   192
  0
VERTEX
  5
25
  8
GROUPE_1
 10
15.9007823243543
 20
17.33207873026
 30
0.000000000000212
 70
   192
  0
VERTEX
  5
26
  8
GROUPE_1
 10
253.950791537303
 20
17.269176414871
 30
0.0000000000000932
 70
   192
  0
VERTEX
  5
27
  8
GROUPE_1
 10
16.4736753010283
 20
17.019475453463
 30
0.000000000000167
 70
   192
  0
VERTEX
  5
28
  8
GROUPE_1
 10
253.399236375854
 20
16.920300971101
 30
0.0000000000000932
 70
   192
  0
VERTEX
  5
29
  8
GROUPE_1
 10
16.9461397413007
 20
16.569248261853
 30
0.0000000000001446
 70
   192
  0
VERTEX
  5
2A
  8
GROUPE_1
 10
252.956770610004
 20
16.440560189598
 30
0.0000000000000707
 70
   192
  0
VERTEX
  5
2B
  8
GROUPE_1
 10
17.2859779743516
 20
16.012079394504
 30
0.0000000000001447
 70
   192
  0
VERTEX
  5
2C
  8
GROUPE_1
 10
252.653547550485
 20
15.862647611813
 30
0.0000000000000934
 70
   192
  0
VERTEX
  5
2D
  8
GROUPE_1
 10
17.4700305862076
 20
15.385938988959
 30
0.0000000000001448
 70
   192
  0
VERTEX
  5
2E
  8
GROUPE_1
 10
252.510231347705
 20
15.225947024875
 30
0.0000000000000934
 70
   192
  0
VERTEX
  5
2F
  8
GROUPE_1
 10
17.4857546955321
 20
14.733497479111
 30
0.0000000000000997
 70
   192
  0
VERTEX
  5
30
  8
GROUPE_1
 10
252.536588764041
 20
14.573848521587
 30
0.0000000000001387
 70
   192
  0
VERTEX
  5
31
  8
GROUPE_1
 10
17.3320787302601
 20
14.099217675646
 30
0.0000000000001224
 70
   192
  0
VERTEX
  5
32
  8
GROUPE_1
 10
252.730823585129
 20
13.950791537304
 30
0.0000000000001162
 70
   192
  0
VERTEX
  5
33
  8
GROUPE_1
 10
17.0194754534632
 20
13.526324698972
 30
0.0000000000000323
 70
   192
  0
VERTEX
  5
34
  8
GROUPE_1
 10
253.079699028899
 20
13.399236375854
 30
0.0000000000001163
 70
   192
  0
VERTEX
  5
35
  8
GROUPE_1
 10
16.5692482618535
 20
13.053860258699
 30
0.0000000000001903
 70
   192
  0
VERTEX
  5
36
  8
GROUPE_1
 10
253.559439810401
 20
12.956770610004
 30
0.0000000000000939
 70
   192
  0
VERTEX
  5
37
  8
GROUPE_1
 10
16.012079394504
 20
12.714022025648
 30
0.0000000000000549
 70
   192
  0
VERTEX
  5
38
  8
GROUPE_1
 10
254.137352388187
 20
12.653547550485
 30
0.000000000000094
 70
   192
  0
VERTEX
  5
39
  8
GROUPE_1
 10
15.3859389889593
 20
12.529969413792
 30
0.0000000000000775
 70
   192
  0
VERTEX
  5
3A
  8
GROUPE_1
 10
254.774052975125
 20
12.510231347705
 30
0.0000000000001165
 70
   192
  0
VERTEX
  5
3B
  8
GROUPE_1
 10
14.7334974791115
 20
12.514245304468
 30
0.0000000000001451
 70
   192
  0
VERTEX
  5
3C
  8
GROUPE_1
 10
255.327717314077
 20
230.0
 30
0.0000000000000818
 70
   192
  0
VERTEX
  5
3D
  8
GROUPE_1
 10
11.1065476267744
 20
229.530562073728
 30
0.0000000000000539
 70
   192
  0
VERTEX
  5
3E
  8
GROUPE_1
 10
14.6722826859249
 20
230.0
 30
0.0000000000001162
 70
   192
  0
VERTEX
  5
3F
  8
GROUPE_1
 10
258.893452373226
 20
229.530562073728
 30
0.0000000000000821
 70
   192
  0
VERTEX
  5
40
  8
GROUPE_1
 10
262.521572401451
 20
228.02774555212
 30
0.0000000000000543
 70
   192
  0
VERTEX
  5
41
  8
GROUPE_1
 10
7.47842759854954
 20
228.02774555212
 30
0.0000000000001162
 70
   192
  0
VERTEX
  5
42
  8
GROUPE_1
 10
4.36289029949775
 20
225.637109700502
 30
0.0000000000000825
 70
   192
  0
VERTEX
  5
43
  8
GROUPE_1
 10
265.637109700502
 20
225.637109700502
 30
0.0000000000000604
 70
   192
  0
VERTEX
  5
44
  8
GROUPE_1
 10
268.02774555212
 20
222.52157240145
 30
0.0000000000001174
 70
   192
  0
VERTEX
  5
45
  8
GROUPE_1
 10
1.97225444788017
 20
222.52157240145
 30
0.0000000000001282
 70
   192
  0
VERTEX
  5
46
  8
GROUPE_1
 10
0.469437926272059
 20
218.893452373226
 30
0.0000000000000212
 70
   192
  0
VERTEX
  5
47
  8
GROUPE_1
 10
269.530562073727
 20
218.893452373226
 30
0.0000000000001066
 70
   192
  0
VERTEX
  5
48
  8
GROUPE_1
 10
255.058220150637
 20
217.499321990873
 30
0.0000000000000612
 70
   192
  0
VERTEX
  5
49
  8
GROUPE_1
 10
270.0
 20
215.327717314076
 30
0.0000000000000817
 70
   192
  0
VERTEX
  5
4A
  8
GROUPE_1
 10
15.0000000000001
 20
217.5
 30
0.0000000000001122
 70
   192
  0
VERTEX
  5
4B
  8
GROUPE_1
 10
255.703108478192
 20
217.399091175403
 30
0.0000000000000612
 70
   192
  0
VERTEX
  5
4C
  8
GROUPE_1
 10
256.3000811249
 20
217.135366261015
 30
0.0000000000000838
 70
   192
  0
VERTEX
  5
4D
  8
GROUPE_1
 10
256.808455391432
 20
216.726119664798
 30
0.0000000000000839
 70
   192
  0
VERTEX
  5
4E
  8
GROUPE_1
 10
257.193586411651
 20
216.199240865973
 30
0.0000000000001066
 70
   192
  0
VERTEX
  5
4F
  8
GROUPE_1
 10
257.42922814299
 20
215.590635783971
 30
0.0000000000000841
 70
   192
  0
VERTEX
  5
50
  8
GROUPE_1
 10
257.499321990873
 20
214.941779849363
 30
0.0000000000000842
 70
   192
  0
VERTEX
  5
51
  8
GROUPE_1
 10
270.0
 20
14.6722826859241
 30
0.0000000000001167
 70
   192
  0
VERTEX
  5
52
  8
GROUPE_1
 10
257.399091175402
 20
214.296891521808
 30
0.0000000000000618
 70
   192
  0
VERTEX
  5
53
  8
GROUPE_1
 10
257.135366261014
 20
213.6999188751
 30
0.0000000000000619
 70
   192
  0
VERTEX
  5
54
  8
GROUPE_1
 10
256.726119664798
 20
213.191544608568
 30
0.0000000000001071
 70
   192
  0
VERTEX
  5
55
  8
GROUPE_1
 10
256.199240865973
 20
212.806413588349
 30
0.0000000000000845
 70
   192
  0
VERTEX
  5
56
  8
GROUPE_1
 10
255.590635783971
 20
212.57077185701
 30
0.0000000000000845
 70
   192
  0
VERTEX
  5
57
  8
GROUPE_1
 10
254.941779849363
 20
212.500678009127
 30
0.0000000000000393
 70
   192
  0
VERTEX
  5
58
  8
GROUPE_1
 10
257.5
 20
115.0
 30
0.0000000000000778
 70
   192
  0
VERTEX
  5
59
  8
GROUPE_1
 10
257.414814565722
 20
115.647047612756
 30
0.0000000000000777
 70
   192
  0
VERTEX
  5
5A
  8
GROUPE_1
 10
257.165063509461
 20
116.25
 30
0.0000000000001001
 70
   192
  0
VERTEX
  5
5B
  8
GROUPE_1
 10
256.767766952966
 20
116.767766952966
 30
0.0000000000000774
 70
   192
  0
VERTEX
  5
5C
  8
GROUPE_1
 10
256.25
 20
117.165063509461
 30
0.0000000000000773
 70
   192
  0
VERTEX
  5
5D
  8
GROUPE_1
 10
255.647047612756
 20
117.414814565723
 30
0.0000000000000773
 70
   192
  0
VERTEX
  5
5E
  8
GROUPE_1
 10
15.0000000000001
 20
212.5
 30
0.000000000000113
 70
   192
  0
VERTEX
  5
5F
  8
GROUPE_1
 10
255.0
 20
117.5
 30
0.0000000000000997
 70
   192
  0
VERTEX
  5
60
  8
GROUPE_1
 10
257.414814565722
 20
114.352952387244
 30
0.0000000000000779
 70
   192
  0
VERTEX
  5
61
  8
GROUPE_1
 10
257.165063509461
 20
113.75
 30
0.0000000000001005
 70
   192
  0
VERTEX
  5
62
  8
GROUPE_1
 10
256.767766952966
 20
113.232233047034
 30
0.000000000000078
 70
   192
  0
VERTEX
  5
63
  8
GROUPE_1
 10
256.25
 20
112.834936490539
 30
0.000000000000078
 70
   192
  0
VERTEX
  5
64
  8
GROUPE_1
 10
255.647047612756
 20
112.585185434277
 30
0.000000000000078
 70
   192
  0
VERTEX
  5
65
  8
GROUPE_1
 10
255.0
 20
112.5
 30
0.0000000000001005
 70
   192
  0
VERTEX
  5
66
  8
GROUPE_1
 10
15.0000000000001
 20
112.5
 30
0.0000000000001291
 70
   192
  0
VERTEX
  5
67
  8
GROUPE_1
 10
255.862647611813
 20
17.346452449515
 30
0.0000000000001158
 70
   192
  0
VERTEX
  5
68
  8
GROUPE_1
 10
256.440560189598
 20
17.043229389996
 30
0.0000000000000934
 70
   192
  0
VERTEX
  5
69
  8
GROUPE_1
 10
256.920300971101
 20
16.600763624146
 30
0.0000000000001386
 70
   192
  0
VERTEX
  5
6A
  8
GROUPE_1
 10
257.269176414871
 20
16.049208462696
 30
0.0000000000000936
 70
   192
  0
VERTEX
  5
6B
  8
GROUPE_1
 10
257.463411235958
 20
15.426151478414
 30
0.0000000000000938
 70
   192
  0
VERTEX
  5
6C
  8
GROUPE_1
 10
257.489768652295
 20
14.774052975125
 30
0.0000000000000939
 70
   192
  0
VERTEX
  5
6D
  8
GROUPE_1
 10
257.346452449515
 20
14.137352388187
 30
0.000000000000094
 70
   192
  0
VERTEX
  5
6E
  8
GROUPE_1
 10
269.530562073729
 20
11.1065476267741
 30
0.0000000000001172
 70
   192
  0
VERTEX
  5
6F
  8
GROUPE_1
 10
257.043229389996
 20
13.559439810402
 30
0.000000000000094
 70
   192
  0
VERTEX
  5
70
  8
GROUPE_1
 10
256.600763624145
 20
13.079699028899
 30
0.0000000000000715
 70
   192
  0
VERTEX
  5
71
  8
GROUPE_1
 10
256.049208462696
 20
12.730823585129
 30
0.0000000000000941
 70
   192
  0
VERTEX
  5
72
  8
GROUPE_1
 10
255.426151478413
 20
12.536588764042
 30
0.0000000000001392
 70
   192
  0
VERTEX
  5
73
  8
GROUPE_1
 10
0.469437926272056
 20
11.1065476267745
 30
0.00000000000006
 70
   192
  0
VERTEX
  5
74
  8
GROUPE_1
 10
1.97225444788023
 20
7.47842759854941
 30
0.0000000000001511
 70
   192
  0
VERTEX
  5
75
  8
GROUPE_1
 10
268.027745552119
 20
7.47842759854891
 30
0.0000000000000895
 70
   192
  0
VERTEX
  5
76
  8
GROUPE_1
 10
4.36289029949798
 20
4.36289029949807
 30
0.0000000000001346
 70
   192
  0
VERTEX
  5
77
  8
GROUPE_1
 10
265.637109700502
 20
4.36289029949825
 30
0.0000000000000955
 70
   192
  0
VERTEX
  5
78
  8
GROUPE_1
 10
262.521572401451
 20
1.97225444788096
 30
0.0000000000000957
 70
   192
  0
VERTEX
  5
79
  8
GROUPE_1
 10
7.47842759854913
 20
1.97225444788092
 30
0.0000000000000729
 70
   192
  0
VERTEX
  5
7A
  8
GROUPE_1
 10
258.893452373226
 20
0.469437926271659
 30
0.000000000000124
 70
   192
  0
VERTEX
  5
7B
  8
GROUPE_1
 10
11.1065476267739
 20
0.469437926271614
 30
0.00000000000009
 70
   192
  0
VERTEX
  5
7C
  8
GROUPE_1
 10
255.327717314077
 20
0.0000000000000902
 30
0.0000000000001183
 70
   192
  0
VERTEX
  5
7D
  8
GROUPE_1
 10
14.6722826859241
 20
0.0
 30
0.000000000000147
 70
   192
  0
VERTEX
  5
7E
  8
GROUPE_1
 10
14.3529523872435
 20
217.414814565723
 30
0.0000000000001347
 70
   192
  0
VERTEX
  5
7F
  8
GROUPE_1
 10
0.0
 20
215.327717314076
 30
0.0000000000001346
 70
   192
  0
VERTEX
  5
80
  8
GROUPE_1
 10
13.7500000000001
 20
217.165063509461
 30
0.0000000000000445
 70
   192
  0
VERTEX
  5
81
  8
GROUPE_1
 10
13.2322330470336
 20
216.767766952966
 30
0.0000000000001122
 70
   192
  0
VERTEX
  5
82
  8
GROUPE_1
 10
12.8349364905389
 20
216.25
 30
0.0000000000000897
 70
   192
  0
VERTEX
  5
83
  8
GROUPE_1
 10
12.5851854342773
 20
215.647047612756
 30
0.0000000000000447
 70
   192
  0
VERTEX
  5
84
  8
GROUPE_1
 10
12.5
 20
215.0
 30
0.0000000000000673
 70
   192
  0
VERTEX
  5
85
  8
GROUPE_1
 10
0.0000000000000529
 20
14.6722826859233
 30
0.0000000000001781
 70
   192
  0
VERTEX
  5
86
  8
GROUPE_1
 10
12.5851854342773
 20
214.352952387244
 30
0.0000000000000449
 70
   192
  0
VERTEX
  5
87
  8
GROUPE_1
 10
12.8349364905389
 20
213.75
 30
0.0000000000000901
 70
   192
  0
VERTEX
  5
88
  8
GROUPE_1
 10
13.2322330470336
 20
213.232233047034
 30
0.0000000000001128
 70
   192
  0
VERTEX
  5
89
  8
GROUPE_1
 10
13.7500000000001
 20
212.834936490539
 30
0.0000000000000452
 70
   192
  0
VERTEX
  5
8A
  8
GROUPE_1
 10
14.3529523872435
 20
212.585185434277
 30
0.0000000000001355
 70
   192
  0
VERTEX
  5
8B
  8
GROUPE_1
 10
12.5
 20
115.0
 30
0.0000000000000833
 70
   192
  0
VERTEX
  5
8C
  8
GROUPE_1
 10
12.5851854342773
 20
115.647047612756
 30
0.0000000000000607
 70
   192
  0
VERTEX
  5
8D
  8
GROUPE_1
 10
12.8349364905389
 20
116.25
 30
0.0000000000001057
 70
   192
  0
VERTEX
  5
8E
  8
GROUPE_1
 10
13.2322330470336
 20
116.767766952966
 30
0.0000000000001283
 70
   192
  0
VERTEX
  5
8F
  8
GROUPE_1
 10
13.7500000000001
 20
117.165063509461
 30
0.0000000000000605
 70
   192
  0
VERTEX
  5
90
  8
GROUPE_1
 10
14.3529523872435
 20
117.414814565723
 30
0.0000000000001507
 70
   192
  0
VERTEX
  5
91
  8
GROUPE_1
 10
15.0000000000001
 20
117.5
 30
0.0000000000001283
 70
   192
  0
VERTEX
  5
92
  8
GROUPE_1
 10
12.5851854342773
 20
114.352952387244
 30
0.0000000000000609
 70
   192
  0
VERTEX
  5
93
  8
GROUPE_1
 10
12.8349364905389
 20
113.75
 30
0.0000000000001061
 70
   192
  0
VERTEX
  5
94
  8
GROUPE_1
 10
13.2322330470336
 20
113.232233047034
 30
0.0000000000001288
 70
   192
  0
VERTEX
  5
95
  8
GROUPE_1
 10
13.7500000000001
 20
112.834936490539
 30
0.0000000000000612
 70
   192
  0
VERTEX
  5
96
  8
GROUPE_1
 10
14.3529523872435
 20
112.585185434277
 30
0.0000000000001515
 70
   192
  0
VERTEX
  5
97
  8
GROUPE_1
 10
14.6140610110408
 20
17.470030586207
 30
0.0000000000000991
 70
   192
  0
VERTEX
  5
98
  8
GROUPE_1
 10
13.987920605496
 20
17.285977974351
 30
0.0000000000001668
 70
   192
  0
VERTEX
  5
99
  8
GROUPE_1
 10
13.4307517381466
 20
16.946139741301
 30
0.0000000000001217
 70
   192
  0
VERTEX
  5
9A
  8
GROUPE_1
 10
12.980524546537
 20
16.473675301028
 30
0.0000000000001444
 70
   192
  0
VERTEX
  5
9B
  8
GROUPE_1
 10
12.66792126974
 20
15.900782324354
 30
0.0000000000000316
 70
   192
  0
VERTEX
  5
9C
  8
GROUPE_1
 10
12.5142453044679
 20
15.266502520889
 30
0.0000000000001219
 70
   192
  0
VERTEX
  5
9D
  8
GROUPE_1
 10
12.5299694137926
 20
14.614061011041
 30
0.0000000000000769
 70
   192
  0
VERTEX
  5
9E
  8
GROUPE_1
 10
12.7140220256485
 20
13.987920605496
 30
0.000000000000077
 70
   192
  0
VERTEX
  5
9F
  8
GROUPE_1
 10
13.0538602586994
 20
13.430751738147
 30
0.0000000000001448
 70
   192
  0
VERTEX
  5
A0
  8
GROUPE_1
 10
13.5263246989718
 20
12.980524546537
 30
0.0000000000000998
 70
   192
  0
VERTEX
  5
A1
  8
GROUPE_1
 10
14.0992176756458
 20
12.66792126974
 30
0.0000000000000547
 70
   192
  0
VERTEX
  5
A2
  8
GROUPE_1
 10
254.352952387244
 20
117.414814565723
 30
0.0000000000000997
 70
   192
  0
VERTEX
  5
A3
  8
GROUPE_1
 10
15.6470476127564
 20
117.414814565723
 30
0.0000000000000831
 70
   192
  0
VERTEX
  5
A4
  8
GROUPE_1
 10
253.75
 20
117.165063509461
 30
0.0000000000000772
 70
   192
  0
VERTEX
  5
A5
  8
GROUPE_1
 10
16.25
 20
117.165063509461
 30
0.0000000000001284
 70
   192
  0
VERTEX
  5
A6
  8
GROUPE_1
 10
253.232233047034
 20
116.767766952966
 30
0.0000000000000997
 70
   192
  0
VERTEX
  5
A7
  8
GROUPE_1
 10
16.7677669529664
 20
116.767766952966
 30
0.0000000000000608
 70
   192
  0
VERTEX
  5
A8
  8
GROUPE_1
 10
252.834936490539
 20
116.25
 30
0.0000000000000773
 70
   192
  0
VERTEX
  5
A9
  8
GROUPE_1
 10
17.1650635094611
 20
116.25
 30
0.0000000000000834
 70
   192
  0
VERTEX
  5
AA
  8
GROUPE_1
 10
252.585185434277
 20
115.647047612756
 30
0.0000000000000773
 70
   192
  0
VERTEX
  5
AB
  8
GROUPE_1
 10
17.4148145657226
 20
115.647047612756
 30
0.0000000000001287
 70
   192
  0
VERTEX
  5
AC
  8
GROUPE_1
 10
252.5
 20
115.0
 30
0.0000000000000999
 70
   192
  0
VERTEX
  5
AD
  8
GROUPE_1
 10
17.5
 20
115.0
 30
0.0000000000000161
 70
   192
  0
VERTEX
  5
AE
  8
GROUPE_1
 10
252.585185434277
 20
114.352952387244
 30
0.0000000000000775
 70
   192
  0
VERTEX
  5
AF
  8
GROUPE_1
 10
17.4148145657226
 20
114.352952387244
 30
0.000000000000129
 70
   192
  0
VERTEX
  5
B0
  8
GROUPE_1
 10
252.834936490539
 20
113.75
 30
0.0000000000000777
 70
   192
  0
VERTEX
  5
B1
  8
GROUPE_1
 10
17.1650635094611
 20
113.75
 30
0.0000000000000838
 70
   192
  0
VERTEX
  5
B2
  8
GROUPE_1
 10
253.232233047034
 20
113.232233047034
 30
0.0000000000001003
 70
   192
  0
VERTEX
  5
B3
  8
GROUPE_1
 10
16.7677669529664
 20
113.232233047034
 30
0.0000000000000614
 70
   192
  0
VERTEX
  5
B4
  8
GROUPE_1
 10
253.75
 20
112.834936490539
 30
0.0000000000000779
 70
   192
  0
VERTEX
  5
B5
  8
GROUPE_1
 10
16.25
 20
112.834936490539
 30
0.0000000000001291
 70
   192
  0
VERTEX
  5
B6
  8
GROUPE_1
 10
254.352952387244
 20
112.585185434277
 30
0.0000000000001004
 70
   192
  0
VERTEX
  5
B7
  8
GROUPE_1
 10
15.6470476127564
 20
112.585185434277
 30
0.0000000000000839
 70
   192
  0
VERTEX
  5
B8
  8
GROUPE_1
 10
15.6470476127564
 20
217.414814565723
 30
0.0000000000000671
 70
   192
  0
VERTEX
  5
B9
  8
GROUPE_1
 10
254.409364216029
 20
217.42922814299
 30
0.0000000000000611
 70
   192
  0
VERTEX
  5
BA
  8
GROUPE_1
 10
253.800759134027
 20
217.193586411651
 30
0.0000000000000611
 70
   192
  0
VERTEX
  5
BB
  8
GROUPE_1
 10
16.25
 20
217.165063509461
 30
0.0000000000001124
 70
   192
  0
VERTEX
  5
BC
  8
GROUPE_1
 10
253.273880335202
 20
216.808455391432
 30
0.0000000000000611
 70
   192
  0
VERTEX
  5
BD
  8
GROUPE_1
 10
16.7677669529664
 20
216.767766952966
 30
0.0000000000000448
 70
   192
  0
VERTEX
  5
BE
  8
GROUPE_1
 10
252.864633738985
 20
216.3000811249
 30
0.0000000000000386
 70
   192
  0
VERTEX
  5
BF
  8
GROUPE_1
 10
17.1650635094611
 20
216.25
 30
0.0000000000000674
 70
   192
  0
VERTEX
  5
C0
  8
GROUPE_1
 10
252.600908824597
 20
215.703108478192
 30
0.0000000000000613
 70
   192
  0
VERTEX
  5
C1
  8
GROUPE_1
 10
17.4148145657226
 20
215.647047612756
 30
0.0000000000001127
 70
   192
  0
VERTEX
  5
C2
  8
GROUPE_1
 10
252.500678009127
 20
215.058220150637
 30
0.0000000000000614
 70
   192
  0
VERTEX
  5
C3
  8
GROUPE_1
 10
17.5
 20
215.0
 30
0.0
 70
   192
  0
VERTEX
  5
C4
  8
GROUPE_1
 10
252.57077185701
 20
214.409364216029
 30
0.0000000000001066
 70
   192
  0
VERTEX
  5
C5
  8
GROUPE_1
 10
17.4148145657226
 20
214.352952387244
 30
0.0000000000001129
 70
   192
  0
VERTEX
  5
C6
  8
GROUPE_1
 10
252.806413588349
 20
213.800759134027
 30
0.0000000000000616
 70
   192
  0
VERTEX
  5
C7
  8
GROUPE_1
 10
17.1650635094611
 20
213.75
 30
0.0000000000000678
 70
   192
  0
VERTEX
  5
C8
  8
GROUPE_1
 10
253.191544608568
 20
213.273880335202
 30
0.0000000000000842
 70
   192
  0
VERTEX
  5
C9
  8
GROUPE_1
 10
16.7677669529664
 20
213.232233047034
 30
0.0000000000000453
 70
   192
  0
VERTEX
  5
CA
  8
GROUPE_1
 10
253.6999188751
 20
212.864633738985
 30
0.0000000000000843
 70
   192
  0
VERTEX
  5
CB
  8
GROUPE_1
 10
16.25
 20
212.834936490539
 30
0.0000000000001131
 70
   192
  0
VERTEX
  5
CC
  8
GROUPE_1
 10
254.296891521808
 20
212.600908824597
 30
0.0000000000000619
 70
   192
  0
VERTEX
  5
CD
  8
GROUPE_1
 10
15.6470476127564
 20
212.585185434277
 30
0.0000000000000679
 70
   192
  0
VERTEX
  5
CE
  8
GROUPE_1
 10
0.0
 20
0.0
 30
0.0
 70
   128
 71
    -1
 72
    -2
 73
     3
  0
VERTEX
  5
CF
  8
GROUPE_1
 10
0.0
 20
0.0
 30
0.0
 70
   128
 71
    -2
 72
    -1
 73
     4
  0
VERTEX
  5
D0
  8
GROUPE_1
 10
0.0
 20
0.0
 30
0.0
 70
   128
 71
    -4
 72
     1
 73
    -5
  0
VERTEX
  5
D1
  8
GROUPE_1
 10
0.0
 20
0.0
 30
0.0
 70
   128
 71
    -4
 72
    -5
 73
     6
  0
VERTEX
  5
D2
  8
GROUPE_1
 10
0.0
 20
0.0
 30
0.0
 70
   128
 71
    -6
 72
     5
 73
    -7
  0
VERTEX
  5
D3
  8
GROUPE_1
 10
0.0
 20
0.0
 30
0.0
 70
   128
 71
    -6
 72
    -7
 73
     8
  0
VERTEX
  5
D4
  8
GROUPE_1
 10
0.0
 20
0.0
 30
0.0
 70
   128
 71
    -8
 72
     7
 73
    -9
  0
VERTEX
  5
D5
  8
GROUPE_1
 10
0.0
 20
0.0
 30
0.0
 70
   128
 71
    -8
 72
    -9
 73
    10
  0
VERTEX
  5
D6
  8
GROUPE_1
 10
0.0
 20
0.0
 30
0.0
 70
   128
 71
   -10
 72
     9
 73
   -11
  0
VERTEX
  5
D7
  8
GROUPE_1
 10
0.0
 20
0.0
 30
0.0
 70
   128
 71
   -10
 72
   -11
 73
    12
  0
VERTEX
  5
D8
  8
GROUPE_1
 10
0.0
 20
0.0
 30
0.0
 70
   128
 71
   -12
 72
    11
 73
   -13
  0
VERTEX
  5
D9
  8
GROUPE_1
 10
0.0
 20
0.0
 30
0.0
 70
   128
 71
   -12
 72
   -13
 73
    14
  0
VERTEX
  5
DA
  8
GROUPE_1
 10
0.0
 20
0.0
 30
0.0
 70
   128
 71
   -14
 72
    13
 73
   -15
  0
VERTEX
  5
DB
  8
GROUPE_1
 10
0.0
 20
0.0
 30
0.0
 70
   128
 71
   -14
 72
   -15
 73
    16
  0
VERTEX
  5
DC
  8
GROUPE_1
 10
0.0
 20
0.0
 30
0.0
 70
   128
 71
   -16
 72
    15
 73
   -17
  0
VERTEX
  5
DD
  8
GROUPE_1
 10
0.0
 20
0.0
 30
0.0
 70
   128
 71
   -16
 72
   -17
 73
    18
  0
VERTEX
  5
DE
  8
GROUPE_1
 10
0.0
 20
0.0
 30
0.0
 70
   128
 71
   -18
 72
    17
 73
   -19
  0
VERTEX
  5
DF
  8
GROUPE_1
 10
0.0
 20
0.0
 30
0.0
 70
   128
 71
   -18
 72
   -19
 73
    20
  0
VERTEX
  5
E0
  8
GROUPE_1
 10
0.0
 20
0.0
 30
0.0
 70
   128
 71
   -20
 72
    19
 73
   -21
  0
VERTEX
  5
E1
  8
GROUPE_1
 10
0.0
 20
0.0
 30
0.0
 70
   128
 71
   -20
 72
   -21
 73
    22
  0
VERTEX
  5
E2
  8
GROUPE_1
 10
0.0
 20
0.0
 30
0.0
 70
   128
 71
   -22
 72
    21
 73
   -23
  0
VERTEX
  5
E3
  8
GROUPE_1
 10
0.0
 20
0.0
 30
0.0
 70
   128
 71
   -22
 72
   -23
 73
    24
  0
VERTEX
  5
E4
  8
GROUPE_1
 10
0.0
 20
0.0
 30
0.0
 70
   128
 71
   -24
 72
    23
 73
   -25
  0
VERTEX
  5
E5
  8
GROUPE_1
 10
0.0
 20
0.0
 30
0.0
 70
   128
 71
   -24
 72
   -25
 73
    26
  0
VERTEX
  5
E6
  8
GROUPE_1
 10
0.0
 20
0.0
 30
0.0
 70
   128
 71
   -27
 72
    28
 73
    29
  0
VERTEX
  5
E7
  8
GROUPE_1
 10
0.0
 20
0.0
 30
0.0
 70
   128
 71
   -28
 72
    27
 73
   -30
  0
VERTEX
  5
E8
  8
GROUPE_1
 10
0.0
 20
0.0
 30
0.0
 70
   128
 71
   -28
 72
    30
 73
   -31
  0
VERTEX
  5
E9
  8
GROUPE_1
 10
0.0
 20
0.0
 30
0.0
 70
   128
 71
   -28
 72
   -31
 73
    32
  0
VERTEX
  5
EA
  8
GROUPE_1
 10
0.0
 20
0.0
 30
0.0
 70
   128
 71
   -32
 72
   -31
 73
    33
  0
VERTEX
  5
EB
  8
GROUPE_1
 10
0.0
 20
0.0
 30
0.0
 70
   128
 71
   -33
 72
    31
 73
   -34
  0
VERTEX
  5
EC
  8
GROUPE_1
 10
0.0
 20
0.0
 30
0.0
 70
   128
 71
   -33
 72
    34
 73
   -35
  0
VERTEX
  5
ED
  8
GROUPE_1
 10
0.0
 20
0.0
 30
0.0
 70
   128
 71
   -33
 72
   -35
 73
    36
  0
VERTEX
  5
EE
  8
GROUPE_1
 10
0.0
 20
0.0
 30
0.0
 70
   128
 71
   -36
 72
   -35
 73
    37
  0
VERTEX
  5
EF
  8
GROUPE_1
 10
0.0
 20
0.0
 30
0.0
 70
   128
 71
   -37
 72
    35
 73
   -38
  0
VERTEX
  5
F0
  8
GROUPE_1
 10
0.0
 20
0.0
 30
0.0
 70
   128
 71
   -37
 72
   -38
 73
   -39
  0
VERTEX
  5
F1
  8
GROUPE_1
 10
0.0
 20
0.0
 30
0.0
 70
   128
 71
   -39
 72
    38
 73
   -40
  0
VERTEX
  5
F2
  8
GROUPE_1
 10
0.0
 20
0.0
 30
0.0
 70
   128
 71
   -37
 72
   -39
 73
   -41
  0
VERTEX
  5
F3
  8
GROUPE_1
 10
0.0
 20
0.0
 30
0.0
 70
   128
 71
   -39
 72
   -40
 73
    42
  0
VERTEX
  5
F4
  8
GROUPE_1
 10
0.0
 20
0.0
 30
0.0
 70
   128
 71
   -42
 72
   -40
 73
    43
  0
VERTEX
  5
F5
  8
GROUPE_1
 10
0.0
 20
0.0
 30
0.0
 70
   128
 71
   -43
 72
   -40
 73
    44
  0
VERTEX
  5
F6
  8
GROUPE_1
 10
0.0
 20
0.0
 30
0.0
 70
   128
 71
   -44
 72
   -40
 73
    45
  0
VERTEX
  5
F7
  8
GROUPE_1
 10
0.0
 20
0.0
 30
0.0
 70
   128
 71
   -45
 72
   -40
 73
    46
  0
VERTEX
  5
F8
  8
GROUPE_1
 10
0.0
 20
0.0
 30
0.0
 70
   128
 71
   -46
 72
   -40
 73
    47
  0
VERTEX
  5
F9
  8
GROUPE_1
 10
0.0
 20
0.0
 30
0.0
 70
   128
 71
   -47
 72
    40
 73
   -48
  0
VERTEX
  5
FA
  8
GROUPE_1
 10
0.0
 20
0.0
 30
0.0
 70
   128
 71
   -47
 72
   -48
 73
    49
  0
VERTEX
  5
FB
  8
GROUPE_1
 10
0.0
 20
0.0
 30
0.0
 70
   128
 71
   -49
 72
   -48
 73
    50
  0
VERTEX
  5
FC
  8
GROUPE_1
 10
0.0
 20
0.0
 30
0.0
 70
   128
 71
   -50
 72
   -48
 73
    51
  0
VERTEX
  5
FD
  8
GROUPE_1
 10
0.0
 20
0.0
 30
0.0
 70
   128
 71
   -51
 72
   -48
 73
    52
  0
VERTEX
  5
FE
  8
GROUPE_1
 10
0.0
 20
0.0
 30
0.0
 70
   128
 71
   -52
 72
   -48
 73
    53
  0
VERTEX
  5
FF
  8
GROUPE_1
 10
0.0
 20
0.0
 30
0.0
 70
   128
 71
   -53
 72
   -48
 73
    54
  0
VERTEX
  5
100
  8
GROUPE_1
 10
0.0
 20
0.0
 30
0.0
 70
   128
 71
   -54
 72
   -48
 73
   -55
  0
VERTEX
  5
101
  8
GROUPE_1
 10
0.0
 20
0.0
 30
0.0
 70
   128
 71
   -54
 72
    55
 73
   -56
  0
VERTEX
  5
102
  8
GROUPE_1
 10
0.0
 20
0.0
 30
0.0
 70
   128
 71
   -54
 72
    56
 73
   -57
  0
VERTEX
  5
103
  8
GROUPE_1
 10
0.0
 20
0.0
 30
0.0
 70
   128
 71
   -54
 72
    57
 73
   -58
  0
VERTEX
  5
104
  8
GROUPE_1
 10
0.0
 20
0.0
 30
0.0
 70
   128
 71
   -54
 72
    58
 73
   -59
  0
VERTEX
  5
105
  8
GROUPE_1
 10
0.0
 20
0.0
 30
0.0
 70
   128
 71
   -54
 72
    59
 73
   -60
  0
VERTEX
  5
106
  8
GROUPE_1
 10
0.0
 20
0.0
 30
0.0
 70
   128
 71
   -54
 72
   -60
 73
   -61
  0
VERTEX
  5
107
  8
GROUPE_1
 10
0.0
 20
0.0
 30
0.0
 70
   128
 71
   -61
 72
    60
 73
   -62
  0
VERTEX
  5
108
  8
GROUPE_1
 10
0.0
 20
0.0
 30
0.0
 70
   128
 71
   -55
 72
   -48
 73
    63
  0
VERTEX
  5
109
  8
GROUPE_1
 10
0.0
 20
0.0
 30
0.0
 70
   128
 71
   -63
 72
   -48
 73
    64
  0
VERTEX
  5
10A
  8
GROUPE_1
 10
0.0
 20
0.0
 30
0.0
 70
   128
 71
   -64
 72
   -48
 73
    65
  0
VERTEX
  5
10B
  8
GROUPE_1
 10
0.0
 20
0.0
 30
0.0
 70
   128
 71
   -65
 72
   -48
 73
    66
  0
VERTEX
  5
10C
  8
GROUPE_1
 10
0.0
 20
0.0
 30
0.0
 70
   128
 71
   -66
 72
   -48
 73
    67
  0
VERTEX
  5
10D
  8
GROUPE_1
 10
0.0
 20
0.0
 30
0.0
 70
   128
 71
   -67
 72
   -48
 73
    68
  0
VERTEX
  5
10E
  8
GROUPE_1
 10
0.0
 20
0.0
 30
0.0
 70
   128
 71
   -68
 72
   -48
 73
   -69
  0
VERTEX
  5
10F
  8
GROUPE_1
 10
0.0
 20
0.0
 30
0.0
 70
   128
 71
   -69
 72
   -48
 73
    -3
  0
VERTEX
  5
110
  8
GROUPE_1
 10
0.0
 20
0.0
 30
0.0
 70
   128
 71
    -3
 72
   -48
 73
    70
  0
VERTEX
  5
111
  8
GROUPE_1
 10
0.0
 20
0.0
 30
0.0
 70
   128
 71
   -70
 72
   -48
 73
    71
  0
VERTEX
  5
112
  8
GROUPE_1
 10
0.0
 20
0.0
 30
0.0
 70
   128
 71
   -71
 72
   -48
 73
    72
  0
VERTEX
  5
113
  8
GROUPE_1
 10
0.0
 20
0.0
 30
0.0
 70
   128
 71
   -72
 72
   -48
 73
    73
  0
VERTEX
  5
114
  8
GROUPE_1
 10
0.0
 20
0.0
 30
0.0
 70
   128
 71
   -73
 72
   -48
 73
    74
  0
VERTEX
  5
115
  8
GROUPE_1
 10
0.0
 20
0.0
 30
0.0
 70
   128
 71
   -74
 72
   -48
 73
    75
  0
VERTEX
  5
116
  8
GROUPE_1
 10
0.0
 20
0.0
 30
0.0
 70
   128
 71
   -75
 72
   -48
 73
    76
  0
VERTEX
  5
117
  8
GROUPE_1
 10
0.0
 20
0.0
 30
0.0
 70
   128
 71
   -76
 72
    48
 73
   -77
  0
VERTEX
  5
118
  8
GROUPE_1
 10
0.0
 20
0.0
 30
0.0
 70
   128
 71
   -76
 72
   -77
 73
    78
  0
VERTEX
  5
119
  8
GROUPE_1
 10
0.0
 20
0.0
 30
0.0
 70
   128
 71
   -78
 72
   -77
 73
    79
  0
VERTEX
  5
11A
  8
GROUPE_1
 10
0.0
 20
0.0
 30
0.0
 70
   128
 71
   -79
 72
   -77
 73
    80
  0
VERTEX
  5
11B
  8
GROUPE_1
 10
0.0
 20
0.0
 30
0.0
 70
   128
 71
   -80
 72
   -77
 73
    81
  0
VERTEX
  5
11C
  8
GROUPE_1
 10
0.0
 20
0.0
 30
0.0
 70
   128
 71
   -81
 72
   -77
 73
    25
  0
VERTEX
  5
11D
  8
GROUPE_1
 10
0.0
 20
0.0
 30
0.0
 70
   128
 71
   -25
 72
   -77
 73
   -82
  0
VERTEX
  5
11E
  8
GROUPE_1
 10
0.0
 20
0.0
 30
0.0
 70
   128
 71
   -82
 72
   -77
 73
    83
  0
VERTEX
  5
11F
  8
GROUPE_1
 10
0.0
 20
0.0
 30
0.0
 70
   128
 71
   -83
 72
    77
 73
   -84
  0
VERTEX
  5
120
  8
GROUPE_1
 10
0.0
 20
0.0
 30
0.0
 70
   128
 71
   -83
 72
   -84
 73
    85
  0
VERTEX
  5
121
  8
GROUPE_1
 10
0.0
 20
0.0
 30
0.0
 70
   128
 71
   -85
 72
    84
 73
   -86
  0
VERTEX
  5
122
  8
GROUPE_1
 10
0.0
 20
0.0
 30
0.0
 70
   128
 71
   -85
 72
    86
 73
   -87
  0
VERTEX
  5
123
  8
GROUPE_1
 10
0.0
 20
0.0
 30
0.0
 70
   128
 71
   -85
 72
   -87
 73
    88
  0
VERTEX
  5
124
  8
GROUPE_1
 10
0.0
 20
0.0
 30
0.0
 70
   128
 71
   -88
 72
    87
 73
   -89
  0
VERTEX
  5
125
  8
GROUPE_1
 10
0.0
 20
0.0
 30
0.0
 70
   128
 71
   -88
 72
   -89
 73
    90
  0
VERTEX
  5
126
  8
GROUPE_1
 10
0.0
 20
0.0
 30
0.0
 70
   128
 71
   -90
 72
    89
 73
   -91
  0
VERTEX
  5
127
  8
GROUPE_1
 10
0.0
 20
0.0
 30
0.0
 70
   128
 71
   -90
 72
    91
 73
    92
  0
VERTEX
  5
128
  8
GROUPE_1
 10
0.0
 20
0.0
 30
0.0
 70
   128
 71
   -37
 72
   -93
 73
    94
  0
VERTEX
  5
129
  8
GROUPE_1
 10
0.0
 20
0.0
 30
0.0
 70
   128
 71
   -93
 72
   -37
 73
    41
  0
VERTEX
  5
12A
  8
GROUPE_1
 10
0.0
 20
0.0
 30
0.0
 70
   128
 71
   -94
 72
    93
 73
   -95
  0
VERTEX
  5
12B
  8
GROUPE_1
 10
0.0
 20
0.0
 30
0.0
 70
   128
 71
   -94
 72
    95
 73
   -96
  0
VERTEX
  5
12C
  8
GROUPE_1
 10
0.0
 20
0.0
 30
0.0
 70
   128
 71
   -94
 72
    96
 73
   -97
  0
VERTEX
  5
12D
  8
GROUPE_1
 10
0.0
 20
0.0
 30
0.0
 70
   128
 71
   -94
 72
    97
 73
   -98
  0
VERTEX
  5
12E
  8
GROUPE_1
 10
0.0
 20
0.0
 30
0.0
 70
   128
 71
   -94
 72
    98
 73
   -99
  0
VERTEX
  5
12F
  8
GROUPE_1
 10
0.0
 20
0.0
 30
0.0
 70
   128
 71
   -94
 72
   -99
 73
   100
  0
VERTEX
  5
130
  8
GROUPE_1
 10
0.0
 20
0.0
 30
0.0
 70
   128
 71
  -100
 72
    99
 73
  -101
  0
VERTEX
  5
131
  8
GROUPE_1
 10
0.0
 20
0.0
 30
0.0
 70
   128
 71
  -100
 72
   101
 73
  -102
  0
VERTEX
  5
132
  8
GROUPE_1
 10
0.0
 20
0.0
 30
0.0
 70
   128
 71
  -100
 72
   102
 73
  -103
  0
VERTEX
  5
133
  8
GROUPE_1
 10
0.0
 20
0.0
 30
0.0
 70
   128
 71
  -100
 72
   103
 73
  -104
  0
VERTEX
  5
134
  8
GROUPE_1
 10
0.0
 20
0.0
 30
0.0
 70
   128
 71
  -100
 72
   104
 73
  -105
  0
VERTEX
  5
135
  8
GROUPE_1
 10
0.0
 20
0.0
 30
0.0
 70
   128
 71
  -100
 72
   105
 73
   -61
  0
VERTEX
  5
136
  8
GROUPE_1
 10
0.0
 20
0.0
 30
0.0
 70
   128
 71
  -100
 72
   -61
 73
  -106
  0
VERTEX
  5
137
  8
GROUPE_1
 10
0.0
 20
0.0
 30
0.0
 70
   128
 71
  -106
 72
   -61
 73
   107
  0
VERTEX
  5
138
  8
GROUPE_1
 10
0.0
 20
0.0
 30
0.0
 70
   128
 71
  -107
 72
   -61
 73
   108
  0
VERTEX
  5
139
  8
GROUPE_1
 10
0.0
 20
0.0
 30
0.0
 70
   128
 71
  -108
 72
   -61
 73
   109
  0
VERTEX
  5
13A
  8
GROUPE_1
 10
0.0
 20
0.0
 30
0.0
 70
   128
 71
  -109
 72
   -61
 73
   110
  0
VERTEX
  5
13B
  8
GROUPE_1
 10
0.0
 20
0.0
 30
0.0
 70
   128
 71
  -110
 72
   -61
 73
   111
  0
VERTEX
  5
13C
  8
GROUPE_1
 10
0.0
 20
0.0
 30
0.0
 70
   128
 71
  -111
 72
   -61
 73
   112
  0
VERTEX
  5
13D
  8
GROUPE_1
 10
0.0
 20
0.0
 30
0.0
 70
   128
 71
  -112
 72
   -61
 73
   -62
  0
VERTEX
  5
13E
  8
GROUPE_1
 10
0.0
 20
0.0
 30
0.0
 70
   128
 71
  -100
 72
   106
 73
  -113
  0
VERTEX
  5
13F
  8
GROUPE_1
 10
0.0
 20
0.0
 30
0.0
 70
   128
 71
  -100
 72
   113
 73
  -114
  0
VERTEX
  5
140
  8
GROUPE_1
 10
0.0
 20
0.0
 30
0.0
 70
   128
 71
  -100
 72
   114
 73
  -115
  0
VERTEX
  5
141
  8
GROUPE_1
 10
0.0
 20
0.0
 30
0.0
 70
   128
 71
  -100
 72
   115
 73
  -116
  0
VERTEX
  5
142
  8
GROUPE_1
 10
0.0
 20
0.0
 30
0.0
 70
   128
 71
  -100
 72
   116
 73
  -117
  0
VERTEX
  5
143
  8
GROUPE_1
 10
0.0
 20
0.0
 30
0.0
 70
   128
 71
  -100
 72
   117
 73
   -69
  0
VERTEX
  5
144
  8
GROUPE_1
 10
0.0
 20
0.0
 30
0.0
 70
   128
 71
  -100
 72
   -69
 73
  -118
  0
VERTEX
  5
145
  8
GROUPE_1
 10
0.0
 20
0.0
 30
0.0
 70
   128
 71
  -118
 72
   -69
 73
     2
  0
VERTEX
  5
146
  8
GROUPE_1
 10
0.0
 20
0.0
 30
0.0
 70
   128
 71
    -2
 72
   -69
 73
    -3
  0
VERTEX
  5
147
  8
GROUPE_1
 10
0.0
 20
0.0
 30
0.0
 70
   128
 71
  -100
 72
   118
 73
  -119
  0
VERTEX
  5
148
  8
GROUPE_1
 10
0.0
 20
0.0
 30
0.0
 70
   128
 71
  -100
 72
   119
 73
  -120
  0
VERTEX
  5
149
  8
GROUPE_1
 10
0.0
 20
0.0
 30
0.0
 70
   128
 71
  -100
 72
   120
 73
  -121
  0
VERTEX
  5
14A
  8
GROUPE_1
 10
0.0
 20
0.0
 30
0.0
 70
   128
 71
  -100
 72
   121
 73
  -122
  0
VERTEX
  5
14B
  8
GROUPE_1
 10
0.0
 20
0.0
 30
0.0
 70
   128
 71
  -100
 72
   122
 73
  -123
  0
VERTEX
  5
14C
  8
GROUPE_1
 10
0.0
 20
0.0
 30
0.0
 70
   128
 71
  -100
 72
   123
 73
  -124
  0
VERTEX
  5
14D
  8
GROUPE_1
 10
0.0
 20
0.0
 30
0.0
 70
   128
 71
  -100
 72
  -124
 73
    82
  0
VERTEX
  5
14E
  8
GROUPE_1
 10
0.0
 20
0.0
 30
0.0
 70
   128
 71
   -82
 72
   124
 73
  -125
  0
VERTEX
  5
14F
  8
GROUPE_1
 10
0.0
 20
0.0
 30
0.0
 70
   128
 71
   -82
 72
   125
 73
  -126
  0
VERTEX
  5
150
  8
GROUPE_1
 10
0.0
 20
0.0
 30
0.0
 70
   128
 71
   -82
 72
   126
 73
  -127
  0
VERTEX
  5
151
  8
GROUPE_1
 10
0.0
 20
0.0
 30
0.0
 70
   128
 71
   -82
 72
   127
 73
  -128
  0
VERTEX
  5
152
  8
GROUPE_1
 10
0.0
 20
0.0
 30
0.0
 70
   128
 71
   -82
 72
   128
 73
   -26
  0
VERTEX
  5
153
  8
GROUPE_1
 10
0.0
 20
0.0
 30
0.0
 70
   128
 71
   -82
 72
   -26
 73
   -25
  0
VERTEX
  5
154
  8
GROUPE_1
 10
0.0
 20
0.0
 30
0.0
 70
   128
 71
  -129
 72
  -112
 73
    62
  0
VERTEX
  5
155
  8
GROUPE_1
 10
0.0
 20
0.0
 30
0.0
 70
   128
 71
  -112
 72
  -129
 73
   130
  0
VERTEX
  5
156
  8
GROUPE_1
 10
0.0
 20
0.0
 30
0.0
 70
   128
 71
  -130
 72
   129
 73
  -131
  0
VERTEX
  5
157
  8
GROUPE_1
 10
0.0
 20
0.0
 30
0.0
 70
   128
 71
  -130
 72
  -131
 73
   132
  0
VERTEX
  5
158
  8
GROUPE_1
 10
0.0
 20
0.0
 30
0.0
 70
   128
 71
  -132
 72
   131
 73
  -133
  0
VERTEX
  5
159
  8
GROUPE_1
 10
0.0
 20
0.0
 30
0.0
 70
   128
 71
  -132
 72
  -133
 73
   134
  0
VERTEX
  5
15A
  8
GROUPE_1
 10
0.0
 20
0.0
 30
0.0
 70
   128
 71
  -134
 72
   133
 73
  -135
  0
VERTEX
  5
15B
  8
GROUPE_1
 10
0.0
 20
0.0
 30
0.0
 70
   128
 71
  -134
 72
  -135
 73
   136
  0
VERTEX
  5
15C
  8
GROUPE_1
 10
0.0
 20
0.0
 30
0.0
 70
   128
 71
  -136
 72
   135
 73
  -137
  0
VERTEX
  5
15D
  8
GROUPE_1
 10
0.0
 20
0.0
 30
0.0
 70
   128
 71
  -136
 72
  -137
 73
   138
  0
VERTEX
  5
15E
  8
GROUPE_1
 10
0.0
 20
0.0
 30
0.0
 70
   128
 71
  -138
 72
   137
 73
  -139
  0
VERTEX
  5
15F
  8
GROUPE_1
 10
0.0
 20
0.0
 30
0.0
 70
   128
 71
  -138
 72
  -139
 73
   140
  0
VERTEX
  5
160
  8
GROUPE_1
 10
0.0
 20
0.0
 30
0.0
 70
   128
 71
  -140
 72
   139
 73
  -141
  0
VERTEX
  5
161
  8
GROUPE_1
 10
0.0
 20
0.0
 30
0.0
 70
   128
 71
  -140
 72
  -141
 73
   142
  0
VERTEX
  5
162
  8
GROUPE_1
 10
0.0
 20
0.0
 30
0.0
 70
   128
 71
  -142
 72
   141
 73
  -143
  0
VERTEX
  5
163
  8
GROUPE_1
 10
0.0
 20
0.0
 30
0.0
 70
   128
 71
  -142
 72
  -143
 73
   144
  0
VERTEX
  5
164
  8
GROUPE_1
 10
0.0
 20
0.0
 30
0.0
 70
   128
 71
  -144
 72
   143
 73
  -145
  0
VERTEX
  5
165
  8
GROUPE_1
 10
0.0
 20
0.0
 30
0.0
 70
   128
 71
  -144
 72
  -145
 73
   146
  0
VERTEX
  5
166
  8
GROUPE_1
 10
0.0
 20
0.0
 30
0.0
 70
   128
 71
  -146
 72
   145
 73
  -147
  0
VERTEX
  5
167
  8
GROUPE_1
 10
0.0
 20
0.0
 30
0.0
 70
   128
 71
  -146
 72
  -147
 73
   148
  0
VERTEX
  5
168
  8
GROUPE_1
 10
0.0
 20
0.0
 30
0.0
 70
   128
 71
  -148
 72
   147
 73
  -149
  0
VERTEX
  5
169
  8
GROUPE_1
 10
0.0
 20
0.0
 30
0.0
 70
   128
 71
  -148
 72
  -149
 73
   150
  0
VERTEX
  5
16A
  8
GROUPE_1
 10
0.0
 20
0.0
 30
0.0
 70
   128
 71
  -150
 72
   149
 73
   -68
  0
VERTEX
  5
16B
  8
GROUPE_1
 10
0.0
 20
0.0
 30
0.0
 70
   128
 71
  -150
 72
   -68
 73
    69
  0
VERTEX
  5
16C
  8
GROUPE_1
 10
0.0
 20
0.0
 30
0.0
 70
   128
 71
   -39
 72
   151
 73
   -41
  0
VERTEX
  5
16D
  8
GROUPE_1
 10
0.0
 20
0.0
 30
0.0
 70
   128
 71
  -151
 72
    39
 73
  -152
  0
VERTEX
  5
16E
  8
GROUPE_1
 10
0.0
 20
0.0
 30
0.0
 70
   128
 71
  -151
 72
   152
 73
  -153
  0
VERTEX
  5
16F
  8
GROUPE_1
 10
0.0
 20
0.0
 30
0.0
 70
   128
 71
  -151
 72
  -153
 73
   154
  0
VERTEX
  5
170
  8
GROUPE_1
 10
0.0
 20
0.0
 30
0.0
 70
   128
 71
  -154
 72
   153
 73
  -155
  0
VERTEX
  5
171
  8
GROUPE_1
 10
0.0
 20
0.0
 30
0.0
 70
   128
 71
  -154
 72
  -155
 73
   156
  0
VERTEX
  5
172
  8
GROUPE_1
 10
0.0
 20
0.0
 30
0.0
 70
   128
 71
  -156
 72
   155
 73
  -157
  0
VERTEX
  5
173
  8
GROUPE_1
 10
0.0
 20
0.0
 30
0.0
 70
   128
 71
  -156
 72
  -157
 73
   158
  0
VERTEX
  5
174
  8
GROUPE_1
 10
0.0
 20
0.0
 30
0.0
 70
   128
 71
  -158
 72
   157
 73
  -159
  0
VERTEX
  5
175
  8
GROUPE_1
 10
0.0
 20
0.0
 30
0.0
 70
   128
 71
  -158
 72
  -159
 73
   160
  0
VERTEX
  5
176
  8
GROUPE_1
 10
0.0
 20
0.0
 30
0.0
 70
   128
 71
  -160
 72
   159
 73
  -161
  0
VERTEX
  5
177
  8
GROUPE_1
 10
0.0
 20
0.0
 30
0.0
 70
   128
 71
  -160
 72
  -161
 73
   162
  0
VERTEX
  5
178
  8
GROUPE_1
 10
0.0
 20
0.0
 30
0.0
 70
   128
 71
  -162
 72
   161
 73
  -163
  0
VERTEX
  5
179
  8
GROUPE_1
 10
0.0
 20
0.0
 30
0.0
 70
   128
 71
  -162
 72
  -163
 73
   164
  0
VERTEX
  5
17A
  8
GROUPE_1
 10
0.0
 20
0.0
 30
0.0
 70
   128
 71
  -164
 72
   163
 73
  -165
  0
VERTEX
  5
17B
  8
GROUPE_1
 10
0.0
 20
0.0
 30
0.0
 70
   128
 71
  -164
 72
  -165
 73
   166
  0
VERTEX
  5
17C
  8
GROUPE_1
 10
0.0
 20
0.0
 30
0.0
 70
   128
 71
  -166
 72
   165
 73
  -167
  0
VERTEX
  5
17D
  8
GROUPE_1
 10
0.0
 20
0.0
 30
0.0
 70
   128
 71
  -166
 72
  -167
 73
   168
  0
VERTEX
  5
17E
  8
GROUPE_1
 10
0.0
 20
0.0
 30
0.0
 70
   128
 71
  -168
 72
   167
 73
  -169
  0
VERTEX
  5
17F
  8
GROUPE_1
 10
0.0
 20
0.0
 30
0.0
 70
   128
 71
  -168
 72
  -169
 73
   170
  0
VERTEX
  5
180
  8
GROUPE_1
 10
0.0
 20
0.0
 30
0.0
 70
   128
 71
  -170
 72
   169
 73
  -171
  0
VERTEX
  5
181
  8
GROUPE_1
 10
0.0
 20
0.0
 30
0.0
 70
   128
 71
  -170
 72
  -171
 73
   172
  0
VERTEX
  5
182
  8
GROUPE_1
 10
0.0
 20
0.0
 30
0.0
 70
   128
 71
  -172
 72
   171
 73
   -54
  0
VERTEX
  5
183
  8
GROUPE_1
 10
0.0
 20
0.0
 30
0.0
 70
   128
 71
  -172
 72
   -54
 73
    61
  0
SEQEND
  5
184
  8
GROUPE_1
  0
ENDSEC
  0
EOF
