  0
SECTION
  2
HEADER
  9
$ACADVER
  1
AC1024
  9
$ACADMAINTVER
 70
     6
  9
$DWGCODEPAGE
  3
ANSI_1252
  9
$LASTSAVEDBY
  1
solux
  9
$INSBASE
 10
0.0
 20
0.0
 30
0.0
  9
$EXTMIN
 10
-54.16676473041967
 20
-51.86108792269307
 30
-0.0000000000000902
  9
$EXTMAX
 10
220.0
 20
260.25714698107
 30
0.0000000000000902
  9
$LIMMIN
 10
0.0
 20
0.0
  9
$LIMMAX
 10
12.0
 20
9.0
  9
$ORTHOMODE
 70
     0
  9
$REGENMODE
 70
     1
  9
$FILLMODE
 70
     1
  9
$QTEXTMODE
 70
     0
  9
$MIRRTEXT
 70
     1
  9
$LTSCALE
 40
1.0
  9
$ATTMODE
 70
     1
  9
$TEXTSIZE
 40
0.2
  9
$TRACEWID
 40
0.05
  9
$TEXTSTYLE
  7
Standard
  9
$CLAYER
  8
0
  9
$CELTYPE
  6
ByBlock
  9
$CECOLOR
 62
   256
  9
$CELTSCALE
 40
1.0
  9
$DISPSILH
 70
     0
  9
$DIMSCALE
 40
1.0
  9
$DIMASZ
 40
0.18
  9
$DIMEXO
 40
0.0625
  9
$DIMDLI
 40
0.38
  9
$DIMRND
 40
0.0
  9
$DIMDLE
 40
0.0
  9
$DIMEXE
 40
0.18
  9
$DIMTP
 40
0.0
  9
$DIMTM
 40
0.0
  9
$DIMTXT
 40
0.18
  9
$DIMCEN
 40
0.09
  9
$DIMTSZ
 40
0.0
  9
$DIMTOL
 70
     0
  9
$DIMLIM
 70
     0
  9
$DIMTIH
 70
     1
  9
$DIMTOH
 70
     1
  9
$DIMSE1
 70
     0
  9
$DIMSE2
 70
     0
  9
$DIMTAD
 70
     0
  9
$DIMZIN
 70
     0
  9
$DIMBLK
  1

  9
$DIMASO
 70
     1
  9
$DIMSHO
 70
     1
  9
$DIMPOST
  1

  9
$DIMAPOST
  1

  9
$DIMALT
 70
     0
  9
$DIMALTD
 70
     2
  9
$DIMALTF
 40
25.4
  9
$DIMLFAC
 40
1.0
  9
$DIMTOFL
 70
     0
  9
$DIMTVP
 40
0.0
  9
$DIMTIX
 70
     0
  9
$DIMSOXD
 70
     0
  9
$DIMSAH
 70
     0
  9
$DIMBLK1
  1

  9
$DIMBLK2
  1

  9
$DIMSTYLE
  2
Standard
  9
$DIMCLRD
 70
     0
  9
$DIMCLRE
 70
     0
  9
$DIMCLRT
 70
     0
  9
$DIMTFAC
 40
1.0
  9
$DIMGAP
 40
0.09
  9
$DIMJUST
 70
     0
  9
$DIMSD1
 70
     0
  9
$DIMSD2
 70
     0
  9
$DIMTOLJ
 70
     1
  9
$DIMTZIN
 70
     0
  9
$DIMALTZ
 70
     0
  9
$DIMALTTZ
 70
     0
  9
$DIMUPT
 70
     0
  9
$DIMDEC
 70
     4
  9
$DIMTDEC
 70
     4
  9
$DIMALTU
 70
     2
  9
$DIMALTTD
 70
     2
  9
$DIMTXSTY
  7
Standard
  9
$DIMAUNIT
 70
     0
  9
$DIMADEC
 70
     0
  9
$DIMALTRND
 40
0.0
  9
$DIMAZIN
 70
     0
  9
$DIMDSEP
 70
    46
  9
$DIMATFIT
 70
     3
  9
$DIMFRAC
 70
     0
  9
$DIMLDRBLK
  1

  9
$DIMLUNIT
 70
     2
  9
$DIMLWD
 70
    -2
  9
$DIMLWE
 70
    -2
  9
$DIMTMOVE
 70
     2
  9
$DIMFXL
 40
1.0
  9
$DIMFXLON
 70
     0
  9
$DIMJOGANG
 40
0.7853981633974483
  9
$DIMTFILL
 70
     0
  9
$DIMTFILLCLR
 70
     0
  9
$DIMARCSYM
 70
     0
  9
$DIMLTYPE
  6

  9
$DIMLTEX1
  6

  9
$DIMLTEX2
  6

  9
$DIMTXTDIRECTION
 70
     0
  9
$LUNITS
 70
     2
  9
$LUPREC
 70
     4
  9
$SKETCHINC
 40
0.1
  9
$FILLETRAD
 40
0.5
  9
$AUNITS
 70
     0
  9
$AUPREC
 70
     0
  9
$MENU
  1
.
  9
$ELEVATION
 40
0.0
  9
$PELEVATION
 40
0.0
  9
$THICKNESS
 40
0.0
  9
$LIMCHECK
 70
     0
  9
$CHAMFERA
 40
0.5
  9
$CHAMFERB
 40
0.5
  9
$CHAMFERC
 40
1.0
  9
$CHAMFERD
 40
0.0
  9
$SKPOLY
 70
     0
  9
$TDCREATE
 40
2456533.300166377
  9
$TDUCREATE
 40
2456533.258499711
  9
$TDUPDATE
 40
2456643.62353581
  9
$TDUUPDATE
 40
2456643.581869144
  9
$TDINDWG
 40
0.0000000116
  9
$TDUSRTIMER
 40
2456643.581594259
  9
$USRTIMER
 70
     1
  9
$ANGBASE
 50
0.0
  9
$ANGDIR
 70
     0
  9
$PDMODE
 70
     0
  9
$PDSIZE
 40
0.0
  9
$PLINEWID
 40
0.0
  9
$SPLFRAME
 70
     0
  9
$SPLINETYPE
 70
     6
  9
$SPLINESEGS
 70
     8
  9
$HANDSEED
  5
165
  9
$SURFTAB1
 70
     6
  9
$SURFTAB2
 70
     6
  9
$SURFTYPE
 70
     6
  9
$SURFU
 70
     6
  9
$SURFV
 70
     6
  9
$UCSBASE
  2

  9
$UCSNAME
  2

  9
$UCSORG
 10
0.0
 20
0.0
 30
0.0
  9
$UCSXDIR
 10
1.0
 20
0.0
 30
0.0
  9
$UCSYDIR
 10
0.0
 20
1.0
 30
0.0
  9
$UCSORTHOREF
  2

  9
$UCSORTHOVIEW
 70
     0
  9
$UCSORGTOP
 10
0.0
 20
0.0
 30
0.0
  9
$UCSORGBOTTOM
 10
0.0
 20
0.0
 30
0.0
  9
$UCSORGLEFT
 10
0.0
 20
0.0
 30
0.0
  9
$UCSORGRIGHT
 10
0.0
 20
0.0
 30
0.0
  9
$UCSORGFRONT
 10
0.0
 20
0.0
 30
0.0
  9
$UCSORGBACK
 10
0.0
 20
0.0
 30
0.0
  9
$PUCSBASE
  2

  9
$PUCSNAME
  2

  9
$PUCSORG
 10
0.0
 20
0.0
 30
0.0
  9
$PUCSXDIR
 10
1.0
 20
0.0
 30
0.0
  9
$PUCSYDIR
 10
0.0
 20
1.0
 30
0.0
  9
$PUCSORTHOREF
  2

  9
$PUCSORTHOVIEW
 70
     0
  9
$PUCSORGTOP
 10
0.0
 20
0.0
 30
0.0
  9
$PUCSORGBOTTOM
 10
0.0
 20
0.0
 30
0.0
  9
$PUCSORGLEFT
 10
0.0
 20
0.0
 30
0.0
  9
$PUCSORGRIGHT
 10
0.0
 20
0.0
 30
0.0
  9
$PUCSORGFRONT
 10
0.0
 20
0.0
 30
0.0
  9
$PUCSORGBACK
 10
0.0
 20
0.0
 30
0.0
  9
$USERI1
 70
     0
  9
$USERI2
 70
     0
  9
$USERI3
 70
     0
  9
$USERI4
 70
     0
  9
$USERI5
 70
     0
  9
$USERR1
 40
0.0
  9
$USERR2
 40
0.0
  9
$USERR3
 40
0.0
  9
$USERR4
 40
0.0
  9
$USERR5
 40
0.0
  9
$WORLDVIEW
 70
     1
  9
$SHADEDGE
 70
     3
  9
$SHADEDIF
 70
    70
  9
$TILEMODE
 70
     1
  9
$MAXACTVP
 70
    64
  9
$PINSBASE
 10
0.0
 20
0.0
 30
0.0
  9
$PLIMCHECK
 70
     0
  9
$PEXTMIN
 10
1.05
 20
0.7999999999999998
 30
0.0
  9
$PEXTMAX
 10
9.45
 20
7.2
 30
0.0
  9
$PLIMMIN
 10
-0.25
 20
-0.25
  9
$PLIMMAX
 10
10.75
 20
8.25
  9
$UNITMODE
 70
     0
  9
$VISRETAIN
 70
     1
  9
$PLINEGEN
 70
     0
  9
$PSLTSCALE
 70
     1
  9
$TREEDEPTH
 70
  3020
  9
$CMLSTYLE
  2
Standard
  9
$CMLJUST
 70
     0
  9
$CMLSCALE
 40
1.0
  9
$PROXYGRAPHICS
 70
     1
  9
$MEASUREMENT
 70
     0
  9
$CELWEIGHT
370
    -1
  9
$ENDCAPS
280
     0
  9
$JOINSTYLE
280
     0
  9
$LWDISPLAY
290
     0
  9
$INSUNITS
 70
     0
  9
$HYPERLINKBASE
  1

  9
$STYLESHEET
  1

  9
$XEDIT
290
     1
  9
$CEPSNTYPE
380
     0
  9
$PSTYLEMODE
290
     1
  9
$FINGERPRINTGUID
  2
{F9BB5CE7-CC46-4BF6-8921-25B9B96216F1}
  9
$VERSIONGUID
  2
{FAEB1C32-E019-11D5-929B-00C0DF256EC4}
  9
$EXTNAMES
290
     1
  9
$PSVPSCALE
 40
0.0
  9
$OLESTARTUP
290
     0
  9
$SORTENTS
280
   127
  9
$INDEXCTL
280
     0
  9
$HIDETEXT
280
     1
  9
$XCLIPFRAME
280
     2
  9
$HALOGAP
280
     0
  9
$OBSCOLOR
 70
   257
  9
$OBSLTYPE
280
     0
  9
$INTERSECTIONDISPLAY
280
     0
  9
$INTERSECTIONCOLOR
 70
   257
  9
$DIMASSOC
280
     2
  9
$PROJECTNAME
  1

  9
$CAMERADISPLAY
290
     0
  9
$LENSLENGTH
 40
50.0
  9
$CAMERAHEIGHT
 40
0.0
  9
$STEPSPERSEC
 40
2.0
  9
$STEPSIZE
 40
6.0
  9
$3DDWFPREC
 40
2.0
  9
$PSOLWIDTH
 40
0.25
  9
$PSOLHEIGHT
 40
4.0
  9
$LOFTANG1
 40
1.570796326794897
  9
$LOFTANG2
 40
1.570796326794897
  9
$LOFTMAG1
 40
0.0
  9
$LOFTMAG2
 40
0.0
  9
$LOFTPARAM
 70
     7
  9
$LOFTNORMALS
280
     1
  9
$LATITUDE
 40
37.795
  9
$LONGITUDE
 40
-122.394
  9
$NORTHDIRECTION
 40
0.0
  9
$TIMEZONE
 70
 -8000
  9
$LIGHTGLYPHDISPLAY
280
     1
  9
$TILEMODELIGHTSYNCH
280
     1
  9
$SOLIDHIST
280
     1
  9
$SHOWHIST
280
     1
  9
$DWFFRAME
280
     2
  9
$DGNFRAME
280
     2
  9
$REALWORLDSCALE
290
     1
  9
$INTERFERECOLOR
 62
   256
  9
$CSHADOW
280
     0
  9
$SHADOWPLANELOCATION
 40
0.0
  0
ENDSEC
  0
SECTION
  2
CLASSES
  0
CLASS
  1
ACDBDICTIONARYWDFLT
  2
AcDbDictionaryWithDefault
  3
ObjectDBX Classes
 90
        0
 91
        4
280
     0
281
     0
  0
CLASS
  1
SCALE
  2
AcDbScale
  3
ObjectDBX Classes
 90
     1153
 91
        4
280
     0
281
     0
  0
CLASS
  1
MATERIAL
  2
AcDbMaterial
  3
ObjectDBX Classes
 90
     1153
 91
        4
280
     0
281
     0
  0
CLASS
  1
VISUALSTYLE
  2
AcDbVisualStyle
  3
ObjectDBX Classes
 90
     4095
 91
        4
280
     0
281
     0
  0
CLASS
  1
TABLESTYLE
  2
AcDbTableStyle
  3
ObjectDBX Classes
 90
     4095
 91
        4
280
     0
281
     0
  0
CLASS
  1
RASTERVARIABLES
  2
AcDbRasterVariables
  3
ISM
 90
        0
 91
        4
280
     0
281
     0
  0
CLASS
  1
DIMASSOC
  2
AcDbDimAssoc
  3
"AcDbDimAssoc|Product Desc:     AcDim ARX App For Dimension|Company:          Autodesk, Inc.|WEB Address:      www.autodesk.com"
 90
        0
 91
        4
280
     0
281
     0
  0
CLASS
  1
DICTIONARYVAR
  2
AcDbDictionaryVar
  3
ObjectDBX Classes
 90
        0
 91
        4
280
     0
281
     0
  0
CLASS
  1
CELLSTYLEMAP
  2
AcDbCellStyleMap
  3
ObjectDBX Classes
 90
     1152
 91
        4
280
     0
281
     0
  0
ENDSEC
  0
SECTION
  2
TABLES
  0
TABLE
  2
VPORT
  5
8
330
0
100
AcDbSymbolTable
 70
     1
  0
VPORT
  5
E2
330
8
100
AcDbSymbolTableRecord
100
AcDbViewportTableRecord
  2
*Active
 70
     0
 10
0.0
 20
0.0
 11
1.0
 21
1.0
 12
252.792928937793
 22
117.0511957724511
 13
0.0
 23
0.0
 14
0.5
 24
0.5
 15
0.5
 25
0.5
 16
0.0
 26
0.0
 36
1.0
 17
0.0
 27
0.0
 37
0.0
 40
344.2867612409513
 41
1.731829573934837
 42
50.0
 43
0.0
 44
0.0
 50
0.0
 51
0.0
 71
    16
 72
   100
 73
     1
 74
     3
 75
     0
 76
     0
 77
     0
 78
     0
281
     0
 65
     1
110
0.0
120
0.0
130
0.0
111
1.0
121
0.0
131
0.0
112
0.0
122
1.0
132
0.0
 79
     0
146
0.0
 60
     3
 61
     5
292
     1
282
     1
141
0.0
142
0.0
 63
   250
  0
ENDTAB
  0
TABLE
  2
LTYPE
  5
5
330
0
100
AcDbSymbolTable
 70
     1
  0
LTYPE
  5
14
330
5
100
AcDbSymbolTableRecord
100
AcDbLinetypeTableRecord
  2
ByBlock
 70
     0
  3

 72
    65
 73
     0
 40
0.0
  0
LTYPE
  5
15
330
5
100
AcDbSymbolTableRecord
100
AcDbLinetypeTableRecord
  2
ByLayer
 70
     0
  3

 72
    65
 73
     0
 40
0.0
  0
LTYPE
  5
16
330
5
100
AcDbSymbolTableRecord
100
AcDbLinetypeTableRecord
  2
Continuous
 70
     0
  3
Solid line
 72
    65
 73
     0
 40
0.0
  0
ENDTAB
  0
TABLE
  2
LAYER
  5
2
330
0
100
AcDbSymbolTable
 70
     4
  0
LAYER
  5
10
330
2
100
AcDbSymbolTableRecord
100
AcDbLayerTableRecord
  2
0
 70
     0
 62
     7
  6
Continuous
370
    -3
390
F
347
10E
  0
LAYER
  5
E3
330
2
100
AcDbSymbolTableRecord
100
AcDbLayerTableRecord
  2
MY3DLAYER
 70
     0
 62
     7
  6
Continuous
370
    -3
390
F
347
10E
  0
LAYER
  5
E4
330
2
100
AcDbSymbolTableRecord
100
AcDbLayerTableRecord
  2
Layer0
 70
     0
 62
     7
  6
Continuous
370
    -3
390
F
347
10E
  0
LAYER
  5
124
330
2
100
AcDbSymbolTableRecord
100
AcDbLayerTableRecord
  2
Defpoints
 70
     0
 62
     7
  6
Continuous
290
     0
370
    -3
390
F
347
10E
  0
ENDTAB
  0
TABLE
  2
STYLE
  5
3
330
0
100
AcDbSymbolTable
 70
     1
  0
STYLE
  5
11
330
3
100
AcDbSymbolTableRecord
100
AcDbTextStyleTableRecord
  2
Standard
 70
     0
 40
0.0
 41
1.0
 50
0.0
 71
     0
 42
0.2
  3
txt
  4

  0
ENDTAB
  0
TABLE
  2
VIEW
  5
6
330
0
100
AcDbSymbolTable
 70
     0
  0
ENDTAB
  0
TABLE
  2
UCS
  5
7
330
0
100
AcDbSymbolTable
 70
     0
  0
ENDTAB
  0
TABLE
  2
APPID
  5
9
330
0
100
AcDbSymbolTable
 70
     1
  0
APPID
  5
12
330
9
100
AcDbSymbolTableRecord
100
AcDbRegAppTableRecord
  2
ACAD
 70
     0
  0
ENDTAB
  0
TABLE
  2
DIMSTYLE
  5
A
330
0
100
AcDbSymbolTable
 70
     1
100
AcDbDimStyleTable
  0
DIMSTYLE
105
20
330
A
100
AcDbSymbolTableRecord
100
AcDbDimStyleTableRecord
  2
Standard
 70
     0
178
     0
340
11
  0
ENDTAB
  0
TABLE
  2
BLOCK_RECORD
  5
1
330
0
100
AcDbSymbolTable
 70
     3
  0
BLOCK_RECORD
  5
1D
330
1
100
AcDbSymbolTableRecord
100
AcDbBlockTableRecord
  2
*Model_Space
340
1E
 70
     0
280
     1
281
     0
  0
BLOCK_RECORD
  5
1B
330
1
100
AcDbSymbolTableRecord
100
AcDbBlockTableRecord
  2
*Paper_Space
340
1C
 70
     0
280
     1
281
     0
  0
BLOCK_RECORD
  5
128
330
1
100
AcDbSymbolTableRecord
100
AcDbBlockTableRecord
  2
*D0
340
0
 70
     0
280
     1
281
     0
  0
BLOCK_RECORD
  5
138
330
1
100
AcDbSymbolTableRecord
100
AcDbBlockTableRecord
  2
*D1
340
0
 70
     0
280
     1
281
     0
  0
BLOCK_RECORD
  5
154
330
1
100
AcDbSymbolTableRecord
100
AcDbBlockTableRecord
  2
*D2
340
0
 70
     0
280
     1
281
     0
  0
ENDTAB
  0
ENDSEC
  0
SECTION
  2
BLOCKS
  0
BLOCK
  5
E7
330
1D
100
AcDbEntity
  8
0
100
AcDbBlockBegin
  2
*Model_Space
 70
     0
 10
0.0
 20
0.0
 30
0.0
  3
*Model_Space
  1

  0
ENDBLK
  5
E8
330
1D
100
AcDbEntity
  8
0
100
AcDbBlockEnd
  0
BLOCK
  5
E5
330
1B
100
AcDbEntity
 67
     1
  8
0
100
AcDbBlockBegin
  2
*Paper_Space
 70
     0
 10
0.0
 20
0.0
 30
0.0
  3
*Paper_Space
  1

  0
ENDBLK
  5
E6
330
1B
100
AcDbEntity
 67
     1
  8
0
100
AcDbBlockEnd
  0
BLOCK
  5
133
330
128
100
AcDbEntity
  8
0
100
AcDbBlockBegin
  2
*D0
 70
     1
 10
0.0
 20
0.0
 30
0.0
  3
*D0
  1

  0
LINE
  5
129
330
128
100
AcDbEntity
  8
0
  6
ByBlock
 62
     0
370
    -2
100
AcDbLine
 10
0.0
 20
10.19464698106981
 30
0.0
 11
0.0
 21
-51.86108792269307
 31
0.0
  0
LINE
  5
12A
330
128
100
AcDbEntity
  8
0
  6
ByBlock
 62
     0
370
    -2
100
AcDbLine
 10
220.0
 20
10.19464698106981
 30
0.0
 11
220.0
 21
-51.86108792269307
 31
0.0
  0
LINE
  5
12B
330
128
100
AcDbEntity
  8
0
  6
ByBlock
 62
     0
370
    -2
100
AcDbLine
 10
0.18
 20
-51.68108792269307
 30
0.0
 11
109.355
 21
-51.68108792269307
 31
0.0
  0
LINE
  5
12C
330
128
100
AcDbEntity
  8
0
  6
ByBlock
 62
     0
370
    -2
100
AcDbLine
 10
219.82
 20
-51.68108792269307
 30
0.0
 11
110.645
 21
-51.68108792269307
 31
0.0
  0
SOLID
  5
12D
330
128
100
AcDbEntity
  8
0
 62
     0
100
AcDbTrace
 10
0.18
 20
-51.65108792269307
 30
0.0
 11
0.18
 21
-51.71108792269307
 31
0.0
 12
0.0
 22
-51.68108792269307
 32
0.0
 13
0.0
 23
-51.68108792269307
 33
0.0
  0
SOLID
  5
12E
330
128
100
AcDbEntity
  8
0
 62
     0
100
AcDbTrace
 10
219.82
 20
-51.71108792269307
 30
0.0
 11
219.82
 21
-51.65108792269307
 31
0.0
 12
220.0
 22
-51.68108792269307
 32
0.0
 13
220.0
 23
-51.68108792269307
 33
0.0
  0
MTEXT
  5
12F
330
128
100
AcDbEntity
  8
0
  6
ByBlock
 62
     0
100
AcDbMText
 10
110.0
 20
-51.68108792269307
 30
0.0
 40
0.18
 41
0.0
 46
0.0
 71
     5
 72
     1
  1
\A1;220.0000
 73
     1
 44
1.0
  0
POINT
  5
130
330
128
100
AcDbEntity
  8
Defpoints
 62
     0
100
AcDbPoint
 10
0.0
 20
10.25714698106981
 30
0.0
  0
POINT
  5
131
330
128
100
AcDbEntity
  8
Defpoints
 62
     0
100
AcDbPoint
 10
220.0
 20
10.25714698106981
 30
0.0
  0
POINT
  5
132
330
128
100
AcDbEntity
  8
Defpoints
 62
     0
100
AcDbPoint
 10
220.0
 20
-51.68108792269307
 30
0.0
  0
ENDBLK
  5
134
330
128
100
AcDbEntity
  8
0
100
AcDbBlockEnd
  0
BLOCK
  5
143
330
138
100
AcDbEntity
  8
0
100
AcDbBlockBegin
  2
*D1
 70
     1
 10
0.0
 20
0.0
 30
0.0
  3
*D1
  1

  0
LINE
  5
139
330
138
100
AcDbEntity
  8
0
  6
ByBlock
 62
     0
370
    -2
100
AcDbLine
 10
109.9375
 20
260.25714698107
 30
0.0
 11
-53.79176473041966
 21
260.25714698107
 31
0.0
  0
LINE
  5
13A
330
138
100
AcDbEntity
  8
0
  6
ByBlock
 62
     0
370
    -2
100
AcDbLine
 10
109.9375
 20
0.257146981069735
 30
0.0
 11
-53.79176473041968
 21
0.257146981069745
 31
0.0
  0
LINE
  5
13B
330
138
100
AcDbEntity
  8
0
  6
ByBlock
 62
     0
370
    -2
100
AcDbLine
 10
-53.61176473041967
 20
260.07714698107
 30
0.0
 11
-53.61176473041967
 21
130.4371469810699
 31
0.0
  0
LINE
  5
13C
330
138
100
AcDbEntity
  8
0
  6
ByBlock
 62
     0
370
    -2
100
AcDbLine
 10
-53.61176473041968
 20
0.437146981069745
 30
0.0
 11
-53.61176473041967
 21
130.0771469810699
 31
0.0
  0
SOLID
  5
13D
330
138
100
AcDbEntity
  8
0
 62
     0
100
AcDbTrace
 10
-53.58176473041966
 20
260.07714698107
 30
0.0
 11
-53.64176473041967
 21
260.07714698107
 31
0.0
 12
-53.61176473041967
 22
260.25714698107
 32
0.0
 13
-53.61176473041967
 23
260.25714698107
 33
0.0
  0
SOLID
  5
13E
330
138
100
AcDbEntity
  8
0
 62
     0
100
AcDbTrace
 10
-53.64176473041968
 20
0.437146981069745
 30
0.0
 11
-53.58176473041968
 21
0.437146981069745
 31
0.0
 12
-53.61176473041968
 22
0.257146981069745
 32
0.0
 13
-53.61176473041968
 23
0.257146981069745
 33
0.0
  0
MTEXT
  5
13F
330
138
100
AcDbEntity
  8
0
  6
ByBlock
 62
     0
100
AcDbMText
 10
-53.61176473041967
 20
130.2571469810699
 30
0.0
 40
0.18
 41
0.0
 46
0.0
 71
     5
 72
     1
  1
\A1;260.0000
 73
     1
 44
1.0
  0
POINT
  5
140
330
138
100
AcDbEntity
  8
Defpoints
 62
     0
100
AcDbPoint
 10
110.0
 20
260.25714698107
 30
0.0
  0
POINT
  5
141
330
138
100
AcDbEntity
  8
Defpoints
 62
     0
100
AcDbPoint
 10
110.0
 20
0.257146981069735
 30
0.0
  0
POINT
  5
142
330
138
100
AcDbEntity
  8
Defpoints
 62
     0
100
AcDbPoint
 10
-53.61176473041968
 20
0.257146981069745
 30
0.0
  0
ENDBLK
  5
144
330
138
100
AcDbEntity
  8
0
100
AcDbBlockEnd
  0
BLOCK
  5
15F
330
154
100
AcDbEntity
  8
0
100
AcDbBlockBegin
  2
*D2
 70
     1
 10
0.0
 20
0.0
 30
0.0
  3
*D2
  1

  0
LINE
  5
155
330
154
100
AcDbEntity
  8
0
  6
ByBlock
 62
     0
370
    -2
100
AcDbLine
 10
7.50000000000001
 20
10.3196469810698
 30
0.0
 11
7.50000000000001
 21
16.1146061109023
 31
0.0
  0
LINE
  5
156
330
154
100
AcDbEntity
  8
0
  6
ByBlock
 62
     0
370
    -2
100
AcDbLine
 10
12.5
 20
10.3196469810698
 30
0.0
 11
12.5
 21
16.1146061109023
 31
0.0
  0
LINE
  5
157
330
154
100
AcDbEntity
  8
0
  6
ByBlock
 62
     0
370
    -2
100
AcDbLine
 10
7.680000000000009
 20
15.9346061109023
 30
0.0
 11
9.520000000000005
 21
15.9346061109023
 31
0.0
  0
LINE
  5
158
330
154
100
AcDbEntity
  8
0
  6
ByBlock
 62
     0
370
    -2
100
AcDbLine
 10
12.32
 20
15.9346061109023
 30
0.0
 11
10.48000000000001
 21
15.9346061109023
 31
0.0
  0
SOLID
  5
159
330
154
100
AcDbEntity
  8
0
 62
     0
100
AcDbTrace
 10
7.680000000000009
 20
15.9646061109023
 30
0.0
 11
7.680000000000009
 21
15.9046061109023
 31
0.0
 12
7.50000000000001
 22
15.9346061109023
 32
0.0
 13
7.50000000000001
 23
15.9346061109023
 33
0.0
  0
SOLID
  5
15A
330
154
100
AcDbEntity
  8
0
 62
     0
100
AcDbTrace
 10
12.32
 20
15.9046061109023
 30
0.0
 11
12.32
 21
15.9646061109023
 31
0.0
 12
12.5
 22
15.9346061109023
 32
0.0
 13
12.5
 23
15.9346061109023
 33
0.0
  0
MTEXT
  5
15B
330
154
100
AcDbEntity
  8
0
  6
ByBlock
 62
     0
100
AcDbMText
 10
10.00000000000001
 20
15.9346061109023
 30
0.0
 40
0.18
 41
0.0
 46
0.0
 71
     5
 72
     1
  1
\A1;5.0000
 73
     1
 44
1.0
  0
POINT
  5
15C
330
154
100
AcDbEntity
  8
Defpoints
 62
     0
100
AcDbPoint
 10
7.50000000000001
 20
10.2571469810698
 30
0.0
  0
POINT
  5
15D
330
154
100
AcDbEntity
  8
Defpoints
 62
     0
100
AcDbPoint
 10
12.5
 20
10.2571469810698
 30
0.0
  0
POINT
  5
15E
330
154
100
AcDbEntity
  8
Defpoints
 62
     0
100
AcDbPoint
 10
12.5
 20
15.9346061109023
 30
0.0
  0
ENDBLK
  5
160
330
154
100
AcDbEntity
  8
0
100
AcDbBlockEnd
  0
ENDSEC
  0
SECTION
  2
ENTITIES
  0
POLYLINE
  5
21
102
{ACAD_REACTORS
330
127
102
}
330
1D
100
AcDbEntity
  8
Layer0
100
AcDb3dPolyline
 66
     1
 10
0.0
 20
0.0
 30
0.0
 70
     8
  0
VERTEX
  5
22
330
21
100
AcDbEntity
  8
Layer0
100
AcDbVertex
100
AcDb3dPolylineVertex
 10
220.0
 20
10.2571469810698
 30
0.0000000000000226
 70
    32
  0
VERTEX
  5
23
330
21
100
AcDbEntity
  8
Layer0
100
AcDbVertex
100
AcDb3dPolylineVertex
 10
220.0
 20
250.25714698107
 30
-0.0000000000000226
 70
    32
  0
VERTEX
  5
24
330
21
100
AcDbEntity
  8
Layer0
100
AcDbVertex
100
AcDb3dPolylineVertex
 10
219.659258262891
 20
252.845337432095
 30
-0.0000000000000226
 70
    32
  0
VERTEX
  5
25
330
21
100
AcDbEntity
  8
Layer0
100
AcDbVertex
100
AcDb3dPolylineVertex
 10
218.660254037844
 20
255.25714698107
 30
-0.0000000000000451
 70
    32
  0
VERTEX
  5
26
330
21
100
AcDbEntity
  8
Layer0
100
AcDbVertex
100
AcDb3dPolylineVertex
 10
217.071067811865
 20
257.328214792935
 30
-0.0000000000000451
 70
    32
  0
VERTEX
  5
27
330
21
100
AcDbEntity
  8
Layer0
100
AcDbVertex
100
AcDb3dPolylineVertex
 10
215.0
 20
258.917401018914
 30
-0.0000000000000451
 70
    32
  0
VERTEX
  5
28
330
21
100
AcDbEntity
  8
Layer0
100
AcDbVertex
100
AcDb3dPolylineVertex
 10
212.588190451025
 20
259.916405243961
 30
-0.0000000000000226
 70
    32
  0
VERTEX
  5
29
330
21
100
AcDbEntity
  8
Layer0
100
AcDbVertex
100
AcDb3dPolylineVertex
 10
210.0
 20
260.25714698107
 30
-0.0000000000000226
 70
    32
  0
VERTEX
  5
2A
330
21
100
AcDbEntity
  8
Layer0
100
AcDbVertex
100
AcDb3dPolylineVertex
 10
9.99999999999998
 20
260.25714698107
 30
-0.0000000000000226
 70
    32
  0
VERTEX
  5
2B
330
21
100
AcDbEntity
  8
Layer0
100
AcDbVertex
100
AcDb3dPolylineVertex
 10
7.41180954897482
 20
259.91640524396
 30
0.0
 70
    32
  0
VERTEX
  5
2C
330
21
100
AcDbEntity
  8
Layer0
100
AcDbVertex
100
AcDb3dPolylineVertex
 10
4.99999999999995
 20
258.917401018914
 30
0.0
 70
    32
  0
VERTEX
  5
2D
330
21
100
AcDbEntity
  8
Layer0
100
AcDbVertex
100
AcDb3dPolylineVertex
 10
2.92893218813449
 20
257.328214792935
 30
-0.0000000000000451
 70
    32
  0
VERTEX
  5
2E
330
21
100
AcDbEntity
  8
Layer0
100
AcDbVertex
100
AcDb3dPolylineVertex
 10
1.33974596215565
 20
255.25714698107
 30
-0.0000000000000451
 70
    32
  0
VERTEX
  5
2F
330
21
100
AcDbEntity
  8
Layer0
100
AcDbVertex
100
AcDb3dPolylineVertex
 10
0.340741737109329
 20
252.845337432095
 30
-0.0000000000000226
 70
    32
  0
VERTEX
  5
30
330
21
100
AcDbEntity
  8
Layer0
100
AcDbVertex
100
AcDb3dPolylineVertex
 10
0.0
 20
250.25714698107
 30
-0.0000000000000226
 70
    32
  0
VERTEX
  5
31
330
21
100
AcDbEntity
  8
Layer0
100
AcDbVertex
100
AcDb3dPolylineVertex
 10
0.0
 20
10.2571469810698
 30
0.0000000000000226
 70
    32
  0
VERTEX
  5
32
330
21
100
AcDbEntity
  8
Layer0
100
AcDbVertex
100
AcDb3dPolylineVertex
 10
0.340741737109329
 20
7.66895653004455
 30
-0.0000000000000226
 70
    32
  0
VERTEX
  5
33
330
21
100
AcDbEntity
  8
Layer0
100
AcDbVertex
100
AcDb3dPolylineVertex
 10
1.33974596215565
 20
5.25714698106971
 30
0.0000000000000226
 70
    32
  0
VERTEX
  5
34
330
21
100
AcDbEntity
  8
Layer0
100
AcDbVertex
100
AcDb3dPolylineVertex
 10
2.92893218813449
 20
3.18607916920435
 30
0.0
 70
    32
  0
VERTEX
  5
35
330
21
100
AcDbEntity
  8
Layer0
100
AcDbVertex
100
AcDb3dPolylineVertex
 10
5.00000000000004
 20
1.59689294322542
 30
0.0000000000000226
 70
    32
  0
VERTEX
  5
36
330
21
100
AcDbEntity
  8
Layer0
100
AcDbVertex
100
AcDb3dPolylineVertex
 10
7.41180954897482
 20
0.597888718179109
 30
-0.0000000000000451
 70
    32
  0
VERTEX
  5
37
330
21
100
AcDbEntity
  8
Layer0
100
AcDbVertex
100
AcDb3dPolylineVertex
 10
9.99999999999998
 20
0.257146981069735
 30
0.0000000000000451
 70
    32
  0
VERTEX
  5
38
330
21
100
AcDbEntity
  8
Layer0
100
AcDbVertex
100
AcDb3dPolylineVertex
 10
210.0
 20
0.257146981069735
 30
0.0000000000000451
 70
    32
  0
VERTEX
  5
39
330
21
100
AcDbEntity
  8
Layer0
100
AcDbVertex
100
AcDb3dPolylineVertex
 10
212.588190451025
 20
0.597888718179109
 30
-0.0000000000000451
 70
    32
  0
VERTEX
  5
3A
330
21
100
AcDbEntity
  8
Layer0
100
AcDbVertex
100
AcDb3dPolylineVertex
 10
215.0
 20
1.59689294322542
 30
0.0000000000000226
 70
    32
  0
VERTEX
  5
3B
330
21
100
AcDbEntity
  8
Layer0
100
AcDbVertex
100
AcDb3dPolylineVertex
 10
217.071067811865
 20
3.18607916920435
 30
0.0
 70
    32
  0
VERTEX
  5
3C
330
21
100
AcDbEntity
  8
Layer0
100
AcDbVertex
100
AcDb3dPolylineVertex
 10
218.660254037844
 20
5.25714698106985
 30
-0.0000000000000451
 70
    32
  0
VERTEX
  5
3D
330
21
100
AcDbEntity
  8
Layer0
100
AcDbVertex
100
AcDb3dPolylineVertex
 10
219.659258262891
 20
7.66895653004455
 30
-0.0000000000000226
 70
    32
  0
VERTEX
  5
3E
330
21
100
AcDbEntity
  8
Layer0
100
AcDbVertex
100
AcDb3dPolylineVertex
 10
220.0
 20
10.2571469810698
 30
0.0000000000000226
 70
    32
  0
SEQEND
  5
3F
330
21
100
AcDbEntity
  8
Layer0
  0
POLYLINE
  5
40
330
1D
100
AcDbEntity
  8
Layer0
100
AcDb3dPolyline
 66
     1
 10
0.0
 20
0.0
 30
0.0
 70
     8
  0
VERTEX
  5
41
330
40
100
AcDbEntity
  8
Layer0
100
AcDbVertex
100
AcDb3dPolylineVertex
 10
12.1935864116512
 20
251.456387847043
 30
-0.0000000000000226
 70
    32
  0
VERTEX
  5
42
330
40
100
AcDbEntity
  8
Layer0
100
AcDbVertex
100
AcDb3dPolylineVertex
 10
12.4292281429897
 20
250.847782765041
 30
-0.0000000000000226
 70
    32
  0
VERTEX
  5
43
330
40
100
AcDbEntity
  8
Layer0
100
AcDbVertex
100
AcDb3dPolylineVertex
 10
12.4993219908726
 20
250.198926830433
 30
-0.0000000000000677
 70
    32
  0
VERTEX
  5
44
330
40
100
AcDbEntity
  8
Layer0
100
AcDbVertex
100
AcDb3dPolylineVertex
 10
12.3990911754026
 20
249.554038502878
 30
-0.0000000000000451
 70
    32
  0
VERTEX
  5
45
330
40
100
AcDbEntity
  8
Layer0
100
AcDbVertex
100
AcDb3dPolylineVertex
 10
12.1353662610145
 20
248.95706585617
 30
-0.0000000000000226
 70
    32
  0
VERTEX
  5
46
330
40
100
AcDbEntity
  8
Layer0
100
AcDbVertex
100
AcDb3dPolylineVertex
 10
11.7261196647978
 20
248.448691589638
 30
-0.0000000000000226
 70
    32
  0
VERTEX
  5
47
330
40
100
AcDbEntity
  8
Layer0
100
AcDbVertex
100
AcDb3dPolylineVertex
 10
11.1992408659727
 20
248.063560569419
 30
-0.0000000000000451
 70
    32
  0
VERTEX
  5
48
330
40
100
AcDbEntity
  8
Layer0
100
AcDbVertex
100
AcDb3dPolylineVertex
 10
10.5906357839709
 20
247.82791883808
 30
0.0
 70
    32
  0
VERTEX
  5
49
330
40
100
AcDbEntity
  8
Layer0
100
AcDbVertex
100
AcDb3dPolylineVertex
 10
9.94177984936326
 20
247.757824990197
 30
-0.0000000000000451
 70
    32
  0
VERTEX
  5
4A
330
40
100
AcDbEntity
  8
Layer0
100
AcDbVertex
100
AcDb3dPolylineVertex
 10
9.2968915218081
 20
247.858055805667
 30
-0.0000000000000451
 70
    32
  0
VERTEX
  5
4B
330
40
100
AcDbEntity
  8
Layer0
100
AcDbVertex
100
AcDb3dPolylineVertex
 10
8.6999188751001
 20
248.121780720055
 30
-0.0000000000000677
 70
    32
  0
VERTEX
  5
4C
330
40
100
AcDbEntity
  8
Layer0
100
AcDbVertex
100
AcDb3dPolylineVertex
 10
8.19154460856831
 20
248.531027316272
 30
-0.0000000000000451
 70
    32
  0
VERTEX
  5
4D
330
40
100
AcDbEntity
  8
Layer0
100
AcDbVertex
100
AcDb3dPolylineVertex
 10
7.80641358834877
 20
249.057906115097
 30
-0.0000000000000451
 70
    32
  0
VERTEX
  5
4E
330
40
100
AcDbEntity
  8
Layer0
100
AcDbVertex
100
AcDb3dPolylineVertex
 10
7.57077185701029
 20
249.666511197099
 30
-0.0000000000000451
 70
    32
  0
VERTEX
  5
4F
330
40
100
AcDbEntity
  8
Layer0
100
AcDbVertex
100
AcDb3dPolylineVertex
 10
7.50067800912735
 20
250.315367131707
 30
-0.0000000000000451
 70
    32
  0
VERTEX
  5
50
330
40
100
AcDbEntity
  8
Layer0
100
AcDbVertex
100
AcDb3dPolylineVertex
 10
7.60090882459737
 20
250.960255459262
 30
-0.0000000000000451
 70
    32
  0
VERTEX
  5
51
330
40
100
AcDbEntity
  8
Layer0
100
AcDbVertex
100
AcDb3dPolylineVertex
 10
7.8646337389855
 20
251.55722810597
 30
-0.0000000000000226
 70
    32
  0
VERTEX
  5
52
330
40
100
AcDbEntity
  8
Layer0
100
AcDbVertex
100
AcDb3dPolylineVertex
 10
8.27388033520217
 20
252.065602372502
 30
-0.0000000000000226
 70
    32
  0
VERTEX
  5
53
330
40
100
AcDbEntity
  8
Layer0
100
AcDbVertex
100
AcDb3dPolylineVertex
 10
8.80075913402723
 20
252.450733392721
 30
0.0
 70
    32
  0
VERTEX
  5
54
330
40
100
AcDbEntity
  8
Layer0
100
AcDbVertex
100
AcDb3dPolylineVertex
 10
9.40936421602904
 20
252.68637512406
 30
-0.0000000000000226
 70
    32
  0
VERTEX
  5
55
330
40
100
AcDbEntity
  8
Layer0
100
AcDbVertex
100
AcDb3dPolylineVertex
 10
10.0582201506367
 20
252.756468971943
 30
-0.0000000000000226
 70
    32
  0
VERTEX
  5
56
330
40
100
AcDbEntity
  8
Layer0
100
AcDbVertex
100
AcDb3dPolylineVertex
 10
10.7031084781919
 20
252.656238156472
 30
-0.0000000000000451
 70
    32
  0
VERTEX
  5
57
330
40
100
AcDbEntity
  8
Layer0
100
AcDbVertex
100
AcDb3dPolylineVertex
 10
11.3000811248999
 20
252.392513242084
 30
-0.0000000000000451
 70
    32
  0
VERTEX
  5
58
330
40
100
AcDbEntity
  8
Layer0
100
AcDbVertex
100
AcDb3dPolylineVertex
 10
11.8084553914317
 20
251.983266645868
 30
0.0
 70
    32
  0
VERTEX
  5
59
330
40
100
AcDbEntity
  8
Layer0
100
AcDbVertex
100
AcDb3dPolylineVertex
 10
12.1935864116512
 20
251.456387847043
 30
-0.0000000000000226
 70
    32
  0
SEQEND
  5
5A
330
40
100
AcDbEntity
  8
Layer0
  0
POLYLINE
  5
5B
330
1D
100
AcDbEntity
  8
Layer0
100
AcDb3dPolyline
 66
     1
 10
0.0
 20
0.0
 30
0.0
 70
     8
  0
VERTEX
  5
5C
330
5B
100
AcDbEntity
  8
Layer0
100
AcDbVertex
100
AcDb3dPolylineVertex
 10
7.83493649053892
 20
9.00714698106981
 30
-0.0000000000000451
 70
    32
  0
VERTEX
  5
5D
330
5B
100
AcDbEntity
  8
Layer0
100
AcDbVertex
100
AcDb3dPolylineVertex
 10
7.58518543427734
 20
9.61009936831328
 30
0.0000000000000451
 70
    32
  0
VERTEX
  5
5E
330
5B
100
AcDbEntity
  8
Layer0
100
AcDbVertex
100
AcDb3dPolylineVertex
 10
7.50000000000001
 20
10.2571469810698
 30
0.0000000000000226
 70
    32
  0
VERTEX
  5
5F
330
5B
100
AcDbEntity
  8
Layer0
100
AcDbVertex
100
AcDb3dPolylineVertex
 10
7.58518543427734
 20
10.9041945938261
 30
-0.0000000000000226
 70
    32
  0
VERTEX
  5
60
330
5B
100
AcDbEntity
  8
Layer0
100
AcDbVertex
100
AcDb3dPolylineVertex
 10
7.83493649053892
 20
11.5071469810697
 30
0.0000000000000226
 70
    32
  0
VERTEX
  5
61
330
5B
100
AcDbEntity
  8
Layer0
100
AcDbVertex
100
AcDb3dPolylineVertex
 10
8.23223304703368
 20
12.0249139340361
 30
-0.0000000000000451
 70
    32
  0
VERTEX
  5
62
330
5B
100
AcDbEntity
  8
Layer0
100
AcDbVertex
100
AcDb3dPolylineVertex
 10
8.74999999999999
 20
12.4222104905308
 30
-0.0000000000000226
 70
    32
  0
VERTEX
  5
63
330
5B
100
AcDbEntity
  8
Layer0
100
AcDbVertex
100
AcDb3dPolylineVertex
 10
9.35295238724365
 20
12.6719615467923
 30
0.0000000000000226
 70
    32
  0
VERTEX
  5
64
330
5B
100
AcDbEntity
  8
Layer0
100
AcDbVertex
100
AcDb3dPolylineVertex
 10
9.99999999999998
 20
12.7571469810697
 30
-0.0000000000000902
 70
    32
  0
VERTEX
  5
65
330
5B
100
AcDbEntity
  8
Layer0
100
AcDbVertex
100
AcDb3dPolylineVertex
 10
10.6470476127563
 20
12.6719615467923
 30
0.0000000000000226
 70
    32
  0
VERTEX
  5
66
330
5B
100
AcDbEntity
  8
Layer0
100
AcDbVertex
100
AcDb3dPolylineVertex
 10
11.25
 20
12.4222104905308
 30
-0.0000000000000226
 70
    32
  0
VERTEX
  5
67
330
5B
100
AcDbEntity
  8
Layer0
100
AcDbVertex
100
AcDb3dPolylineVertex
 10
11.7677669529663
 20
12.0249139340361
 30
-0.0000000000000451
 70
    32
  0
VERTEX
  5
68
330
5B
100
AcDbEntity
  8
Layer0
100
AcDbVertex
100
AcDb3dPolylineVertex
 10
12.165063509461
 20
11.5071469810697
 30
0.0000000000000226
 70
    32
  0
VERTEX
  5
69
330
5B
100
AcDbEntity
  8
Layer0
100
AcDbVertex
100
AcDb3dPolylineVertex
 10
12.4148145657226
 20
10.9041945938261
 30
-0.0000000000000226
 70
    32
  0
VERTEX
  5
6A
330
5B
100
AcDbEntity
  8
Layer0
100
AcDbVertex
100
AcDb3dPolylineVertex
 10
12.5
 20
10.2571469810698
 30
0.0000000000000226
 70
    32
  0
VERTEX
  5
6B
330
5B
100
AcDbEntity
  8
Layer0
100
AcDbVertex
100
AcDb3dPolylineVertex
 10
12.4148145657226
 20
9.61009936831328
 30
0.0000000000000451
 70
    32
  0
VERTEX
  5
6C
330
5B
100
AcDbEntity
  8
Layer0
100
AcDbVertex
100
AcDb3dPolylineVertex
 10
12.165063509461
 20
9.00714698106981
 30
-0.0000000000000451
 70
    32
  0
VERTEX
  5
6D
330
5B
100
AcDbEntity
  8
Layer0
100
AcDbVertex
100
AcDb3dPolylineVertex
 10
11.7677669529663
 20
8.48938002810335
 30
0.0000000000000226
 70
    32
  0
VERTEX
  5
6E
330
5B
100
AcDbEntity
  8
Layer0
100
AcDbVertex
100
AcDb3dPolylineVertex
 10
11.25
 20
8.09208347160864
 30
0.0
 70
    32
  0
VERTEX
  5
6F
330
5B
100
AcDbEntity
  8
Layer0
100
AcDbVertex
100
AcDb3dPolylineVertex
 10
10.6470476127563
 20
7.84233241534702
 30
-0.0000000000000451
 70
    32
  0
VERTEX
  5
70
330
5B
100
AcDbEntity
  8
Layer0
100
AcDbVertex
100
AcDb3dPolylineVertex
 10
9.99999999999998
 20
7.75714698106978
 30
-0.0000000000000226
 70
    32
  0
VERTEX
  5
71
330
5B
100
AcDbEntity
  8
Layer0
100
AcDbVertex
100
AcDb3dPolylineVertex
 10
9.35295238724365
 20
7.84233241534702
 30
-0.0000000000000451
 70
    32
  0
VERTEX
  5
72
330
5B
100
AcDbEntity
  8
Layer0
100
AcDbVertex
100
AcDb3dPolylineVertex
 10
8.74999999999999
 20
8.09208347160864
 30
0.0
 70
    32
  0
VERTEX
  5
73
330
5B
100
AcDbEntity
  8
Layer0
100
AcDbVertex
100
AcDb3dPolylineVertex
 10
8.23223304703368
 20
8.48938002810335
 30
0.0000000000000226
 70
    32
  0
VERTEX
  5
74
330
5B
100
AcDbEntity
  8
Layer0
100
AcDbVertex
100
AcDb3dPolylineVertex
 10
7.83493649053892
 20
9.00714698106981
 30
-0.0000000000000451
 70
    32
  0
SEQEND
  5
75
330
5B
100
AcDbEntity
  8
Layer0
  0
POLYLINE
  5
76
330
1D
100
AcDbEntity
  8
Layer0
100
AcDb3dPolyline
 66
     1
 10
0.0
 20
0.0
 30
0.0
 70
     8
  0
VERTEX
  5
77
330
76
100
AcDbEntity
  8
Layer0
100
AcDbVertex
100
AcDb3dPolylineVertex
 10
112.5
 20
250.25714698107
 30
-0.0000000000000226
 70
    32
  0
VERTEX
  5
78
330
76
100
AcDbEntity
  8
Layer0
100
AcDbVertex
100
AcDb3dPolylineVertex
 10
112.414814565723
 20
249.610099368314
 30
-0.0000000000000226
 70
    32
  0
VERTEX
  5
79
330
76
100
AcDbEntity
  8
Layer0
100
AcDbVertex
100
AcDb3dPolylineVertex
 10
112.165063509461
 20
249.00714698107
 30
-0.0000000000000451
 70
    32
  0
VERTEX
  5
7A
330
76
100
AcDbEntity
  8
Layer0
100
AcDbVertex
100
AcDb3dPolylineVertex
 10
111.767766952966
 20
248.489380028104
 30
-0.0000000000000226
 70
    32
  0
VERTEX
  5
7B
330
76
100
AcDbEntity
  8
Layer0
100
AcDbVertex
100
AcDb3dPolylineVertex
 10
111.25
 20
248.092083471609
 30
-0.0000000000000451
 70
    32
  0
VERTEX
  5
7C
330
76
100
AcDbEntity
  8
Layer0
100
AcDbVertex
100
AcDb3dPolylineVertex
 10
110.647047612756
 20
247.842332415347
 30
-0.0000000000000451
 70
    32
  0
VERTEX
  5
7D
330
76
100
AcDbEntity
  8
Layer0
100
AcDbVertex
100
AcDb3dPolylineVertex
 10
110.0
 20
247.75714698107
 30
-0.0000000000000226
 70
    32
  0
VERTEX
  5
7E
330
76
100
AcDbEntity
  8
Layer0
100
AcDbVertex
100
AcDb3dPolylineVertex
 10
109.352952387244
 20
247.842332415347
 30
-0.0000000000000451
 70
    32
  0
VERTEX
  5
7F
330
76
100
AcDbEntity
  8
Layer0
100
AcDbVertex
100
AcDb3dPolylineVertex
 10
108.75
 20
248.092083471609
 30
-0.0000000000000451
 70
    32
  0
VERTEX
  5
80
330
76
100
AcDbEntity
  8
Layer0
100
AcDbVertex
100
AcDb3dPolylineVertex
 10
108.232233047034
 20
248.489380028104
 30
-0.0000000000000226
 70
    32
  0
VERTEX
  5
81
330
76
100
AcDbEntity
  8
Layer0
100
AcDbVertex
100
AcDb3dPolylineVertex
 10
107.834936490539
 20
249.00714698107
 30
-0.0000000000000451
 70
    32
  0
VERTEX
  5
82
330
76
100
AcDbEntity
  8
Layer0
100
AcDbVertex
100
AcDb3dPolylineVertex
 10
107.585185434277
 20
249.610099368314
 30
-0.0000000000000226
 70
    32
  0
VERTEX
  5
83
330
76
100
AcDbEntity
  8
Layer0
100
AcDbVertex
100
AcDb3dPolylineVertex
 10
107.5
 20
250.25714698107
 30
-0.0000000000000226
 70
    32
  0
VERTEX
  5
84
330
76
100
AcDbEntity
  8
Layer0
100
AcDbVertex
100
AcDb3dPolylineVertex
 10
107.585185434277
 20
250.904194593826
 30
-0.0000000000000451
 70
    32
  0
VERTEX
  5
85
330
76
100
AcDbEntity
  8
Layer0
100
AcDbVertex
100
AcDb3dPolylineVertex
 10
107.834936490539
 20
251.50714698107
 30
-0.0000000000000451
 70
    32
  0
VERTEX
  5
86
330
76
100
AcDbEntity
  8
Layer0
100
AcDbVertex
100
AcDb3dPolylineVertex
 10
108.232233047034
 20
252.024913934036
 30
-0.0000000000000451
 70
    32
  0
VERTEX
  5
87
330
76
100
AcDbEntity
  8
Layer0
100
AcDbVertex
100
AcDb3dPolylineVertex
 10
108.75
 20
252.422210490531
 30
-0.0000000000000226
 70
    32
  0
VERTEX
  5
88
330
76
100
AcDbEntity
  8
Layer0
100
AcDbVertex
100
AcDb3dPolylineVertex
 10
109.352952387244
 20
252.671961546792
 30
-0.0000000000000451
 70
    32
  0
VERTEX
  5
89
330
76
100
AcDbEntity
  8
Layer0
100
AcDbVertex
100
AcDb3dPolylineVertex
 10
110.0
 20
252.75714698107
 30
-0.0000000000000451
 70
    32
  0
VERTEX
  5
8A
330
76
100
AcDbEntity
  8
Layer0
100
AcDbVertex
100
AcDb3dPolylineVertex
 10
110.647047612756
 20
252.671961546792
 30
-0.0000000000000451
 70
    32
  0
VERTEX
  5
8B
330
76
100
AcDbEntity
  8
Layer0
100
AcDbVertex
100
AcDb3dPolylineVertex
 10
111.25
 20
252.422210490531
 30
-0.0000000000000226
 70
    32
  0
VERTEX
  5
8C
330
76
100
AcDbEntity
  8
Layer0
100
AcDbVertex
100
AcDb3dPolylineVertex
 10
111.767766952966
 20
252.024913934036
 30
-0.0000000000000451
 70
    32
  0
VERTEX
  5
8D
330
76
100
AcDbEntity
  8
Layer0
100
AcDbVertex
100
AcDb3dPolylineVertex
 10
112.165063509461
 20
251.50714698107
 30
-0.0000000000000451
 70
    32
  0
VERTEX
  5
8E
330
76
100
AcDbEntity
  8
Layer0
100
AcDbVertex
100
AcDb3dPolylineVertex
 10
112.414814565723
 20
250.904194593826
 30
-0.0000000000000451
 70
    32
  0
VERTEX
  5
8F
330
76
100
AcDbEntity
  8
Layer0
100
AcDbVertex
100
AcDb3dPolylineVertex
 10
112.5
 20
250.25714698107
 30
-0.0000000000000226
 70
    32
  0
SEQEND
  5
90
330
76
100
AcDbEntity
  8
Layer0
  0
POLYLINE
  5
91
330
1D
100
AcDbEntity
  8
Layer0
100
AcDb3dPolyline
 66
     1
 10
0.0
 20
0.0
 30
0.0
 70
     8
  0
VERTEX
  5
92
330
91
100
AcDbEntity
  8
Layer0
100
AcDbVertex
100
AcDb3dPolylineVertex
 10
107.834936490539
 20
9.00714698106981
 30
-0.0000000000000451
 70
    32
  0
VERTEX
  5
93
330
91
100
AcDbEntity
  8
Layer0
100
AcDbVertex
100
AcDb3dPolylineVertex
 10
107.585185434277
 20
9.61009936831328
 30
0.0000000000000451
 70
    32
  0
VERTEX
  5
94
330
91
100
AcDbEntity
  8
Layer0
100
AcDbVertex
100
AcDb3dPolylineVertex
 10
107.5
 20
10.2571469810698
 30
0.0000000000000226
 70
    32
  0
VERTEX
  5
95
330
91
100
AcDbEntity
  8
Layer0
100
AcDbVertex
100
AcDb3dPolylineVertex
 10
107.585185434277
 20
10.9041945938261
 30
-0.0000000000000226
 70
    32
  0
VERTEX
  5
96
330
91
100
AcDbEntity
  8
Layer0
100
AcDbVertex
100
AcDb3dPolylineVertex
 10
107.834936490539
 20
11.5071469810697
 30
0.0000000000000226
 70
    32
  0
VERTEX
  5
97
330
91
100
AcDbEntity
  8
Layer0
100
AcDbVertex
100
AcDb3dPolylineVertex
 10
108.232233047034
 20
12.0249139340361
 30
-0.0000000000000451
 70
    32
  0
VERTEX
  5
98
330
91
100
AcDbEntity
  8
Layer0
100
AcDbVertex
100
AcDb3dPolylineVertex
 10
108.75
 20
12.4222104905308
 30
-0.0000000000000226
 70
    32
  0
VERTEX
  5
99
330
91
100
AcDbEntity
  8
Layer0
100
AcDbVertex
100
AcDb3dPolylineVertex
 10
109.352952387244
 20
12.6719615467923
 30
0.0000000000000226
 70
    32
  0
VERTEX
  5
9A
330
91
100
AcDbEntity
  8
Layer0
100
AcDbVertex
100
AcDb3dPolylineVertex
 10
110.0
 20
12.7571469810697
 30
-0.0000000000000902
 70
    32
  0
VERTEX
  5
9B
330
91
100
AcDbEntity
  8
Layer0
100
AcDbVertex
100
AcDb3dPolylineVertex
 10
110.647047612756
 20
12.6719615467923
 30
0.0000000000000226
 70
    32
  0
VERTEX
  5
9C
330
91
100
AcDbEntity
  8
Layer0
100
AcDbVertex
100
AcDb3dPolylineVertex
 10
111.25
 20
12.4222104905308
 30
-0.0000000000000226
 70
    32
  0
VERTEX
  5
9D
330
91
100
AcDbEntity
  8
Layer0
100
AcDbVertex
100
AcDb3dPolylineVertex
 10
111.767766952966
 20
12.0249139340361
 30
-0.0000000000000451
 70
    32
  0
VERTEX
  5
9E
330
91
100
AcDbEntity
  8
Layer0
100
AcDbVertex
100
AcDb3dPolylineVertex
 10
112.165063509461
 20
11.5071469810697
 30
0.0000000000000226
 70
    32
  0
VERTEX
  5
9F
330
91
100
AcDbEntity
  8
Layer0
100
AcDbVertex
100
AcDb3dPolylineVertex
 10
112.414814565723
 20
10.9041945938261
 30
-0.0000000000000226
 70
    32
  0
VERTEX
  5
A0
330
91
100
AcDbEntity
  8
Layer0
100
AcDbVertex
100
AcDb3dPolylineVertex
 10
112.5
 20
10.2571469810698
 30
0.0000000000000226
 70
    32
  0
VERTEX
  5
A1
330
91
100
AcDbEntity
  8
Layer0
100
AcDbVertex
100
AcDb3dPolylineVertex
 10
112.414814565723
 20
9.61009936831328
 30
0.0000000000000451
 70
    32
  0
VERTEX
  5
A2
330
91
100
AcDbEntity
  8
Layer0
100
AcDbVertex
100
AcDb3dPolylineVertex
 10
112.165063509461
 20
9.00714698106981
 30
-0.0000000000000451
 70
    32
  0
VERTEX
  5
A3
330
91
100
AcDbEntity
  8
Layer0
100
AcDbVertex
100
AcDb3dPolylineVertex
 10
111.767766952966
 20
8.48938002810335
 30
0.0000000000000226
 70
    32
  0
VERTEX
  5
A4
330
91
100
AcDbEntity
  8
Layer0
100
AcDbVertex
100
AcDb3dPolylineVertex
 10
111.25
 20
8.09208347160864
 30
0.0
 70
    32
  0
VERTEX
  5
A5
330
91
100
AcDbEntity
  8
Layer0
100
AcDbVertex
100
AcDb3dPolylineVertex
 10
110.647047612756
 20
7.84233241534702
 30
-0.0000000000000451
 70
    32
  0
VERTEX
  5
A6
330
91
100
AcDbEntity
  8
Layer0
100
AcDbVertex
100
AcDb3dPolylineVertex
 10
110.0
 20
7.75714698106978
 30
-0.0000000000000226
 70
    32
  0
VERTEX
  5
A7
330
91
100
AcDbEntity
  8
Layer0
100
AcDbVertex
100
AcDb3dPolylineVertex
 10
109.352952387244
 20
7.84233241534702
 30
-0.0000000000000451
 70
    32
  0
VERTEX
  5
A8
330
91
100
AcDbEntity
  8
Layer0
100
AcDbVertex
100
AcDb3dPolylineVertex
 10
108.75
 20
8.09208347160864
 30
0.0
 70
    32
  0
VERTEX
  5
A9
330
91
100
AcDbEntity
  8
Layer0
100
AcDbVertex
100
AcDb3dPolylineVertex
 10
108.232233047034
 20
8.48938002810335
 30
0.0000000000000226
 70
    32
  0
VERTEX
  5
AA
330
91
100
AcDbEntity
  8
Layer0
100
AcDbVertex
100
AcDb3dPolylineVertex
 10
107.834936490539
 20
9.00714698106981
 30
-0.0000000000000451
 70
    32
  0
SEQEND
  5
AB
330
91
100
AcDbEntity
  8
Layer0
  0
POLYLINE
  5
AC
330
1D
100
AcDbEntity
  8
Layer0
100
AcDb3dPolyline
 66
     1
 10
0.0
 20
0.0
 30
0.0
 70
     8
  0
VERTEX
  5
AD
330
AC
100
AcDbEntity
  8
Layer0
100
AcDbVertex
100
AcDb3dPolylineVertex
 10
207.714022025649
 20
9.24506758656578
 30
0.0000000000000451
 70
    32
  0
VERTEX
  5
AE
330
AC
100
AcDbEntity
  8
Layer0
100
AcDbVertex
100
AcDb3dPolylineVertex
 10
207.529969413793
 20
9.87120799211057
 30
-0.0000000000000226
 70
    32
  0
VERTEX
  5
AF
330
AC
100
AcDbEntity
  8
Layer0
100
AcDbVertex
100
AcDb3dPolylineVertex
 10
207.514245304468
 20
10.5236495019583
 30
-0.0000000000000226
 70
    32
  0
VERTEX
  5
B0
330
AC
100
AcDbEntity
  8
Layer0
100
AcDbVertex
100
AcDb3dPolylineVertex
 10
207.66792126974
 20
11.157929305424
 30
0.0000000000000902
 70
    32
  0
VERTEX
  5
B1
330
AC
100
AcDbEntity
  8
Layer0
100
AcDbVertex
100
AcDb3dPolylineVertex
 10
207.980524546537
 20
11.730822282098
 30
0.0000000000000451
 70
    32
  0
VERTEX
  5
B2
330
AC
100
AcDbEntity
  8
Layer0
100
AcDbVertex
100
AcDb3dPolylineVertex
 10
208.430751738147
 20
12.2032867223704
 30
0.0000000000000226
 70
    32
  0
VERTEX
  5
B3
330
AC
100
AcDbEntity
  8
Layer0
100
AcDbVertex
100
AcDb3dPolylineVertex
 10
208.987920605496
 20
12.5431249554213
 30
0.0000000000000226
 70
    32
  0
VERTEX
  5
B4
330
AC
100
AcDbEntity
  8
Layer0
100
AcDbVertex
100
AcDb3dPolylineVertex
 10
209.614061011041
 20
12.7271775672773
 30
0.0000000000000226
 70
    32
  0
VERTEX
  5
B5
330
AC
100
AcDbEntity
  8
Layer0
100
AcDbVertex
100
AcDb3dPolylineVertex
 10
210.266502520889
 20
12.7429016766018
 30
-0.0000000000000226
 70
    32
  0
VERTEX
  5
B6
330
AC
100
AcDbEntity
  8
Layer0
100
AcDbVertex
100
AcDb3dPolylineVertex
 10
210.900782324354
 20
12.5892257113298
 30
0.0
 70
    32
  0
VERTEX
  5
B7
330
AC
100
AcDbEntity
  8
Layer0
100
AcDbVertex
100
AcDb3dPolylineVertex
 10
211.473675301028
 20
12.2766224345329
 30
-0.0000000000000902
 70
    32
  0
VERTEX
  5
B8
330
AC
100
AcDbEntity
  8
Layer0
100
AcDbVertex
100
AcDb3dPolylineVertex
 10
211.946139741301
 20
11.8263952429232
 30
0.0000000000000677
 70
    32
  0
VERTEX
  5
B9
330
AC
100
AcDbEntity
  8
Layer0
100
AcDbVertex
100
AcDb3dPolylineVertex
 10
212.285977974352
 20
11.2692263755737
 30
-0.0000000000000677
 70
    32
  0
VERTEX
  5
BA
330
AC
100
AcDbEntity
  8
Layer0
100
AcDbVertex
100
AcDb3dPolylineVertex
 10
212.470030586208
 20
10.643085970029
 30
-0.0000000000000451
 70
    32
  0
VERTEX
  5
BB
330
AC
100
AcDbEntity
  8
Layer0
100
AcDbVertex
100
AcDb3dPolylineVertex
 10
212.485754695532
 20
9.99064446018121
 30
0.0000000000000226
 70
    32
  0
VERTEX
  5
BC
330
AC
100
AcDbEntity
  8
Layer0
100
AcDbVertex
100
AcDb3dPolylineVertex
 10
212.33207873026
 20
9.35636465671554
 30
-0.0000000000000677
 70
    32
  0
VERTEX
  5
BD
330
AC
100
AcDbEntity
  8
Layer0
100
AcDbVertex
100
AcDb3dPolylineVertex
 10
212.019475453463
 20
8.78347168004152
 30
-0.0000000000000226
 70
    32
  0
VERTEX
  5
BE
330
AC
100
AcDbEntity
  8
Layer0
100
AcDbVertex
100
AcDb3dPolylineVertex
 10
211.569248261853
 20
8.3110072397691
 30
0.0000000000000226
 70
    32
  0
VERTEX
  5
BF
330
AC
100
AcDbEntity
  8
Layer0
100
AcDbVertex
100
AcDb3dPolylineVertex
 10
211.012079394504
 20
7.97116900671824
 30
-0.0000000000000451
 70
    32
  0
VERTEX
  5
C0
330
AC
100
AcDbEntity
  8
Layer0
100
AcDbVertex
100
AcDb3dPolylineVertex
 10
210.385938988959
 20
7.78711639486231
 30
-0.0000000000000451
 70
    32
  0
VERTEX
  5
C1
330
AC
100
AcDbEntity
  8
Layer0
100
AcDbVertex
100
AcDb3dPolylineVertex
 10
209.733497479111
 20
7.77139228553769
 30
0.0
 70
    32
  0
VERTEX
  5
C2
330
AC
100
AcDbEntity
  8
Layer0
100
AcDbVertex
100
AcDb3dPolylineVertex
 10
209.099217675646
 20
7.92506825080978
 30
-0.0000000000000902
 70
    32
  0
VERTEX
  5
C3
330
AC
100
AcDbEntity
  8
Layer0
100
AcDbVertex
100
AcDb3dPolylineVertex
 10
208.526324698972
 20
8.23767152760678
 30
0.0000000000000226
 70
    32
  0
VERTEX
  5
C4
330
AC
100
AcDbEntity
  8
Layer0
100
AcDbVertex
100
AcDb3dPolylineVertex
 10
208.053860258699
 20
8.68789871921639
 30
0.0
 70
    32
  0
VERTEX
  5
C5
330
AC
100
AcDbEntity
  8
Layer0
100
AcDbVertex
100
AcDb3dPolylineVertex
 10
207.714022025649
 20
9.24506758656578
 30
0.0000000000000451
 70
    32
  0
SEQEND
  5
C6
330
AC
100
AcDbEntity
  8
Layer0
  0
POLYLINE
  5
C7
330
1D
100
AcDbEntity
  8
Layer0
100
AcDb3dPolyline
 66
     1
 10
0.0
 20
0.0
 30
0.0
 70
     8
  0
VERTEX
  5
C8
330
C7
100
AcDbEntity
  8
Layer0
100
AcDbVertex
100
AcDb3dPolylineVertex
 10
208.559439810402
 20
248.213917591074
 30
-0.0000000000000677
 70
    32
  0
VERTEX
  5
C9
330
C7
100
AcDbEntity
  8
Layer0
100
AcDbVertex
100
AcDb3dPolylineVertex
 10
208.079699028899
 20
248.656383356924
 30
-0.0000000000000451
 70
    32
  0
VERTEX
  5
CA
330
C7
100
AcDbEntity
  8
Layer0
100
AcDbVertex
100
AcDb3dPolylineVertex
 10
207.730823585129
 20
249.207938518373
 30
-0.0000000000000451
 70
    32
  0
VERTEX
  5
CB
330
C7
100
AcDbEntity
  8
Layer0
100
AcDbVertex
100
AcDb3dPolylineVertex
 10
207.536588764042
 20
249.830995502656
 30
-0.0000000000000677
 70
    32
  0
VERTEX
  5
CC
330
C7
100
AcDbEntity
  8
Layer0
100
AcDbVertex
100
AcDb3dPolylineVertex
 10
207.510231347705
 20
250.483094005945
 30
-0.0000000000000451
 70
    32
  0
VERTEX
  5
CD
330
C7
100
AcDbEntity
  8
Layer0
100
AcDbVertex
100
AcDb3dPolylineVertex
 10
207.653547550485
 20
251.119794592883
 30
-0.0000000000000226
 70
    32
  0
VERTEX
  5
CE
330
C7
100
AcDbEntity
  8
Layer0
100
AcDbVertex
100
AcDb3dPolylineVertex
 10
207.956770610004
 20
251.697707170668
 30
-0.0000000000000451
 70
    32
  0
VERTEX
  5
CF
330
C7
100
AcDbEntity
  8
Layer0
100
AcDbVertex
100
AcDb3dPolylineVertex
 10
208.399236375854
 20
252.177447952171
 30
0.0
 70
    32
  0
VERTEX
  5
D0
330
C7
100
AcDbEntity
  8
Layer0
100
AcDbVertex
100
AcDb3dPolylineVertex
 10
208.950791537304
 20
252.526323395941
 30
-0.0000000000000451
 70
    32
  0
VERTEX
  5
D1
330
C7
100
AcDbEntity
  8
Layer0
100
AcDbVertex
100
AcDb3dPolylineVertex
 10
209.573848521586
 20
252.720558217028
 30
-0.0000000000000451
 70
    32
  0
VERTEX
  5
D2
330
C7
100
AcDbEntity
  8
Layer0
100
AcDbVertex
100
AcDb3dPolylineVertex
 10
210.225947024875
 20
252.746915633365
 30
-0.0000000000000451
 70
    32
  0
VERTEX
  5
D3
330
C7
100
AcDbEntity
  8
Layer0
100
AcDbVertex
100
AcDb3dPolylineVertex
 10
210.862647611813
 20
252.603599430585
 30
-0.0000000000000451
 70
    32
  0
VERTEX
  5
D4
330
C7
100
AcDbEntity
  8
Layer0
100
AcDbVertex
100
AcDb3dPolylineVertex
 10
211.440560189598
 20
252.300376371066
 30
-0.0000000000000451
 70
    32
  0
VERTEX
  5
D5
330
C7
100
AcDbEntity
  8
Layer0
100
AcDbVertex
100
AcDb3dPolylineVertex
 10
211.920300971101
 20
251.857910605215
 30
-0.0000000000000677
 70
    32
  0
VERTEX
  5
D6
330
C7
100
AcDbEntity
  8
Layer0
100
AcDbVertex
100
AcDb3dPolylineVertex
 10
212.269176414871
 20
251.306355443766
 30
-0.0000000000000451
 70
    32
  0
VERTEX
  5
D7
330
C7
100
AcDbEntity
  8
Layer0
100
AcDbVertex
100
AcDb3dPolylineVertex
 10
212.463411235958
 20
250.683298459483
 30
0.0
 70
    32
  0
VERTEX
  5
D8
330
C7
100
AcDbEntity
  8
Layer0
100
AcDbVertex
100
AcDb3dPolylineVertex
 10
212.489768652295
 20
250.031199956195
 30
-0.0000000000000226
 70
    32
  0
VERTEX
  5
D9
330
C7
100
AcDbEntity
  8
Layer0
100
AcDbVertex
100
AcDb3dPolylineVertex
 10
212.346452449515
 20
249.394499369257
 30
-0.0000000000000451
 70
    32
  0
VERTEX
  5
DA
330
C7
100
AcDbEntity
  8
Layer0
100
AcDbVertex
100
AcDb3dPolylineVertex
 10
212.043229389996
 20
248.816586791471
 30
-0.0000000000000451
 70
    32
  0
VERTEX
  5
DB
330
C7
100
AcDbEntity
  8
Layer0
100
AcDbVertex
100
AcDb3dPolylineVertex
 10
211.600763624146
 20
248.336846009969
 30
-0.0000000000000226
 70
    32
  0
VERTEX
  5
DC
330
C7
100
AcDbEntity
  8
Layer0
100
AcDbVertex
100
AcDb3dPolylineVertex
 10
211.049208462696
 20
247.987970566199
 30
-0.0000000000000226
 70
    32
  0
VERTEX
  5
DD
330
C7
100
AcDbEntity
  8
Layer0
100
AcDbVertex
100
AcDb3dPolylineVertex
 10
210.426151478413
 20
247.793735745111
 30
0.0
 70
    32
  0
VERTEX
  5
DE
330
C7
100
AcDbEntity
  8
Layer0
100
AcDbVertex
100
AcDb3dPolylineVertex
 10
209.774052975125
 20
247.767378328775
 30
-0.0000000000000451
 70
    32
  0
VERTEX
  5
DF
330
C7
100
AcDbEntity
  8
Layer0
100
AcDbVertex
100
AcDb3dPolylineVertex
 10
209.137352388187
 20
247.910694531555
 30
-0.0000000000000451
 70
    32
  0
VERTEX
  5
E0
330
C7
100
AcDbEntity
  8
Layer0
100
AcDbVertex
100
AcDb3dPolylineVertex
 10
208.559439810402
 20
248.213917591074
 30
-0.0000000000000677
 70
    32
  0
SEQEND
  5
E1
330
C7
100
AcDbEntity
  8
Layer0
  0
VIEWPORT
  5
14C
330
1B
100
AcDbEntity
 67
     1
  8
0
100
AcDbViewport
 10
5.25
 20
4.0
 30
0.0
 40
12.6
 41
9.6
 68
     1
 69
     1
 12
5.25
 22
4.0
 13
0.0
 23
0.0
 14
0.5
 24
0.5
 15
0.0
 25
0.0
 16
0.0
 26
0.0
 36
1.0
 17
0.0
 27
0.0
 37
0.0
 42
50.0
 43
0.0
 44
0.0
 45
9.6
 50
0.0
 51
0.0
 72
   100
 90
   557152
  1

281
     0
 71
     1
 74
     0
110
0.0
120
0.0
130
0.0
111
1.0
121
0.0
131
0.0
112
0.0
122
1.0
132
0.0
 79
     0
146
0.0
170
     0
 61
     5
292
     1
282
     1
141
0.0
142
0.0
 63
   256
  0
VIEWPORT
  5
14D
330
1B
100
AcDbEntity
 67
     1
  8
0
100
AcDbViewport
 10
5.25
 20
4.0
 30
0.0
 40
8.4
 41
6.4
 68
     2
 69
     2
 12
82.91661763479017
 22
104.1980295291885
 13
0.0
 23
0.0
 14
0.5
 24
0.5
 15
0.0
 25
0.0
 16
0.0
 26
0.0
 36
1.0
 17
0.0
 27
0.0
 37
0.0
 42
50.0
 43
0.0
 44
0.0
 45
318.3605996018383
 50
0.0
 51
0.0
 72
   100
 90
   557152
  1

281
     0
 71
     1
 74
     0
110
0.0
120
0.0
130
0.0
111
1.0
121
0.0
131
0.0
112
0.0
122
1.0
132
0.0
 79
     0
146
0.0
170
     0
 61
     5
292
     1
282
     1
141
0.0
142
0.0
 63
   256
  0
ENDSEC
  0
SECTION
  2
OBJECTS
  0
DICTIONARY
  5
C
330
0
100
AcDbDictionary
281
     1
  3
ACAD_GROUP
350
D
  3
ACAD_IMAGE_VARS
350
123
  3
ACAD_LAYOUT
350
1A
  3
ACAD_MATERIAL
350
10B
  3
ACAD_MLEADERSTYLE
350
14B
  3
ACAD_MLINESTYLE
350
17
  3
ACAD_PLOTSETTINGS
350
19
  3
ACAD_PLOTSTYLENAME
350
E
  3
ACAD_SCALELIST
350
E9
  3
ACAD_TABLESTYLE
350
120
  3
ACAD_VISUALSTYLE
350
10F
  3
ACDB_RECOMPOSE_DATA
350
164
  3
AcDbVariableDictionary
350
145
  3
APPDATA
350
122
  0
DICTIONARY
  5
D
102
{ACAD_REACTORS
330
C
102
}
330
C
100
AcDbDictionary
281
     1
  0
RASTERVARIABLES
  5
123
102
{ACAD_REACTORS
330
C
102
}
330
C
100
AcDbRasterVariables
 90
        0
 70
     1
 71
     1
 72
     0
  0
DICTIONARY
  5
1A
102
{ACAD_REACTORS
330
C
102
}
330
C
100
AcDbDictionary
281
     1
  3
Feuille 1
350
1C
  3
Model
350
1E
  0
DICTIONARY
  5
10B
102
{ACAD_REACTORS
330
C
102
}
330
C
100
AcDbDictionary
281
     1
  3
ByBlock
350
10D
  3
ByLayer
350
10C
  3
Global
350
10E
  0
DICTIONARY
  5
14B
102
{ACAD_REACTORS
330
C
102
}
330
C
100
AcDbDictionary
281
     1
  0
DICTIONARY
  5
17
102
{ACAD_REACTORS
330
C
102
}
330
C
100
AcDbDictionary
281
     1
  3
Standard
350
18
  0
DICTIONARY
  5
19
102
{ACAD_REACTORS
330
C
102
}
330
C
100
AcDbDictionary
281
     1
  0
ACDBDICTIONARYWDFLT
  5
E
102
{ACAD_REACTORS
330
C
102
}
330
C
100
AcDbDictionary
281
     1
  3
Normal
350
F
100
AcDbDictionaryWithDefault
340
F
  0
DICTIONARY
  5
E9
102
{ACAD_REACTORS
330
C
102
}
330
C
100
AcDbDictionary
281
     1
  3
A0
350
EA
  3
A1
350
EB
  3
A2
350
EC
  3
A3
350
ED
  3
A4
350
EE
  3
A5
350
EF
  3
A6
350
F0
  3
A7
350
F1
  3
A8
350
F2
  3
A9
350
F3
  3
B0
350
F4
  3
B1
350
F5
  3
B2
350
F6
  3
B3
350
F7
  3
B4
350
F8
  3
B5
350
F9
  3
B6
350
FA
  3
B7
350
FB
  3
B8
350
FC
  3
B9
350
FD
  3
C0
350
FE
  3
C1
350
FF
  3
C2
350
100
  3
C3
350
101
  3
C4
350
102
  3
C5
350
103
  3
C6
350
104
  3
C7
350
105
  3
C8
350
106
  3
C9
350
107
  3
D0
350
108
  3
D1
350
109
  3
D2
350
10A
  0
DICTIONARY
  5
120
102
{ACAD_REACTORS
330
C
102
}
330
C
100
AcDbDictionary
281
     1
  3
Standard
350
121
  0
DICTIONARY
  5
10F
102
{ACAD_REACTORS
330
C
102
}
330
C
100
AcDbDictionary
281
     1
  3
2dWireframe
350
114
  3
3D Hidden
350
116
  3
3dWireframe
350
115
  3
Basic
350
117
  3
Brighten
350
11B
  3
ColorChange
350
11F
  3
Conceptual
350
119
  3
Dim
350
11A
  3
Facepattern
350
11E
  3
Flat
350
110
  3
FlatWithEdges
350
111
  3
Gouraud
350
112
  3
GouraudWithEdges
350
113
  3
Linepattern
350
11D
  3
Realistic
350
118
  3
Thicken
350
11C
  0
XRECORD
  5
164
102
{ACAD_REACTORS
330
C
102
}
330
C
100
AcDbXrecord
280
     1
 90
        1
330
121
  0
DICTIONARY
  5
145
102
{ACAD_REACTORS
330
C
102
}
330
C
100
AcDbDictionary
281
     1
  3
CANNOSCALE
350
146
  3
CTABLESTYLE
350
14A
  0
DICTIONARY
  5
122
102
{ACAD_REACTORS
330
C
102
}
330
C
100
AcDbDictionary
281
     1
  0
LAYOUT
  5
1C
102
{ACAD_REACTORS
330
1A
102
}
330
1A
100
AcDbPlotSettings
  1

  2
none_device
  4
Letter_(8.50_x_11.00_Inches)
  6

 40
6.35
 41
6.35
 42
6.35
 43
6.35
 44
215.9
 45
279.4
 46
0.0
 47
0.0
 48
0.0
 49
0.0
140
0.0
141
0.0
142
1.0
143
1.0
 70
   688
 72
     0
 73
     1
 74
     5
  7

 75
    16
 76
     0
 77
     2
 78
   300
147
1.0
148
0.0
149
0.0
100
AcDbLayout
  1
Feuille 1
 70
     1
 71
     1
 10
-0.25
 20
-0.25
 11
10.75
 21
8.25
 12
0.0
 22
0.0
 32
0.0
 14
1.05
 24
0.7999999999999998
 34
0.0
 15
9.45
 25
7.2
 35
0.0
146
0.0
 13
0.0
 23
0.0
 33
0.0
 16
1.0
 26
0.0
 36
0.0
 17
0.0
 27
1.0
 37
0.0
 76
     0
330
1B
331
14C
  0
LAYOUT
  5
1E
102
{ACAD_REACTORS
330
1A
102
}
330
1A
100
AcDbPlotSettings
  1

  2
none_device
  4
Letter_(8.50_x_11.00_Inches)
  6

 40
6.35
 41
6.35
 42
6.35
 43
6.35
 44
215.9
 45
279.4
 46
0.0
 47
0.0
 48
0.0
 49
0.0
140
0.0
141
0.0
142
1.0
143
75.10080073445407
 70
  1712
 72
     0
 73
     1
 74
     0
  7

 75
     0
 76
     0
 77
     2
 78
   300
147
0.0133154372552679
148
0.0
149
0.0
100
AcDbLayout
  1
Model
 70
     1
 71
     0
 10
0.0
 20
0.0
 11
12.0
 21
9.0
 12
0.0
 22
0.0
 32
0.0
 14
-54.16676473041967
 24
-51.86108792269307
 34
-0.0000000000000902
 15
220.0
 25
260.25714698107
 35
0.0000000000000902
146
0.0
 13
0.0
 23
0.0
 33
0.0
 16
1.0
 26
0.0
 36
0.0
 17
0.0
 27
1.0
 37
0.0
 76
     0
330
1D
331
E2
  0
MATERIAL
  5
10D
102
{ACAD_REACTORS
330
10B
102
}
330
10B
100
AcDbMaterial
  1
ByBlock
 72
     1
 94
      127
  0
MATERIAL
  5
10C
102
{ACAD_REACTORS
330
10B
102
}
330
10B
100
AcDbMaterial
  1
ByLayer
 72
     1
 94
      127
  0
MATERIAL
  5
10E
102
{ACAD_REACTORS
330
10B
102
}
330
10B
100
AcDbMaterial
  1
Global
 72
     1
 94
      127
  0
MLINESTYLE
  5
18
102
{ACAD_REACTORS
330
17
102
}
330
17
100
AcDbMlineStyle
  2
Standard
 70
     0
  3

 62
   256
 51
90.0
 52
90.0
 71
     2
 49
0.5
 62
   256
  6
BYLAYER
 49
-0.5
 62
   256
  6
BYLAYER
  0
ACDBPLACEHOLDER
  5
F
102
{ACAD_REACTORS
330
E
102
}
330
E
  0
SCALE
  5
EA
102
{ACAD_REACTORS
330
E9
102
}
330
E9
100
AcDbScale
 70
     0
300
1:1
140
1.0
141
1.0
290
     1
  0
SCALE
  5
EB
102
{ACAD_REACTORS
330
E9
102
}
330
E9
100
AcDbScale
 70
     0
300
1:2
140
1.0
141
2.0
290
     0
  0
SCALE
  5
EC
102
{ACAD_REACTORS
330
E9
102
}
330
E9
100
AcDbScale
 70
     0
300
1:4
140
1.0
141
4.0
290
     0
  0
SCALE
  5
ED
102
{ACAD_REACTORS
330
E9
102
}
330
E9
100
AcDbScale
 70
     0
300
1:5
140
1.0
141
5.0
290
     0
  0
SCALE
  5
EE
102
{ACAD_REACTORS
330
E9
102
}
330
E9
100
AcDbScale
 70
     0
300
1:8
140
1.0
141
8.0
290
     0
  0
SCALE
  5
EF
102
{ACAD_REACTORS
330
E9
102
}
330
E9
100
AcDbScale
 70
     0
300
1:10
140
1.0
141
10.0
290
     0
  0
SCALE
  5
F0
102
{ACAD_REACTORS
330
E9
102
}
330
E9
100
AcDbScale
 70
     0
300
1:16
140
1.0
141
16.0
290
     0
  0
SCALE
  5
F1
102
{ACAD_REACTORS
330
E9
102
}
330
E9
100
AcDbScale
 70
     0
300
1:20
140
1.0
141
20.0
290
     0
  0
SCALE
  5
F2
102
{ACAD_REACTORS
330
E9
102
}
330
E9
100
AcDbScale
 70
     0
300
1:30
140
1.0
141
30.0
290
     0
  0
SCALE
  5
F3
102
{ACAD_REACTORS
330
E9
102
}
330
E9
100
AcDbScale
 70
     0
300
1:40
140
1.0
141
40.0
290
     0
  0
SCALE
  5
F4
102
{ACAD_REACTORS
330
E9
102
}
330
E9
100
AcDbScale
 70
     0
300
1:50
140
1.0
141
50.0
290
     0
  0
SCALE
  5
F5
102
{ACAD_REACTORS
330
E9
102
}
330
E9
100
AcDbScale
 70
     0
300
1:100
140
1.0
141
100.0
290
     0
  0
SCALE
  5
F6
102
{ACAD_REACTORS
330
E9
102
}
330
E9
100
AcDbScale
 70
     0
300
2:1
140
2.0
141
1.0
290
     0
  0
SCALE
  5
F7
102
{ACAD_REACTORS
330
E9
102
}
330
E9
100
AcDbScale
 70
     0
300
4:1
140
4.0
141
1.0
290
     0
  0
SCALE
  5
F8
102
{ACAD_REACTORS
330
E9
102
}
330
E9
100
AcDbScale
 70
     0
300
8:1
140
8.0
141
1.0
290
     0
  0
SCALE
  5
F9
102
{ACAD_REACTORS
330
E9
102
}
330
E9
100
AcDbScale
 70
     0
300
10:1
140
10.0
141
1.0
290
     0
  0
SCALE
  5
FA
102
{ACAD_REACTORS
330
E9
102
}
330
E9
100
AcDbScale
 70
     0
300
100:1
140
100.0
141
1.0
290
     0
  0
SCALE
  5
FB
102
{ACAD_REACTORS
330
E9
102
}
330
E9
100
AcDbScale
 70
     0
300
1/128" = 1'-0"
140
0.0078125
141
12.0
290
     0
  0
SCALE
  5
FC
102
{ACAD_REACTORS
330
E9
102
}
330
E9
100
AcDbScale
 70
     0
300
1/64" = 1'-0"
140
0.015625
141
12.0
290
     0
  0
SCALE
  5
FD
102
{ACAD_REACTORS
330
E9
102
}
330
E9
100
AcDbScale
 70
     0
300
1/32" = 1'-0"
140
0.03125
141
12.0
290
     0
  0
SCALE
  5
FE
102
{ACAD_REACTORS
330
E9
102
}
330
E9
100
AcDbScale
 70
     0
300
1/16" = 1'-0"
140
0.0625
141
12.0
290
     0
  0
SCALE
  5
FF
102
{ACAD_REACTORS
330
E9
102
}
330
E9
100
AcDbScale
 70
     0
300
3/32" = 1'-0"
140
0.09375
141
12.0
290
     0
  0
SCALE
  5
100
102
{ACAD_REACTORS
330
E9
102
}
330
E9
100
AcDbScale
 70
     0
300
1/8" = 1'-0"
140
0.125
141
12.0
290
     0
  0
SCALE
  5
101
102
{ACAD_REACTORS
330
E9
102
}
330
E9
100
AcDbScale
 70
     0
300
3/16" = 1'-0"
140
0.1875
141
12.0
290
     0
  0
SCALE
  5
102
102
{ACAD_REACTORS
330
E9
102
}
330
E9
100
AcDbScale
 70
     0
300
1/4" = 1'-0"
140
0.25
141
12.0
290
     0
  0
SCALE
  5
103
102
{ACAD_REACTORS
330
E9
102
}
330
E9
100
AcDbScale
 70
     0
300
3/8" = 1'-0"
140
0.375
141
12.0
290
     0
  0
SCALE
  5
104
102
{ACAD_REACTORS
330
E9
102
}
330
E9
100
AcDbScale
 70
     0
300
1/2" = 1'-0"
140
0.5
141
12.0
290
     0
  0
SCALE
  5
105
102
{ACAD_REACTORS
330
E9
102
}
330
E9
100
AcDbScale
 70
     0
300
3/4" = 1'-0"
140
0.75
141
12.0
290
     0
  0
SCALE
  5
106
102
{ACAD_REACTORS
330
E9
102
}
330
E9
100
AcDbScale
 70
     0
300
1" = 1'-0"
140
1.0
141
12.0
290
     0
  0
SCALE
  5
107
102
{ACAD_REACTORS
330
E9
102
}
330
E9
100
AcDbScale
 70
     0
300
1-1/2" = 1'-0"
140
1.5
141
12.0
290
     0
  0
SCALE
  5
108
102
{ACAD_REACTORS
330
E9
102
}
330
E9
100
AcDbScale
 70
     0
300
3" = 1'-0"
140
3.0
141
12.0
290
     0
  0
SCALE
  5
109
102
{ACAD_REACTORS
330
E9
102
}
330
E9
100
AcDbScale
 70
     0
300
6" = 1'-0"
140
6.0
141
12.0
290
     0
  0
SCALE
  5
10A
102
{ACAD_REACTORS
330
E9
102
}
330
E9
100
AcDbScale
 70
     0
300
1'-0" = 1'-0"
140
12.0
141
12.0
290
     0
  0
TABLESTYLE
  5
121
102
{ACAD_REACTORS
330
120
102
}
102
{ACAD_XDICTIONARY
360
14E
102
}
330
120
100
AcDbTableStyle
  3
Standard
 70
     0
 71
     0
 40
0.06
 41
0.06
280
     0
281
     0
  7
Standard
140
0.18
170
     2
 62
     0
 63
   257
283
     0
 90
        4
 91
        0
  1

274
    -2
284
     1
 64
     0
275
    -2
285
     1
 65
     0
276
    -2
286
     1
 66
     0
277
    -2
287
     1
 67
     0
278
    -2
288
     1
 68
     0
279
    -2
289
     1
 69
     0
  7
Standard
140
0.25
170
     5
 62
     0
 63
   257
283
     0
 90
        4
 91
        0
  1

274
    -2
284
     1
 64
     0
275
    -2
285
     1
 65
     0
276
    -2
286
     1
 66
     0
277
    -2
287
     1
 67
     0
278
    -2
288
     1
 68
     0
279
    -2
289
     1
 69
     0
  7
Standard
140
0.18
170
     5
 62
     0
 63
   257
283
     0
 90
        4
 91
        0
  1

274
    -2
284
     1
 64
     0
275
    -2
285
     1
 65
     0
276
    -2
286
     1
 66
     0
277
    -2
287
     1
 67
     0
278
    -2
288
     1
 68
     0
279
    -2
289
     1
 69
     0
  0
VISUALSTYLE
  5
114
102
{ACAD_REACTORS
330
10F
102
}
330
10F
100
AcDbVisualStyle
  2
2dWireframe
 70
     4
177
     2
291
     0
 71
     0
176
     1
 72
     2
176
     1
 73
     0
176
     1
 90
        0
176
     1
 40
-0.6
176
     1
 41
-30.0
176
     1
 62
     5
 63
     7
421
 16777215
176
     1
 74
     1
176
     1
 91
        4
176
     1
 64
     7
176
     1
 65
   257
176
     1
 75
     1
176
     1
175
     1
176
     1
 42
1.0
176
     1
 92
        0
176
     1
 66
   257
176
     1
 43
1.0
176
     1
 76
     1
176
     1
 77
     6
176
     1
 78
     2
176
     1
 67
     7
176
     1
 79
     5
176
     1
170
     0
176
     1
171
     0
176
     1
290
     0
176
     1
 93
        1
176
     1
 44
0.0
176
     1
173
     0
176
     1
  0
VISUALSTYLE
  5
116
102
{ACAD_REACTORS
330
10F
102
}
330
10F
100
AcDbVisualStyle
  2
3D Hidden
 70
     6
177
     2
291
     0
 71
     1
176
     1
 72
     2
176
     1
 73
     2
176
     1
 90
        0
176
     1
 40
-0.6
176
     1
 41
-30.0
176
     1
 62
     5
 63
     7
421
 16777215
176
     1
 74
     2
176
     1
 91
        2
176
     1
 64
     7
176
     1
 65
   257
176
     1
 75
     2
176
     1
175
     1
176
     1
 42
40.0
176
     1
 92
        0
176
     1
 66
   257
176
     1
 43
1.0
176
     1
 76
     1
176
     1
 77
     6
176
     1
 78
     2
176
     1
 67
     7
176
     1
 79
     3
176
     1
170
     0
176
     1
171
     0
176
     1
290
     0
176
     1
 93
        1
176
     1
 44
0.0
176
     1
173
     0
176
     1
  0
VISUALSTYLE
  5
115
102
{ACAD_REACTORS
330
10F
102
}
330
10F
100
AcDbVisualStyle
  2
3dWireframe
 70
     5
177
     2
291
     0
 71
     0
176
     1
 72
     2
176
     1
 73
     0
176
     1
 90
        0
176
     1
 40
-0.6
176
     1
 41
-30.0
176
     1
 62
     5
 63
     7
421
 16777215
176
     1
 74
     1
176
     1
 91
        4
176
     1
 64
     7
176
     1
 65
   257
176
     1
 75
     1
176
     1
175
     1
176
     1
 42
1.0
176
     1
 92
        0
176
     1
 66
   257
176
     1
 43
1.0
176
     1
 76
     1
176
     1
 77
     6
176
     1
 78
     2
176
     1
 67
     7
176
     1
 79
     5
176
     1
170
     0
176
     1
171
     0
176
     1
290
     0
176
     1
 93
        1
176
     1
 44
0.0
176
     1
173
     0
176
     1
  0
VISUALSTYLE
  5
117
102
{ACAD_REACTORS
330
10F
102
}
330
10F
100
AcDbVisualStyle
  2
Basic
 70
     7
177
     2
291
     1
 71
     1
176
     1
 72
     0
176
     1
 73
     1
176
     1
 90
        0
176
     1
 40
-0.6
176
     1
 41
-30.0
176
     1
 62
     5
 63
     7
421
 16777215
176
     1
 74
     0
176
     1
 91
        4
176
     1
 64
     7
176
     1
 65
   257
176
     1
 75
     1
176
     1
175
     1
176
     1
 42
1.0
176
     1
 92
        8
176
     1
 66
     7
176
     1
 43
1.0
176
     1
 76
     1
176
     1
 77
     6
176
     1
 78
     2
176
     1
 67
     7
176
     1
 79
     5
176
     1
170
     0
176
     1
171
     0
176
     1
290
     0
176
     1
 93
        1
176
     1
 44
0.0
176
     1
173
     0
176
     1
  0
VISUALSTYLE
  5
11B
102
{ACAD_REACTORS
330
10F
102
}
330
10F
100
AcDbVisualStyle
  2
Brighten
 70
    12
177
     2
291
     1
 71
     2
176
     1
 72
     2
176
     1
 73
     0
176
     1
 90
        0
176
     1
 40
-0.6
176
     1
 41
-30.0
176
     1
 62
     5
 63
     7
421
 16777215
176
     1
 74
     1
176
     1
 91
        4
176
     1
 64
     7
176
     1
 65
   257
176
     1
 75
     1
176
     1
175
     1
176
     1
 42
1.0
176
     1
 92
        8
176
     1
 66
     7
176
     1
 43
1.0
176
     1
 76
     1
176
     1
 77
     6
176
     1
 78
     2
176
     1
 67
     7
176
     1
 79
     5
176
     1
170
     0
176
     1
171
     0
176
     1
290
     0
176
     1
 93
        1
176
     1
 44
50.0
176
     1
173
     0
176
     1
  0
VISUALSTYLE
  5
11F
102
{ACAD_REACTORS
330
10F
102
}
330
10F
100
AcDbVisualStyle
  2
ColorChange
 70
    16
177
     2
291
     1
 71
     2
176
     1
 72
     2
176
     1
 73
     3
176
     1
 90
        0
176
     1
 40
-0.6
176
     1
 41
-30.0
176
     1
 62
     5
 63
     8
421
  8421504
176
     1
 74
     1
176
     1
 91
        4
176
     1
 64
     7
176
     1
 65
   257
176
     1
 75
     1
176
     1
175
     1
176
     1
 42
1.0
176
     1
 92
        8
176
     1
 66
     8
424
  8421504
176
     1
 43
1.0
176
     1
 76
     1
176
     1
 77
     6
176
     1
 78
     2
176
     1
 67
     7
176
     1
 79
     5
176
     1
170
     0
176
     1
171
     0
176
     1
290
     0
176
     1
 93
        1
176
     1
 44
0.0
176
     1
173
     0
176
     1
  0
VISUALSTYLE
  5
119
102
{ACAD_REACTORS
330
10F
102
}
330
10F
100
AcDbVisualStyle
  2
Conceptual
 70
     9
177
     2
291
     0
 71
     3
176
     1
 72
     2
176
     1
 73
     0
176
     1
 90
        0
176
     1
 40
-0.6
176
     1
 41
-30.0
176
     1
 62
     5
 63
     7
421
 16777215
176
     1
 74
     2
176
     1
 91
        2
176
     1
 64
     7
176
     1
 65
   257
176
     1
 75
     1
176
     1
175
     1
176
     1
 42
40.0
176
     1
 92
        8
176
     1
 66
     7
176
     1
 43
1.0
176
     1
 76
     1
176
     1
 77
     6
176
     1
 78
     2
176
     1
 67
     7
176
     1
 79
     3
176
     1
170
     0
176
     1
171
     0
176
     1
290
     0
176
     1
 93
        1
176
     1
 44
0.0
176
     1
173
     0
176
     1
  0
VISUALSTYLE
  5
11A
102
{ACAD_REACTORS
330
10F
102
}
330
10F
100
AcDbVisualStyle
  2
Dim
 70
    11
177
     2
291
     1
 71
     2
176
     1
 72
     2
176
     1
 73
     0
176
     1
 90
        0
176
     1
 40
-0.6
176
     1
 41
-30.0
176
     1
 62
     5
 63
     7
421
 16777215
176
     1
 74
     1
176
     1
 91
        4
176
     1
 64
     7
176
     1
 65
   257
176
     1
 75
     1
176
     1
175
     1
176
     1
 42
1.0
176
     1
 92
        8
176
     1
 66
     7
176
     1
 43
1.0
176
     1
 76
     1
176
     1
 77
     6
176
     1
 78
     2
176
     1
 67
     7
176
     1
 79
     5
176
     1
170
     0
176
     1
171
     0
176
     1
290
     0
176
     1
 93
        1
176
     1
 44
-50.0
176
     1
173
     0
176
     1
  0
VISUALSTYLE
  5
11E
102
{ACAD_REACTORS
330
10F
102
}
330
10F
100
AcDbVisualStyle
  2
Facepattern
 70
    15
177
     2
291
     1
 71
     2
176
     1
 72
     2
176
     1
 73
     0
176
     1
 90
        0
176
     1
 40
-0.6
176
     1
 41
-30.0
176
     1
 62
     5
 63
     7
421
 16777215
176
     1
 74
     1
176
     1
 91
        4
176
     1
 64
     7
176
     1
 65
   257
176
     1
 75
     1
176
     1
175
     1
176
     1
 42
1.0
176
     1
 92
        8
176
     1
 66
     7
176
     1
 43
1.0
176
     1
 76
     1
176
     1
 77
     6
176
     1
 78
     2
176
     1
 67
     7
176
     1
 79
     5
176
     1
170
     0
176
     1
171
     0
176
     1
290
     0
176
     1
 93
        1
176
     1
 44
0.0
176
     1
173
     0
176
     1
  0
VISUALSTYLE
  5
110
102
{ACAD_REACTORS
330
10F
102
}
330
10F
100
AcDbVisualStyle
  2
Flat
 70
     0
177
     2
291
     1
 71
     2
176
     1
 72
     1
176
     1
 73
     1
176
     1
 90
        2
176
     1
 40
-0.6
176
     1
 41
30.0
176
     1
 62
     5
 63
     7
421
 16777215
176
     1
 74
     0
176
     1
 91
        4
176
     1
 64
     7
176
     1
 65
   257
176
     1
 75
     1
176
     1
175
     1
176
     1
 42
1.0
176
     1
 92
        8
176
     1
 66
     7
176
     1
 43
1.0
176
     1
 76
     1
176
     1
 77
     6
176
     1
 78
     2
176
     1
 67
     7
176
     1
 79
     5
176
     1
170
     0
176
     1
171
     0
176
     1
290
     0
176
     1
 93
       13
176
     1
 44
0.0
176
     1
173
     0
176
     1
  0
VISUALSTYLE
  5
111
102
{ACAD_REACTORS
330
10F
102
}
330
10F
100
AcDbVisualStyle
  2
FlatWithEdges
 70
     1
177
     2
291
     1
 71
     2
176
     1
 72
     1
176
     1
 73
     1
176
     1
 90
        2
176
     1
 40
-0.6
176
     1
 41
30.0
176
     1
 62
     5
 63
     7
421
 16777215
176
     1
 74
     1
176
     1
 91
        4
176
     1
 64
     7
176
     1
 65
   257
176
     1
 75
     1
176
     1
175
     1
176
     1
 42
1.0
176
     1
 92
        0
176
     1
 66
   257
176
     1
 43
1.0
176
     1
 76
     1
176
     1
 77
     6
176
     1
 78
     2
176
     1
 67
     7
176
     1
 79
     5
176
     1
170
     0
176
     1
171
     0
176
     1
290
     0
176
     1
 93
       13
176
     1
 44
0.0
176
     1
173
     0
176
     1
  0
VISUALSTYLE
  5
112
102
{ACAD_REACTORS
330
10F
102
}
330
10F
100
AcDbVisualStyle
  2
Gouraud
 70
     2
177
     2
291
     1
 71
     2
176
     1
 72
     2
176
     1
 73
     1
176
     1
 90
        2
176
     1
 40
-0.6
176
     1
 41
30.0
176
     1
 62
     5
 63
     7
421
 16777215
176
     1
 74
     0
176
     1
 91
        4
176
     1
 64
     7
176
     1
 65
   257
176
     1
 75
     1
176
     1
175
     1
176
     1
 42
1.0
176
     1
 92
        0
176
     1
 66
     7
176
     1
 43
1.0
176
     1
 76
     1
176
     1
 77
     6
176
     1
 78
     2
176
     1
 67
     7
176
     1
 79
     5
176
     1
170
     0
176
     1
171
     0
176
     1
290
     0
176
     1
 93
       13
176
     1
 44
0.0
176
     1
173
     0
176
     1
  0
VISUALSTYLE
  5
113
102
{ACAD_REACTORS
330
10F
102
}
330
10F
100
AcDbVisualStyle
  2
GouraudWithEdges
 70
     3
177
     2
291
     1
 71
     2
176
     1
 72
     2
176
     1
 73
     1
176
     1
 90
        2
176
     1
 40
-0.6
176
     1
 41
30.0
176
     1
 62
     5
 63
     7
421
 16777215
176
     1
 74
     1
176
     1
 91
        4
176
     1
 64
     7
176
     1
 65
   257
176
     1
 75
     1
176
     1
175
     1
176
     1
 42
1.0
176
     1
 92
        0
176
     1
 66
   257
176
     1
 43
1.0
176
     1
 76
     1
176
     1
 77
     6
176
     1
 78
     2
176
     1
 67
     7
176
     1
 79
     5
176
     1
170
     0
176
     1
171
     0
176
     1
290
     0
176
     1
 93
       13
176
     1
 44
0.0
176
     1
173
     0
176
     1
  0
VISUALSTYLE
  5
11D
102
{ACAD_REACTORS
330
10F
102
}
330
10F
100
AcDbVisualStyle
  2
Linepattern
 70
    14
177
     2
291
     1
 71
     2
176
     1
 72
     2
176
     1
 73
     0
176
     1
 90
        0
176
     1
 40
-0.6
176
     1
 41
-30.0
176
     1
 62
     5
 63
     7
421
 16777215
176
     1
 74
     1
176
     1
 91
        4
176
     1
 64
     7
176
     1
 65
   257
176
     1
 75
     7
176
     1
175
     7
176
     1
 42
1.0
176
     1
 92
        8
176
     1
 66
     7
176
     1
 43
1.0
176
     1
 76
     1
176
     1
 77
     6
176
     1
 78
     2
176
     1
 67
     7
176
     1
 79
     5
176
     1
170
     0
176
     1
171
     0
176
     1
290
     0
176
     1
 93
        1
176
     1
 44
0.0
176
     1
173
     0
176
     1
  0
VISUALSTYLE
  5
118
102
{ACAD_REACTORS
330
10F
102
}
330
10F
100
AcDbVisualStyle
  2
Realistic
 70
     8
177
     2
291
     0
 71
     2
176
     1
 72
     2
176
     1
 73
     0
176
     1
 90
        0
176
     1
 40
-0.6
176
     1
 41
-30.0
176
     1
 62
     5
 63
     7
421
 16777215
176
     1
 74
     1
176
     1
 91
        0
176
     1
 64
     7
176
     1
 65
   257
176
     1
 75
     1
176
     1
175
     1
176
     1
 42
1.0
176
     1
 92
        8
176
     1
 66
     8
424
  7895160
176
     1
 43
1.0
176
     1
 76
     1
176
     1
 77
     6
176
     1
 78
     2
176
     1
 67
     7
176
     1
 79
     5
176
     1
170
     0
176
     1
171
     0
176
     1
290
     0
176
     1
 93
       13
176
     1
 44
0.0
176
     1
173
     0
176
     1
  0
VISUALSTYLE
  5
11C
102
{ACAD_REACTORS
330
10F
102
}
330
10F
100
AcDbVisualStyle
  2
Thicken
 70
    13
177
     2
291
     1
 71
     2
176
     1
 72
     2
176
     1
 73
     0
176
     1
 90
        0
176
     1
 40
-0.6
176
     1
 41
-30.0
176
     1
 62
     5
 63
     7
421
 16777215
176
     1
 74
     1
176
     1
 91
        4
176
     1
 64
     7
176
     1
 65
   257
176
     1
 75
     1
176
     1
175
     1
176
     1
 42
1.0
176
     1
 92
       12
176
     1
 66
     7
176
     1
 43
1.0
176
     1
 76
     1
176
     1
 77
     6
176
     1
 78
     2
176
     1
 67
     7
176
     1
 79
     5
176
     1
170
     0
176
     1
171
     0
176
     1
290
     0
176
     1
 93
        1
176
     1
 44
0.0
176
     1
173
     0
176
     1
  0
DICTIONARYVAR
  5
146
102
{ACAD_REACTORS
330
145
102
}
330
145
100
DictionaryVariables
280
     0
  1
1:1
  0
DICTIONARYVAR
  5
14A
102
{ACAD_REACTORS
330
145
102
}
330
145
100
DictionaryVariables
280
     0
  1
Standard
  0
DICTIONARY
  5
14E
330
121
100
AcDbDictionary
280
     1
281
     1
  3
ACAD_ROUNDTRIP_2008_TABLESTYLE_CELLSTYLEMAP
360
163
  0
CELLSTYLEMAP
  5
163
102
{ACAD_REACTORS
330
14E
102
}
330
14E
100
AcDbCellStyleMap
 90
        3
300
CELLSTYLE
  1
TABLEFORMAT_BEGIN
 90
        5
170
     1
 91
        0
 92
    32768
 62
   257
 93
        1
300
CONTENTFORMAT
  1
CONTENTFORMAT_BEGIN
 90
        0
 91
        0
 92
        4
 93
        0
300

 40
0.0
140
1.0
 94
        5
 62
     0
340
11
144
0.25
309
CONTENTFORMAT_END
171
     1
301
MARGIN
  1
CELLMARGIN_BEGIN
 40
0.06
 40
0.06
 40
0.06
 40
0.06
 40
0.06
 40
0.06
309
CELLMARGIN_END
 94
        6
 95
        1
302
GRIDFORMAT
  1
GRIDFORMAT_BEGIN
 90
        0
 91
        1
 62
     0
 92
       -2
340
0
 93
        0
 40
0.045
309
GRIDFORMAT_END
 95
        2
302
GRIDFORMAT
  1
GRIDFORMAT_BEGIN
 90
        0
 91
        1
 62
     0
 92
       -2
340
0
 93
        0
 40
0.045
309
GRIDFORMAT_END
 95
        4
302
GRIDFORMAT
  1
GRIDFORMAT_BEGIN
 90
        0
 91
        1
 62
     0
 92
       -2
340
0
 93
        0
 40
0.045
309
GRIDFORMAT_END
 95
        8
302
GRIDFORMAT
  1
GRIDFORMAT_BEGIN
 90
        0
 91
        1
 62
     0
 92
       -2
340
0
 93
        0
 40
0.045
309
GRIDFORMAT_END
 95
       16
302
GRIDFORMAT
  1
GRIDFORMAT_BEGIN
 90
        0
 91
        1
 62
     0
 92
       -2
340
0
 93
        0
 40
0.045
309
GRIDFORMAT_END
 95
       32
302
GRIDFORMAT
  1
GRIDFORMAT_BEGIN
 90
        0
 91
        1
 62
     0
 92
       -2
340
0
 93
        0
 40
0.045
309
GRIDFORMAT_END
309
TABLEFORMAT_END
  1
CELLSTYLE_BEGIN
 90
        1
 91
        1
300
_TITLE
309
CELLSTYLE_END
300
CELLSTYLE
  1
TABLEFORMAT_BEGIN
 90
        5
170
     1
 91
        0
 92
        0
 62
   257
 93
        1
300
CONTENTFORMAT
  1
CONTENTFORMAT_BEGIN
 90
        0
 91
        0
 92
        4
 93
        0
300

 40
0.0
140
1.0
 94
        5
 62
     0
340
11
144
0.18
309
CONTENTFORMAT_END
171
     1
301
MARGIN
  1
CELLMARGIN_BEGIN
 40
0.06
 40
0.06
 40
0.06
 40
0.06
 40
0.06
 40
0.06
309
CELLMARGIN_END
 94
        6
 95
        1
302
GRIDFORMAT
  1
GRIDFORMAT_BEGIN
 90
        0
 91
        1
 62
     0
 92
       -2
340
0
 93
        0
 40
0.045
309
GRIDFORMAT_END
 95
        2
302
GRIDFORMAT
  1
GRIDFORMAT_BEGIN
 90
        0
 91
        1
 62
     0
 92
       -2
340
0
 93
        0
 40
0.045
309
GRIDFORMAT_END
 95
        4
302
GRIDFORMAT
  1
GRIDFORMAT_BEGIN
 90
        0
 91
        1
 62
     0
 92
       -2
340
0
 93
        0
 40
0.045
309
GRIDFORMAT_END
 95
        8
302
GRIDFORMAT
  1
GRIDFORMAT_BEGIN
 90
        0
 91
        1
 62
     0
 92
       -2
340
0
 93
        0
 40
0.045
309
GRIDFORMAT_END
 95
       16
302
GRIDFORMAT
  1
GRIDFORMAT_BEGIN
 90
        0
 91
        1
 62
     0
 92
       -2
340
0
 93
        0
 40
0.045
309
GRIDFORMAT_END
 95
       32
302
GRIDFORMAT
  1
GRIDFORMAT_BEGIN
 90
        0
 91
        1
 62
     0
 92
       -2
340
0
 93
        0
 40
0.045
309
GRIDFORMAT_END
309
TABLEFORMAT_END
  1
CELLSTYLE_BEGIN
 90
        2
 91
        1
300
_HEADER
309
CELLSTYLE_END
300
CELLSTYLE
  1
TABLEFORMAT_BEGIN
 90
        5
170
     1
 91
        0
 92
        0
 62
   257
 93
        1
300
CONTENTFORMAT
  1
CONTENTFORMAT_BEGIN
 90
        0
 91
        0
 92
        4
 93
        0
300

 40
0.0
140
1.0
 94
        2
 62
     0
340
11
144
0.18
309
CONTENTFORMAT_END
171
     1
301
MARGIN
  1
CELLMARGIN_BEGIN
 40
0.06
 40
0.06
 40
0.06
 40
0.06
 40
0.06
 40
0.06
309
CELLMARGIN_END
 94
        6
 95
        1
302
GRIDFORMAT
  1
GRIDFORMAT_BEGIN
 90
        0
 91
        1
 62
     0
 92
       -2
340
0
 93
        0
 40
0.045
309
GRIDFORMAT_END
 95
        2
302
GRIDFORMAT
  1
GRIDFORMAT_BEGIN
 90
        0
 91
        1
 62
     0
 92
       -2
340
0
 93
        0
 40
0.045
309
GRIDFORMAT_END
 95
        4
302
GRIDFORMAT
  1
GRIDFORMAT_BEGIN
 90
        0
 91
        1
 62
     0
 92
       -2
340
0
 93
        0
 40
0.045
309
GRIDFORMAT_END
 95
        8
302
GRIDFORMAT
  1
GRIDFORMAT_BEGIN
 90
        0
 91
        1
 62
     0
 92
       -2
340
0
 93
        0
 40
0.045
309
GRIDFORMAT_END
 95
       16
302
GRIDFORMAT
  1
GRIDFORMAT_BEGIN
 90
        0
 91
        1
 62
     0
 92
       -2
340
0
 93
        0
 40
0.045
309
GRIDFORMAT_END
 95
       32
302
GRIDFORMAT
  1
GRIDFORMAT_BEGIN
 90
        0
 91
        1
 62
     0
 92
       -2
340
0
 93
        0
 40
0.045
309
GRIDFORMAT_END
309
TABLEFORMAT_END
  1
CELLSTYLE_BEGIN
 90
        3
 91
        2
300
_DATA
309
CELLSTYLE_END
  0
ENDSEC
  0
EOF
