  0
SECTION
  2
HEADER
  9
$ACADVER
  1
AC1009
  9
$EXTMAX
 10
20.0
 20
40.0
 30
0.0
  9
$EXTMIN
 10
0.0
 20
0.0
 30
0.0
  9
$INSUNITS
 70
     4
  9
$LUNITS
 70
     2
  9
$LUPREC
 70
     4
  9
$MEASUREMENT
 70
     1
  0
ENDSEC
  0
SECTION
  2
TABLES
  0
TABLE
  2
LAYER
 70
     1
  0
LAYER
  2
0
 70
     0
 62
     7
  6
Continuous
  0
LAYER
  2
Layer0
 70
     0
 62
    70
  6
Continuous
  0
ENDTAB
  0
TABLE
  2
APPID
 70
     1
  0
APPID
  2
ACAD
 70
     0
  0
ENDTAB
  0
ENDSEC
  0
SECTION
  2
ENTITIES
  0
POLYLINE
  8
Layer0
 66
     1
 10
0.0
 20
0.0
 30
48.927518497887
 70
     9
  0
VERTEX
  8
Layer0
 10
1.509619610485
 20
27.642615839848
 30
48.927518497887
 42
0.0
  0
VERTEX
  8
Layer0
 10
0.0
 20
27.642615839848
 30
48.9275184978871
 42
0.0
  0
VERTEX
  8
Layer0
 10
0.0
 20
12.442615839848
 30
48.927518497887
 42
0.0
  0
VERTEX
  8
Layer0
 10
1.509619610485
 20
12.442615839848
 30
48.927518497887
 42
0.0
  0
VERTEX
  8
Layer0
 10
1.5
 20
16.378679656441
 30
48.927518497887
 42
0.0
  0
VERTEX
  8
Layer0
 10
5.24798941321
 20
12.630690243231
 30
48.9275184978871
 42
0.0
  0
VERTEX
  8
Layer0
 10
5.24798941321
 20
7.36930975677
 30
48.927518497887
 42
0.0
  0
VERTEX
  8
Layer0
 10
1.5
 20
3.62132034356
 30
48.927518497887
 42
0.0
  0
VERTEX
  8
Layer0
 10
1.509619610485
 20
7.642615839848
 30
48.927518497887
 42
0.0
  0
VERTEX
  8
Layer0
 10
0.0
 20
7.642615839848
 30
48.927518497887
 42
0.0
  0
VERTEX
  8
Layer0
 10
0.0
 20
0.0
 30
48.927518497887
 42
0.0
  0
VERTEX
  8
Layer0
 10
7.557384160153
 20
0.0
 30
48.927518497887
 42
0.0
  0
VERTEX
  8
Layer0
 10
7.557384160153
 20
1.509619610485
 30
48.927518497887
 42
0.0
  0
VERTEX
  8
Layer0
 10
3.62132034356
 20
1.500000000001
 30
48.927518497887
 42
0.0
  0
VERTEX
  8
Layer0
 10
7.369309756769
 20
5.24798941321
 30
48.9275184978869
 42
0.0
  0
VERTEX
  8
Layer0
 10
12.630690243231
 20
5.24798941321
 30
48.9275184978869
 42
0.0
  0
VERTEX
  8
Layer0
 10
16.378679656441
 20
1.500000000001
 30
48.927518497887
 42
0.0
  0
VERTEX
  8
Layer0
 10
12.357384160153
 20
1.509619610485
 30
48.927518497887
 42
0.0
  0
VERTEX
  8
Layer0
 10
12.357384160153
 20
0.0
 30
48.927518497887
 42
0.0
  0
VERTEX
  8
Layer0
 10
20.0
 20
0.0
 30
48.927518497887
 42
0.0
  0
VERTEX
  8
Layer0
 10
19.990948820096
 20
7.642615839848
 30
48.927518497887
 42
0.0
  0
VERTEX
  8
Layer0
 10
18.481329209611
 20
7.642615839848
 30
48.927518497887
 42
0.0
  0
VERTEX
  8
Layer0
 10
18.481329209611
 20
3.666395618937
 30
48.9275184978869
 42
0.0
  0
VERTEX
  8
Layer0
 10
14.770681377179
 20
7.377043451369
 30
48.927518497887
 42
0.0
  0
VERTEX
  8
Layer0
 10
14.770681377179
 20
12.622956548632
 30
48.9275184978871
 42
0.0
  0
VERTEX
  8
Layer0
 10
18.481329209611
 20
16.333604381064
 30
48.9275184978869
 42
0.0
  0
VERTEX
  8
Layer0
 10
18.481329209611
 20
12.442615839848
 30
48.927518497887
 42
0.0
  0
VERTEX
  8
Layer0
 10
19.990948820096
 20
12.442615839848
 30
48.927518497887
 42
0.0
  0
VERTEX
  8
Layer0
 10
19.990948820096
 20
27.642615839848
 30
48.927518497887
 42
0.0
  0
VERTEX
  8
Layer0
 10
18.481329209611
 20
27.642615839848
 30
48.9275184978871
 42
0.0
  0
VERTEX
  8
Layer0
 10
18.481329209611
 20
23.666395618936
 30
48.927518497887
 42
0.0
  0
VERTEX
  8
Layer0
 10
14.770681377179
 20
27.377043451369
 30
48.927518497887
 42
0.0
  0
VERTEX
  8
Layer0
 10
14.770681377179
 20
32.622956548632
 30
48.9275184978869
 42
0.0
  0
VERTEX
  8
Layer0
 10
18.481329209611
 20
36.333604381064
 30
48.9275184978869
 42
0.0
  0
VERTEX
  8
Layer0
 10
18.481329209611
 20
32.442615839848
 30
48.9275184978869
 42
0.0
  0
VERTEX
  8
Layer0
 10
19.990948820096
 20
32.442615839848
 30
48.9275184978869
 42
0.0
  0
VERTEX
  8
Layer0
 10
20.0
 20
40.0
 30
48.9275184978871
 42
0.0
  0
VERTEX
  8
Layer0
 10
12.357384160153
 20
40.0
 30
48.9275184978871
 42
0.0
  0
VERTEX
  8
Layer0
 10
12.357384160153
 20
38.4903803895151
 30
48.927518497887
 42
0.0
  0
VERTEX
  8
Layer0
 10
16.355455862343
 20
38.4903803895151
 30
48.927518497887
 42
0.0
  0
VERTEX
  8
Layer0
 10
12.626705670103
 20
34.7616301972751
 30
48.927518497887
 42
0.0
  0
VERTEX
  8
Layer0
 10
7.373294329897
 20
34.7616301972751
 30
48.927518497887
 42
0.0
  0
VERTEX
  8
Layer0
 10
3.644544137657
 20
38.4903803895151
 30
48.927518497887
 42
0.0
  0
VERTEX
  8
Layer0
 10
7.557384160153
 20
38.4903803895151
 30
48.927518497887
 42
0.0
  0
VERTEX
  8
Layer0
 10
7.557384160153
 20
40.0
 30
48.9275184978871
 42
0.0
  0
VERTEX
  8
Layer0
 10
0.0
 20
40.0
 30
48.9275184978871
 42
0.0
  0
VERTEX
  8
Layer0
 10
0.0
 20
32.442615839848
 30
48.9275184978869
 42
0.0
  0
VERTEX
  8
Layer0
 10
1.509619610485
 20
32.442615839848
 30
48.9275184978869
 42
0.0
  0
VERTEX
  8
Layer0
 10
1.5
 20
36.378679656441
 30
48.927518497887
 42
0.0
  0
VERTEX
  8
Layer0
 10
5.24798941321
 20
32.630690243231
 30
48.9275184978869
 42
0.0
  0
VERTEX
  8
Layer0
 10
5.24798941321
 20
27.369309756769
 30
48.9275184978869
 42
0.0
  0
VERTEX
  8
Layer0
 10
1.5
 20
23.62132034356
 30
48.9275184978869
 42
0.0
  0
SEQEND
  0
POLYLINE
  8
Layer0
 66
     1
 10
0.0
 20
0.0
 30
48.9275184978869
 70
     9
  0
VERTEX
  8
Layer0
 10
12.414814565723
 20
29.352952387244
 30
48.9275184978869
 42
0.0
  0
VERTEX
  8
Layer0
 10
12.165063509461
 20
28.75
 30
48.927518497887
 42
0.0
  0
VERTEX
  8
Layer0
 10
11.767766952967
 20
28.232233047034
 30
48.927518497887
 42
0.0
  0
VERTEX
  8
Layer0
 10
11.25
 20
27.834936490539
 30
48.9275184978869
 42
0.0
  0
VERTEX
  8
Layer0
 10
10.647047612757
 20
27.585185434277
 30
48.9275184978869
 42
0.0
  0
VERTEX
  8
Layer0
 10
10.0
 20
27.5
 30
48.927518497887
 42
0.0
  0
VERTEX
  8
Layer0
 10
9.352952387244
 20
27.585185434277
 30
48.9275184978869
 42
0.0
  0
VERTEX
  8
Layer0
 10
8.75
 20
27.834936490539
 30
48.9275184978869
 42
0.0
  0
VERTEX
  8
Layer0
 10
8.232233047034
 20
28.232233047034
 30
48.927518497887
 42
0.0
  0
VERTEX
  8
Layer0
 10
7.834936490539
 20
28.75
 30
48.927518497887
 42
0.0
  0
VERTEX
  8
Layer0
 10
7.585185434278
 20
29.352952387244
 30
48.9275184978869
 42
0.0
  0
VERTEX
  8
Layer0
 10
7.5
 20
30.0
 30
48.9275184978869
 42
0.0
  0
VERTEX
  8
Layer0
 10
7.585185434278
 20
30.647047612756
 30
48.9275184978869
 42
0.0
  0
VERTEX
  8
Layer0
 10
7.834936490539
 20
31.25
 30
48.927518497887
 42
0.0
  0
VERTEX
  8
Layer0
 10
8.232233047034
 20
31.767766952966
 30
48.927518497887
 42
0.0
  0
VERTEX
  8
Layer0
 10
8.75
 20
32.165063509461
 30
48.927518497887
 42
0.0
  0
VERTEX
  8
Layer0
 10
9.352952387244
 20
32.414814565723
 30
48.927518497887
 42
0.0
  0
VERTEX
  8
Layer0
 10
10.0
 20
32.5
 30
48.9275184978869
 42
0.0
  0
VERTEX
  8
Layer0
 10
10.647047612757
 20
32.414814565723
 30
48.927518497887
 42
0.0
  0
VERTEX
  8
Layer0
 10
11.25
 20
32.165063509461
 30
48.927518497887
 42
0.0
  0
VERTEX
  8
Layer0
 10
11.767766952967
 20
31.767766952966
 30
48.927518497887
 42
0.0
  0
VERTEX
  8
Layer0
 10
12.165063509461
 20
31.25
 30
48.927518497887
 42
0.0
  0
VERTEX
  8
Layer0
 10
12.414814565723
 20
30.647047612756
 30
48.9275184978869
 42
0.0
  0
VERTEX
  8
Layer0
 10
12.5
 20
30.0
 30
48.9275184978869
 42
0.0
  0
SEQEND
  0
POLYLINE
  8
Layer0
 66
     1
 10
0.0
 20
0.0
 30
48.927518497887
 70
     9
  0
VERTEX
  8
Layer0
 10
12.414814565723
 20
9.352952387244
 30
48.927518497887
 42
0.0
  0
VERTEX
  8
Layer0
 10
12.165063509461
 20
8.75
 30
48.9275184978869
 42
0.0
  0
VERTEX
  8
Layer0
 10
11.767766952967
 20
8.232233047034
 30
48.9275184978869
 42
0.0
  0
VERTEX
  8
Layer0
 10
11.25
 20
7.83493649054
 30
48.9275184978869
 42
0.0
  0
VERTEX
  8
Layer0
 10
10.647047612757
 20
7.585185434278
 30
48.927518497887
 42
0.0
  0
VERTEX
  8
Layer0
 10
10.0
 20
7.500000000001
 30
48.9275184978869
 42
0.0
  0
VERTEX
  8
Layer0
 10
9.352952387244
 20
7.585185434278
 30
48.927518497887
 42
0.0
  0
VERTEX
  8
Layer0
 10
8.75
 20
7.83493649054
 30
48.9275184978869
 42
0.0
  0
VERTEX
  8
Layer0
 10
8.232233047034
 20
8.232233047034
 30
48.9275184978869
 42
0.0
  0
VERTEX
  8
Layer0
 10
7.834936490539
 20
8.75
 30
48.9275184978869
 42
0.0
  0
VERTEX
  8
Layer0
 10
7.585185434278
 20
9.352952387244
 30
48.927518497887
 42
0.0
  0
VERTEX
  8
Layer0
 10
7.5
 20
10.000000000001
 30
48.9275184978869
 42
0.0
  0
VERTEX
  8
Layer0
 10
7.585185434278
 20
10.647047612757
 30
48.9275184978871
 42
0.0
  0
VERTEX
  8
Layer0
 10
7.834936490539
 20
11.25
 30
48.9275184978869
 42
0.0
  0
VERTEX
  8
Layer0
 10
8.232233047034
 20
11.767766952967
 30
48.927518497887
 42
0.0
  0
VERTEX
  8
Layer0
 10
8.75
 20
12.165063509462
 30
48.927518497887
 42
0.0
  0
VERTEX
  8
Layer0
 10
9.352952387244
 20
12.414814565723
 30
48.9275184978869
 42
0.0
  0
VERTEX
  8
Layer0
 10
10.0
 20
12.500000000001
 30
48.927518497887
 42
0.0
  0
VERTEX
  8
Layer0
 10
10.647047612757
 20
12.414814565723
 30
48.9275184978869
 42
0.0
  0
VERTEX
  8
Layer0
 10
11.25
 20
12.165063509462
 30
48.927518497887
 42
0.0
  0
VERTEX
  8
Layer0
 10
11.767766952967
 20
11.767766952967
 30
48.927518497887
 42
0.0
  0
VERTEX
  8
Layer0
 10
12.165063509461
 20
11.25
 30
48.9275184978869
 42
0.0
  0
VERTEX
  8
Layer0
 10
12.414814565723
 20
10.647047612757
 30
48.9275184978871
 42
0.0
  0
VERTEX
  8
Layer0
 10
12.5
 20
10.000000000001
 30
48.9275184978869
 42
0.0
  0
SEQEND
  0
POLYLINE
  8
Layer0
 66
     1
 10
0.0
 20
0.0
 30
48.9275184978868
 70
     9
  0
VERTEX
  8
Layer0
 10
3.644544137657
 20
18.490380389516
 30
48.9275184978868
 42
0.0
  0
VERTEX
  8
Layer0
 10
3.557384160152
 20
18.490380389516
 30
48.9275184978868
 42
0.0
  0
VERTEX
  8
Layer0
 10
3.557384160152
 20
21.5096196104849
 30
48.9275184978869
 42
0.0
  0
VERTEX
  8
Layer0
 10
3.62132034356
 20
21.5
 30
48.9275184978869
 42
0.0
  0
VERTEX
  8
Layer0
 10
7.369309756769
 20
25.24798941321
 30
48.9275184978869
 42
0.0
  0
VERTEX
  8
Layer0
 10
12.630690243231
 20
25.24798941321
 30
48.9275184978869
 42
0.0
  0
VERTEX
  8
Layer0
 10
16.378679656441
 20
21.5
 30
48.9275184978869
 42
0.0
  0
VERTEX
  8
Layer0
 10
16.355455862343
 20
18.490380389516
 30
48.9275184978868
 42
0.0
  0
VERTEX
  8
Layer0
 10
12.626705670103
 20
14.761630197276
 30
48.927518497887
 42
0.0
  0
VERTEX
  8
Layer0
 10
7.373294329897
 20
14.761630197276
 30
48.927518497887
 42
0.0
  0
SEQEND
  0
ENDSEC
  0
EOF
