solid OpenSCAD_Model
  facet normal -1 0 -6.12323e-17
    outer loop
      vertex -10 0 25
      vertex -10 3.11867 24.6722
      vertex -10 -3.11867 24.6722
    endloop
  endfacet
  facet normal -1 0 -6.12323e-17
    outer loop
      vertex -10 -3.11867 24.6722
      vertex -10 3.11867 24.6722
      vertex -10 6.10105 23.7032
    endloop
  endfacet
  facet normal -1 0 -6.12323e-17
    outer loop
      vertex -10 -3.11867 24.6722
      vertex -10 6.10105 23.7032
      vertex -10 8.81678 22.1353
    endloop
  endfacet
  facet normal -1 0 -6.12323e-17
    outer loop
      vertex -10 -3.11867 24.6722
      vertex -10 8.81678 22.1353
      vertex -10 11.1472 20.037
    endloop
  endfacet
  facet normal -1 0 -6.12323e-17
    outer loop
      vertex -10 -3.11867 24.6722
      vertex -10 11.1472 20.037
      vertex -10 12.9904 17.5
    endloop
  endfacet
  facet normal -1 0 -6.12323e-17
    outer loop
      vertex -10 -3.11867 24.6722
      vertex -10 12.9904 17.5
      vertex -10 14.2658 14.6353
    endloop
  endfacet
  facet normal -1 0 -6.12323e-17
    outer loop
      vertex -10 -3.11867 24.6722
      vertex -10 14.2658 14.6353
      vertex -10 14.9178 11.5679
    endloop
  endfacet
  facet normal -1 0 -6.12323e-17
    outer loop
      vertex -10 -3.11867 24.6722
      vertex -10 14.9178 11.5679
      vertex -10 14.9178 10
    endloop
  endfacet
  facet normal -1 0 -6.12323e-17
    outer loop
      vertex -10 4.0947 10.9346
      vertex -10 14.9178 10
      vertex -10 4.0947 10
    endloop
  endfacet
  facet normal -1 0 -6.12323e-17
    outer loop
      vertex -10 3.28369 12.6187
      vertex -10 14.9178 10
      vertex -10 4.0947 10.9346
    endloop
  endfacet
  facet normal -1 0 -6.12323e-17
    outer loop
      vertex -10 -3.11867 24.6722
      vertex -10 14.9178 10
      vertex -10 3.28369 12.6187
    endloop
  endfacet
  facet normal -1 0 -6.12323e-17
    outer loop
      vertex -10 -3.11867 24.6722
      vertex -10 1.82231 13.7841
      vertex -10 0 14.2
    endloop
  endfacet
  facet normal -1 0 -6.12323e-17
    outer loop
      vertex -10 0 14.2
      vertex -10 -1.82231 13.7841
      vertex -10 -3.11867 24.6722
    endloop
  endfacet
  facet normal -1 0 -6.12323e-17
    outer loop
      vertex -10 -1.82231 13.7841
      vertex -10 -3.28369 12.6187
      vertex -10 -3.11867 24.6722
    endloop
  endfacet
  facet normal -1 0 -6.12323e-17
    outer loop
      vertex -10 -3.28369 12.6187
      vertex -10 -4.0947 10.9346
      vertex -10 -3.11867 24.6722
    endloop
  endfacet
  facet normal -1 0 -6.12323e-17
    outer loop
      vertex -10 -4.0947 10.9346
      vertex -10 -4.0947 10
      vertex -10 -14.9178 10
    endloop
  endfacet
  facet normal -1 0 -6.12323e-17
    outer loop
      vertex -10 -4.0947 10.9346
      vertex -10 -14.9178 10
      vertex -10 -3.11867 24.6722
    endloop
  endfacet
  facet normal -1 0 -6.12323e-17
    outer loop
      vertex -10 -3.11867 24.6722
      vertex -10 -14.9178 10
      vertex -10 -14.9178 11.5679
    endloop
  endfacet
  facet normal -1 0 -6.12323e-17
    outer loop
      vertex -10 -3.11867 24.6722
      vertex -10 -14.9178 11.5679
      vertex -10 -14.2658 14.6353
    endloop
  endfacet
  facet normal -1 0 -6.12323e-17
    outer loop
      vertex -10 -3.11867 24.6722
      vertex -10 -14.2658 14.6353
      vertex -10 -12.9904 17.5
    endloop
  endfacet
  facet normal -1 0 -6.12323e-17
    outer loop
      vertex -10 -3.11867 24.6722
      vertex -10 -12.9904 17.5
      vertex -10 -11.1472 20.037
    endloop
  endfacet
  facet normal -1 0 -6.12323e-17
    outer loop
      vertex -10 -3.11867 24.6722
      vertex -10 -11.1472 20.037
      vertex -10 -8.81678 22.1353
    endloop
  endfacet
  facet normal -1 0 -6.12323e-17
    outer loop
      vertex -10 -3.11867 24.6722
      vertex -10 -8.81678 22.1353
      vertex -10 -6.10105 23.7032
    endloop
  endfacet
  facet normal -1 0 -6.12323e-17
    outer loop
      vertex -10 1.82231 13.7841
      vertex -10 -3.11867 24.6722
      vertex -10 3.28369 12.6187
    endloop
  endfacet
  facet normal -6.08969e-17 0.104528 0.994522
    outer loop
      vertex -10 3.11867 24.6722
      vertex -10 0 25
      vertex 10 0 25
    endloop
  endfacet
  facet normal -6.08969e-17 0.104528 0.994522
    outer loop
      vertex 10 3.11867 24.6722
      vertex -10 3.11867 24.6722
      vertex 10 0 25
    endloop
  endfacet
  facet normal -6.08969e-17 -0.104528 0.994522
    outer loop
      vertex 10 0 25
      vertex -10 0 25
      vertex -10 -3.11867 24.6722
    endloop
  endfacet
  facet normal -6.08969e-17 -0.104528 0.994522
    outer loop
      vertex 10 -3.11867 24.6722
      vertex 10 0 25
      vertex -10 -3.11867 24.6722
    endloop
  endfacet
  facet normal -5.82354e-17 -0.309017 0.951057
    outer loop
      vertex 10 -3.11867 24.6722
      vertex -10 -3.11867 24.6722
      vertex -10 -6.10105 23.7032
    endloop
  endfacet
  facet normal -5.82354e-17 -0.309017 0.951057
    outer loop
      vertex 10 -6.10105 23.7032
      vertex 10 -3.11867 24.6722
      vertex -10 -6.10105 23.7032
    endloop
  endfacet
  facet normal -5.30288e-17 -0.5 0.866025
    outer loop
      vertex 10 -6.10105 23.7032
      vertex -10 -6.10105 23.7032
      vertex -10 -8.81678 22.1353
    endloop
  endfacet
  facet normal -5.30288e-17 -0.5 0.866025
    outer loop
      vertex 10 -8.81678 22.1353
      vertex 10 -6.10105 23.7032
      vertex -10 -8.81678 22.1353
    endloop
  endfacet
  facet normal -4.55045e-17 -0.669131 0.743145
    outer loop
      vertex 10 -8.81678 22.1353
      vertex -10 -8.81678 22.1353
      vertex -10 -11.1472 20.037
    endloop
  endfacet
  facet normal -4.55045e-17 -0.669131 0.743145
    outer loop
      vertex 10 -11.1472 20.037
      vertex 10 -8.81678 22.1353
      vertex -10 -11.1472 20.037
    endloop
  endfacet
  facet normal -3.59915e-17 -0.809017 0.587785
    outer loop
      vertex 10 -11.1472 20.037
      vertex -10 -11.1472 20.037
      vertex -10 -12.9904 17.5
    endloop
  endfacet
  facet normal -3.59915e-17 -0.809017 0.587785
    outer loop
      vertex 10 -12.9904 17.5
      vertex 10 -11.1472 20.037
      vertex -10 -12.9904 17.5
    endloop
  endfacet
  facet normal -2.49054e-17 -0.913545 0.406737
    outer loop
      vertex 10 -12.9904 17.5
      vertex -10 -12.9904 17.5
      vertex -10 -14.2658 14.6353
    endloop
  endfacet
  facet normal -2.49054e-17 -0.913545 0.406737
    outer loop
      vertex 10 -14.2658 14.6353
      vertex 10 -12.9904 17.5
      vertex -10 -14.2658 14.6353
    endloop
  endfacet
  facet normal -1.27309e-17 -0.978148 0.207911
    outer loop
      vertex 10 -14.2658 14.6353
      vertex -10 -14.2658 14.6353
      vertex -10 -14.9178 11.5679
    endloop
  endfacet
  facet normal -1.27309e-17 -0.978148 0.207911
    outer loop
      vertex 10 -14.9178 11.5679
      vertex 10 -14.2658 14.6353
      vertex -10 -14.9178 11.5679
    endloop
  endfacet
  facet normal 0 -1 0
    outer loop
      vertex 10 -14.9178 11.5679
      vertex -10 -14.9178 11.5679
      vertex -10 -14.9178 10
    endloop
  endfacet
  facet normal 0 -1 0
    outer loop
      vertex 10 -14.9178 8.43207
      vertex 10 -14.9178 11.5679
      vertex 10 -14.9178 10
    endloop
  endfacet
  facet normal 0 -1 0
    outer loop
      vertex -10 -14.9178 10
      vertex 10 -14.9178 10
      vertex 10 -14.9178 11.5679
    endloop
  endfacet
  facet normal -1 0 0
    outer loop
      vertex -10 -30 -5
      vertex -10 -30 5
      vertex -10 30 -5
    endloop
  endfacet
  facet normal -1 0 0
    outer loop
      vertex -10 30 -5
      vertex -10 -30 5
      vertex -10 -15 5
    endloop
  endfacet
  facet normal -1 0 0
    outer loop
      vertex -10 30 -5
      vertex -10 -15 5
      vertex -10 -15 10
    endloop
  endfacet
  facet normal -1 0 0
    outer loop
      vertex -10 30 -5
      vertex -10 -15 10
      vertex -10 -14.9178 10
    endloop
  endfacet
  facet normal -1 0 0
    outer loop
      vertex -10 1.82231 6.21593
      vertex -10 30 -5
      vertex -10 0 5.8
    endloop
  endfacet
  facet normal -1 0 0
    outer loop
      vertex -10 15 5
      vertex -10 14.9178 10
      vertex -10 15 10
    endloop
  endfacet
  facet normal -1 0 0
    outer loop
      vertex -10 30 -5
      vertex -10 -1.82231 6.21593
      vertex -10 0 5.8
    endloop
  endfacet
  facet normal -1 0 0
    outer loop
      vertex -10 3.28369 7.38134
      vertex -10 30 -5
      vertex -10 1.82231 6.21593
    endloop
  endfacet
  facet normal -1 0 0
    outer loop
      vertex -10 30 -5
      vertex -10 3.28369 7.38134
      vertex -10 4.0947 9.06541
    endloop
  endfacet
  facet normal -1 0 0
    outer loop
      vertex -10 4.0947 9.06541
      vertex -10 4.0947 10
      vertex -10 30 -5
    endloop
  endfacet
  facet normal -1 0 0
    outer loop
      vertex -10 30 5
      vertex -10 30 -5
      vertex -10 15 5
    endloop
  endfacet
  facet normal -1 0 0
    outer loop
      vertex -10 4.0947 10
      vertex -10 14.9178 10
      vertex -10 15 5
    endloop
  endfacet
  facet normal -1 0 0
    outer loop
      vertex -10 4.0947 10
      vertex -10 15 5
      vertex -10 30 -5
    endloop
  endfacet
  facet normal -1 0 0
    outer loop
      vertex -10 -1.82231 6.21593
      vertex -10 30 -5
      vertex -10 -14.9178 10
    endloop
  endfacet
  facet normal -1 0 0
    outer loop
      vertex -10 -3.28369 7.38134
      vertex -10 -1.82231 6.21593
      vertex -10 -14.9178 10
    endloop
  endfacet
  facet normal -1 0 0
    outer loop
      vertex -10 -4.0947 9.06541
      vertex -10 -3.28369 7.38134
      vertex -10 -14.9178 10
    endloop
  endfacet
  facet normal -1 0 0
    outer loop
      vertex -10 -4.0947 10
      vertex -10 -4.0947 9.06541
      vertex -10 -14.9178 10
    endloop
  endfacet
  facet normal 0 1 0
    outer loop
      vertex 10 -4.0947 9.06541
      vertex -10 -4.0947 9.06541
      vertex 10 -4.0947 10.9346
    endloop
  endfacet
  facet normal 0 1 0
    outer loop
      vertex 10 -4.0947 10.9346
      vertex -10 -4.0947 9.06541
      vertex -10 -4.0947 10
    endloop
  endfacet
  facet normal 0 1 0
    outer loop
      vertex 10 -4.0947 10.9346
      vertex -10 -4.0947 10
      vertex -10 -4.0947 10.9346
    endloop
  endfacet
  facet normal 2.65677e-17 0.900969 -0.433884
    outer loop
      vertex 10 -4.0947 10.9346
      vertex -10 -4.0947 10.9346
      vertex 10 -3.28369 12.6187
    endloop
  endfacet
  facet normal 2.65677e-17 0.900969 -0.433884
    outer loop
      vertex 10 -3.28369 12.6187
      vertex -10 -4.0947 10.9346
      vertex -10 -3.28369 12.6187
    endloop
  endfacet
  facet normal 4.78734e-17 0.62349 -0.781831
    outer loop
      vertex 10 -3.28369 12.6187
      vertex -10 -3.28369 12.6187
      vertex 10 -1.82231 13.7841
    endloop
  endfacet
  facet normal 4.78734e-17 0.62349 -0.781831
    outer loop
      vertex 10 -1.82231 13.7841
      vertex -10 -3.28369 12.6187
      vertex -10 -1.82231 13.7841
    endloop
  endfacet
  facet normal 5.96971e-17 0.222521 -0.974928
    outer loop
      vertex 10 -1.82231 13.7841
      vertex -10 -1.82231 13.7841
      vertex 10 0 14.2
    endloop
  endfacet
  facet normal 5.96971e-17 0.222521 -0.974928
    outer loop
      vertex 10 0 14.2
      vertex -10 -1.82231 13.7841
      vertex -10 0 14.2
    endloop
  endfacet
  facet normal 5.96971e-17 -0.222521 -0.974928
    outer loop
      vertex 10 1.82231 13.7841
      vertex 10 0 14.2
      vertex -10 1.82231 13.7841
    endloop
  endfacet
  facet normal 5.96971e-17 -0.222521 -0.974928
    outer loop
      vertex -10 1.82231 13.7841
      vertex 10 0 14.2
      vertex -10 0 14.2
    endloop
  endfacet
  facet normal 4.78734e-17 -0.62349 -0.781831
    outer loop
      vertex 10 3.28369 12.6187
      vertex 10 1.82231 13.7841
      vertex -10 3.28369 12.6187
    endloop
  endfacet
  facet normal 4.78734e-17 -0.62349 -0.781831
    outer loop
      vertex -10 3.28369 12.6187
      vertex 10 1.82231 13.7841
      vertex -10 1.82231 13.7841
    endloop
  endfacet
  facet normal 2.65677e-17 -0.900969 -0.433884
    outer loop
      vertex -10 4.0947 10.9346
      vertex 10 4.0947 10.9346
      vertex 10 3.28369 12.6187
    endloop
  endfacet
  facet normal 2.65677e-17 -0.900969 -0.433884
    outer loop
      vertex -10 3.28369 12.6187
      vertex -10 4.0947 10.9346
      vertex 10 3.28369 12.6187
    endloop
  endfacet
  facet normal 0 -1 0
    outer loop
      vertex -10 4.0947 10
      vertex -10 4.0947 9.06541
      vertex 10 4.0947 9.06541
    endloop
  endfacet
  facet normal 0 -1 0
    outer loop
      vertex -10 4.0947 10.9346
      vertex -10 4.0947 10
      vertex 10 4.0947 10.9346
    endloop
  endfacet
  facet normal 0 -1 0
    outer loop
      vertex 10 4.0947 10.9346
      vertex -10 4.0947 10
      vertex 10 4.0947 9.06541
    endloop
  endfacet
  facet normal 0 1 0
    outer loop
      vertex 10 14.9178 10
      vertex 10 14.9178 11.5679
      vertex 10 14.9178 8.43207
    endloop
  endfacet
  facet normal 0 1 0
    outer loop
      vertex -10 14.9178 10
      vertex 10 14.9178 11.5679
      vertex 10 14.9178 10
    endloop
  endfacet
  facet normal 0 1 0
    outer loop
      vertex -10 14.9178 11.5679
      vertex 10 14.9178 11.5679
      vertex -10 14.9178 10
    endloop
  endfacet
  facet normal -1.27309e-17 0.978148 0.207911
    outer loop
      vertex -10 14.2658 14.6353
      vertex 10 14.2658 14.6353
      vertex -10 14.9178 11.5679
    endloop
  endfacet
  facet normal -1.27309e-17 0.978148 0.207911
    outer loop
      vertex -10 14.9178 11.5679
      vertex 10 14.2658 14.6353
      vertex 10 14.9178 11.5679
    endloop
  endfacet
  facet normal -2.49054e-17 0.913545 0.406737
    outer loop
      vertex -10 12.9904 17.5
      vertex 10 12.9904 17.5
      vertex -10 14.2658 14.6353
    endloop
  endfacet
  facet normal -2.49054e-17 0.913545 0.406737
    outer loop
      vertex -10 14.2658 14.6353
      vertex 10 12.9904 17.5
      vertex 10 14.2658 14.6353
    endloop
  endfacet
  facet normal -3.59915e-17 0.809017 0.587785
    outer loop
      vertex -10 11.1472 20.037
      vertex 10 11.1472 20.037
      vertex -10 12.9904 17.5
    endloop
  endfacet
  facet normal -3.59915e-17 0.809017 0.587785
    outer loop
      vertex -10 12.9904 17.5
      vertex 10 11.1472 20.037
      vertex 10 12.9904 17.5
    endloop
  endfacet
  facet normal -4.55045e-17 0.669131 0.743145
    outer loop
      vertex -10 11.1472 20.037
      vertex -10 8.81678 22.1353
      vertex 10 8.81678 22.1353
    endloop
  endfacet
  facet normal -4.55045e-17 0.669131 0.743145
    outer loop
      vertex 10 11.1472 20.037
      vertex -10 11.1472 20.037
      vertex 10 8.81678 22.1353
    endloop
  endfacet
  facet normal -5.30288e-17 0.5 0.866025
    outer loop
      vertex -10 8.81678 22.1353
      vertex -10 6.10105 23.7032
      vertex 10 6.10105 23.7032
    endloop
  endfacet
  facet normal -5.30288e-17 0.5 0.866025
    outer loop
      vertex 10 8.81678 22.1353
      vertex -10 8.81678 22.1353
      vertex 10 6.10105 23.7032
    endloop
  endfacet
  facet normal -5.82354e-17 0.309017 0.951057
    outer loop
      vertex -10 6.10105 23.7032
      vertex -10 3.11867 24.6722
      vertex 10 3.11867 24.6722
    endloop
  endfacet
  facet normal -5.82354e-17 0.309017 0.951057
    outer loop
      vertex 10 6.10105 23.7032
      vertex -10 6.10105 23.7032
      vertex 10 3.11867 24.6722
    endloop
  endfacet
  facet normal 1 0 6.12323e-17
    outer loop
      vertex 10 3.11867 24.6722
      vertex 10 0 25
      vertex 10 -3.11867 24.6722
    endloop
  endfacet
  facet normal 1 0 6.12323e-17
    outer loop
      vertex 10 -8.81678 22.1353
      vertex 10 3.11867 24.6722
      vertex 10 -6.10105 23.7032
    endloop
  endfacet
  facet normal 1 0 6.12323e-17
    outer loop
      vertex 10 -6.10105 23.7032
      vertex 10 3.11867 24.6722
      vertex 10 -3.11867 24.6722
    endloop
  endfacet
  facet normal 1 0 6.12323e-17
    outer loop
      vertex 10 -11.1472 20.037
      vertex 10 3.11867 24.6722
      vertex 10 -8.81678 22.1353
    endloop
  endfacet
  facet normal 1 0 6.12323e-17
    outer loop
      vertex 10 -12.9904 17.5
      vertex 10 3.11867 24.6722
      vertex 10 -11.1472 20.037
    endloop
  endfacet
  facet normal 1 0 6.12323e-17
    outer loop
      vertex 10 -14.2658 14.6353
      vertex 10 3.11867 24.6722
      vertex 10 -12.9904 17.5
    endloop
  endfacet
  facet normal 1 0 6.12323e-17
    outer loop
      vertex 10 -14.9178 11.5679
      vertex 10 3.11867 24.6722
      vertex 10 -14.2658 14.6353
    endloop
  endfacet
  facet normal 1 0 6.12323e-17
    outer loop
      vertex 10 -14.9178 8.43207
      vertex 10 3.11867 24.6722
      vertex 10 -14.9178 11.5679
    endloop
  endfacet
  facet normal 1 0 6.12323e-17
    outer loop
      vertex 10 -14.2658 5.36475
      vertex 10 3.11867 24.6722
      vertex 10 -14.9178 8.43207
    endloop
  endfacet
  facet normal 1 0 6.12323e-17
    outer loop
      vertex 10 -12.9904 2.5
      vertex 10 3.11867 24.6722
      vertex 10 -14.2658 5.36475
    endloop
  endfacet
  facet normal 1 0 6.12323e-17
    outer loop
      vertex 10 -11.1472 -0.036959
      vertex 10 3.11867 24.6722
      vertex 10 -12.9904 2.5
    endloop
  endfacet
  facet normal 1 0 6.12323e-17
    outer loop
      vertex 10 -3.28369 12.6187
      vertex 10 3.11867 24.6722
      vertex 10 -11.1472 -0.036959
    endloop
  endfacet
  facet normal 1 0 6.12323e-17
    outer loop
      vertex 10 -1.82231 6.21593
      vertex 10 -3.28369 7.38134
      vertex 10 -6.10105 -3.70318
    endloop
  endfacet
  facet normal 1 0 6.12323e-17
    outer loop
      vertex 10 0 5.8
      vertex 10 -1.82231 6.21593
      vertex 10 -3.11867 -4.67221
    endloop
  endfacet
  facet normal 1 0 6.12323e-17
    outer loop
      vertex 10 8.81678 -2.13525
      vertex 10 3.11867 24.6722
      vertex 10 6.10105 -3.70318
    endloop
  endfacet
  facet normal 1 0 6.12323e-17
    outer loop
      vertex 10 11.1472 -0.036959
      vertex 10 3.11867 24.6722
      vertex 10 8.81678 -2.13525
    endloop
  endfacet
  facet normal 1 0 6.12323e-17
    outer loop
      vertex 10 12.9904 2.5
      vertex 10 3.11867 24.6722
      vertex 10 11.1472 -0.036959
    endloop
  endfacet
  facet normal 1 0 6.12323e-17
    outer loop
      vertex 10 14.2658 5.36475
      vertex 10 3.11867 24.6722
      vertex 10 12.9904 2.5
    endloop
  endfacet
  facet normal 1 0 6.12323e-17
    outer loop
      vertex 10 14.9178 8.43207
      vertex 10 3.11867 24.6722
      vertex 10 14.2658 5.36475
    endloop
  endfacet
  facet normal 1 0 6.12323e-17
    outer loop
      vertex 10 14.9178 11.5679
      vertex 10 3.11867 24.6722
      vertex 10 14.9178 8.43207
    endloop
  endfacet
  facet normal 1 0 6.12323e-17
    outer loop
      vertex 10 14.2658 14.6353
      vertex 10 3.11867 24.6722
      vertex 10 14.9178 11.5679
    endloop
  endfacet
  facet normal 1 0 6.12323e-17
    outer loop
      vertex 10 12.9904 17.5
      vertex 10 3.11867 24.6722
      vertex 10 14.2658 14.6353
    endloop
  endfacet
  facet normal 1 0 6.12323e-17
    outer loop
      vertex 10 11.1472 20.037
      vertex 10 3.11867 24.6722
      vertex 10 12.9904 17.5
    endloop
  endfacet
  facet normal 1 0 6.12323e-17
    outer loop
      vertex 10 8.81678 22.1353
      vertex 10 3.11867 24.6722
      vertex 10 11.1472 20.037
    endloop
  endfacet
  facet normal 1 0 6.12323e-17
    outer loop
      vertex 10 6.10105 23.7032
      vertex 10 3.11867 24.6722
      vertex 10 8.81678 22.1353
    endloop
  endfacet
  facet normal 1 0 6.12323e-17
    outer loop
      vertex 10 1.82231 13.7841
      vertex 10 3.28369 12.6187
      vertex 10 3.11867 24.6722
    endloop
  endfacet
  facet normal 1 0 6.12323e-17
    outer loop
      vertex 10 -3.28369 7.38134
      vertex 10 -4.0947 9.06541
      vertex 10 -8.81678 -2.13525
    endloop
  endfacet
  facet normal 1 0 6.12323e-17
    outer loop
      vertex 10 1.82231 6.21593
      vertex 10 0 5.8
      vertex 10 0 -5
    endloop
  endfacet
  facet normal 1 0 6.12323e-17
    outer loop
      vertex 10 4.0947 10.9346
      vertex 10 3.11867 24.6722
      vertex 10 3.28369 12.6187
    endloop
  endfacet
  facet normal 1 0 6.12323e-17
    outer loop
      vertex 10 6.10105 -3.70318
      vertex 10 3.11867 24.6722
      vertex 10 4.0947 10.9346
    endloop
  endfacet
  facet normal 1 0 6.12323e-17
    outer loop
      vertex 10 3.28369 7.38134
      vertex 10 1.82231 6.21593
      vertex 10 3.11867 -4.67221
    endloop
  endfacet
  facet normal 1 0 6.12323e-17
    outer loop
      vertex 10 6.10105 -3.70318
      vertex 10 4.0947 10.9346
      vertex 10 4.0947 9.06541
    endloop
  endfacet
  facet normal 1 0 6.12323e-17
    outer loop
      vertex 10 6.10105 -3.70318
      vertex 10 3.28369 7.38134
      vertex 10 3.11867 -4.67221
    endloop
  endfacet
  facet normal 1 0 6.12323e-17
    outer loop
      vertex 10 3.11867 -4.67221
      vertex 10 1.82231 6.21593
      vertex 10 0 -5
    endloop
  endfacet
  facet normal 1 0 6.12323e-17
    outer loop
      vertex 10 4.0947 9.06541
      vertex 10 3.28369 7.38134
      vertex 10 6.10105 -3.70318
    endloop
  endfacet
  facet normal 1 0 6.12323e-17
    outer loop
      vertex 10 0 -5
      vertex 10 0 5.8
      vertex 10 -3.11867 -4.67221
    endloop
  endfacet
  facet normal 1 0 6.12323e-17
    outer loop
      vertex 10 -3.11867 -4.67221
      vertex 10 -1.82231 6.21593
      vertex 10 -6.10105 -3.70318
    endloop
  endfacet
  facet normal 1 0 6.12323e-17
    outer loop
      vertex 10 -6.10105 -3.70318
      vertex 10 -3.28369 7.38134
      vertex 10 -8.81678 -2.13525
    endloop
  endfacet
  facet normal 1 0 6.12323e-17
    outer loop
      vertex 10 0 14.2
      vertex 10 1.82231 13.7841
      vertex 10 3.11867 24.6722
    endloop
  endfacet
  facet normal 1 0 6.12323e-17
    outer loop
      vertex 10 -8.81678 -2.13525
      vertex 10 -4.0947 9.06541
      vertex 10 -11.1472 -0.036959
    endloop
  endfacet
  facet normal 1 0 6.12323e-17
    outer loop
      vertex 10 -4.0947 10.9346
      vertex 10 -3.28369 12.6187
      vertex 10 -11.1472 -0.036959
    endloop
  endfacet
  facet normal 1 0 6.12323e-17
    outer loop
      vertex 10 -3.28369 12.6187
      vertex 10 -1.82231 13.7841
      vertex 10 3.11867 24.6722
    endloop
  endfacet
  facet normal 1 0 6.12323e-17
    outer loop
      vertex 10 -4.0947 9.06541
      vertex 10 -4.0947 10.9346
      vertex 10 -11.1472 -0.036959
    endloop
  endfacet
  facet normal 1 0 6.12323e-17
    outer loop
      vertex 10 -1.82231 13.7841
      vertex 10 0 14.2
      vertex 10 3.11867 24.6722
    endloop
  endfacet
  facet normal 1 0 0
    outer loop
      vertex 10 0 -5
      vertex 10 -30 -5
      vertex 10 30 -5
    endloop
  endfacet
  facet normal 1 0 0
    outer loop
      vertex 10 -15 10
      vertex 10 -15 5
      vertex 10 -14.9178 8.43207
    endloop
  endfacet
  facet normal 1 0 0
    outer loop
      vertex 10 0 -5
      vertex 10 -3.11867 -4.67221
      vertex 10 -30 -5
    endloop
  endfacet
  facet normal 1 0 0
    outer loop
      vertex 10 30 5
      vertex 10 15 5
      vertex 10 30 -5
    endloop
  endfacet
  facet normal 1 0 0
    outer loop
      vertex 10 14.2658 5.36475
      vertex 10 12.9904 2.5
      vertex 10 15 5
    endloop
  endfacet
  facet normal 1 0 0
    outer loop
      vertex 10 15 10
      vertex 10 14.9178 8.43207
      vertex 10 15 5
    endloop
  endfacet
  facet normal 1 0 0
    outer loop
      vertex 10 14.9178 8.43207
      vertex 10 14.2658 5.36475
      vertex 10 15 5
    endloop
  endfacet
  facet normal 1 0 0
    outer loop
      vertex 10 15 5
      vertex 10 12.9904 2.5
      vertex 10 30 -5
    endloop
  endfacet
  facet normal 1 0 0
    outer loop
      vertex 10 12.9904 2.5
      vertex 10 11.1472 -0.036959
      vertex 10 30 -5
    endloop
  endfacet
  facet normal 1 0 0
    outer loop
      vertex 10 8.81678 -2.13525
      vertex 10 6.10105 -3.70318
      vertex 10 30 -5
    endloop
  endfacet
  facet normal 1 0 0
    outer loop
      vertex 10 6.10105 -3.70318
      vertex 10 3.11867 -4.67221
      vertex 10 30 -5
    endloop
  endfacet
  facet normal 1 0 0
    outer loop
      vertex 10 3.11867 -4.67221
      vertex 10 0 -5
      vertex 10 30 -5
    endloop
  endfacet
  facet normal 1 0 0
    outer loop
      vertex 10 -3.11867 -4.67221
      vertex 10 -6.10105 -3.70318
      vertex 10 -30 -5
    endloop
  endfacet
  facet normal 1 0 0
    outer loop
      vertex 10 -6.10105 -3.70318
      vertex 10 -8.81678 -2.13525
      vertex 10 -30 -5
    endloop
  endfacet
  facet normal 1 0 0
    outer loop
      vertex 10 -11.1472 -0.036959
      vertex 10 -12.9904 2.5
      vertex 10 -30 5
    endloop
  endfacet
  facet normal 1 0 0
    outer loop
      vertex 10 -30 5
      vertex 10 -30 -5
      vertex 10 -8.81678 -2.13525
    endloop
  endfacet
  facet normal 1 0 0
    outer loop
      vertex 10 -30 5
      vertex 10 -8.81678 -2.13525
      vertex 10 -11.1472 -0.036959
    endloop
  endfacet
  facet normal 1 0 0
    outer loop
      vertex 10 -14.9178 8.43207
      vertex 10 -15 5
      vertex 10 -14.2658 5.36475
    endloop
  endfacet
  facet normal 1 0 0
    outer loop
      vertex 10 -15 10
      vertex 10 -14.9178 8.43207
      vertex 10 -14.9178 10
    endloop
  endfacet
  facet normal 1 0 0
    outer loop
      vertex 10 14.9178 10
      vertex 10 14.9178 8.43207
      vertex 10 15 10
    endloop
  endfacet
  facet normal 1 0 0
    outer loop
      vertex 10 11.1472 -0.036959
      vertex 10 8.81678 -2.13525
      vertex 10 30 -5
    endloop
  endfacet
  facet normal 1 0 0
    outer loop
      vertex 10 -12.9904 2.5
      vertex 10 -15 5
      vertex 10 -30 5
    endloop
  endfacet
  facet normal 1 0 0
    outer loop
      vertex 10 -12.9904 2.5
      vertex 10 -14.2658 5.36475
      vertex 10 -15 5
    endloop
  endfacet
  facet normal 0 0 1
    outer loop
      vertex -10 -14.9178 10
      vertex -10 -15 10
      vertex 10 -15 10
    endloop
  endfacet
  facet normal 0 0 1
    outer loop
      vertex 10 -14.9178 10
      vertex -10 -14.9178 10
      vertex 10 -15 10
    endloop
  endfacet
  facet normal 0 0 -1
    outer loop
      vertex 9.18485e-16 0 -5
      vertex 10 -30 -5
      vertex -10 -5.82587e-15 -5
    endloop
  endfacet
  facet normal 0 0 -1
    outer loop
      vertex 0.927051 25.3532 -5
      vertex -10 30 -5
      vertex 10 30 -5
    endloop
  endfacet
  facet normal 0 0 -1
    outer loop
      vertex -10 -30 -5
      vertex -10 30 -5
      vertex -10 5.82587e-15 -5
    endloop
  endfacet
  facet normal 0 0 -1
    outer loop
      vertex -10 -30 -5
      vertex -10 5.82587e-15 -5
      vertex -10 -5.82587e-15 -5
    endloop
  endfacet
  facet normal 0 0 -1
    outer loop
      vertex 2.42705 -20.7366 -5
      vertex -10 -5.82587e-15 -5
      vertex 10 -30 -5
    endloop
  endfacet
  facet normal 0 0 -1
    outer loop
      vertex 10 -30 -5
      vertex 9.18485e-16 0 -5
      vertex 10 30 -5
    endloop
  endfacet
  facet normal 0 0 -1
    outer loop
      vertex -10 -30 -5
      vertex -10 -5.82587e-15 -5
      vertex -3 -22.5 -5
    endloop
  endfacet
  facet normal 0 0 -1
    outer loop
      vertex -10 -30 -5
      vertex -3 -22.5 -5
      vertex -2.42705 -24.2634 -5
    endloop
  endfacet
  facet normal 0 0 -1
    outer loop
      vertex -10 -30 -5
      vertex -2.42705 -24.2634 -5
      vertex -0.927051 -25.3532 -5
    endloop
  endfacet
  facet normal 0 0 -1
    outer loop
      vertex -10 -30 -5
      vertex -0.927051 -25.3532 -5
      vertex 10 -30 -5
    endloop
  endfacet
  facet normal 0 0 -1
    outer loop
      vertex 2.42705 -24.2634 -5
      vertex 10 -30 -5
      vertex 0.927051 -25.3532 -5
    endloop
  endfacet
  facet normal 0 0 -1
    outer loop
      vertex 3 22.5 -5
      vertex 10 30 -5
      vertex 2.42705 20.7366 -5
    endloop
  endfacet
  facet normal 0 0 -1
    outer loop
      vertex 0.927051 -19.6468 -5
      vertex -10 -5.82587e-15 -5
      vertex 2.42705 -20.7366 -5
    endloop
  endfacet
  facet normal 0 0 -1
    outer loop
      vertex -0.927051 -19.6468 -5
      vertex -10 -5.82587e-15 -5
      vertex 0.927051 -19.6468 -5
    endloop
  endfacet
  facet normal 0 0 -1
    outer loop
      vertex 2.42705 -24.2634 -5
      vertex 3 -22.5 -5
      vertex 10 -30 -5
    endloop
  endfacet
  facet normal 0 0 -1
    outer loop
      vertex 3 -22.5 -5
      vertex 2.42705 -20.7366 -5
      vertex 10 -30 -5
    endloop
  endfacet
  facet normal 0 0 -1
    outer loop
      vertex -2.42705 -20.7366 -5
      vertex -10 -5.82587e-15 -5
      vertex -0.927051 -19.6468 -5
    endloop
  endfacet
  facet normal 0 0 -1
    outer loop
      vertex -3 -22.5 -5
      vertex -10 -5.82587e-15 -5
      vertex -2.42705 -20.7366 -5
    endloop
  endfacet
  facet normal 0 0 -1
    outer loop
      vertex 9.18485e-16 0 -5
      vertex -10 30 -5
      vertex -3 22.5 -5
    endloop
  endfacet
  facet normal 0 0 -1
    outer loop
      vertex 9.18485e-16 0 -5
      vertex -3 22.5 -5
      vertex -2.42705 20.7366 -5
    endloop
  endfacet
  facet normal 0 0 -1
    outer loop
      vertex 9.18485e-16 0 -5
      vertex -2.42705 20.7366 -5
      vertex -0.927051 19.6468 -5
    endloop
  endfacet
  facet normal 0 0 -1
    outer loop
      vertex 9.18485e-16 0 -5
      vertex -0.927051 19.6468 -5
      vertex 0.927051 19.6468 -5
    endloop
  endfacet
  facet normal 0 0 -1
    outer loop
      vertex 9.18485e-16 0 -5
      vertex 0.927051 19.6468 -5
      vertex 2.42705 20.7366 -5
    endloop
  endfacet
  facet normal 0 0 -1
    outer loop
      vertex 9.18485e-16 0 -5
      vertex 2.42705 20.7366 -5
      vertex 10 30 -5
    endloop
  endfacet
  facet normal 0 0 -1
    outer loop
      vertex 2.42705 24.2634 -5
      vertex 10 30 -5
      vertex 3 22.5 -5
    endloop
  endfacet
  facet normal 0 0 -1
    outer loop
      vertex 0.927051 25.3532 -5
      vertex 10 30 -5
      vertex 2.42705 24.2634 -5
    endloop
  endfacet
  facet normal 0 0 -1
    outer loop
      vertex -0.927051 25.3532 -5
      vertex -10 30 -5
      vertex 0.927051 25.3532 -5
    endloop
  endfacet
  facet normal 0 0 -1
    outer loop
      vertex -2.42705 24.2634 -5
      vertex -10 30 -5
      vertex -0.927051 25.3532 -5
    endloop
  endfacet
  facet normal 0 0 -1
    outer loop
      vertex -3 22.5 -5
      vertex -10 30 -5
      vertex -2.42705 24.2634 -5
    endloop
  endfacet
  facet normal 0 0 -1
    outer loop
      vertex -10 5.82587e-15 -5
      vertex -10 30 -5
      vertex 9.18485e-16 0 -5
    endloop
  endfacet
  facet normal 0 0 -1
    outer loop
      vertex 0.927051 -25.3532 -5
      vertex 10 -30 -5
      vertex -0.927051 -25.3532 -5
    endloop
  endfacet
  facet normal 0 1 0
    outer loop
      vertex -10 30 -5
      vertex -10 30 5
      vertex 10 30 -5
    endloop
  endfacet
  facet normal 0 1 0
    outer loop
      vertex 10 30 -5
      vertex -10 30 5
      vertex 10 30 5
    endloop
  endfacet
  facet normal 0 0 1
    outer loop
      vertex 1.39058 18.2202 5
      vertex -10 15 5
      vertex 10 15 5
    endloop
  endfacet
  facet normal 0 0 1
    outer loop
      vertex -10 30 5
      vertex -10 15 5
      vertex -4.40166 21.5644 5
    endloop
  endfacet
  facet normal 0 0 1
    outer loop
      vertex -10 30 5
      vertex -4.40166 21.5644 5
      vertex -4.40166 23.4356 5
    endloop
  endfacet
  facet normal 0 0 1
    outer loop
      vertex -0.470378 26.9753 5
      vertex 1.39058 26.7798 5
      vertex 10 30 5
    endloop
  endfacet
  facet normal 0 0 1
    outer loop
      vertex -10 30 5
      vertex -4.40166 23.4356 5
      vertex -3.64058 25.145 5
    endloop
  endfacet
  facet normal 0 0 1
    outer loop
      vertex 3.01109 19.1558 5
      vertex 1.39058 18.2202 5
      vertex 10 15 5
    endloop
  endfacet
  facet normal 0 0 1
    outer loop
      vertex -0.470378 26.9753 5
      vertex -10 30 5
      vertex -2.25 26.3971 5
    endloop
  endfacet
  facet normal 0 0 1
    outer loop
      vertex 10 30 5
      vertex -10 30 5
      vertex -0.470378 26.9753 5
    endloop
  endfacet
  facet normal 0 0 1
    outer loop
      vertex 4.11095 20.6697 5
      vertex 3.01109 19.1558 5
      vertex 10 15 5
    endloop
  endfacet
  facet normal 0 0 1
    outer loop
      vertex 10 30 5
      vertex 1.39058 26.7798 5
      vertex 3.01109 25.8442 5
    endloop
  endfacet
  facet normal 0 0 1
    outer loop
      vertex 10 30 5
      vertex 4.11095 24.3303 5
      vertex 10 15 5
    endloop
  endfacet
  facet normal 0 0 1
    outer loop
      vertex 10 30 5
      vertex 3.01109 25.8442 5
      vertex 4.11095 24.3303 5
    endloop
  endfacet
  facet normal 0 0 1
    outer loop
      vertex 4.5 22.5 5
      vertex 4.11095 20.6697 5
      vertex 10 15 5
    endloop
  endfacet
  facet normal 0 0 1
    outer loop
      vertex -0.470378 18.0247 5
      vertex -10 15 5
      vertex 1.39058 18.2202 5
    endloop
  endfacet
  facet normal 0 0 1
    outer loop
      vertex -2.25 18.6029 5
      vertex -10 15 5
      vertex -0.470378 18.0247 5
    endloop
  endfacet
  facet normal 0 0 1
    outer loop
      vertex -3.64058 19.855 5
      vertex -10 15 5
      vertex -2.25 18.6029 5
    endloop
  endfacet
  facet normal 0 0 1
    outer loop
      vertex -4.40166 21.5644 5
      vertex -10 15 5
      vertex -3.64058 19.855 5
    endloop
  endfacet
  facet normal 0 0 1
    outer loop
      vertex -3.64058 25.145 5
      vertex -2.25 26.3971 5
      vertex -10 30 5
    endloop
  endfacet
  facet normal 0 0 1
    outer loop
      vertex 4.11095 24.3303 5
      vertex 4.5 22.5 5
      vertex 10 15 5
    endloop
  endfacet
  facet normal 0 1 0
    outer loop
      vertex -10 15 5
      vertex -10 15 10
      vertex 10 15 5
    endloop
  endfacet
  facet normal 0 1 0
    outer loop
      vertex 10 15 5
      vertex -10 15 10
      vertex 10 15 10
    endloop
  endfacet
  facet normal 0 0 1
    outer loop
      vertex -10 15 10
      vertex -10 14.9178 10
      vertex 10 14.9178 10
    endloop
  endfacet
  facet normal 0 0 1
    outer loop
      vertex 10 15 10
      vertex -10 15 10
      vertex 10 14.9178 10
    endloop
  endfacet
  facet normal -2.65677e-17 -0.900969 0.433884
    outer loop
      vertex 10 3.28369 7.38134
      vertex 10 4.0947 9.06541
      vertex -10 4.0947 9.06541
    endloop
  endfacet
  facet normal -2.65677e-17 -0.900969 0.433884
    outer loop
      vertex -10 3.28369 7.38134
      vertex 10 3.28369 7.38134
      vertex -10 4.0947 9.06541
    endloop
  endfacet
  facet normal -4.78734e-17 -0.62349 0.781831
    outer loop
      vertex 10 1.82231 6.21593
      vertex 10 3.28369 7.38134
      vertex -10 3.28369 7.38134
    endloop
  endfacet
  facet normal -4.78734e-17 -0.62349 0.781831
    outer loop
      vertex -10 1.82231 6.21593
      vertex 10 1.82231 6.21593
      vertex -10 3.28369 7.38134
    endloop
  endfacet
  facet normal -5.96971e-17 -0.222521 0.974928
    outer loop
      vertex 10 0 5.8
      vertex 10 1.82231 6.21593
      vertex -10 1.82231 6.21593
    endloop
  endfacet
  facet normal -5.96971e-17 -0.222521 0.974928
    outer loop
      vertex -10 0 5.8
      vertex 10 0 5.8
      vertex -10 1.82231 6.21593
    endloop
  endfacet
  facet normal -5.96971e-17 0.222521 0.974928
    outer loop
      vertex 10 -1.82231 6.21593
      vertex 10 0 5.8
      vertex -10 0 5.8
    endloop
  endfacet
  facet normal -5.96971e-17 0.222521 0.974928
    outer loop
      vertex -10 -1.82231 6.21593
      vertex 10 -1.82231 6.21593
      vertex -10 0 5.8
    endloop
  endfacet
  facet normal -4.78734e-17 0.62349 0.781831
    outer loop
      vertex 10 -3.28369 7.38134
      vertex 10 -1.82231 6.21593
      vertex -10 -1.82231 6.21593
    endloop
  endfacet
  facet normal -4.78734e-17 0.62349 0.781831
    outer loop
      vertex -10 -3.28369 7.38134
      vertex 10 -3.28369 7.38134
      vertex -10 -1.82231 6.21593
    endloop
  endfacet
  facet normal -2.65677e-17 0.900969 0.433884
    outer loop
      vertex 10 -3.28369 7.38134
      vertex -10 -3.28369 7.38134
      vertex 10 -4.0947 9.06541
    endloop
  endfacet
  facet normal -2.65677e-17 0.900969 0.433884
    outer loop
      vertex 10 -4.0947 9.06541
      vertex -10 -3.28369 7.38134
      vertex -10 -4.0947 9.06541
    endloop
  endfacet
  facet normal 0 -1 0
    outer loop
      vertex -10 -15 10
      vertex -10 -15 5
      vertex 10 -15 5
    endloop
  endfacet
  facet normal 0 -1 0
    outer loop
      vertex 10 -15 10
      vertex -10 -15 10
      vertex 10 -15 5
    endloop
  endfacet
  facet normal 0 0 1
    outer loop
      vertex 1.39058 -26.7798 5
      vertex -10 -30 5
      vertex 10 -30 5
    endloop
  endfacet
  facet normal 0 0 1
    outer loop
      vertex -10 -15 5
      vertex -10 -30 5
      vertex -4.40166 -23.4356 5
    endloop
  endfacet
  facet normal 0 0 1
    outer loop
      vertex -10 -15 5
      vertex -4.40166 -23.4356 5
      vertex -4.40166 -21.5644 5
    endloop
  endfacet
  facet normal 0 0 1
    outer loop
      vertex -0.470378 -18.0247 5
      vertex 1.39058 -18.2202 5
      vertex 10 -15 5
    endloop
  endfacet
  facet normal 0 0 1
    outer loop
      vertex -10 -15 5
      vertex -4.40166 -21.5644 5
      vertex -3.64058 -19.855 5
    endloop
  endfacet
  facet normal 0 0 1
    outer loop
      vertex 3.01109 -25.8442 5
      vertex 1.39058 -26.7798 5
      vertex 10 -30 5
    endloop
  endfacet
  facet normal 0 0 1
    outer loop
      vertex -0.470378 -18.0247 5
      vertex -10 -15 5
      vertex -2.25 -18.6029 5
    endloop
  endfacet
  facet normal 0 0 1
    outer loop
      vertex 10 -15 5
      vertex -10 -15 5
      vertex -0.470378 -18.0247 5
    endloop
  endfacet
  facet normal 0 0 1
    outer loop
      vertex 4.11095 -24.3303 5
      vertex 3.01109 -25.8442 5
      vertex 10 -30 5
    endloop
  endfacet
  facet normal 0 0 1
    outer loop
      vertex 10 -15 5
      vertex 1.39058 -18.2202 5
      vertex 3.01109 -19.1558 5
    endloop
  endfacet
  facet normal 0 0 1
    outer loop
      vertex 10 -15 5
      vertex 4.11095 -20.6697 5
      vertex 10 -30 5
    endloop
  endfacet
  facet normal 0 0 1
    outer loop
      vertex 10 -15 5
      vertex 3.01109 -19.1558 5
      vertex 4.11095 -20.6697 5
    endloop
  endfacet
  facet normal 0 0 1
    outer loop
      vertex 4.5 -22.5 5
      vertex 4.11095 -24.3303 5
      vertex 10 -30 5
    endloop
  endfacet
  facet normal 0 0 1
    outer loop
      vertex -0.470378 -26.9753 5
      vertex -10 -30 5
      vertex 1.39058 -26.7798 5
    endloop
  endfacet
  facet normal 0 0 1
    outer loop
      vertex -2.25 -26.3971 5
      vertex -10 -30 5
      vertex -0.470378 -26.9753 5
    endloop
  endfacet
  facet normal 0 0 1
    outer loop
      vertex -3.64058 -25.145 5
      vertex -10 -30 5
      vertex -2.25 -26.3971 5
    endloop
  endfacet
  facet normal 0 0 1
    outer loop
      vertex -4.40166 -23.4356 5
      vertex -10 -30 5
      vertex -3.64058 -25.145 5
    endloop
  endfacet
  facet normal 0 0 1
    outer loop
      vertex -3.64058 -19.855 5
      vertex -2.25 -18.6029 5
      vertex -10 -15 5
    endloop
  endfacet
  facet normal 0 0 1
    outer loop
      vertex 4.11095 -20.6697 5
      vertex 4.5 -22.5 5
      vertex 10 -30 5
    endloop
  endfacet
  facet normal 0 -1 0
    outer loop
      vertex -10 -30 5
      vertex -10 -30 -5
      vertex 10 -30 -5
    endloop
  endfacet
  facet normal 0 -1 0
    outer loop
      vertex 10 -30 5
      vertex -10 -30 5
      vertex 10 -30 -5
    endloop
  endfacet
  facet normal -1 0 -6.12323e-17
    outer loop
      vertex -10 0 -5
      vertex -10 -5.82587e-15 -5
      vertex -10 5.82587e-15 -5
    endloop
  endfacet
  facet normal 6.08969e-17 0.104528 -0.994522
    outer loop
      vertex -10 0 -5
      vertex -10 5.82587e-15 -5
      vertex 9.18485e-16 0 -5
    endloop
  endfacet
  facet normal 6.08969e-17 -0.104528 -0.994522
    outer loop
      vertex 9.18485e-16 0 -5
      vertex -10 -5.82587e-15 -5
      vertex -10 0 -5
    endloop
  endfacet
  facet normal 0.951057 -0.309017 0
    outer loop
      vertex -2.42705 -20.7366 -5
      vertex -2.42705 -20.7366 1
      vertex -3 -22.5 1
    endloop
  endfacet
  facet normal 0.951057 -0.309017 0
    outer loop
      vertex -3 -22.5 -5
      vertex -2.42705 -20.7366 -5
      vertex -3 -22.5 1
    endloop
  endfacet
  facet normal 0.951057 0.309017 0
    outer loop
      vertex -3 -22.5 1
      vertex -2.42705 -24.2634 1
      vertex -2.42705 -24.2634 -5
    endloop
  endfacet
  facet normal 0.951057 0.309017 0
    outer loop
      vertex -3 -22.5 -5
      vertex -3 -22.5 1
      vertex -2.42705 -24.2634 -5
    endloop
  endfacet
  facet normal 0.587785 -0.809017 0
    outer loop
      vertex -0.927051 -19.6468 -5
      vertex -0.927051 -19.6468 1
      vertex -2.42705 -20.7366 1
    endloop
  endfacet
  facet normal 0.587785 -0.809017 0
    outer loop
      vertex -2.42705 -20.7366 -5
      vertex -0.927051 -19.6468 -5
      vertex -2.42705 -20.7366 1
    endloop
  endfacet
  facet normal 0 -1 0
    outer loop
      vertex 0.927051 -19.6468 -5
      vertex 0.927051 -19.6468 1
      vertex -0.927051 -19.6468 1
    endloop
  endfacet
  facet normal 0 -1 0
    outer loop
      vertex -0.927051 -19.6468 -5
      vertex 0.927051 -19.6468 -5
      vertex -0.927051 -19.6468 1
    endloop
  endfacet
  facet normal -0.587785 -0.809017 0
    outer loop
      vertex 2.42705 -20.7366 -5
      vertex 2.42705 -20.7366 1
      vertex 0.927051 -19.6468 1
    endloop
  endfacet
  facet normal -0.587785 -0.809017 0
    outer loop
      vertex 0.927051 -19.6468 -5
      vertex 2.42705 -20.7366 -5
      vertex 0.927051 -19.6468 1
    endloop
  endfacet
  facet normal -0.951057 -0.309017 0
    outer loop
      vertex 3 -22.5 1
      vertex 2.42705 -20.7366 1
      vertex 3 -22.5 -5
    endloop
  endfacet
  facet normal -0.951057 -0.309017 0
    outer loop
      vertex 3 -22.5 -5
      vertex 2.42705 -20.7366 1
      vertex 2.42705 -20.7366 -5
    endloop
  endfacet
  facet normal -0.951057 0.309017 0
    outer loop
      vertex 3 -22.5 1
      vertex 3 -22.5 -5
      vertex 2.42705 -24.2634 1
    endloop
  endfacet
  facet normal -0.951057 0.309017 0
    outer loop
      vertex 2.42705 -24.2634 1
      vertex 3 -22.5 -5
      vertex 2.42705 -24.2634 -5
    endloop
  endfacet
  facet normal -0.587785 0.809017 0
    outer loop
      vertex 2.42705 -24.2634 1
      vertex 2.42705 -24.2634 -5
      vertex 0.927051 -25.3532 1
    endloop
  endfacet
  facet normal -0.587785 0.809017 0
    outer loop
      vertex 0.927051 -25.3532 1
      vertex 2.42705 -24.2634 -5
      vertex 0.927051 -25.3532 -5
    endloop
  endfacet
  facet normal 0 1 0
    outer loop
      vertex 0.927051 -25.3532 1
      vertex 0.927051 -25.3532 -5
      vertex -0.927051 -25.3532 1
    endloop
  endfacet
  facet normal 0 1 0
    outer loop
      vertex -0.927051 -25.3532 1
      vertex 0.927051 -25.3532 -5
      vertex -0.927051 -25.3532 -5
    endloop
  endfacet
  facet normal 0.587785 0.809017 0
    outer loop
      vertex -0.927051 -25.3532 1
      vertex -0.927051 -25.3532 -5
      vertex -2.42705 -24.2634 1
    endloop
  endfacet
  facet normal 0.587785 0.809017 0
    outer loop
      vertex -2.42705 -24.2634 1
      vertex -0.927051 -25.3532 -5
      vertex -2.42705 -24.2634 -5
    endloop
  endfacet
  facet normal 0.951057 -0.309017 0
    outer loop
      vertex -2.42705 24.2634 -5
      vertex -2.42705 24.2634 1
      vertex -3 22.5 1
    endloop
  endfacet
  facet normal 0.951057 -0.309017 0
    outer loop
      vertex -3 22.5 -5
      vertex -2.42705 24.2634 -5
      vertex -3 22.5 1
    endloop
  endfacet
  facet normal 0.951057 0.309017 0
    outer loop
      vertex -3 22.5 1
      vertex -2.42705 20.7366 1
      vertex -2.42705 20.7366 -5
    endloop
  endfacet
  facet normal 0.951057 0.309017 0
    outer loop
      vertex -3 22.5 -5
      vertex -3 22.5 1
      vertex -2.42705 20.7366 -5
    endloop
  endfacet
  facet normal 0.587785 -0.809017 0
    outer loop
      vertex -0.927051 25.3532 -5
      vertex -0.927051 25.3532 1
      vertex -2.42705 24.2634 1
    endloop
  endfacet
  facet normal 0.587785 -0.809017 0
    outer loop
      vertex -2.42705 24.2634 -5
      vertex -0.927051 25.3532 -5
      vertex -2.42705 24.2634 1
    endloop
  endfacet
  facet normal 0 -1 0
    outer loop
      vertex 0.927051 25.3532 -5
      vertex 0.927051 25.3532 1
      vertex -0.927051 25.3532 1
    endloop
  endfacet
  facet normal 0 -1 0
    outer loop
      vertex -0.927051 25.3532 -5
      vertex 0.927051 25.3532 -5
      vertex -0.927051 25.3532 1
    endloop
  endfacet
  facet normal -0.587785 -0.809017 0
    outer loop
      vertex 2.42705 24.2634 -5
      vertex 2.42705 24.2634 1
      vertex 0.927051 25.3532 1
    endloop
  endfacet
  facet normal -0.587785 -0.809017 0
    outer loop
      vertex 0.927051 25.3532 -5
      vertex 2.42705 24.2634 -5
      vertex 0.927051 25.3532 1
    endloop
  endfacet
  facet normal -0.951057 -0.309017 0
    outer loop
      vertex 3 22.5 1
      vertex 2.42705 24.2634 1
      vertex 3 22.5 -5
    endloop
  endfacet
  facet normal -0.951057 -0.309017 0
    outer loop
      vertex 3 22.5 -5
      vertex 2.42705 24.2634 1
      vertex 2.42705 24.2634 -5
    endloop
  endfacet
  facet normal -0.951057 0.309017 0
    outer loop
      vertex 3 22.5 1
      vertex 3 22.5 -5
      vertex 2.42705 20.7366 1
    endloop
  endfacet
  facet normal -0.951057 0.309017 0
    outer loop
      vertex 2.42705 20.7366 1
      vertex 3 22.5 -5
      vertex 2.42705 20.7366 -5
    endloop
  endfacet
  facet normal -0.587785 0.809017 0
    outer loop
      vertex 2.42705 20.7366 1
      vertex 2.42705 20.7366 -5
      vertex 0.927051 19.6468 1
    endloop
  endfacet
  facet normal -0.587785 0.809017 0
    outer loop
      vertex 0.927051 19.6468 1
      vertex 2.42705 20.7366 -5
      vertex 0.927051 19.6468 -5
    endloop
  endfacet
  facet normal 0 1 0
    outer loop
      vertex 0.927051 19.6468 1
      vertex 0.927051 19.6468 -5
      vertex -0.927051 19.6468 1
    endloop
  endfacet
  facet normal 0 1 0
    outer loop
      vertex -0.927051 19.6468 1
      vertex 0.927051 19.6468 -5
      vertex -0.927051 19.6468 -5
    endloop
  endfacet
  facet normal 0.587785 0.809017 0
    outer loop
      vertex -0.927051 19.6468 1
      vertex -0.927051 19.6468 -5
      vertex -2.42705 20.7366 1
    endloop
  endfacet
  facet normal 0.587785 0.809017 0
    outer loop
      vertex -2.42705 20.7366 1
      vertex -0.927051 19.6468 -5
      vertex -2.42705 20.7366 -5
    endloop
  endfacet
  facet normal 1 0 0
    outer loop
      vertex -4.40166 23.4356 1
      vertex -4.40166 23.4356 5
      vertex -4.40166 21.5644 5
    endloop
  endfacet
  facet normal 1 0 0
    outer loop
      vertex -4.40166 21.5644 1
      vertex -4.40166 23.4356 1
      vertex -4.40166 21.5644 5
    endloop
  endfacet
  facet normal 0.913545 0.406737 0
    outer loop
      vertex -4.40166 21.5644 5
      vertex -3.64058 19.855 5
      vertex -3.64058 19.855 1
    endloop
  endfacet
  facet normal 0.913545 0.406737 0
    outer loop
      vertex -4.40166 21.5644 1
      vertex -4.40166 21.5644 5
      vertex -3.64058 19.855 1
    endloop
  endfacet
  facet normal 0.669131 0.743145 0
    outer loop
      vertex -2.25 18.6029 5
      vertex -2.25 18.6029 1
      vertex -3.64058 19.855 5
    endloop
  endfacet
  facet normal 0.669131 0.743145 0
    outer loop
      vertex -3.64058 19.855 5
      vertex -2.25 18.6029 1
      vertex -3.64058 19.855 1
    endloop
  endfacet
  facet normal 0.309017 0.951056 0
    outer loop
      vertex -0.470378 18.0247 5
      vertex -0.470378 18.0247 1
      vertex -2.25 18.6029 5
    endloop
  endfacet
  facet normal 0.309017 0.951056 0
    outer loop
      vertex -2.25 18.6029 5
      vertex -0.470378 18.0247 1
      vertex -2.25 18.6029 1
    endloop
  endfacet
  facet normal -0.104529 0.994522 0
    outer loop
      vertex 1.39058 18.2202 5
      vertex 1.39058 18.2202 1
      vertex -0.470378 18.0247 5
    endloop
  endfacet
  facet normal -0.104529 0.994522 0
    outer loop
      vertex -0.470378 18.0247 5
      vertex 1.39058 18.2202 1
      vertex -0.470378 18.0247 1
    endloop
  endfacet
  facet normal -0.5 0.866026 0
    outer loop
      vertex 3.01109 19.1558 5
      vertex 3.01109 19.1558 1
      vertex 1.39058 18.2202 5
    endloop
  endfacet
  facet normal -0.5 0.866026 0
    outer loop
      vertex 1.39058 18.2202 5
      vertex 3.01109 19.1558 1
      vertex 1.39058 18.2202 1
    endloop
  endfacet
  facet normal -0.809017 0.587785 0
    outer loop
      vertex 4.11095 20.6697 5
      vertex 4.11095 20.6697 1
      vertex 3.01109 19.1558 5
    endloop
  endfacet
  facet normal -0.809017 0.587785 0
    outer loop
      vertex 3.01109 19.1558 5
      vertex 4.11095 20.6697 1
      vertex 3.01109 19.1558 1
    endloop
  endfacet
  facet normal -0.978148 0.207911 0
    outer loop
      vertex 4.5 22.5 5
      vertex 4.5 22.5 1
      vertex 4.11095 20.6697 5
    endloop
  endfacet
  facet normal -0.978148 0.207911 0
    outer loop
      vertex 4.11095 20.6697 5
      vertex 4.5 22.5 1
      vertex 4.11095 20.6697 1
    endloop
  endfacet
  facet normal -0.978148 -0.207911 0
    outer loop
      vertex 4.5 22.5 5
      vertex 4.11095 24.3303 5
      vertex 4.5 22.5 1
    endloop
  endfacet
  facet normal -0.978148 -0.207911 0
    outer loop
      vertex 4.5 22.5 1
      vertex 4.11095 24.3303 5
      vertex 4.11095 24.3303 1
    endloop
  endfacet
  facet normal -0.809017 -0.587785 0
    outer loop
      vertex 4.11095 24.3303 5
      vertex 3.01109 25.8442 5
      vertex 4.11095 24.3303 1
    endloop
  endfacet
  facet normal -0.809017 -0.587785 0
    outer loop
      vertex 4.11095 24.3303 1
      vertex 3.01109 25.8442 5
      vertex 3.01109 25.8442 1
    endloop
  endfacet
  facet normal -0.5 -0.866026 0
    outer loop
      vertex 3.01109 25.8442 1
      vertex 3.01109 25.8442 5
      vertex 1.39058 26.7798 5
    endloop
  endfacet
  facet normal -0.5 -0.866026 0
    outer loop
      vertex 1.39058 26.7798 1
      vertex 3.01109 25.8442 1
      vertex 1.39058 26.7798 5
    endloop
  endfacet
  facet normal -0.104529 -0.994522 0
    outer loop
      vertex 1.39058 26.7798 1
      vertex 1.39058 26.7798 5
      vertex -0.470378 26.9753 5
    endloop
  endfacet
  facet normal -0.104529 -0.994522 0
    outer loop
      vertex -0.470378 26.9753 1
      vertex 1.39058 26.7798 1
      vertex -0.470378 26.9753 5
    endloop
  endfacet
  facet normal 0.309017 -0.951056 0
    outer loop
      vertex -0.470378 26.9753 1
      vertex -0.470378 26.9753 5
      vertex -2.25 26.3971 5
    endloop
  endfacet
  facet normal 0.309017 -0.951056 0
    outer loop
      vertex -2.25 26.3971 1
      vertex -0.470378 26.9753 1
      vertex -2.25 26.3971 5
    endloop
  endfacet
  facet normal 0.669131 -0.743145 0
    outer loop
      vertex -2.25 26.3971 1
      vertex -2.25 26.3971 5
      vertex -3.64058 25.145 5
    endloop
  endfacet
  facet normal 0.669131 -0.743145 0
    outer loop
      vertex -3.64058 25.145 1
      vertex -2.25 26.3971 1
      vertex -3.64058 25.145 5
    endloop
  endfacet
  facet normal 0.913545 -0.406737 0
    outer loop
      vertex -3.64058 25.145 1
      vertex -3.64058 25.145 5
      vertex -4.40166 23.4356 5
    endloop
  endfacet
  facet normal 0.913545 -0.406737 0
    outer loop
      vertex -4.40166 23.4356 1
      vertex -3.64058 25.145 1
      vertex -4.40166 23.4356 5
    endloop
  endfacet
  facet normal 1 0 0
    outer loop
      vertex -4.40166 -21.5644 1
      vertex -4.40166 -21.5644 5
      vertex -4.40166 -23.4356 5
    endloop
  endfacet
  facet normal 1 0 0
    outer loop
      vertex -4.40166 -23.4356 1
      vertex -4.40166 -21.5644 1
      vertex -4.40166 -23.4356 5
    endloop
  endfacet
  facet normal 0.913545 0.406737 0
    outer loop
      vertex -4.40166 -23.4356 5
      vertex -3.64058 -25.145 5
      vertex -3.64058 -25.145 1
    endloop
  endfacet
  facet normal 0.913545 0.406737 0
    outer loop
      vertex -4.40166 -23.4356 1
      vertex -4.40166 -23.4356 5
      vertex -3.64058 -25.145 1
    endloop
  endfacet
  facet normal 0.669131 0.743145 0
    outer loop
      vertex -2.25 -26.3971 5
      vertex -2.25 -26.3971 1
      vertex -3.64058 -25.145 5
    endloop
  endfacet
  facet normal 0.669131 0.743145 0
    outer loop
      vertex -3.64058 -25.145 5
      vertex -2.25 -26.3971 1
      vertex -3.64058 -25.145 1
    endloop
  endfacet
  facet normal 0.309017 0.951056 0
    outer loop
      vertex -0.470378 -26.9753 5
      vertex -0.470378 -26.9753 1
      vertex -2.25 -26.3971 5
    endloop
  endfacet
  facet normal 0.309017 0.951056 0
    outer loop
      vertex -2.25 -26.3971 5
      vertex -0.470378 -26.9753 1
      vertex -2.25 -26.3971 1
    endloop
  endfacet
  facet normal -0.104529 0.994522 0
    outer loop
      vertex 1.39058 -26.7798 5
      vertex 1.39058 -26.7798 1
      vertex -0.470378 -26.9753 5
    endloop
  endfacet
  facet normal -0.104529 0.994522 0
    outer loop
      vertex -0.470378 -26.9753 5
      vertex 1.39058 -26.7798 1
      vertex -0.470378 -26.9753 1
    endloop
  endfacet
  facet normal -0.5 0.866026 0
    outer loop
      vertex 3.01109 -25.8442 5
      vertex 3.01109 -25.8442 1
      vertex 1.39058 -26.7798 5
    endloop
  endfacet
  facet normal -0.5 0.866026 0
    outer loop
      vertex 1.39058 -26.7798 5
      vertex 3.01109 -25.8442 1
      vertex 1.39058 -26.7798 1
    endloop
  endfacet
  facet normal -0.809017 0.587785 0
    outer loop
      vertex 4.11095 -24.3303 5
      vertex 4.11095 -24.3303 1
      vertex 3.01109 -25.8442 5
    endloop
  endfacet
  facet normal -0.809017 0.587785 0
    outer loop
      vertex 3.01109 -25.8442 5
      vertex 4.11095 -24.3303 1
      vertex 3.01109 -25.8442 1
    endloop
  endfacet
  facet normal -0.978148 0.207911 0
    outer loop
      vertex 4.5 -22.5 5
      vertex 4.5 -22.5 1
      vertex 4.11095 -24.3303 5
    endloop
  endfacet
  facet normal -0.978148 0.207911 0
    outer loop
      vertex 4.11095 -24.3303 5
      vertex 4.5 -22.5 1
      vertex 4.11095 -24.3303 1
    endloop
  endfacet
  facet normal -0.978148 -0.207911 0
    outer loop
      vertex 4.5 -22.5 5
      vertex 4.11095 -20.6697 5
      vertex 4.5 -22.5 1
    endloop
  endfacet
  facet normal -0.978148 -0.207911 0
    outer loop
      vertex 4.5 -22.5 1
      vertex 4.11095 -20.6697 5
      vertex 4.11095 -20.6697 1
    endloop
  endfacet
  facet normal -0.809017 -0.587785 0
    outer loop
      vertex 4.11095 -20.6697 5
      vertex 3.01109 -19.1558 5
      vertex 4.11095 -20.6697 1
    endloop
  endfacet
  facet normal -0.809017 -0.587785 0
    outer loop
      vertex 4.11095 -20.6697 1
      vertex 3.01109 -19.1558 5
      vertex 3.01109 -19.1558 1
    endloop
  endfacet
  facet normal -0.5 -0.866026 0
    outer loop
      vertex 3.01109 -19.1558 1
      vertex 3.01109 -19.1558 5
      vertex 1.39058 -18.2202 5
    endloop
  endfacet
  facet normal -0.5 -0.866026 0
    outer loop
      vertex 1.39058 -18.2202 1
      vertex 3.01109 -19.1558 1
      vertex 1.39058 -18.2202 5
    endloop
  endfacet
  facet normal -0.104529 -0.994522 0
    outer loop
      vertex 1.39058 -18.2202 1
      vertex 1.39058 -18.2202 5
      vertex -0.470378 -18.0247 5
    endloop
  endfacet
  facet normal -0.104529 -0.994522 0
    outer loop
      vertex -0.470378 -18.0247 1
      vertex 1.39058 -18.2202 1
      vertex -0.470378 -18.0247 5
    endloop
  endfacet
  facet normal 0.309017 -0.951056 0
    outer loop
      vertex -0.470378 -18.0247 1
      vertex -0.470378 -18.0247 5
      vertex -2.25 -18.6029 5
    endloop
  endfacet
  facet normal 0.309017 -0.951056 0
    outer loop
      vertex -2.25 -18.6029 1
      vertex -0.470378 -18.0247 1
      vertex -2.25 -18.6029 5
    endloop
  endfacet
  facet normal 0.669131 -0.743145 0
    outer loop
      vertex -2.25 -18.6029 1
      vertex -2.25 -18.6029 5
      vertex -3.64058 -19.855 5
    endloop
  endfacet
  facet normal 0.669131 -0.743145 0
    outer loop
      vertex -3.64058 -19.855 1
      vertex -2.25 -18.6029 1
      vertex -3.64058 -19.855 5
    endloop
  endfacet
  facet normal 0.913545 -0.406737 0
    outer loop
      vertex -3.64058 -19.855 1
      vertex -3.64058 -19.855 5
      vertex -4.40166 -21.5644 5
    endloop
  endfacet
  facet normal 0.913545 -0.406737 0
    outer loop
      vertex -4.40166 -21.5644 1
      vertex -3.64058 -19.855 1
      vertex -4.40166 -21.5644 5
    endloop
  endfacet
  facet normal 0 0 1
    outer loop
      vertex -3.64058 -25.145 1
      vertex -2.25 -26.3971 1
      vertex -0.470378 -26.9753 1
    endloop
  endfacet
  facet normal 0 0 1
    outer loop
      vertex 3.01109 -25.8442 1
      vertex -3.64058 -25.145 1
      vertex 1.39058 -26.7798 1
    endloop
  endfacet
  facet normal 0 0 1
    outer loop
      vertex 1.39058 -26.7798 1
      vertex -3.64058 -25.145 1
      vertex -0.470378 -26.9753 1
    endloop
  endfacet
  facet normal 0 0 1
    outer loop
      vertex -0.927051 -25.3532 1
      vertex -3.64058 -25.145 1
      vertex 3.01109 -25.8442 1
    endloop
  endfacet
  facet normal 0 0 1
    outer loop
      vertex 2.42705 -24.2634 1
      vertex 0.927051 -25.3532 1
      vertex 4.11095 -24.3303 1
    endloop
  endfacet
  facet normal 0 0 1
    outer loop
      vertex 3 -22.5 1
      vertex 2.42705 -24.2634 1
      vertex 4.5 -22.5 1
    endloop
  endfacet
  facet normal 0 0 1
    outer loop
      vertex -0.927051 -25.3532 1
      vertex -2.42705 -24.2634 1
      vertex -3.64058 -25.145 1
    endloop
  endfacet
  facet normal 0 0 1
    outer loop
      vertex 0.927051 -19.6468 1
      vertex 2.42705 -20.7366 1
      vertex 3.01109 -19.1558 1
    endloop
  endfacet
  facet normal 0 0 1
    outer loop
      vertex -3.64058 -19.855 1
      vertex -3.64058 -25.145 1
      vertex -2.25 -18.6029 1
    endloop
  endfacet
  facet normal 0 0 1
    outer loop
      vertex -4.40166 -21.5644 1
      vertex -3.64058 -25.145 1
      vertex -3.64058 -19.855 1
    endloop
  endfacet
  facet normal 0 0 1
    outer loop
      vertex -4.40166 -23.4356 1
      vertex -3.64058 -25.145 1
      vertex -4.40166 -21.5644 1
    endloop
  endfacet
  facet normal 0 0 1
    outer loop
      vertex -0.927051 -19.6468 1
      vertex 0.927051 -19.6468 1
      vertex 1.39058 -18.2202 1
    endloop
  endfacet
  facet normal 0 0 1
    outer loop
      vertex -2.25 -18.6029 1
      vertex -3.64058 -25.145 1
      vertex -3 -22.5 1
    endloop
  endfacet
  facet normal 0 0 1
    outer loop
      vertex -2.25 -18.6029 1
      vertex -2.42705 -20.7366 1
      vertex -0.470378 -18.0247 1
    endloop
  endfacet
  facet normal 0 0 1
    outer loop
      vertex -2.25 -18.6029 1
      vertex -3 -22.5 1
      vertex -2.42705 -20.7366 1
    endloop
  endfacet
  facet normal 0 0 1
    outer loop
      vertex -0.470378 -18.0247 1
      vertex -0.927051 -19.6468 1
      vertex 1.39058 -18.2202 1
    endloop
  endfacet
  facet normal 0 0 1
    outer loop
      vertex -2.42705 -20.7366 1
      vertex -0.927051 -19.6468 1
      vertex -0.470378 -18.0247 1
    endloop
  endfacet
  facet normal 0 0 1
    outer loop
      vertex 1.39058 -18.2202 1
      vertex 0.927051 -19.6468 1
      vertex 3.01109 -19.1558 1
    endloop
  endfacet
  facet normal 0 0 1
    outer loop
      vertex 3.01109 -19.1558 1
      vertex 2.42705 -20.7366 1
      vertex 4.11095 -20.6697 1
    endloop
  endfacet
  facet normal 0 0 1
    outer loop
      vertex 4.11095 -20.6697 1
      vertex 3 -22.5 1
      vertex 4.5 -22.5 1
    endloop
  endfacet
  facet normal 0 0 1
    outer loop
      vertex 4.5 -22.5 1
      vertex 2.42705 -24.2634 1
      vertex 4.11095 -24.3303 1
    endloop
  endfacet
  facet normal 0 0 1
    outer loop
      vertex 4.11095 -24.3303 1
      vertex 0.927051 -25.3532 1
      vertex 3.01109 -25.8442 1
    endloop
  endfacet
  facet normal 0 0 1
    outer loop
      vertex 0.927051 -25.3532 1
      vertex -0.927051 -25.3532 1
      vertex 3.01109 -25.8442 1
    endloop
  endfacet
  facet normal 0 0 1
    outer loop
      vertex 2.42705 -20.7366 1
      vertex 3 -22.5 1
      vertex 4.11095 -20.6697 1
    endloop
  endfacet
  facet normal 0 0 1
    outer loop
      vertex -2.42705 -24.2634 1
      vertex -3 -22.5 1
      vertex -3.64058 -25.145 1
    endloop
  endfacet
  facet normal 0 0 1
    outer loop
      vertex -3.64058 19.855 1
      vertex -2.25 18.6029 1
      vertex -0.470378 18.0247 1
    endloop
  endfacet
  facet normal 0 0 1
    outer loop
      vertex 3.01109 19.1558 1
      vertex -3.64058 19.855 1
      vertex 1.39058 18.2202 1
    endloop
  endfacet
  facet normal 0 0 1
    outer loop
      vertex 1.39058 18.2202 1
      vertex -3.64058 19.855 1
      vertex -0.470378 18.0247 1
    endloop
  endfacet
  facet normal 0 0 1
    outer loop
      vertex -0.927051 19.6468 1
      vertex -3.64058 19.855 1
      vertex 3.01109 19.1558 1
    endloop
  endfacet
  facet normal 0 0 1
    outer loop
      vertex 2.42705 20.7366 1
      vertex 0.927051 19.6468 1
      vertex 4.11095 20.6697 1
    endloop
  endfacet
  facet normal 0 0 1
    outer loop
      vertex 3 22.5 1
      vertex 2.42705 20.7366 1
      vertex 4.5 22.5 1
    endloop
  endfacet
  facet normal 0 0 1
    outer loop
      vertex -0.927051 19.6468 1
      vertex -2.42705 20.7366 1
      vertex -3.64058 19.855 1
    endloop
  endfacet
  facet normal 0 0 1
    outer loop
      vertex 0.927051 25.3532 1
      vertex 2.42705 24.2634 1
      vertex 3.01109 25.8442 1
    endloop
  endfacet
  facet normal 0 0 1
    outer loop
      vertex -3.64058 25.145 1
      vertex -3.64058 19.855 1
      vertex -2.25 26.3971 1
    endloop
  endfacet
  facet normal 0 0 1
    outer loop
      vertex -4.40166 23.4356 1
      vertex -3.64058 19.855 1
      vertex -3.64058 25.145 1
    endloop
  endfacet
  facet normal 0 0 1
    outer loop
      vertex -4.40166 21.5644 1
      vertex -3.64058 19.855 1
      vertex -4.40166 23.4356 1
    endloop
  endfacet
  facet normal 0 0 1
    outer loop
      vertex -0.927051 25.3532 1
      vertex 0.927051 25.3532 1
      vertex 1.39058 26.7798 1
    endloop
  endfacet
  facet normal 0 0 1
    outer loop
      vertex -2.25 26.3971 1
      vertex -3.64058 19.855 1
      vertex -3 22.5 1
    endloop
  endfacet
  facet normal 0 0 1
    outer loop
      vertex -2.25 26.3971 1
      vertex -2.42705 24.2634 1
      vertex -0.470378 26.9753 1
    endloop
  endfacet
  facet normal 0 0 1
    outer loop
      vertex -2.25 26.3971 1
      vertex -3 22.5 1
      vertex -2.42705 24.2634 1
    endloop
  endfacet
  facet normal 0 0 1
    outer loop
      vertex -0.470378 26.9753 1
      vertex -0.927051 25.3532 1
      vertex 1.39058 26.7798 1
    endloop
  endfacet
  facet normal 0 0 1
    outer loop
      vertex -2.42705 24.2634 1
      vertex -0.927051 25.3532 1
      vertex -0.470378 26.9753 1
    endloop
  endfacet
  facet normal 0 0 1
    outer loop
      vertex 1.39058 26.7798 1
      vertex 0.927051 25.3532 1
      vertex 3.01109 25.8442 1
    endloop
  endfacet
  facet normal 0 0 1
    outer loop
      vertex 3.01109 25.8442 1
      vertex 2.42705 24.2634 1
      vertex 4.11095 24.3303 1
    endloop
  endfacet
  facet normal 0 0 1
    outer loop
      vertex 4.11095 24.3303 1
      vertex 3 22.5 1
      vertex 4.5 22.5 1
    endloop
  endfacet
  facet normal 0 0 1
    outer loop
      vertex 4.5 22.5 1
      vertex 2.42705 20.7366 1
      vertex 4.11095 20.6697 1
    endloop
  endfacet
  facet normal 0 0 1
    outer loop
      vertex 4.11095 20.6697 1
      vertex 0.927051 19.6468 1
      vertex 3.01109 19.1558 1
    endloop
  endfacet
  facet normal 0 0 1
    outer loop
      vertex 0.927051 19.6468 1
      vertex -0.927051 19.6468 1
      vertex 3.01109 19.1558 1
    endloop
  endfacet
  facet normal 0 0 1
    outer loop
      vertex 2.42705 24.2634 1
      vertex 3 22.5 1
      vertex 4.11095 24.3303 1
    endloop
  endfacet
  facet normal 0 0 1
    outer loop
      vertex -2.42705 20.7366 1
      vertex -3 22.5 1
      vertex -3.64058 19.855 1
    endloop
  endfacet
endsolid OpenSCAD_Model
