  0
SECTION
  2
HEADER
  9
$ACADVER
  1
AC1009
  9
$EXTMAX
 10
220.0
 20
260.0
 30
0.0
  9
$EXTMIN
 10
0.0
 20
0.0
 30
0.0
  9
$INSUNITS
 70
     4
  9
$LUNITS
 70
     2
  9
$LUPREC
 70
     4
  9
$MEASUREMENT
 70
     1
  0
ENDSEC
  0
SECTION
  2
TABLES
  0
TABLE
  2
LAYER
 70
     1
  0
LAYER
  2
0
 70
     0
 62
     7
  6
Continuous
  0
LAYER
  2
Default
 70
     0
 62
    14
  6
Continuous
  0
ENDTAB
  0
TABLE
  2
APPID
 70
     1
  0
APPID
  2
ACAD
 70
     0
  0
ENDTAB
  0
ENDSEC
  0
SECTION
  2
ENTITIES
  0
POLYLINE
  8
Default
 66
     1
 10
0.0
 20
0.0
 30
0.0000000000011
 70
     9
  0
VERTEX
  8
Default
 10
82.0000000000005
 20
200.500000000001
 30
0.0000000000011
 42
0.0
  0
VERTEX
  8
Default
 10
82.0000000000006
 20
209.500000000001
 30
0.000000000001
 42
0.0
  0
VERTEX
  8
Default
 10
58.0000000000006
 20
209.500000000001
 30
0.0000000000011
 42
0.0
  0
VERTEX
  8
Default
 10
58.0000000000006
 20
200.500000000001
 30
0.0000000000011
 42
0.0
  0
SEQEND
  0
POLYLINE
  8
Default
 66
     1
 10
0.0
 20
0.0
 30
0.0000000000016
 70
     9
  0
VERTEX
  8
Default
 10
211.931851652578
 20
180.517638090205
 30
0.0000000000016
 42
0.0
  0
VERTEX
  8
Default
 10
211.732050807569
 20
181.0
 30
0.0000000000016
 42
0.0
  0
VERTEX
  8
Default
 10
211.414213562373
 20
181.414213562373
 30
0.0000000000015
 42
0.0
  0
VERTEX
  8
Default
 10
211.0
 20
181.732050807569
 30
0.0000000000015
 42
0.0
  0
VERTEX
  8
Default
 10
210.517638090205
 20
181.931851652578
 30
0.0000000000016
 42
0.0
  0
VERTEX
  8
Default
 10
210.0
 20
182.0
 30
0.0000000000015
 42
0.0
  0
VERTEX
  8
Default
 10
209.482361909795
 20
181.931851652578
 30
0.0000000000016
 42
0.0
  0
VERTEX
  8
Default
 10
209.0
 20
181.732050807569
 30
0.0000000000015
 42
0.0
  0
VERTEX
  8
Default
 10
208.585786437627
 20
181.414213562373
 30
0.0000000000015
 42
0.0
  0
VERTEX
  8
Default
 10
208.267949192431
 20
181.0
 30
0.0000000000016
 42
0.0
  0
VERTEX
  8
Default
 10
208.068148347422
 20
180.517638090205
 30
0.0000000000016
 42
0.0
  0
VERTEX
  8
Default
 10
208.0
 20
180.0
 30
0.0000000000015
 42
0.0
  0
VERTEX
  8
Default
 10
208.068148347422
 20
179.482361909795
 30
0.0000000000015
 42
0.0
  0
VERTEX
  8
Default
 10
208.267949192431
 20
179.0
 30
0.0000000000016
 42
0.0
  0
VERTEX
  8
Default
 10
208.585786437627
 20
178.585786437627
 30
0.0000000000015
 42
0.0
  0
VERTEX
  8
Default
 10
209.0
 20
178.267949192431
 30
0.0000000000016
 42
0.0
  0
VERTEX
  8
Default
 10
209.482361909795
 20
178.068148347422
 30
0.0000000000015
 42
0.0
  0
VERTEX
  8
Default
 10
210.0
 20
178.0
 30
0.0000000000016
 42
0.0
  0
VERTEX
  8
Default
 10
210.517638090205
 20
178.068148347422
 30
0.0000000000015
 42
0.0
  0
VERTEX
  8
Default
 10
211.0
 20
178.267949192431
 30
0.0000000000016
 42
0.0
  0
VERTEX
  8
Default
 10
211.414213562373
 20
178.585786437627
 30
0.0000000000015
 42
0.0
  0
VERTEX
  8
Default
 10
211.732050807569
 20
179.0
 30
0.0000000000016
 42
0.0
  0
VERTEX
  8
Default
 10
211.931851652578
 20
179.482361909795
 30
0.0000000000015
 42
0.0
  0
VERTEX
  8
Default
 10
212.0
 20
180.0
 30
0.0000000000015
 42
0.0
  0
SEQEND
  0
POLYLINE
  8
Default
 66
     1
 10
0.0
 20
0.0
 30
0.0000000000013
 70
     9
  0
VERTEX
  8
Default
 10
98.0000000000003
 20
59.5000000000001
 30
0.0000000000013
 42
0.0
  0
VERTEX
  8
Default
 10
98.0000000000003
 20
50.5000000000001
 30
0.0000000000013
 42
0.0
  0
VERTEX
  8
Default
 10
122.0
 20
50.5
 30
0.0000000000013
 42
0.0
  0
VERTEX
  8
Default
 10
122.0
 20
59.5
 30
0.0000000000012
 42
0.0
  0
SEQEND
  0
POLYLINE
  8
Default
 66
     1
 10
0.0
 20
0.0
 30
0.0000000000017
 70
     9
  0
VERTEX
  8
Default
 10
100.0
 20
157.0
 30
0.0000000000017
 42
0.0
  0
VERTEX
  8
Default
 10
99.9148145657231
 20
156.352952387244
 30
0.0000000000017
 42
0.0
  0
VERTEX
  8
Default
 10
99.6650635094616
 20
155.75
 30
0.0000000000017
 42
0.0
  0
VERTEX
  8
Default
 10
99.2677669529668
 20
155.232233047033
 30
0.0000000000016
 42
0.0
  0
VERTEX
  8
Default
 10
98.7500000000004
 20
154.834936490539
 30
0.0000000000017
 42
0.0
  0
VERTEX
  8
Default
 10
98.1470476127567
 20
154.585185434277
 30
0.0000000000016
 42
0.0
  0
VERTEX
  8
Default
 10
97.5000000000004
 20
154.5
 30
0.0000000000016
 42
0.0
  0
VERTEX
  8
Default
 10
96.8529523872442
 20
154.585185434277
 30
0.0000000000016
 42
0.0
  0
VERTEX
  8
Default
 10
96.2500000000004
 20
154.834936490539
 30
0.0000000000017
 42
0.0
  0
VERTEX
  8
Default
 10
95.7322330470341
 20
155.232233047033
 30
0.0000000000016
 42
0.0
  0
VERTEX
  8
Default
 10
95.3349364905393
 20
155.75
 30
0.0000000000017
 42
0.0
  0
VERTEX
  8
Default
 10
95.0851854342778
 20
156.352952387244
 30
0.0000000000017
 42
0.0
  0
VERTEX
  8
Default
 10
95.0000000000004
 20
157.0
 30
0.0000000000017
 42
0.0
  0
VERTEX
  8
Default
 10
95.0851854342778
 20
157.647047612756
 30
0.0000000000017
 42
0.0
  0
VERTEX
  8
Default
 10
95.3349364905394
 20
158.25
 30
0.0000000000017
 42
0.0
  0
VERTEX
  8
Default
 10
95.7322330470341
 20
158.767766952966
 30
0.0000000000017
 42
0.0
  0
VERTEX
  8
Default
 10
96.2500000000004
 20
159.165063509461
 30
0.0000000000016
 42
0.0
  0
VERTEX
  8
Default
 10
96.8529523872442
 20
159.414814565722
 30
0.0000000000016
 42
0.0
  0
VERTEX
  8
Default
 10
97.5000000000004
 20
159.5
 30
0.0000000000017
 42
0.0
  0
VERTEX
  8
Default
 10
98.1470476127568
 20
159.414814565722
 30
0.0000000000016
 42
0.0
  0
VERTEX
  8
Default
 10
98.7500000000004
 20
159.165063509461
 30
0.0000000000016
 42
0.0
  0
VERTEX
  8
Default
 10
99.2677669529668
 20
158.767766952966
 30
0.0000000000017
 42
0.0
  0
VERTEX
  8
Default
 10
99.6650635094616
 20
158.25
 30
0.0000000000017
 42
0.0
  0
VERTEX
  8
Default
 10
99.9148145657231
 20
157.647047612756
 30
0.0000000000017
 42
0.0
  0
SEQEND
  0
POLYLINE
  8
Default
 66
     1
 10
0.0
 20
0.0
 30
0.0000000000014
 70
     9
  0
VERTEX
  8
Default
 10
114.0
 20
44.5
 30
0.0000000000014
 42
0.0
  0
VERTEX
  8
Default
 10
114.0
 20
40.4999999999999
 30
0.0000000000013
 42
0.0
  0
VERTEX
  8
Default
 10
106.0
 20
40.4999999999999
 30
0.0000000000013
 42
0.0
  0
VERTEX
  8
Default
 10
106.0
 20
44.5
 30
0.0000000000014
 42
0.0
  0
SEQEND
  0
POLYLINE
  8
Default
 66
     1
 10
0.0
 20
0.0
 30
0.0000000000015
 70
     9
  0
VERTEX
  8
Default
 10
210.254259959481
 20
81.9837721323286
 30
0.0000000000015
 42
0.0
  0
VERTEX
  8
Default
 10
209.732158252464
 20
81.9819840560095
 30
0.0000000000016
 42
0.0
  0
VERTEX
  8
Default
 10
209.228309517911
 20
81.8451270416568
 30
0.0000000000016
 42
0.0
  0
VERTEX
  8
Default
 10
208.777050214435
 20
81.5825276686316
 30
0.0000000000016
 42
0.0
  0
VERTEX
  8
Default
 10
208.409132917824
 20
81.21208165024
 30
0.0000000000015
 42
0.0
  0
VERTEX
  8
Default
 10
208.149630583832
 20
80.7590342704439
 30
0.0000000000016
 42
0.0
  0
VERTEX
  8
Default
 10
208.016227867671
 20
80.2542599594806
 30
0.0000000000015
 42
0.0
  0
VERTEX
  8
Default
 10
208.01801594399
 20
79.7321582524632
 30
0.0000000000015
 42
0.0
  0
VERTEX
  8
Default
 10
208.154872958343
 20
79.228309517911
 30
0.0000000000014
 42
0.0
  0
VERTEX
  8
Default
 10
208.417472331368
 20
78.7770502144341
 30
0.0000000000015
 42
0.0
  0
VERTEX
  8
Default
 10
208.78791834976
 20
78.4091329178237
 30
0.0000000000016
 42
0.0
  0
VERTEX
  8
Default
 10
209.240965729556
 20
78.1496305838314
 30
0.0000000000015
 42
0.0
  0
VERTEX
  8
Default
 10
209.745740040519
 20
78.0162278676709
 30
0.0000000000015
 42
0.0
  0
VERTEX
  8
Default
 10
210.267841747537
 20
78.0180159439902
 30
0.0000000000016
 42
0.0
  0
VERTEX
  8
Default
 10
210.771690482089
 20
78.1548729583428
 30
0.0000000000015
 42
0.0
  0
VERTEX
  8
Default
 10
211.222949785566
 20
78.417472331368
 30
0.0000000000016
 42
0.0
  0
VERTEX
  8
Default
 10
211.590867082176
 20
78.7879183497596
 30
0.0000000000015
 42
0.0
  0
VERTEX
  8
Default
 10
211.850369416169
 20
79.2409657295557
 30
0.0000000000016
 42
0.0
  0
VERTEX
  8
Default
 10
211.983772132329
 20
79.7457400405191
 30
0.0000000000015
 42
0.0
  0
VERTEX
  8
Default
 10
211.98198405601
 20
80.2678417475363
 30
0.0000000000015
 42
0.0
  0
VERTEX
  8
Default
 10
211.845127041657
 20
80.7716904820888
 30
0.0000000000016
 42
0.0
  0
VERTEX
  8
Default
 10
211.582527668632
 20
81.2229497855653
 30
0.0000000000015
 42
0.0
  0
VERTEX
  8
Default
 10
211.21208165024
 20
81.5908670821759
 30
0.0000000000015
 42
0.0
  0
VERTEX
  8
Default
 10
210.759034270444
 20
81.8503694161683
 30
0.0000000000015
 42
0.0
  0
SEQEND
  0
POLYLINE
  8
Default
 66
     1
 10
0.0
 20
0.0
 30
0.0000000000009
 70
     9
  0
VERTEX
  8
Default
 10
138.0
 20
200.5
 30
0.0000000000009
 42
0.0
  0
VERTEX
  8
Default
 10
162.0
 20
200.5
 30
0.0000000000009
 42
0.0
  0
VERTEX
  8
Default
 10
162.0
 20
209.5
 30
0.0000000000009
 42
0.0
  0
VERTEX
  8
Default
 10
138.0
 20
209.5
 30
0.000000000001
 42
0.0
  0
SEQEND
  0
POLYLINE
  8
Default
 66
     1
 10
0.0
 20
0.0
 30
0.0000000000012
 70
     9
  0
VERTEX
  8
Default
 10
114.0
 20
69.5000000000001
 30
0.0000000000012
 42
0.0
  0
VERTEX
  8
Default
 10
106.0
 20
69.5000000000002
 30
0.0000000000012
 42
0.0
  0
VERTEX
  8
Default
 10
106.0
 20
65.5000000000002
 30
0.0000000000013
 42
0.0
  0
VERTEX
  8
Default
 10
114.0
 20
65.5000000000002
 30
0.0000000000013
 42
0.0
  0
SEQEND
  0
POLYLINE
  8
Default
 66
     1
 10
0.0
 20
0.0
 30
0.0000000000017
 70
     9
  0
VERTEX
  8
Default
 10
112.5
 20
167.0
 30
0.0000000000017
 42
0.0
  0
VERTEX
  8
Default
 10
112.414814565723
 20
166.352952387244
 30
0.0000000000017
 42
0.0
  0
VERTEX
  8
Default
 10
112.165063509461
 20
165.75
 30
0.0000000000016
 42
0.0
  0
VERTEX
  8
Default
 10
111.767766952967
 20
165.232233047033
 30
0.0000000000016
 42
0.0
  0
VERTEX
  8
Default
 10
111.25
 20
164.834936490539
 30
0.0000000000017
 42
0.0
  0
VERTEX
  8
Default
 10
110.647047612757
 20
164.585185434277
 30
0.0000000000016
 42
0.0
  0
VERTEX
  8
Default
 10
110.0
 20
164.5
 30
0.0000000000017
 42
0.0
  0
VERTEX
  8
Default
 10
109.352952387244
 20
164.585185434277
 30
0.0000000000016
 42
0.0
  0
VERTEX
  8
Default
 10
108.75
 20
164.834936490539
 30
0.0000000000017
 42
0.0
  0
VERTEX
  8
Default
 10
108.232233047034
 20
165.232233047033
 30
0.0000000000016
 42
0.0
  0
VERTEX
  8
Default
 10
107.834936490539
 20
165.75
 30
0.0000000000016
 42
0.0
  0
VERTEX
  8
Default
 10
107.585185434278
 20
166.352952387244
 30
0.0000000000017
 42
0.0
  0
VERTEX
  8
Default
 10
107.5
 20
167.0
 30
0.0000000000017
 42
0.0
  0
VERTEX
  8
Default
 10
107.585185434278
 20
167.647047612756
 30
0.0000000000018
 42
0.0
  0
VERTEX
  8
Default
 10
107.834936490539
 20
168.25
 30
0.0000000000016
 42
0.0
  0
VERTEX
  8
Default
 10
108.232233047034
 20
168.767766952966
 30
0.0000000000016
 42
0.0
  0
VERTEX
  8
Default
 10
108.75
 20
169.165063509461
 30
0.0000000000016
 42
0.0
  0
VERTEX
  8
Default
 10
109.352952387244
 20
169.414814565723
 30
0.0000000000018
 42
0.0
  0
VERTEX
  8
Default
 10
110.0
 20
169.5
 30
0.0000000000018
 42
0.0
  0
VERTEX
  8
Default
 10
110.647047612757
 20
169.414814565723
 30
0.0000000000018
 42
0.0
  0
VERTEX
  8
Default
 10
111.25
 20
169.165063509461
 30
0.0000000000016
 42
0.0
  0
VERTEX
  8
Default
 10
111.767766952967
 20
168.767766952966
 30
0.0000000000016
 42
0.0
  0
VERTEX
  8
Default
 10
112.165063509461
 20
168.25
 30
0.0000000000016
 42
0.0
  0
VERTEX
  8
Default
 10
112.414814565723
 20
167.647047612756
 30
0.0000000000017
 42
0.0
  0
SEQEND
  0
POLYLINE
  8
Default
 66
     1
 10
0.0
 20
0.0
 30
0.0000000000014
 70
     9
  0
VERTEX
  8
Default
 10
210.0
 20
67.9999999999997
 30
0.0000000000014
 42
0.0
  0
VERTEX
  8
Default
 10
210.517638090205
 20
68.0681483474214
 30
0.0000000000017
 42
0.0
  0
VERTEX
  8
Default
 10
211.0
 20
68.2679491924307
 30
0.0000000000016
 42
0.0
  0
VERTEX
  8
Default
 10
211.414213562373
 20
68.5857864376265
 30
0.0000000000015
 42
0.0
  0
VERTEX
  8
Default
 10
211.732050807569
 20
68.9999999999995
 30
0.0000000000015
 42
0.0
  0
VERTEX
  8
Default
 10
211.931851652578
 20
69.4823619097946
 30
0.0000000000015
 42
0.0
  0
VERTEX
  8
Default
 10
212.0
 20
69.9999999999997
 30
0.0000000000015
 42
0.0
  0
VERTEX
  8
Default
 10
211.931851652578
 20
70.5176380902048
 30
0.0000000000015
 42
0.0
  0
VERTEX
  8
Default
 10
211.732050807569
 20
70.9999999999997
 30
0.0000000000015
 42
0.0
  0
VERTEX
  8
Default
 10
211.414213562373
 20
71.4142135623728
 30
0.0000000000015
 42
0.0
  0
VERTEX
  8
Default
 10
211.0
 20
71.7320508075687
 30
0.0000000000015
 42
0.0
  0
VERTEX
  8
Default
 10
210.517638090205
 20
71.9318516525779
 30
0.0000000000015
 42
0.0
  0
VERTEX
  8
Default
 10
210.0
 20
71.9999999999999
 30
0.0000000000015
 42
0.0
  0
VERTEX
  8
Default
 10
209.482361909795
 20
71.9318516525779
 30
0.0000000000015
 42
0.0
  0
VERTEX
  8
Default
 10
209.0
 20
71.7320508075687
 30
0.0000000000015
 42
0.0
  0
VERTEX
  8
Default
 10
208.585786437627
 20
71.4142135623728
 30
0.0000000000015
 42
0.0
  0
VERTEX
  8
Default
 10
208.267949192431
 20
70.9999999999999
 30
0.0000000000015
 42
0.0
  0
VERTEX
  8
Default
 10
208.068148347422
 20
70.5176380902048
 30
0.0000000000015
 42
0.0
  0
VERTEX
  8
Default
 10
208.0
 20
69.9999999999997
 30
0.0000000000015
 42
0.0
  0
VERTEX
  8
Default
 10
208.068148347422
 20
69.4823619097946
 30
0.0000000000015
 42
0.0
  0
VERTEX
  8
Default
 10
208.267949192431
 20
68.9999999999997
 30
0.0000000000015
 42
0.0
  0
VERTEX
  8
Default
 10
208.585786437627
 20
68.5857864376265
 30
0.0000000000015
 42
0.0
  0
VERTEX
  8
Default
 10
209.0
 20
68.2679491924307
 30
0.0000000000016
 42
0.0
  0
VERTEX
  8
Default
 10
209.482361909795
 20
68.0681483474214
 30
0.0000000000017
 42
0.0
  0
SEQEND
  0
POLYLINE
  8
Default
 66
     1
 10
0.0
 20
0.0
 30
0.0000000000011
 70
     1
  0
VERTEX
  8
Default
 10
74.0000000000005
 20
194.5
 42
0.0
  0
VERTEX
  8
Default
 10
74.0000000000005
 20
190.5
 42
0.0
  0
VERTEX
  8
Default
 10
66.0000000000005
 20
190.5
 42
0.0
  0
VERTEX
  8
Default
 10
66.0000000000006
 20
194.5
 42
0.0
  0
SEQEND
  0
POLYLINE
  8
Default
 66
     1
 10
0.0
 20
0.0
 30
0.0000000000017
 70
     9
  0
VERTEX
  8
Default
 10
125.0
 20
157.0
 30
0.0000000000017
 42
0.0
  0
VERTEX
  8
Default
 10
124.914814565723
 20
156.352952387244
 30
0.0000000000016
 42
0.0
  0
VERTEX
  8
Default
 10
124.665063509462
 20
155.75
 30
0.0000000000017
 42
0.0
  0
VERTEX
  8
Default
 10
124.267766952967
 20
155.232233047033
 30
0.0000000000016
 42
0.0
  0
VERTEX
  8
Default
 10
123.75
 20
154.834936490539
 30
0.0000000000017
 42
0.0
  0
VERTEX
  8
Default
 10
123.147047612757
 20
154.585185434277
 30
0.0000000000016
 42
0.0
  0
VERTEX
  8
Default
 10
122.5
 20
154.5
 30
0.0000000000016
 42
0.0
  0
VERTEX
  8
Default
 10
121.852952387244
 20
154.585185434277
 30
0.0000000000016
 42
0.0
  0
VERTEX
  8
Default
 10
121.25
 20
154.834936490539
 30
0.0000000000017
 42
0.0
  0
VERTEX
  8
Default
 10
120.732233047034
 20
155.232233047033
 30
0.0000000000016
 42
0.0
  0
VERTEX
  8
Default
 10
120.334936490539
 20
155.75
 30
0.0000000000017
 42
0.0
  0
VERTEX
  8
Default
 10
120.085185434278
 20
156.352952387244
 30
0.0000000000016
 42
0.0
  0
VERTEX
  8
Default
 10
120.000000000001
 20
157.0
 30
0.0000000000016
 42
0.0
  0
VERTEX
  8
Default
 10
120.085185434278
 20
157.647047612756
 30
0.0000000000017
 42
0.0
  0
VERTEX
  8
Default
 10
120.334936490539
 20
158.25
 30
0.0000000000016
 42
0.0
  0
VERTEX
  8
Default
 10
120.732233047034
 20
158.767766952966
 30
0.0000000000017
 42
0.0
  0
VERTEX
  8
Default
 10
121.25
 20
159.165063509461
 30
0.0000000000016
 42
0.0
  0
VERTEX
  8
Default
 10
121.852952387244
 20
159.414814565722
 30
0.0000000000016
 42
0.0
  0
VERTEX
  8
Default
 10
122.5
 20
159.5
 30
0.0000000000017
 42
0.0
  0
VERTEX
  8
Default
 10
123.147047612757
 20
159.414814565722
 30
0.0000000000016
 42
0.0
  0
VERTEX
  8
Default
 10
123.75
 20
159.165063509461
 30
0.0000000000016
 42
0.0
  0
VERTEX
  8
Default
 10
124.267766952967
 20
158.767766952966
 30
0.0000000000017
 42
0.0
  0
VERTEX
  8
Default
 10
124.665063509462
 20
158.25
 30
0.0000000000016
 42
0.0
  0
VERTEX
  8
Default
 10
124.914814565723
 20
157.647047612756
 30
0.0000000000017
 42
0.0
  0
SEQEND
  0
POLYLINE
  8
Default
 66
     1
 10
0.0
 20
0.0
 30
0.0000000000019
 70
     9
  0
VERTEX
  8
Default
 10
25.0
 20
0.0000000000004
 30
0.0000000000019
 42
0.0
  0
VERTEX
  8
Default
 10
25.0000000000002
 20
19.9999999999999
 30
0.0000000000016
 42
0.0
  0
VERTEX
  8
Default
 10
195.0
 20
19.9999999999998
 30
0.0000000000014
 42
0.0
  0
VERTEX
  8
Default
 10
195.0
 20
0.0
 30
0.0000000000023
 42
0.0
  0
VERTEX
  8
Default
 10
220.0
 20
0.0
 30
0.0000000000023
 42
0.0
  0
VERTEX
  8
Default
 10
220.0
 20
89.9999999999999
 30
0.0000000000015
 42
0.0
  0
VERTEX
  8
Default
 10
180.0
 20
89.9999999999999
 30
0.0000000000016
 42
0.0
  0
VERTEX
  8
Default
 10
180.0
 20
170.0
 30
0.0000000000016
 42
0.0
  0
VERTEX
  8
Default
 10
220.0
 20
170.0
 30
0.0000000000015
 42
0.0
  0
VERTEX
  8
Default
 10
220.0
 20
240.000000000001
 30
0.0000000000007
 42
0.0
  0
VERTEX
  8
Default
 10
125.0
 20
240.000000000001
 30
0.0000000000008
 42
0.0
  0
VERTEX
  8
Default
 10
125.0
 20
260.0
 30
0.0
 42
0.0
  0
VERTEX
  8
Default
 10
95.0000000000006
 20
260.0
 30
0.0
 42
0.0
  0
VERTEX
  8
Default
 10
95.0000000000006
 20
240.000000000001
 30
0.0000000000007
 42
0.0
  0
VERTEX
  8
Default
 10
0.0000000000006
 20
240.000000000001
 30
0.0000000000009
 42
0.0
  0
VERTEX
  8
Default
 10
0.0000000000004
 20
170.0
 30
0.0000000000015
 42
0.0
  0
VERTEX
  8
Default
 10
40.0000000000004
 20
170.0
 30
0.0000000000014
 42
0.0
  0
VERTEX
  8
Default
 10
40.0000000000003
 20
90.0000000000002
 30
0.0000000000014
 42
0.0
  0
VERTEX
  8
Default
 10
0.0000000000003
 20
90.0000000000003
 30
0.0000000000015
 42
0.0
  0
VERTEX
  8
Default
 10
0.0
 20
0.0000000000004
 30
0.000000000002
 42
0.0
  0
SEQEND
  0
POLYLINE
  8
Default
 66
     1
 10
0.0
 20
0.0
 30
0.000000000001
 70
     9
  0
VERTEX
  8
Default
 10
154.000000000001
 20
219.500000000001
 30
0.000000000001
 42
0.0
  0
VERTEX
  8
Default
 10
146.000000000001
 20
219.500000000001
 30
0.000000000001
 42
0.0
  0
VERTEX
  8
Default
 10
146.000000000001
 20
215.5
 30
0.0000000000011
 42
0.0
  0
VERTEX
  8
Default
 10
154.000000000001
 20
215.5
 30
0.0000000000011
 42
0.0
  0
SEQEND
  0
POLYLINE
  8
Default
 66
     1
 10
0.0
 20
0.0
 30
0.0000000000017
 70
     9
  0
VERTEX
  8
Default
 10
11.7677669529665
 20
11.7677669529667
 30
0.0000000000017
 42
0.0
  0
VERTEX
  8
Default
 10
12.1650635094612
 20
11.2500000000004
 30
0.0000000000017
 42
0.0
  0
VERTEX
  8
Default
 10
12.4148145657228
 20
10.6470476127565
 30
0.0000000000016
 42
0.0
  0
VERTEX
  8
Default
 10
12.5000000000001
 20
10.0000000000003
 30
0.0000000000016
 42
0.0
  0
VERTEX
  8
Default
 10
12.4148145657228
 20
9.3529523872441
 30
0.0000000000015
 42
0.0
  0
VERTEX
  8
Default
 10
12.1650635094612
 20
8.7500000000005
 30
0.0000000000016
 42
0.0
  0
VERTEX
  8
Default
 10
11.7677669529665
 20
8.2322330470339
 30
0.0000000000017
 42
0.0
  0
VERTEX
  8
Default
 10
11.2500000000002
 20
7.8349364905391
 30
0.0000000000016
 42
0.0
  0
VERTEX
  8
Default
 10
10.6470476127564
 20
7.5851854342777
 30
0.0000000000017
 42
0.0
  0
VERTEX
  8
Default
 10
10.0000000000002
 20
7.5000000000004
 30
0.0000000000015
 42
0.0
  0
VERTEX
  8
Default
 10
9.3529523872438
 20
7.5851854342777
 30
0.0000000000017
 42
0.0
  0
VERTEX
  8
Default
 10
8.7500000000002
 20
7.8349364905391
 30
0.0000000000016
 42
0.0
  0
VERTEX
  8
Default
 10
8.2322330470338
 20
8.2322330470339
 30
0.0000000000017
 42
0.0
  0
VERTEX
  8
Default
 10
7.8349364905391
 20
8.7500000000003
 30
0.0000000000017
 42
0.0
  0
VERTEX
  8
Default
 10
7.5851854342775
 20
9.3529523872441
 30
0.0000000000015
 42
0.0
  0
VERTEX
  8
Default
 10
7.5000000000002
 20
10.0000000000003
 30
0.0000000000017
 42
0.0
  0
VERTEX
  8
Default
 10
7.5851854342775
 20
10.6470476127565
 30
0.0000000000016
 42
0.0
  0
VERTEX
  8
Default
 10
7.8349364905391
 20
11.2500000000002
 30
0.0000000000016
 42
0.0
  0
VERTEX
  8
Default
 10
8.2322330470338
 20
11.7677669529667
 30
0.0000000000016
 42
0.0
  0
VERTEX
  8
Default
 10
8.7500000000002
 20
12.1650635094613
 30
0.0000000000016
 42
0.0
  0
VERTEX
  8
Default
 10
9.3529523872439
 20
12.414814565723
 30
0.0000000000017
 42
0.0
  0
VERTEX
  8
Default
 10
10.0000000000002
 20
12.5000000000004
 30
0.0000000000015
 42
0.0
  0
VERTEX
  8
Default
 10
10.6470476127564
 20
12.414814565723
 30
0.0000000000017
 42
0.0
  0
VERTEX
  8
Default
 10
11.2500000000002
 20
12.1650635094613
 30
0.0000000000016
 42
0.0
  0
SEQEND
  0
POLYLINE
  8
Default
 66
     1
 10
0.0
 20
0.0
 30
0.000000000001
 70
     1
  0
VERTEX
  8
Default
 10
146.000000000001
 20
194.5
 42
0.0
  0
VERTEX
  8
Default
 10
154.0
 20
194.5
 42
0.0
  0
VERTEX
  8
Default
 10
154.0
 20
190.5
 42
0.0
  0
VERTEX
  8
Default
 10
146.0
 20
190.5
 42
0.0
  0
SEQEND
  0
POLYLINE
  8
Default
 66
     1
 10
0.0
 20
0.0
 30
0.0000000000015
 70
     9
  0
VERTEX
  8
Default
 10
11.9990759930615
 20
80.0607879426024
 30
0.0000000000015
 42
0.0
  0
VERTEX
  8
Default
 10
11.9152260531545
 20
80.576115583298
 30
0.0000000000015
 42
0.0
  0
VERTEX
  8
Default
 10
11.7008566227858
 20
81.0521818990682
 30
0.0000000000015
 42
0.0
  0
VERTEX
  8
Default
 10
11.3705766243726
 20
81.4565437572295
 30
0.0000000000016
 42
0.0
  0
VERTEX
  8
Default
 10
10.9468940939935
 20
81.761644565388
 30
0.0000000000014
 42
0.0
  0
VERTEX
  8
Default
 10
10.4586822959252
 20
81.9466922076706
 30
0.0000000000015
 42
0.0
  0
VERTEX
  8
Default
 10
9.9392120573979
 20
81.9990759930615
 30
0.0000000000015
 42
0.0
  0
VERTEX
  8
Default
 10
9.4238844167022
 20
81.9152260531545
 30
0.0000000000015
 42
0.0
  0
VERTEX
  8
Default
 10
8.9478181009322
 20
81.7008566227856
 30
0.0000000000015
 42
0.0
  0
VERTEX
  8
Default
 10
8.5434562427709
 20
81.3705766243726
 30
0.0000000000015
 42
0.0
  0
VERTEX
  8
Default
 10
8.2383554346124
 20
80.9468940939934
 30
0.0000000000015
 42
0.0
  0
VERTEX
  8
Default
 10
8.0533077923298
 20
80.4586822959251
 30
0.0000000000014
 42
0.0
  0
VERTEX
  8
Default
 10
8.0009240069389
 20
79.9392120573979
 30
0.0000000000016
 42
0.0
  0
VERTEX
  8
Default
 10
8.0847739468459
 20
79.4238844167021
 30
0.0000000000015
 42
0.0
  0
VERTEX
  8
Default
 10
8.2991433772146
 20
78.9478181009322
 30
0.0000000000016
 42
0.0
  0
VERTEX
  8
Default
 10
8.6294233756278
 20
78.5434562427707
 30
0.0000000000015
 42
0.0
  0
VERTEX
  8
Default
 10
9.0531059060069
 20
78.2383554346123
 30
0.0000000000015
 42
0.0
  0
VERTEX
  8
Default
 10
9.5413177040752
 20
78.0533077923298
 30
0.0000000000016
 42
0.0
  0
VERTEX
  8
Default
 10
10.0607879426025
 20
78.0009240069388
 30
0.0000000000014
 42
0.0
  0
VERTEX
  8
Default
 10
10.5761155832982
 20
78.0847739468456
 30
0.0000000000015
 42
0.0
  0
VERTEX
  8
Default
 10
11.0521818990682
 20
78.2991433772144
 30
0.0000000000014
 42
0.0
  0
VERTEX
  8
Default
 10
11.4565437572295
 20
78.6294233756277
 30
0.0000000000015
 42
0.0
  0
VERTEX
  8
Default
 10
11.7616445653881
 20
79.0531059060068
 30
0.0000000000015
 42
0.0
  0
VERTEX
  8
Default
 10
11.9466922076707
 20
79.5413177040752
 30
0.0000000000015
 42
0.0
  0
SEQEND
  0
POLYLINE
  8
Default
 66
     1
 10
0.0
 20
0.0
 30
0.0000000000012
 70
     9
  0
VERTEX
  8
Default
 10
74.0000000000006
 20
215.500000000001
 30
0.0000000000012
 42
0.0
  0
VERTEX
  8
Default
 10
74.0000000000006
 20
219.500000000001
 30
0.0000000000011
 42
0.0
  0
VERTEX
  8
Default
 10
66.0000000000006
 20
219.500000000001
 30
0.0000000000011
 42
0.0
  0
VERTEX
  8
Default
 10
66.0000000000006
 20
215.500000000001
 30
0.0000000000012
 42
0.0
  0
SEQEND
  0
POLYLINE
  8
Default
 66
     1
 10
0.0
 20
0.0
 30
0.0000000000015
 70
     9
  0
VERTEX
  8
Default
 10
8.4256594359753
 20
68.7665285619578
 30
0.0000000000015
 42
0.0
  0
VERTEX
  8
Default
 10
8.7985496895894
 20
68.4010887605581
 30
0.0000000000015
 42
0.0
  0
VERTEX
  8
Default
 10
9.2533167963675
 20
68.1446121178003
 30
0.0000000000015
 42
0.0
  0
VERTEX
  8
Default
 10
9.7589691295208
 20
68.0145770930414
 30
0.0000000000015
 42
0.0
  0
VERTEX
  8
Default
 10
10.2810473181749
 20
68.019845358325
 30
0.0000000000015
 42
0.0
  0
VERTEX
  8
Default
 10
10.783972596548
 20
68.1600578900786
 30
0.0000000000015
 42
0.0
  0
VERTEX
  8
Default
 10
11.2334714380424
 20
68.4256594359752
 30
0.0000000000015
 42
0.0
  0
VERTEX
  8
Default
 10
11.5989112394422
 20
68.7985496895893
 30
0.0000000000015
 42
0.0
  0
VERTEX
  8
Default
 10
11.8553878821997
 20
69.2533167963674
 30
0.0000000000016
 42
0.0
  0
VERTEX
  8
Default
 10
11.9854229069588
 20
69.7589691295206
 30
0.0000000000015
 42
0.0
  0
VERTEX
  8
Default
 10
11.9801546416751
 20
70.2810473181748
 30
0.0000000000016
 42
0.0
  0
VERTEX
  8
Default
 10
11.8399421099216
 20
70.7839725965478
 30
0.0000000000015
 42
0.0
  0
VERTEX
  8
Default
 10
11.574340564025
 20
71.2334714380422
 30
0.0000000000017
 42
0.0
  0
VERTEX
  8
Default
 10
11.201450310411
 20
71.5989112394421
 30
0.0000000000017
 42
0.0
  0
VERTEX
  8
Default
 10
10.7466832036329
 20
71.8553878821997
 30
0.0000000000015
 42
0.0
  0
VERTEX
  8
Default
 10
10.2410308704796
 20
71.9854229069586
 30
0.0000000000016
 42
0.0
  0
VERTEX
  8
Default
 10
9.7189526818255
 20
71.9801546416751
 30
0.0000000000015
 42
0.0
  0
VERTEX
  8
Default
 10
9.2160274034523
 20
71.8399421099214
 30
0.0000000000016
 42
0.0
  0
VERTEX
  8
Default
 10
8.766528561958
 20
71.574340564025
 30
0.0000000000015
 42
0.0
  0
VERTEX
  8
Default
 10
8.4010887605582
 20
71.2014503104108
 30
0.0000000000015
 42
0.0
  0
VERTEX
  8
Default
 10
8.1446121178006
 20
70.7466832036327
 30
0.0000000000014
 42
0.0
  0
VERTEX
  8
Default
 10
8.0145770930416
 20
70.2410308704795
 30
0.0000000000015
 42
0.0
  0
VERTEX
  8
Default
 10
8.0198453583252
 20
69.7189526818253
 30
0.0000000000015
 42
0.0
  0
VERTEX
  8
Default
 10
8.1600578900788
 20
69.216027403452
 30
0.0000000000015
 42
0.0
  0
SEQEND
  0
POLYLINE
  8
Default
 66
     1
 10
0.0
 20
0.0
 30
0.0000000000014
 70
     9
  0
VERTEX
  8
Default
 10
9.4823619097954
 20
191.931851652578
 30
0.0000000000014
 42
0.0
  0
VERTEX
  8
Default
 10
9.0000000000004
 20
191.732050807569
 30
0.0000000000014
 42
0.0
  0
VERTEX
  8
Default
 10
8.5857864376273
 20
191.414213562373
 30
0.0000000000014
 42
0.0
  0
VERTEX
  8
Default
 10
8.2679491924316
 20
191.0
 30
0.0000000000014
 42
0.0
  0
VERTEX
  8
Default
 10
8.0681483474223
 20
190.517638090205
 30
0.0000000000014
 42
0.0
  0
VERTEX
  8
Default
 10
8.0000000000004
 20
190.0
 30
0.0000000000014
 42
0.0
  0
VERTEX
  8
Default
 10
8.0681483474223
 20
189.482361909795
 30
0.0000000000015
 42
0.0
  0
VERTEX
  8
Default
 10
8.2679491924316
 20
189.0
 30
0.0000000000014
 42
0.0
  0
VERTEX
  8
Default
 10
8.5857864376273
 20
188.585786437627
 30
0.0000000000014
 42
0.0
  0
VERTEX
  8
Default
 10
9.0000000000004
 20
188.267949192431
 30
0.0000000000014
 42
0.0
  0
VERTEX
  8
Default
 10
9.4823619097954
 20
188.068148347422
 30
0.0000000000014
 42
0.0
  0
VERTEX
  8
Default
 10
10.0000000000004
 20
188.0
 30
0.0000000000015
 42
0.0
  0
VERTEX
  8
Default
 10
10.5176380902054
 20
188.068148347422
 30
0.0000000000014
 42
0.0
  0
VERTEX
  8
Default
 10
11.0000000000004
 20
188.267949192431
 30
0.0000000000014
 42
0.0
  0
VERTEX
  8
Default
 10
11.4142135623735
 20
188.585786437627
 30
0.0000000000014
 42
0.0
  0
VERTEX
  8
Default
 10
11.7320508075693
 20
189.0
 30
0.0000000000014
 42
0.0
  0
VERTEX
  8
Default
 10
11.9318516525785
 20
189.482361909795
 30
0.0000000000015
 42
0.0
  0
VERTEX
  8
Default
 10
12.0000000000004
 20
190.0
 30
0.0000000000014
 42
0.0
  0
VERTEX
  8
Default
 10
11.9318516525785
 20
190.517638090205
 30
0.0000000000014
 42
0.0
  0
VERTEX
  8
Default
 10
11.7320508075693
 20
191.0
 30
0.0000000000014
 42
0.0
  0
VERTEX
  8
Default
 10
11.4142135623735
 20
191.414213562373
 30
0.0000000000014
 42
0.0
  0
VERTEX
  8
Default
 10
11.0000000000004
 20
191.732050807569
 30
0.0000000000014
 42
0.0
  0
VERTEX
  8
Default
 10
10.5176380902055
 20
191.931851652578
 30
0.0000000000014
 42
0.0
  0
VERTEX
  8
Default
 10
10.0000000000004
 20
192.0
 30
0.0000000000014
 42
0.0
  0
SEQEND
  0
POLYLINE
  8
Default
 66
     1
 10
0.0
 20
0.0
 30
0.0000000000014
 70
     9
  0
VERTEX
  8
Default
 10
8.0176696474521
 20
179.734733391914
 30
0.0000000000014
 42
0.0
  0
VERTEX
  8
Default
 10
8.1538719664396
 20
179.230707283474
 30
0.0000000000014
 42
0.0
  0
VERTEX
  8
Default
 10
8.4158848600435
 20
178.779107202348
 30
0.0000000000015
 42
0.0
  0
VERTEX
  8
Default
 10
8.7858525825614
 20
178.410708947762
 30
0.0000000000014
 42
0.0
  0
VERTEX
  8
Default
 10
9.2385624451043
 20
178.150618251957
 30
0.0000000000014
 42
0.0
  0
VERTEX
  8
Default
 10
9.7431630186783
 20
178.016559866035
 30
0.0000000000014
 42
0.0
  0
VERTEX
  8
Default
 10
10.2652666080862
 20
178.017669647452
 30
0.0000000000014
 42
0.0
  0
VERTEX
  8
Default
 10
10.7692927165269
 20
178.153871966439
 30
0.0000000000014
 42
0.0
  0
VERTEX
  8
Default
 10
11.2208927976526
 20
178.415884860043
 30
0.0000000000014
 42
0.0
  0
VERTEX
  8
Default
 10
11.5892910522391
 20
178.785852582561
 30
0.0000000000015
 42
0.0
  0
VERTEX
  8
Default
 10
11.8493817480432
 20
179.238562445104
 30
0.0000000000014
 42
0.0
  0
VERTEX
  8
Default
 10
11.9834401339659
 20
179.743163018678
 30
0.0000000000015
 42
0.0
  0
VERTEX
  8
Default
 10
11.9823303525488
 20
180.265266608086
 30
0.0000000000014
 42
0.0
  0
VERTEX
  8
Default
 10
11.8461280335612
 20
180.769292716527
 30
0.0000000000013
 42
0.0
  0
VERTEX
  8
Default
 10
11.5841151399573
 20
181.220892797652
 30
0.0000000000015
 42
0.0
  0
VERTEX
  8
Default
 10
11.2141474174394
 20
181.589291052239
 30
0.0000000000014
 42
0.0
  0
VERTEX
  8
Default
 10
10.7614375548965
 20
181.849381748043
 30
0.0000000000014
 42
0.0
  0
VERTEX
  8
Default
 10
10.2568369813225
 20
181.983440133966
 30
0.0000000000014
 42
0.0
  0
VERTEX
  8
Default
 10
9.7347333919146
 20
181.982330352549
 30
0.0000000000015
 42
0.0
  0
VERTEX
  8
Default
 10
9.2307072834739
 20
181.846128033561
 30
0.0000000000014
 42
0.0
  0
VERTEX
  8
Default
 10
8.7791072023482
 20
181.584115139957
 30
0.0000000000015
 42
0.0
  0
VERTEX
  8
Default
 10
8.4107089477617
 20
181.214147417439
 30
0.0000000000015
 42
0.0
  0
VERTEX
  8
Default
 10
8.1506182519576
 20
180.761437554896
 30
0.0000000000014
 42
0.0
  0
VERTEX
  8
Default
 10
8.0165598660349
 20
180.256836981322
 30
0.0000000000014
 42
0.0
  0
SEQEND
  0
POLYLINE
  8
Default
 66
     1
 10
0.0
 20
0.0
 30
0.0000000000008
 70
     9
  0
VERTEX
  8
Default
 10
110.647047612757
 20
247.585185434278
 30
0.0000000000008
 42
0.0
  0
VERTEX
  8
Default
 10
111.25
 20
247.834936490539
 30
0.0000000000011
 42
0.0
  0
VERTEX
  8
Default
 10
111.767766952967
 20
248.232233047034
 30
0.0000000000012
 42
0.0
  0
VERTEX
  8
Default
 10
112.165063509462
 20
248.750000000001
 30
0.0000000000012
 42
0.0
  0
VERTEX
  8
Default
 10
112.414814565723
 20
249.352952387244
 30
0.000000000001
 42
0.0
  0
VERTEX
  8
Default
 10
112.500000000001
 20
250.000000000001
 30
0.0000000000012
 42
0.0
  0
VERTEX
  8
Default
 10
112.414814565723
 20
250.647047612757
 30
0.0000000000009
 42
0.0
  0
VERTEX
  8
Default
 10
112.165063509462
 20
251.250000000001
 30
0.0000000000012
 42
0.0
  0
VERTEX
  8
Default
 10
111.767766952967
 20
251.767766952967
 30
0.0000000000012
 42
0.0
  0
VERTEX
  8
Default
 10
111.250000000001
 20
252.165063509462
 30
0.000000000001
 42
0.0
  0
VERTEX
  8
Default
 10
110.647047612757
 20
252.414814565723
 30
0.0000000000011
 42
0.0
  0
VERTEX
  8
Default
 10
110.000000000001
 20
252.500000000001
 30
0.0000000000011
 42
0.0
  0
VERTEX
  8
Default
 10
109.352952387244
 20
252.414814565723
 30
0.0000000000011
 42
0.0
  0
VERTEX
  8
Default
 10
108.750000000001
 20
252.165063509462
 30
0.000000000001
 42
0.0
  0
VERTEX
  8
Default
 10
108.232233047034
 20
251.767766952967
 30
0.0000000000012
 42
0.0
  0
VERTEX
  8
Default
 10
107.834936490539
 20
251.250000000001
 30
0.0000000000012
 42
0.0
  0
VERTEX
  8
Default
 10
107.585185434278
 20
250.647047612757
 30
0.0000000000009
 42
0.0
  0
VERTEX
  8
Default
 10
107.5
 20
250.000000000001
 30
0.0000000000012
 42
0.0
  0
VERTEX
  8
Default
 10
107.585185434278
 20
249.352952387244
 30
0.000000000001
 42
0.0
  0
VERTEX
  8
Default
 10
107.834936490539
 20
248.750000000001
 30
0.0000000000012
 42
0.0
  0
VERTEX
  8
Default
 10
108.232233047034
 20
248.232233047034
 30
0.0000000000012
 42
0.0
  0
VERTEX
  8
Default
 10
108.75
 20
247.834936490539
 30
0.0000000000011
 42
0.0
  0
VERTEX
  8
Default
 10
109.352952387244
 20
247.585185434278
 30
0.0000000000008
 42
0.0
  0
VERTEX
  8
Default
 10
110.000000000001
 20
247.500000000001
 30
0.000000000001
 42
0.0
  0
SEQEND
  0
POLYLINE
  8
Default
 66
     1
 10
0.0
 20
0.0
 30
0.0000000000016
 70
     9
  0
VERTEX
  8
Default
 10
208.267949192431
 20
189.0
 30
0.0000000000016
 42
0.0
  0
VERTEX
  8
Default
 10
208.585786437627
 20
188.585786437627
 30
0.0000000000015
 42
0.0
  0
VERTEX
  8
Default
 10
209.0
 20
188.267949192431
 30
0.0000000000015
 42
0.0
  0
VERTEX
  8
Default
 10
209.482361909795
 20
188.068148347422
 30
0.0000000000015
 42
0.0
  0
VERTEX
  8
Default
 10
210.0
 20
188.0
 30
0.0000000000016
 42
0.0
  0
VERTEX
  8
Default
 10
210.517638090205
 20
188.068148347422
 30
0.0000000000015
 42
0.0
  0
VERTEX
  8
Default
 10
211.0
 20
188.267949192431
 30
0.0000000000015
 42
0.0
  0
VERTEX
  8
Default
 10
211.414213562373
 20
188.585786437627
 30
0.0000000000015
 42
0.0
  0
VERTEX
  8
Default
 10
211.732050807569
 20
189.0
 30
0.0000000000015
 42
0.0
  0
VERTEX
  8
Default
 10
211.931851652578
 20
189.482361909795
 30
0.0000000000016
 42
0.0
  0
VERTEX
  8
Default
 10
212.0
 20
190.0
 30
0.0000000000015
 42
0.0
  0
VERTEX
  8
Default
 10
211.931851652578
 20
190.517638090205
 30
0.0000000000015
 42
0.0
  0
VERTEX
  8
Default
 10
211.732050807569
 20
191.0
 30
0.0000000000015
 42
0.0
  0
VERTEX
  8
Default
 10
211.414213562373
 20
191.414213562373
 30
0.0000000000015
 42
0.0
  0
VERTEX
  8
Default
 10
211.0
 20
191.732050807569
 30
0.0000000000015
 42
0.0
  0
VERTEX
  8
Default
 10
210.517638090205
 20
191.931851652578
 30
0.0000000000016
 42
0.0
  0
VERTEX
  8
Default
 10
210.0
 20
192.0
 30
0.0000000000015
 42
0.0
  0
VERTEX
  8
Default
 10
209.482361909795
 20
191.931851652578
 30
0.0000000000016
 42
0.0
  0
VERTEX
  8
Default
 10
209.0
 20
191.732050807569
 30
0.0000000000015
 42
0.0
  0
VERTEX
  8
Default
 10
208.585786437627
 20
191.414213562373
 30
0.0000000000015
 42
0.0
  0
VERTEX
  8
Default
 10
208.267949192431
 20
191.0
 30
0.0000000000015
 42
0.0
  0
VERTEX
  8
Default
 10
208.068148347422
 20
190.517638090205
 30
0.0000000000016
 42
0.0
  0
VERTEX
  8
Default
 10
208.0
 20
190.0
 30
0.0000000000015
 42
0.0
  0
VERTEX
  8
Default
 10
208.068148347422
 20
189.482361909795
 30
0.0000000000016
 42
0.0
  0
SEQEND
  0
POLYLINE
  8
Default
 66
     1
 10
0.0
 20
0.0
 30
0.0000000000017
 70
     9
  0
VERTEX
  8
Default
 10
210.0
 20
7.4999999999998
 30
0.0000000000017
 42
0.0
  0
VERTEX
  8
Default
 10
210.647047612756
 20
7.5851854342771
 30
0.0000000000018
 42
0.0
  0
VERTEX
  8
Default
 10
211.25
 20
7.8349364905387
 30
0.0000000000018
 42
0.0
  0
VERTEX
  8
Default
 10
211.767766952966
 20
8.2322330470333
 30
0.0000000000019
 42
0.0
  0
VERTEX
  8
Default
 10
212.165063509461
 20
8.7499999999997
 30
0.0000000000017
 42
0.0
  0
VERTEX
  8
Default
 10
212.414814565723
 20
9.3529523872435
 30
0.0000000000016
 42
0.0
  0
VERTEX
  8
Default
 10
212.5
 20
9.9999999999998
 30
0.0000000000017
 42
0.0
  0
VERTEX
  8
Default
 10
212.414814565723
 20
10.647047612756
 30
0.0000000000017
 42
0.0
  0
VERTEX
  8
Default
 10
212.165063509461
 20
11.2499999999997
 30
0.0000000000017
 42
0.0
  0
VERTEX
  8
Default
 10
211.767766952966
 20
11.7677669529662
 30
0.0000000000017
 42
0.0
  0
VERTEX
  8
Default
 10
211.25
 20
12.1650635094608
 30
0.0000000000018
 42
0.0
  0
VERTEX
  8
Default
 10
210.647047612756
 20
12.4148145657224
 30
0.0000000000018
 42
0.0
  0
VERTEX
  8
Default
 10
210.0
 20
12.4999999999999
 30
0.0000000000017
 42
0.0
  0
VERTEX
  8
Default
 10
209.352952387244
 20
12.4148145657224
 30
0.0000000000018
 42
0.0
  0
VERTEX
  8
Default
 10
208.75
 20
12.1650635094609
 30
0.0000000000017
 42
0.0
  0
VERTEX
  8
Default
 10
208.232233047034
 20
11.7677669529662
 30
0.0000000000017
 42
0.0
  0
VERTEX
  8
Default
 10
207.834936490539
 20
11.2499999999999
 30
0.0000000000017
 42
0.0
  0
VERTEX
  8
Default
 10
207.585185434277
 20
10.647047612756
 30
0.0000000000017
 42
0.0
  0
VERTEX
  8
Default
 10
207.5
 20
9.9999999999998
 30
0.0000000000017
 42
0.0
  0
VERTEX
  8
Default
 10
207.585185434277
 20
9.3529523872435
 30
0.0000000000016
 42
0.0
  0
VERTEX
  8
Default
 10
207.834936490539
 20
8.7499999999999
 30
0.0000000000018
 42
0.0
  0
VERTEX
  8
Default
 10
208.232233047034
 20
8.2322330470333
 30
0.0000000000019
 42
0.0
  0
VERTEX
  8
Default
 10
208.75
 20
7.8349364905387
 30
0.0000000000018
 42
0.0
  0
VERTEX
  8
Default
 10
209.352952387244
 20
7.5851854342771
 30
0.0000000000018
 42
0.0
  0
SEQEND
  0
ENDSEC
  0
EOF
